<svg xmlns="http://www.w3.org/2000/svg" xmlns:xlink="http://www.w3.org/1999/xlink" width="308.717" height="296.804" viewBox="0 0 308.717 296.804"><defs><style>.a{fill:#e5e5e5;}.b{fill:#def1ff;}.c{clip-path:url(#a);}.d{fill:#b3d1ff;}.e{fill:#ff9880;}.f{fill:#5e382f;}.g{fill:#ff8b70;}.h{fill:#7d4a3e;}.i{fill:#f5856b;}.j{fill:#57a0ff;}.k{fill:#338cff;}.l{fill:#e3d8cc;}.m{fill:#9e4f00;}.n{fill:#e3e3e3;}.o{fill:#bd5f00;}.p{fill:#ffce8f;}.q{fill:#9e5000;}.r{fill:#ba5e00;}.s{fill:#7957ff;}.t{fill:#233940;}</style><clipPath id="a"><ellipse class="a" cx="141.5" cy="142.5" rx="141.5" ry="142.5" transform="translate(0.189 -0.474)"/></clipPath></defs><g transform="translate(-805.357 -6917.022)"><path class="b" d="M141.712,290.084a147.7,147.7,0,0,1-28.56-2.773,142.869,142.869,0,0,1-26.6-8,139.407,139.407,0,0,1-45.045-29.8,138.48,138.48,0,0,1-30.37-45.029,142.54,142.54,0,0,1-8.257-27.04A150.261,150.261,0,0,1,0,148.015a158.795,158.795,0,0,1,2.557-28.242,163.627,163.627,0,0,1,19-52.084A155.2,155.2,0,0,1,37.039,45.426,141.374,141.374,0,0,1,55.855,26.737,125.388,125.388,0,0,1,77.528,12.409a112.1,112.1,0,0,1,24.043-9.175A105.893,105.893,0,0,1,127.5,0a108.13,108.13,0,0,1,14.211.947,242.745,242.745,0,0,1,27.974,5.331,181.592,181.592,0,0,1,25.371,8.436,142.44,142.44,0,0,1,22.492,11.853,121.948,121.948,0,0,1,19.334,15.583,118.646,118.646,0,0,1,15.9,19.624A133.093,133.093,0,0,1,264.97,85.752a168.637,168.637,0,0,1,8.2,28.642,231.611,231.611,0,0,1,3.931,33.62c.911,15.389-2.472,32.684-9.781,50.014a163.6,163.6,0,0,1-31.491,48.007,157.61,157.61,0,0,1-19.719,17.71,140.556,140.556,0,0,1-22.564,13.938,123.443,123.443,0,0,1-24.95,9.126A113.015,113.015,0,0,1,141.712,290.084ZM134.75,8.192c-54.76,0-98.267,54.292-111.4,105.368C9.274,168.3,23.092,211.793,69.554,258.992c14.8,15.031,34.944,22.653,59.883,22.654h.006c23.608,0,45.73-6.815,60.131-12.53,16.165-6.416,30.9-14.849,37.532-21.485,18.14-18.14,38.672-51.789,33.473-109.074a194.49,194.49,0,0,0-18.67-67.13,165.745,165.745,0,0,0-10.3-18.191c-2.588-3.931-4.314-6.1-4.5-6.329l0,0h0a58.006,58.006,0,0,0-5.053-5.249A108.651,108.651,0,0,0,206.56,29.707C193.861,21.56,172.4,11.273,142.27,8.534c-2.5-.227-5.024-.342-7.513-.342Z" transform="matrix(-0.07, 0.998, -0.998, -0.07, 1114.074, 6937.258)"/><g class="c" transform="translate(816.811 6918.474)"><g transform="translate(0 33.821)"><path class="d" d="M263.041,253.978a85.764,85.764,0,0,1-12.859,6.465c-22.224,9.085-52.181,12.459-82.2,12.716-10.087.087-20.153.3-30.023.448-57.486.814-108.492-1.173-120.169-49.177C4.112,168.179,22.619,69.464,118.428,69.464c62.585,0,111.362,58.2,143.208,92.366q3.076,3.3,5.812,6.7c8.055,10.016,13.864,20.768,16.746,32.607C290.244,226.032,280.942,242.871,263.041,253.978Z" transform="translate(-13.791 -61.337)"/><path class="e" d="M362.632,174.388l-11.582-2.637A21.994,21.994,0,0,1,347.1,160.36c-.033-.522-.128-1.038-.128-1.548,0-.242-.066-.486-.066-.728v-.075c0-.251.1-.5.116-.749s.078-.564.1-.838c.021-.227.066-.448.09-.665.033-.28.081-.552.116-.82.03-.176.06-.358.092-.534a1.082,1.082,0,0,1,.024-.11c.036-.23.081-.459.125-.689q.161-.832.358-1.611c.033-.134-.033-.269,0-.4.34-1.286,1.032-2.461,1.032-3.488h0a3.121,3.121,0,0,0,.6-1.193h.057s.057-.084.075-.119a3.234,3.234,0,0,1,2.983-1.942,3.374,3.374,0,0,1,1.554.394,3.2,3.2,0,0,1,1.629,3.431,20.065,20.065,0,0,0-.337,5.224C356.068,163.865,362.632,174.388,362.632,174.388Z" transform="translate(-109.088 -82.902)"/><path class="f" d="M290.012,109.576l-13.56.412-8.628-13.56s-3.494,5.34-27.338-1.856q-1.193-.358-2.235-.764c-20.365-7.838-2.685-28-2.685-28,14.321-12.143,25.777-4.249,31.327,1.492a31.027,31.027,0,0,1,3.613,4.457s7.8,13.566,17.865,16.039S290.012,109.576,290.012,109.576Z" transform="translate(-75.2 -58.465)"/><path class="g" d="M355.81,148.67a20.067,20.067,0,0,0-.337,5.224,18.025,18.025,0,0,0-.967-3.061c-.358-.838-.489-1.745-1.56-1.56a2.429,2.429,0,0,0-1.492,1.39,11.508,11.508,0,0,0-.82,4.2,16.545,16.545,0,0,0,.3,5.633,1.083,1.083,0,0,1-1.6,1.193c-.674-.4-1.441-.85-2.253-1.319-.725-.421.09-4.571.182-5.173a47.789,47.789,0,0,1,1.492-6.376,6.129,6.129,0,0,1,2.133-3.353A3.18,3.18,0,0,1,355.81,148.67Z" transform="translate(-109.054 -82.919)"/><path class="h" d="M260.413,85.471a27.055,27.055,0,0,1-16.866,8.712,14.75,14.75,0,0,1-9.6-2.411c-10.609-7.1-3.154-19.417.212-24.011a15.178,15.178,0,0,1,3.133-3.174,27.968,27.968,0,0,1,5.534-3.282c14.834-6.5,28.316,11.761,17.728,24.017Z" transform="translate(-75.203 -58.613)"/><path class="e" d="M286.275,177.5l-26.813,31.95L212,188.9l-9.547-25.786,9.759-17.567s9.192-2.954,9.658-5.445a8.522,8.522,0,0,1,3.046-10.257c5.755-4.266,2.193-24.763,2.193-24.763s1.014.5,2.757,1.164c4.741,1.79,14.885,4.69,24.673,1.507,5.669-1.844,8.933.689,11.26,3.8,3.151,4.216,4.609,9.5,8.157,6.367,8.834-7.808,12.02,6.71,3.8,14.383a6.265,6.265,0,0,0-1.614,2.685c-1,2.983-.77,7.316.11,12.11C278.7,160.53,286.275,177.5,286.275,177.5Z" transform="translate(-67.764 -71.526)"/><path class="g" d="M250.334,118.9a5.719,5.719,0,0,0-1.053-3.142,18.76,18.76,0,0,0,6.5,1.173c3.959,0,6.238,1.522,7.635,3.837a16.823,16.823,0,0,1-3.064-1.718c-2.163-1.528-4.219,2.032-2.088,3.547a19.428,19.428,0,0,0,6.862,3.058.733.733,0,0,0,.024.137c1.214.257,2.426.522,3.637.788a18.2,18.2,0,0,0,4.8-.8c.838-.263,1.686-.567,2.542-.826.018-.072.036-.14.051-.212h-.03c.018-.021.027-.042.045-.063a7.424,7.424,0,0,0,.137-1.175,1.31,1.31,0,0,1,.182-.644,1.907,1.907,0,0,0-2.452-1.45,15.914,15.914,0,0,1-5.185.627c-2.136-4.177,1.829-8.39,5.8-8.39.9,0,1.274-.635,1.295-1.641-2.327-3.115-5.576-5.651-11.26-3.8-9.789,3.18-19.93.28-24.673-1.507l-1.936.379a25.035,25.035,0,0,0,4.386,4.69c-2.035-.066-2.73,3.282-.462,4.084,1.614.561,4.5,1.468,4.144,3.7-.331,2.088-2.983,3.2-4.624,4.025-2.363,1.193-.3,4.735,2.088,3.547C246.876,125.486,250.5,123.013,250.334,118.9Z" transform="translate(-77.96 -71.989)"/><path class="g" d="M271.5,157.044a2.091,2.091,0,0,0-1.966-1.626,2.308,2.308,0,0,0-1.748,1.268,14.289,14.289,0,0,0-.8,2.088,11.674,11.674,0,0,1-5.15,5.8,28.622,28.622,0,0,1-7.357,2.831c-1.041.28-2.485.635-3.1,1.62a1.936,1.936,0,0,0,1.077,2.837,4.937,4.937,0,0,0,2.954-.224c6.31-1.895,12.51-5.516,15.466-11.4a4.986,4.986,0,0,0,.686-2.927,2.3,2.3,0,0,0-.057-.269Z" transform="translate(-81.682 -85.926)"/><path class="i" d="M228.523,168.2s-5.755,11.5-13.563,11.3c0,0-2.062,11.3,3.7,8.581,5.343-2.518,10.272-3.443,19.315,2.309s17.152,10.791,26.04,9.917S293.963,164.7,293.963,164.7l-13.879-10.788-4.553-2.608a3.431,3.431,0,0,0-5.141,2.879c-.179,7.393-1.865,19.613-10.648,24.077C246.809,184.839,229.755,180.73,228.523,168.2Z" transform="translate(-71.239 -84.62)"/><path class="j" d="M331.873,270.7c-1.832,8.527-5.707,17.967-14.321,21.445-.3.11-.57.218-.868.319-8.408,2.894-20.237,2.894-26.983-3.747a13.251,13.251,0,0,1-1.641-1.963c-.412.167-.826.337-1.244.5a158.955,158.955,0,0,1-32.117,8.428,298.432,298.432,0,0,1-37.416,3.526q-5.689.215-11.415.26-3.956.03-7.906.089l-3.422.054q-3.765.057-7.515.122c-.316,0-.63.1-.94.116a37.833,37.833,0,0,0-6.525.2h-.3c-1.143,0-2.276-.054-3.416-.036l-.982-3.148a.03.03,0,0,0,0-.021l-.128-.412-20.079-63.369-.054-.164-.743-2.363-7.685-24.277,1.557-38.526s39.024-3.282,49.21-6.265c2.387-.7-1.895,10.576-.513,20.995v.066c.03.206.057.412.09.621a25.481,25.481,0,0,0,2.572,7.96c2.748,5.248,7.829,10.144,16.848,13.611,13.05,5.03,21.427,2.909,28.507-1.384,5.024-3.055,9.413-7.2,14.351-10.663a33.438,33.438,0,0,1,13.927-6.089,29.565,29.565,0,0,1,3.616-.373c13.646-.57,12.122-.433,23.17,1.82,6.564,1.337,11.6,2.685,13.766,3.112h0c.3.412.543.242.731.3a14.8,14.8,0,0,0,1.865,2.372C330.674,216.441,337.816,243.057,331.873,270.7Z" transform="translate(-51.663 -87.649)"/><path class="e" d="M320.53,156.36l-1.328,3.3-2.267,5.645c-6.805-.337-14.046-2.521-19.327-6.972-.128-.1-.254-.206-.373-.3-.427-.358-.806-.7-1.143-1.023-.173-.164-.328-.319-.477-.468a3.789,3.789,0,0,1,4.741-5.848l.3.182C309.258,156.017,320.53,156.36,320.53,156.36Z" transform="translate(-94.106 -84.407)"/><path class="g" d="M318.468,161.518l-1.119,2.784a1.507,1.507,0,0,1-1.516.94,35.694,35.694,0,0,1-11.46-2.81c-3.076-1.346-7.832-3.688-9.428-6.835a3.792,3.792,0,0,1,5.421-4.9l.3.182a2.838,2.838,0,0,1-1.122.063,1.215,1.215,0,0,0-1.516,1.023,1.492,1.492,0,0,0,1.193,1.65,3.879,3.879,0,0,1,1.137.474c5.767,3.547,12.829,4.887,16.89,5.37a1.492,1.492,0,0,1,1.22,2.062Z" transform="translate(-94.109 -84.406)"/><path class="k" d="M241.234,259.736a51.425,51.425,0,0,1-1.871,13.724c-2.8,10.087-8.458,21.615-18.8,34.161q-5.69.215-11.415.26-3.956.03-7.906.09l-3.422.054q-3.765.057-7.515.122c-.316,0-.63.1-.94.116a37.83,37.83,0,0,0-6.525.2h-.3a5.072,5.072,0,0,1-4.4-3.183.03.03,0,0,0,0-.021c-.045-.119-.09-.239-.128-.361l-20.058-63.381c-.021-.063-.036-.122-.054-.188a5.027,5.027,0,0,1,.886-4.427l34.7-44.045a4.988,4.988,0,0,1,3.917-1.9,16.636,16.636,0,0,0,2.309-.069c0,.021,0,.045,0,.066.03.206.057.412.09.621a25.482,25.482,0,0,0,2.572,7.96h0a6.325,6.325,0,0,0-3.21,8.354,54.944,54.944,0,0,0,9.2,13.724,4.979,4.979,0,0,0,6.928.11,6.916,6.916,0,0,1,9.484.018,52.405,52.405,0,0,1,16.451,38Z" transform="translate(-54.969 -96.073)"/><path class="k" d="M330.215,278.3a2.047,2.047,0,0,1-4.09-.11c0-1.226.063-2.438.087-3.553A93.085,93.085,0,0,0,324,252.439a81.954,81.954,0,0,0-7.211-20.586,12.294,12.294,0,0,0-3.028-3.977c-1.492-1.193-3.2-1.393-5.012-1.82-2.026-.477-3.929-1.62-4-3.9-.018-.57.871-.57.9,0,0,.1.018.176.024.263a15.765,15.765,0,0,1,5.37-4.639,2.05,2.05,0,0,1,2.542.543,91.839,91.839,0,0,1,10.054,15.49,80.416,80.416,0,0,1,3.923,8.834C332.426,255.8,330.917,266.11,330.215,278.3Z" transform="translate(-97.028 -103.703)"/><path class="e" d="M321.769,204a8.73,8.73,0,0,1-2.709,3.67,18.391,18.391,0,0,1-6.2,3.13,22.9,22.9,0,0,1-24.071-6.447,16.821,16.821,0,0,1-3.359-5.514c-1.381-3.947-.221-9.109,3.1-11.776,2.3-1.847,5.29-2.488,7.853-3.879.9-.48,4.732-3.21,5.669-2.622C302.045,180.575,325.057,195.164,321.769,204Z" transform="translate(-91.338 -93.096)"/><path class="g" d="M319.287,213.12c-3.786,3.133-10.114,4.29-14.434,4.714a13.44,13.44,0,0,1-8.521-2c-6.582-4.177-9.511-8.22-10.678-11.546h0c3.855-9.165,11-2.261,11-2.261Z" transform="translate(-91.566 -98.547)"/><path class="e" d="M354.635,190.423c-15.812,5.645-28.642,18.274-35.5,26.6,0,0-8.527-18.8-27.007-30.73a7.193,7.193,0,0,1-3.189-5.072c7.876-8.977,27.332-15.171,29.993-22.358l.242.075C325.334,160.973,342.125,168.279,354.635,190.423Z" transform="translate(-92.505 -86.913)"/><path class="k" d="M298.175,329.7c6.182-9.9,14.577-27.081,13.772-46.378-.119-2.915,4.69-4.251,5.126-1.369,2.96,19.652,12.364,25.16,14.876,38.553A175.056,175.056,0,0,1,298.175,329.7Z" transform="translate(-95.148 -121.668)"/><path class="e" d="M251.389,279.584c-3.312,12.167-9.514,21.43-16.937,31.741-.236.328-.477.653-.728.979a4.373,4.373,0,0,1-1.751.671c-3.682.206-16.684-27.6-7.441-37.568a9.9,9.9,0,0,1,3.025-2.208s6.1-9.932,5.033-21.481a19.336,19.336,0,0,1,.5-7.635h0a5.81,5.81,0,0,1,2.366-3.449c3.3-1.939,7.068.752,9.353,3.07a16.349,16.349,0,0,1,1.158,1.3C253.143,254.033,254.247,269.076,251.389,279.584Z" transform="translate(-73.149 -110.115)"/><path class="l" d="M196.342,283.108H122.325V271.7h74.018l1.877,6.677Z" transform="translate(-44.84 -119.194)"/><rect class="l" width="47.643" height="11.403" transform="translate(36.527 152.511)"/><path class="m" d="M62.049,273.228h77.258a1.343,1.343,0,0,0,0-2.685H62.049A1.343,1.343,0,0,0,62.049,273.228Z" transform="translate(-27.226 -118.862)"/><path class="m" d="M62.626,291.073h77.243a1.343,1.343,0,0,0,0-2.685H62.626A1.343,1.343,0,0,0,62.626,291.073Z" transform="translate(-27.391 -123.967)"/><path class="m" d="M128.1,285.935h60.929c1.032,0,2.068.015,3.1,0,3.47-.051,7.017-1.671,8.452-5.006a7.431,7.431,0,0,0-4.639-9.872,14.694,14.694,0,0,0-4.774-.546h-31.78c-10.087,0-20.2-.185-30.282,0h-.516a1.343,1.343,0,0,0,0,2.685h59.372c2.957,0,7.336-.612,9.425,1.865a4.774,4.774,0,0,1,.128,5.842,6.723,6.723,0,0,1-5.26,2.348c-.752.015-1.492,0-2.256,0H157.214c-9.526,0-19.07-.176-28.594,0h-.513a1.343,1.343,0,0,0,0,2.685Z" transform="translate(-46.124 -118.829)"/><path class="g" d="M247.069,274.471a2.3,2.3,0,0,1-3.419.958,2.088,2.088,0,0,1-1.119-.349L225.823,273.9a9.38,9.38,0,0,1,2.843-2.109s5.731-9.493,4.735-20.517a23.6,23.6,0,0,1,.027-5.239,6.572,6.572,0,0,1,1.492-3.9A5.656,5.656,0,0,1,238,240.191a1.164,1.164,0,0,0,.164,1.325,34.189,34.189,0,0,1,6.045,9.646,1.754,1.754,0,0,1,1.754,1.02A26.353,26.353,0,0,1,247.069,274.471Z" transform="translate(-74.449 -110.178)"/><rect class="n" width="51.367" height="16.436" transform="translate(71.398 51.728)"/><path class="l" d="M124.078,137.864h0c0,4.01,2.011,7.459,4.52,8.885a5.472,5.472,0,0,0,1.232.531v.6h-7.4v-.6a5.607,5.607,0,0,1-1.217-.531c-2.506-1.426-4.535-4.869-4.535-8.885h0a10.93,10.93,0,0,1,3.049-7.757,7.924,7.924,0,0,1,.817-.7,6.643,6.643,0,0,0-.841.8H165.99v5.752h-40.03a1.883,1.883,0,0,0-1.886,1.877Z" transform="translate(-43.225 -78.486)"/><path class="o" d="M116.732,153.5h48.491a1.343,1.343,0,0,0,0-2.685H116.732A1.343,1.343,0,0,0,116.732,153.5Z" transform="translate(-42.869 -84.61)"/><path class="m" d="M116.732,131.63h48.491a1.343,1.343,0,0,0,0-2.685H116.732A1.343,1.343,0,0,0,116.732,131.63Z" transform="translate(-42.869 -78.353)"/><path class="o" d="M124.572,128.186h-.358c.119-.045.239-.087.358-.119Z" transform="translate(-45.381 -78.102)"/><path class="o" d="M110.407,146.949v.6H80.617c-3.243,0-5.967-3.58-5.967-7.942v-3.837c0-4.159,2.569-7.533,5.669-7.533h29.728a6.307,6.307,0,0,0-.621.271,6.51,6.51,0,0,0-.8.5l-.1.066a7.93,7.93,0,0,0-.817.7,10.932,10.932,0,0,0-3.049,7.757h0c0,4.01,2.023,7.459,4.538,8.885a5.606,5.606,0,0,0,1.208.534Z" transform="translate(-31.202 -78.15)"/><path class="p" d="M103.3,135.493c.158-2.142.418-5.233,1.331-7.259H92.776c-2.032,0-3.729,3.374-3.729,7.533v3.849c0,4.368,1.79,7.942,3.929,7.942h11.859a14.441,14.441,0,0,1-.7-2.026C102.962,142.761,103.084,138.4,103.3,135.493Z" transform="translate(-35.32 -78.15)"/><path class="q" d="M111.765,129.586c.814-1.76-2.22-3.673-3.031-1.918a25.488,25.488,0,0,0-.078,19.828c.785,1.79,3.75-.179,2.966-1.963A19.691,19.691,0,0,1,111.765,129.586Z" transform="translate(-40.367 -77.789)"/><path class="r" d="M110.472,129.679c.814-1.76-1.247-3.377-2.062-1.623a23.932,23.932,0,0,0-.143,19.193c.785,1.79,2.846.161,2.062-1.623A19.691,19.691,0,0,1,110.472,129.679Z" transform="translate(-40.265 -77.883)"/><path class="q" d="M92.124,129.586c.814-1.76-2.22-3.673-3.031-1.918a25.488,25.488,0,0,0-.078,19.828c.785,1.79,3.75-.179,2.966-1.963a19.691,19.691,0,0,1,.143-15.947Z" transform="translate(-34.748 -77.789)"/><path class="r" d="M90.827,129.679c.814-1.76-1.247-3.377-2.062-1.623a23.932,23.932,0,0,0-.143,19.193c.785,1.79,2.846.161,2.062-1.623a19.691,19.691,0,0,1,.143-15.947Z" transform="translate(-34.644 -77.883)"/><path class="e" d="M220.163,281.4a46.5,46.5,0,0,0,16.54-21.06c5.651-14.279,8.527,8.527,7.706,12.74s-6.919,17.43-10.582,20.341-13.972-12.531-13.972-12.531Z" transform="translate(-72.742 -114.613)"/><path class="j" d="M167.767,308.274a22.913,22.913,0,0,1-10.442,2.942q-1.886.069-3.771.149-4.586.185-9.183.385c-11.442.48-22.91.925-34.355.755-4.374-.063-8.736-.218-13.092-.492-26.225-1.668-57.379-8.393-72-32.377q-.221-.364-.433-.728a58.688,58.688,0,0,1-6.963-18.274c-2.983-14.959-.054-30.894,10.418-42.774a59.138,59.138,0,0,1,15.472-12.313c.543-.3,7.387-3.133,7.405-3.494L50.1,217.567c-.439,9.422.9,18.435,5.758,25.93a32.258,32.258,0,0,0,5.806,6.683c8.378,7.354,21.857,11.7,36.422,13.688A155.415,155.415,0,0,0,137.72,264c12.74-1.644,27.123.412,37,9.863,3.383,3.243,4.589,8.515,4.717,14.046A22.776,22.776,0,0,1,167.767,308.274Z" transform="translate(-14.544 -99.268)"/><path class="k" d="M62.812,250.141c-6.907.439-12.829-1.241-13.655-7.089a12.432,12.432,0,0,0-1.128-3.658c-3.738-7.709-3.983-17.928-.033-25.6a25.434,25.434,0,0,1,9.693-10.257c3.013-1.754,8.712-5.152,12.325-4.141Z" transform="translate(-22.756 -98.454)"/><rect class="n" width="69.038" height="16.027" transform="translate(70.986 85.424)"/><path class="l" d="M124.989,186.017a5.692,5.692,0,0,0,1.31,5.164c1.757,1.927,4.389,2.748,6.889,3.488-3.879.7-8.055.624-11.537-1.22a10.287,10.287,0,0,1-5.475-7.575c-.325-2.772,1.116-6.77,3.795-8a8.794,8.794,0,0,1,3.691-.528l59.419.107q0,2.84.027,5.669H130.825c-1.623,0-3.383.048-4.648,1.065a3.58,3.58,0,0,0-1.187,1.826Z" transform="translate(-43.068 -92.201)"/><rect class="n" width="70.64" height="14.225" transform="translate(68.77 118.46)"/><path class="l" d="M122.513,229.977a6.2,6.2,0,0,0,1.193,4.9,19.3,19.3,0,0,0,3.109,2.169c.5.322,2.071,1.539,2.667,1.423-5.042.97-10.935-.078-14.392-2.557-2.476-1.775-3.61-4.216-3.225-6.543.3-1.716,1.519-5.332,4.353-6.083a10.689,10.689,0,0,1,2.685-.224l62.331.081.113,5.015L125,228.2C123.408,228.2,122.68,228.956,122.513,229.977Z" transform="translate(-41.827 -105.275)"/><path class="m" d="M114.429,244.447H181a1.343,1.343,0,0,0,0-2.685H114.429A1.343,1.343,0,0,0,114.429,244.447Z" transform="translate(-42.211 -110.628)"/><path class="m" d="M114.429,225.453H181a1.343,1.343,0,0,0,0-2.685H114.429A1.343,1.343,0,0,0,114.429,225.453Z" transform="translate(-42.211 -105.194)"/><path class="o" d="M124.757,222.122h-.489c.164-.039.328-.075.489-.1Z" transform="translate(-45.396 -104.98)"/><path class="o" d="M105.14,238.13v.367h-40.8c-4.454,0-8.1-2.909-8.1-6.644v-3.282c0-3.553,3.44-6.513,7.685-6.513H104.8c-3.995.82-7.459,4.2-7.459,8.023h0C97.332,234.057,101.032,237.378,105.14,238.13Z" transform="translate(-25.934 -104.991)"/><path class="q" d="M100.087,223.32c1.122-1.492-3.049-3.139-4.177-1.641a14.386,14.386,0,0,0-.1,16.949c1.077,1.519,5.158-.152,4.075-1.68A11.181,11.181,0,0,1,100.087,223.32Z" transform="translate(-36.479 -104.713)"/><path class="g" d="M89.565,238.494H74.743c-1.435-1.262-2.387-3.855-2.387-6.826v-3.694c0-2.387.579-4.684,1.614-5.916H91.259c-.57,2.056-2.9,4-3.037,5.612-.242,2.8-.373,7.023.928,9.678A12,12,0,0,0,89.565,238.494Z" transform="translate(-30.545 -104.991)"/><path class="r" d="M98.308,223.4c1.122-1.492-1.716-2.888-2.834-1.387a13.571,13.571,0,0,0-.2,16.409c1.077,1.519,3.914.137,2.834-1.387A11.181,11.181,0,0,1,98.308,223.4Z" transform="translate(-36.34 -104.794)"/><path class="q" d="M73.074,223.32c1.122-1.492-3.049-3.139-4.177-1.641a14.386,14.386,0,0,0-.1,16.949c1.077,1.519,5.158-.152,4.075-1.68A11.181,11.181,0,0,1,73.074,223.32Z" transform="translate(-28.751 -104.713)"/><path class="r" d="M71.294,223.4c1.122-1.492-1.716-2.888-2.834-1.387a13.571,13.571,0,0,0-.2,16.409c1.077,1.519,3.914.137,2.834-1.387A11.181,11.181,0,0,1,71.294,223.4Z" transform="translate(-28.612 -104.794)"/><rect class="n" width="74.378" height="16.848" transform="translate(74.274 134.326)"/><path class="l" d="M178.378,257.21c-.71,1.608-2.279,2.763-3.231,4.225a1.588,1.588,0,0,0-.131.248,40.7,40.7,0,0,1-5.311.34,1.134,1.134,0,0,0-1.193,1.065h-6.931a2.031,2.031,0,0,1,1.984-2.4c2.685-.045,5.9-.069,7.7-2.387.716-.922,1.038-4.454,1.044-5.469h-61.06a3.559,3.559,0,0,0-3.559,3.559V263.1H57.968V246.234H107.69v1.644h66.016a2.279,2.279,0,0,1-.128-.513c1.435-.4,3.443-1,4,.459a29.382,29.382,0,0,1,.662,4.028C178.587,253.549,179.118,255.542,178.378,257.21Z" transform="translate(-26.429 -111.907)"/><path class="m" d="M54.569,247.9h80.954a1.343,1.343,0,0,0,0-2.685H54.569A1.343,1.343,0,0,0,54.569,247.9Z" transform="translate(-25.086 -111.617)"/><path class="m" d="M55.718,270.349h80.554a1.343,1.343,0,0,0,0-2.685H55.718A1.343,1.343,0,0,0,55.718,270.349Z" transform="translate(-25.414 -118.038)"/><path class="m" d="M123.344,263.827l27.293-.069,36.927-.092h3.022a9.374,9.374,0,0,0,8.807-6.265c1.435-4.129-.239-9.38-4.326-11.26a12.845,12.845,0,0,0-5.37-.913l-33.287-.161c-10.741-.054-21.481-.3-32.222-.158h-.552a1.343,1.343,0,0,0,0,2.685l25.956.125,36.921.179c3.38.018,7.867-.579,9.795,2.888a6.807,6.807,0,0,1-5.654,10.18c-.7.015-1.411,0-2.115,0l-34.227.087c-10.144.027-20.318-.122-30.467.078h-.519a1.343,1.343,0,0,0,0,2.685Z" transform="translate(-44.756 -111.516)"/><path class="o" d="M117.329,200.7h65.339a1.343,1.343,0,0,0,0-2.685H117.329A1.343,1.343,0,0,0,117.329,200.7Z" transform="translate(-43.04 -98.113)"/><path class="m" d="M117.329,179.4h65.339a1.343,1.343,0,0,0,0-2.685H117.329A1.343,1.343,0,0,0,117.329,179.4Z" transform="translate(-43.04 -92.02)"/><path class="m" d="M117.885,179.4h52.187a1.343,1.343,0,0,0,0-2.685H117.885A1.343,1.343,0,0,0,117.885,179.4Z" transform="translate(-43.199 -92.02)"/><path class="o" d="M108.348,194.143v.6H68.211a7.969,7.969,0,0,1-7.945-7.945v-3.846a7.533,7.533,0,0,1,7.533-7.533h40.065a10.029,10.029,0,0,0-7.324,9.323h0A9.988,9.988,0,0,0,108.348,194.143Z" transform="translate(-27.086 -91.647)"/><path class="s" d="M99.107,182.691c.245-2.142.638-5.233,2.044-7.259H82.961c-3.118,0-5.719,3.374-5.719,7.533V186.8c0,4.368,2.757,7.942,6.027,7.942h18.19a11.543,11.543,0,0,1-1.077-2.026C98.591,189.962,98.773,185.6,99.107,182.691Z" transform="translate(-31.943 -91.652)"/><path class="q" d="M110.159,176.784c1.1-1.76-2.983-3.673-4.084-1.918a19.5,19.5,0,0,0-.1,19.828c1.056,1.79,5.057-.179,3.995-1.963A15.114,15.114,0,0,1,110.159,176.784Z" transform="translate(-39.402 -91.291)"/><path class="r" d="M108.412,176.878c1.1-1.76-1.683-3.377-2.778-1.623a18.366,18.366,0,0,0-.191,19.193,1.609,1.609,0,0,0,2.778-1.623A15.114,15.114,0,0,1,108.412,176.878Z" transform="translate(-39.264 -91.385)"/><path class="q" d="M80.229,176.784c1.1-1.76-2.983-3.673-4.084-1.918a19.5,19.5,0,0,0-.1,19.828c1.056,1.79,5.057-.179,3.995-1.963A15.114,15.114,0,0,1,80.229,176.784Z" transform="translate(-30.84 -91.291)"/><path class="r" d="M78.482,176.878c1.1-1.76-1.683-3.377-2.778-1.623a18.366,18.366,0,0,0-.191,19.193,1.609,1.609,0,0,0,2.778-1.623,15.114,15.114,0,0,1,.191-15.947Z" transform="translate(-30.701 -91.385)"/><rect class="n" width="62.564" height="11.403" transform="translate(70.885 102.788)"/><path class="l" d="M161.767,204.761a2.014,2.014,0,0,0-1.435-1.435,72.261,72.261,0,0,0-24.259-.206,1.888,1.888,0,0,0-.9.367,113.814,113.814,0,0,0-30.632-1.175v-.439H64.27V213.38h40.277v-3.467a3.383,3.383,0,0,1,3.47-3.377c6.2.143,12.408-.018,18.611.042,6.952.066,13.9-.143,20.852-.1,2.154,0,8.542-.937,10.242.367,2.226,1.7-.916,4.281-2.5,4.792a23.364,23.364,0,0,1-8.446.958c-2.643-.143-2.634,3.968,0,4.108,3.983.215,8.8-.164,12.3-2.267C162.716,212.271,162.7,208.434,161.767,204.761Z" transform="translate(-28.232 -99.19)"/><path class="m" d="M62.049,203.58h65.339a1.343,1.343,0,0,0,0-2.685H62.049A1.343,1.343,0,0,0,62.049,203.58Z" transform="translate(-27.226 -98.937)"/><path class="m" d="M62.626,221.425h65.339a1.343,1.343,0,0,0,0-2.685H62.626A1.343,1.343,0,0,0,62.626,221.425Z" transform="translate(-27.391 -104.042)"/><path class="m" d="M117.888,216.284h51.859c.779,0,1.557.018,2.336,0a7.856,7.856,0,0,0,7.33-5.188c1.178-3.356-.084-7.688-3.359-9.35a9.961,9.961,0,0,0-4.61-.9H144.766c-8.652,0-17.334-.179-25.992,0H118.3a1.343,1.343,0,0,0,0,2.685h50.352c2.6,0,6.188-.522,7.757,2.053a5.257,5.257,0,0,1-4.272,8c-.6.018-1.175,0-1.76,0h-27.6c-8.148,0-16.329-.224-24.465,0h-.415a1.343,1.343,0,0,0,0,2.685Z" transform="translate(-43.202 -98.901)"/><path class="k" d="M156.816,341.078c-39.877,1.608-103.826,8.951-128.63-31.729q-.221-.364-.433-.728a4.576,4.576,0,0,1,6.534-2.017c12.829,7.712,34.1,14.741,69.065,14.741.182,0,14.837-.033,26.705-9.479,7.521-5.988,23.337-3.983,26.308,6.265C156.855,319.857,154.653,341.165,156.816,341.078Z" transform="translate(-17.785 -128.984)"/><rect class="n" width="62.564" height="11.403" transform="translate(70.885 69.913)"/><path class="l" d="M162.518,166.634c-2.256,4.177-7.459,4.457-11.654,4.287a2.052,2.052,0,0,1,0-4.1c2.029-.042,4.747-.155,5.239-2.6.436-2.187-1.516-3.428-3.467-3.246a6.583,6.583,0,0,1-1.122-.167H111.148a6.564,6.564,0,0,0-6.564,6.564H64.307V155.878h40.277v1.232h47.327c.218,0,.456-.164.722-.188a3.926,3.926,0,0,1,2.366.188h1.7c.34-.412.737-.215,1.173-.119A6.711,6.711,0,0,1,162.518,166.634Z" transform="translate(-28.243 -86.058)"/><path class="m" d="M62.049,157.531h65.339a1.343,1.343,0,0,0,0-2.685H62.049A1.343,1.343,0,0,0,62.049,157.531Z" transform="translate(-27.226 -85.763)"/><path class="m" d="M62.626,175.376h65.339a1.343,1.343,0,0,0,0-2.685H62.626A1.343,1.343,0,0,0,62.626,175.376Z" transform="translate(-27.391 -90.868)"/><path class="m" d="M117.888,170.235h51.859c.779,0,1.557.018,2.336,0a7.856,7.856,0,0,0,7.33-5.188c1.178-3.356-.084-7.688-3.359-9.35a9.961,9.961,0,0,0-4.61-.9H144.766c-8.652,0-17.334-.179-25.992,0H118.3a1.343,1.343,0,0,0,0,2.685h50.352c2.6,0,6.188-.522,7.757,2.053a5.257,5.257,0,0,1-4.272,8c-.6.018-1.175,0-1.76,0h-27.6c-8.148,0-16.329-.224-24.465,0h-.415a1.343,1.343,0,0,0,0,2.685Z" transform="translate(-43.202 -85.727)"/><path class="g" d="M241.038,154.642c-1.79.4-5.37.725-6.656-1.035-1.536-2.121-5.1-.072-3.547,2.088,2.53,3.491,7.393,3.8,11.3,2.924C244.71,158.025,243.618,154.078,241.038,154.642Z" transform="translate(-75.773 -85.153)"/><path class="j" d="M27.759,275.573s-6.522-30.924,1.548-30.924a15.559,15.559,0,0,1,5.839,1.092c4.729,1.9,7.038,5.91,8.545,9.693,2.184,5.49,6.543,8.014,13.45,7.6h0c7.244-.412,9.347,1.193,9.347,1.193C70.1,273.786,27.759,275.573,27.759,275.573Z" transform="translate(-17.075 -111.454)"/><path class="t" d="M302.38,202.89l-.212.632c-.092.209-.206.418-.319.621a2.864,2.864,0,0,1-1.116,1,3.064,3.064,0,0,1-1.471.277,4.835,4.835,0,0,1-1.352-.3,5.281,5.281,0,0,1-.624-.274l-.078-.042-.09-.054-.125-.081-.254-.161-1.014-.647c-.662-.448-1.334-.877-1.981-1.352a45.518,45.518,0,0,1-3.8-2.983,32.271,32.271,0,0,1-3.455-3.452,17.505,17.505,0,0,1-2.739-4.195,11.26,11.26,0,0,1-1.038-5.1,11.412,11.412,0,0,1,1.492-5.012,16.635,16.635,0,0,1,1.42-2.124,23.536,23.536,0,0,1,1.707-1.877,31.593,31.593,0,0,1,3.732-3.186c1.3-.973,2.649-1.85,4.013-2.685,2.727-1.68,5.508-3.21,8.273-4.729s5.51-3.049,8.079-4.774a22.946,22.946,0,0,0,3.544-2.885,9.252,9.252,0,0,0,1.331-1.742,4.446,4.446,0,0,0,.6-1.981.564.564,0,1,1,1.128,0h0a5.073,5.073,0,0,1-.143,1.328,7.536,7.536,0,0,1-.445,1.232,10.553,10.553,0,0,1-1.411,2.109,23.045,23.045,0,0,1-3.637,3.291,92.454,92.454,0,0,1-8.02,5.212c-2.706,1.632-5.418,3.234-8.023,4.953a49.442,49.442,0,0,0-7.265,5.639,17.424,17.424,0,0,0-2.766,3.422,8.455,8.455,0,0,0-.57,8.055,14.34,14.34,0,0,0,1.005,1.954,22.469,22.469,0,0,0,1.295,1.838,37.789,37.789,0,0,0,6.665,6.379c.6.486,1.241.946,1.865,1.414l.949.68.239.17.119.087.036.024.051.03a3.873,3.873,0,0,0,.448.227,3.5,3.5,0,0,0,.94.266,1.766,1.766,0,0,0,.838-.1,1.632,1.632,0,0,0,.656-.525c.081-.137.17-.271.248-.418l.2-.477.03-.075a.559.559,0,0,1,1.047.391Z" transform="translate(-90.724 -85.87)"/><path class="t" d="M296.016,185.419A53.836,53.836,0,0,1,310,197.3a90.287,90.287,0,0,1,10.481,15.064,87.25,87.25,0,0,1,4.049,8.255c.6,1.414,1.158,2.849,1.641,4.314.537,1.447.922,2.945,1.346,4.43a58.814,58.814,0,0,1,1.492,9.138,77.214,77.214,0,0,1,.158,9.219c-.1,3.061-.3,6.1-.5,9.127s-.331,6.042-.376,9.052a57.6,57.6,0,0,0,.391,8.933,19.7,19.7,0,0,0,2.739,8.1,12.228,12.228,0,0,0,1.28,1.644,7.528,7.528,0,0,0,.758.725l.8.7a17.267,17.267,0,0,0,3.643,2.193,21.429,21.429,0,0,0,4.087,1.36l1.068.206.534.1.543.069,1.083.134c.364.033.728.048,1.092.072a32.243,32.243,0,0,0,4.386-.048,35.256,35.256,0,0,0,4.347-.636c.722-.128,1.426-.337,2.136-.516.355-.092.7-.215,1.047-.319s.7-.212,1.029-.343c.167-.063.337-.119.5-.188l.477-.224.958-.445.913-.537c.152-.092.3-.173.453-.271l.43-.3a18.088,18.088,0,0,0,3.174-2.84,21.476,21.476,0,0,0,1.343-1.689c.439-.57.812-1.193,1.193-1.808a31.4,31.4,0,0,0,1.966-3.914,40.1,40.1,0,0,0,1.492-4.177c.436-1.414.785-2.861,1.113-4.314l.832-4.419c.465-2.96.877-5.934,1.053-8.93a95.174,95.174,0,0,0-4.371-35.551A110.518,110.518,0,0,0,363.873,202l-1.026-2.014-1.11-1.972-1.11-1.972c-.364-.659-.785-1.289-1.175-1.933-.8-1.271-1.563-2.6-2.417-3.807s-1.757-2.443-2.661-3.664c-1.811-2.443-3.619-4.911-5.281-7.486a70.493,70.493,0,0,1-4.493-8.023,51.747,51.747,0,0,1-3.183-8.652l-.546-2.247c-.167-.752-.266-1.519-.4-2.276l-.191-1.14c-.048-.382-.072-.767-.11-1.149l-.2-2.3a.564.564,0,0,1,1.122-.11v.045l.236,2.235c.042.373.072.746.122,1.116l.2,1.1c.143.734.251,1.492.424,2.2l.564,2.175a50.4,50.4,0,0,0,3.234,8.378,73.02,73.02,0,0,0,4.511,7.8c1.662,2.512,3.473,4.929,5.308,7.348.916,1.211,1.841,2.423,2.736,3.679s1.68,2.572,2.512,3.858c.4.65.835,1.283,1.211,1.948l1.149,1.987,1.149,1.987,1.065,2.035a112.428,112.428,0,0,1,7.217,16.89,96.366,96.366,0,0,1,4.809,36.342c-.155,3.073-.555,6.131-1.005,9.171l-.835,4.541c-.34,1.513-.7,3.019-1.164,4.508a42.616,42.616,0,0,1-1.59,4.41,33.841,33.841,0,0,1-2.124,4.222c-.424.671-.832,1.352-1.319,1.987a23.917,23.917,0,0,1-1.492,1.877,20.561,20.561,0,0,1-3.6,3.222l-.5.355c-.167.113-.349.209-.522.313l-1.053.615c-.364.179-.74.346-1.107.516l-.555.254c-.188.078-.376.143-.567.215-.379.149-.755.26-1.131.379s-.752.245-1.131.346c-.764.191-1.522.412-2.294.552a34.649,34.649,0,0,1-9.386.68c-.394-.03-.788-.051-1.193-.087l-1.178-.155-.6-.078-.6-.113-1.167-.236a23.779,23.779,0,0,1-4.532-1.545,19.6,19.6,0,0,1-4.12-2.527l-.913-.811a9.362,9.362,0,0,1-.88-.859,14.511,14.511,0,0,1-1.492-1.957,18.232,18.232,0,0,1-2.026-4.4,27.531,27.531,0,0,1-1-4.639,62.815,62.815,0,0,1-.349-9.264c.039-3.049.233-6.116.445-9.156s.439-6.056.573-9.07a75.267,75.267,0,0,0-.06-9,56.9,56.9,0,0,0-1.354-8.846c-.4-1.438-.752-2.891-1.259-4.3-.453-1.423-.979-2.831-1.554-4.219a85.6,85.6,0,0,0-3.879-8.142,89.5,89.5,0,0,0-10.1-14.953,64.829,64.829,0,0,0-6.265-6.5c-.561-.5-1.128-.991-1.71-1.465l-1.775-1.381a35.729,35.729,0,0,0-3.747-2.464h0a.562.562,0,1,1,.555-.979Z" transform="translate(-94.284 -85.167)"/><path class="t" d="M269.127,125.92a13.938,13.938,0,0,0,1.4.752c.242.119.489.227.743.325s.5.2.755.3a22.729,22.729,0,0,0,3.109.859c1.05.227,2.088.552,3.177.752.54.116,1.092.179,1.644.3s1.116.143,1.683.245h.042a.57.57,0,0,1,0,1.119c-.6.113-1.17.215-1.763.3a11.992,11.992,0,0,1-1.79.1,17.651,17.651,0,0,1-1.814-.069c-.3-.033-.6-.045-.9-.107s-.6-.128-.9-.2a15.442,15.442,0,0,1-3.368-1.471,11.733,11.733,0,0,1-1.513-1.062,8.055,8.055,0,0,1-1.322-1.355.564.564,0,0,1,.743-.817Z" transform="translate(-86.575 -77.456)"/><path class="t" d="M233.968,111.108a8.358,8.358,0,0,0,.8,1.214,9.847,9.847,0,0,0,.988,1.1,8.651,8.651,0,0,0,2.387,1.608,7.707,7.707,0,0,0,2.763.677l.358.027h.215a1.04,1.04,0,0,1,.254.021,4.366,4.366,0,0,1,.985.236,4.529,4.529,0,0,1,2.918,4.86,4.618,4.618,0,0,1-.719,1.933l-.3.421-.358.382c-.128.116-.266.224-.4.334s-.218.164-.328.248c-1.7,1.253-3.377,2.53-5.09,3.762q-1.274.94-2.572,1.841c-.859.612-1.733,1.193-2.6,1.79l-.65.445-.552.424a3.826,3.826,0,0,0-.522.459,5.769,5.769,0,0,0-.489.5,8.431,8.431,0,0,0-2.112,5.12,9,9,0,0,0,.3,2.843,8.808,8.808,0,0,0,1.193,2.628l.433.6c.149.194.328.364.492.549.313.361.734.731,1.1,1.1h0a.564.564,0,0,1-.755.835c-.415-.34-.826-.624-1.244-1.023-.206-.191-.427-.37-.618-.579l-.558-.638a6.171,6.171,0,0,1-.5-.686,5.427,5.427,0,0,1-.448-.728c-.131-.254-.268-.5-.394-.764l-.3-.8a10.194,10.194,0,0,1-.576-3.392,10.8,10.8,0,0,1,.6-3.425,10.606,10.606,0,0,1,1.689-3.034,7.825,7.825,0,0,1,.6-.659,5.528,5.528,0,0,1,.635-.618l.677-.57.633-.48c.844-.635,1.683-1.274,2.539-1.889s1.707-1.241,2.572-1.844c1.718-1.223,3.467-2.4,5.2-3.61.1-.072.23-.155.3-.218l.215-.164q.092-.1.194-.185l.17-.206a2.414,2.414,0,0,0,.424-.991,2.488,2.488,0,0,0-.567-2.074,2.6,2.6,0,0,0-.91-.68,2.463,2.463,0,0,0-.543-.167l-.14-.021-.179-.024-.43-.057a9.439,9.439,0,0,1-3.282-1.023,10.144,10.144,0,0,1-4.52-4.959.561.561,0,0,1,1.011-.477Z" transform="translate(-74.804 -73.157)"/><path class="t" d="M249.957,95.266a35.486,35.486,0,0,1-8.091-.385,22.374,22.374,0,0,1-7.757-2.643,13.612,13.612,0,0,1-3.282-2.652,12.607,12.607,0,0,1-2.25-3.631,14.73,14.73,0,0,1-.934-4.144l-.036-1.053v-.525l.03-.522.06-1.044c.024-.349.087-.686.131-1.029a23.806,23.806,0,0,1,2.518-7.891,22,22,0,0,1,12.531-10.535c.656-.248,1.346-.388,2.023-.573.337-.1.686-.134,1.032-.2s.689-.134,1.038-.173a23.153,23.153,0,0,1,4.2-.146,22.657,22.657,0,0,1,8.124,1.951,25.55,25.55,0,0,1,6.925,4.583,31.479,31.479,0,0,1,5.257,6.343l1.056,1.748.985,1.677,1.059,1.626c.367.531.755,1.044,1.134,1.569a28.192,28.192,0,0,0,5.412,5.436,26.255,26.255,0,0,0,3.255,2.038c1.137.6,2.327,1.122,3.553,1.662a11.961,11.961,0,0,1,3.646,2.157,5.119,5.119,0,0,1,1.253,1.933,2.982,2.982,0,0,1,.164.543c.042.182.1.364.122.546a10.522,10.522,0,0,1,.1,1.08,17.214,17.214,0,0,1-.448,4.108c-.122.668-.3,1.313-.462,1.969s-.361,1.292-.543,1.936a.564.564,0,1,1-1.095-.272v-.021c.152-.638.319-1.277.462-1.915s.3-1.28.379-1.921a15.966,15.966,0,0,0,.3-3.8,4.345,4.345,0,0,0-1.286-3.07,11.256,11.256,0,0,0-3.231-1.763c-1.208-.5-2.476-1.008-3.7-1.62a28.045,28.045,0,0,1-3.541-2.088,30.133,30.133,0,0,1-5.934-5.669c-.412-.543-.835-1.077-1.238-1.626l-1.155-1.68-2.106-3.365a29.169,29.169,0,0,0-4.973-5.785,24.419,24.419,0,0,0-6.34-4.069c-.573-.26-1.17-.451-1.754-.68-.6-.173-1.193-.367-1.808-.51l-.919-.2-.459-.1-.465-.063-.931-.128c-.3-.042-.624-.045-.934-.069a20.288,20.288,0,0,0-7.408.9,19.491,19.491,0,0,0-6.579,3.529,19.825,19.825,0,0,0-4.806,5.743,22.328,22.328,0,0,0-2.417,7.16c-.045.3-.113.627-.143.94l-.075.94-.039.471V81.7a12.865,12.865,0,0,0,.722,3.61,10.824,10.824,0,0,0,1.847,3.145,11.934,11.934,0,0,0,2.831,2.387,21.075,21.075,0,0,0,7.16,2.685,34.328,34.328,0,0,0,7.757.627h.027a.562.562,0,1,1,.057,1.122Z" transform="translate(-74.96 -58.08)"/><path class="t" d="M163.375,128.789l-32.565.2-4.069.024a34.54,34.54,0,0,0-3.95.134,6.265,6.265,0,0,0-1.713.468,4.938,4.938,0,0,0-1.408.985,7.119,7.119,0,0,0-1.769,3.1,8.464,8.464,0,0,0-.316,1.835,16.923,16.923,0,0,0-.084,1.921,9.547,9.547,0,0,0,.725,3.6,6,6,0,0,0,2.229,2.658A8.977,8.977,0,0,0,123.868,145l.94.125c.313.039.638.039.955.063s.65.03.991.036l1.017.018,4.064.072q4.064.06,8.13.078,8.132.036,16.269-.051l8.142-.051h2.545l.546.015a10.179,10.179,0,0,1,1.1.069,11.5,11.5,0,0,1,4.338,1.262,8.6,8.6,0,0,1,1.895,1.4,8.993,8.993,0,0,1,.8.9,9.187,9.187,0,0,1,.644,1.005,8.249,8.249,0,0,1,.847,2.2,8.834,8.834,0,0,1,.251,2.333,6.423,6.423,0,0,1-.528,2.452,5.275,5.275,0,0,1-1.653,2.044,6.721,6.721,0,0,1-2.238,1.068,15.759,15.759,0,0,1-2.181.4,67.43,67.43,0,0,1-8.291.352l-8.145-.119-16.3-.254-8.148-.137-2.038-.036c-.677,0-1.369-.027-2-.018a13.426,13.426,0,0,0-3.723.445,6.477,6.477,0,0,0-3.013,1.683,6.817,6.817,0,0,0-1.638,3.061,15.94,15.94,0,0,0-.456,3.777,8.833,8.833,0,0,0,.024.934,2.908,2.908,0,0,0,.024.454l.078.445.075.445c.033.146.087.3.125.43l.128.43a3.878,3.878,0,0,0,.173.412,9.224,9.224,0,0,0,5.332,4.774,17.042,17.042,0,0,0,3.714.928,31.107,31.107,0,0,0,3.944.185l16.281.1,32.565.254a.564.564,0,1,1,0,1.128l-32.565.254-16.281.1a32.878,32.878,0,0,1-4.177-.149,18.943,18.943,0,0,1-4.177-1.005,12.7,12.7,0,0,1-3.795-2.19,9.956,9.956,0,0,1-2.709-3.58,5.465,5.465,0,0,1-.224-.522l-.173-.543c-.054-.182-.119-.361-.164-.546l-.1-.558-.1-.558c-.021-.188-.027-.373-.042-.561a10.986,10.986,0,0,1-.039-1.1,17.975,17.975,0,0,1,.477-4.29,8.965,8.965,0,0,1,2.133-4.022,8.673,8.673,0,0,1,3.968-2.3,15.619,15.619,0,0,1,4.323-.567c.731-.015,1.393,0,2.074,0l2.032.015,8.133.063,16.266.14,8.142.084a65.736,65.736,0,0,0,7.966-.3,13.669,13.669,0,0,0,1.823-.319,4.263,4.263,0,0,0,1.42-.659,2.781,2.781,0,0,0,.9-1.08,3.98,3.98,0,0,0,.313-1.492,6.564,6.564,0,0,0-.176-1.7,5.806,5.806,0,0,0-.6-1.587,6.8,6.8,0,0,0-.445-.713,6.581,6.581,0,0,0-.558-.627,6.185,6.185,0,0,0-1.357-1.02,9.138,9.138,0,0,0-3.413-1.038,8.109,8.109,0,0,0-.931-.066l-.468-.018H156.242c-5.427,0-10.86,0-16.293-.075q-4.075-.051-8.151-.14l-4.075-.1-1.017-.03c-.337,0-.677-.018-1.041-.048s-.716-.039-1.074-.084l-1.077-.158a10.946,10.946,0,0,1-4.144-1.632,7.963,7.963,0,0,1-2.888-3.523,11.43,11.43,0,0,1-.838-4.335,18.777,18.777,0,0,1,.116-2.142,10.273,10.273,0,0,1,.4-2.163,8.906,8.906,0,0,1,2.276-3.879,6.7,6.7,0,0,1,1.93-1.31,8,8,0,0,1,2.2-.6,17.308,17.308,0,0,1,2.139-.11h2.044l4.069.024,32.565.3a.561.561,0,0,1,0,1.122Z" transform="translate(-42.717 -77.887)"/><path class="t" d="M53.583,251.483a9.78,9.78,0,0,0,3.157,2.482,17.864,17.864,0,0,0,3.879,1.423,41.94,41.94,0,0,0,8.354,1.077c2.822.131,5.669.075,8.53.03l8.572-.066c11.412-.125,22.842-.51,34.289-.492l17.137-.075,8.578-.024c2.873.018,5.731.1,8.578.137s5.669.024,8.5-.125a50.214,50.214,0,0,0,8.3-.874,14.342,14.342,0,0,0,3.7-1.331,6.176,6.176,0,0,0,2.551-2.437,8.324,8.324,0,0,0,.865-3.58,15.478,15.478,0,0,0-.051-1.975,7.973,7.973,0,0,0-.355-1.814,4.644,4.644,0,0,0-.34-.776,3.553,3.553,0,0,0-.218-.346l-.263-.349a6.132,6.132,0,0,0-1.328-1.175,10.144,10.144,0,0,0-3.535-1.381,34.9,34.9,0,0,0-8.234-.43c-1.414.048-2.837.131-4.308.158s-2.87,0-4.308-.024l-8.569-.078-34.28-.334-4.284-.045-2.16-.03c-.716,0-1.432-.021-2.115,0-1.4.027-2.843.116-4.326.078a12.553,12.553,0,0,1-4.535-.809,5.762,5.762,0,0,1-1.107-.6,5.507,5.507,0,0,1-.958-.85,6.844,6.844,0,0,1-1.247-2.118,10.923,10.923,0,0,1-.57-4.6,12.593,12.593,0,0,1,1.14-4.43,7.853,7.853,0,0,1,1.319-1.99,6.593,6.593,0,0,1,1.969-1.435,11.684,11.684,0,0,1,4.475-.97c1.474-.075,2.9-.021,4.329-.021l8.572.063,17.14.149a.564.564,0,0,1,0,1.128l-17.14.14-8.569.057c-1.429.018-2.87,0-4.24.072a9.907,9.907,0,0,0-3.846.856,4.941,4.941,0,0,0-1.465,1.089,6.206,6.206,0,0,0-1.014,1.584,10.907,10.907,0,0,0-.94,3.807,9.2,9.2,0,0,0,.507,3.84,5.054,5.054,0,0,0,.925,1.545,3.688,3.688,0,0,0,.647.561,3.939,3.939,0,0,0,.776.406,11.013,11.013,0,0,0,3.879.618c1.381.021,2.781-.084,4.243-.128.746-.021,1.456,0,2.169-.018H159.9c1.384-.021,2.816-.1,4.254-.155a37.005,37.005,0,0,1,8.84.483,12.569,12.569,0,0,1,4.389,1.742,8.6,8.6,0,0,1,1.862,1.662l.382.5a6.1,6.1,0,0,1,.352.561,7.119,7.119,0,0,1,.519,1.193,10.4,10.4,0,0,1,.474,2.387,17.839,17.839,0,0,1,.06,2.306,10.741,10.741,0,0,1-1.158,4.66,8.568,8.568,0,0,1-3.55,3.4,16.706,16.706,0,0,1-4.347,1.522,49.65,49.65,0,0,1-8.727.865c-2.852.107-5.776.125-8.652.066s-5.719-.161-8.56-.2l-8.563-.039-17.113-.069c-11.406-.143-22.827.116-34.268.116-2.855,0-5.734-.045-8.569-.057s-5.728,0-8.607-.164a42,42,0,0,1-8.6-1.247,19.065,19.065,0,0,1-4.12-1.584,10.926,10.926,0,0,1-3.485-2.837.561.561,0,1,1,.874-.7Z" transform="translate(-24.891 -104.766)"/><path class="t" d="M88.567,275.346c.277.185.624.373.931.555l.988.519c.668.331,1.349.644,2.029.952l2.088.856,2.121.761c.7.269,1.426.468,2.145.692s1.435.448,2.16.65l2.187.558c.731.176,1.45.394,2.193.534,1.477.3,2.942.638,4.425.91l4.454.713c1.492.209,2.983.364,4.475.546.749.081,1.492.2,2.247.245l2.256.167,2.256.167c.752.051,1.492.137,2.256.149l4.523.161c.755.024,1.507.06,2.261.075h2.264l4.529-.021h1.131l1.131-.051,2.261-.1,4.526-.2c.755-.021,1.507-.1,2.258-.158l2.259-.185,4.517-.352a63.421,63.421,0,0,1,18.48.471,39.387,39.387,0,0,1,4.544,1.193,31.509,31.509,0,0,1,4.368,1.829,23.742,23.742,0,0,1,7.39,5.919,24.1,24.1,0,0,1,4.395,8.336,34.208,34.208,0,0,1,1.4,9.21,48.694,48.694,0,0,1-.7,9.2,55.373,55.373,0,0,1-2.259,8.933.564.564,0,0,1-1.071-.352V328.2a54.2,54.2,0,0,0,1.921-8.771,49.634,49.634,0,0,0,.462-8.95,32.476,32.476,0,0,0-1.516-8.709,21.236,21.236,0,0,0-11.039-12.829,29.27,29.27,0,0,0-4.058-1.623,37.084,37.084,0,0,0-4.278-1.047,52.948,52.948,0,0,0-8.846-.755c-.743-.018-1.492,0-2.235.024s-1.492.054-2.238.1-1.492.089-2.238.146l-2.261.167c-3.043.212-6.083.468-9.13.618l-4.574.14-2.288.069-1.143.036h-1.146l-4.58-.042-2.288-.021c-.764-.024-1.525-.072-2.288-.107l-4.574-.227c-1.525-.081-3.043-.266-4.565-.4l-2.279-.218c-.761-.066-1.516-.2-2.273-.3-1.513-.218-3.028-.406-4.538-.65l-4.511-.832c-1.492-.3-2.983-.68-4.475-1.017-.749-.155-1.492-.4-2.217-.6l-2.208-.63c-.731-.227-1.453-.483-2.181-.725s-1.456-.474-2.166-.77l-2.142-.838-2.106-.937a31.847,31.847,0,0,1-4.072-2.261.562.562,0,1,1,.63-.931Z" transform="translate(-34.927 -120.198)"/><path class="t" d="M204.787,285.817a45.693,45.693,0,0,0,7.608-3.652,46.861,46.861,0,0,0,6.862-4.893,38.018,38.018,0,0,0,10.072-13.142,39.991,39.991,0,0,0,1.539-3.852c.239-.668.48-1.42.809-2.118a9.572,9.572,0,0,1,1.274-2.112,4.33,4.33,0,0,1,1.122-.973,2.727,2.727,0,0,1,1.79-.349,3.076,3.076,0,0,1,1.492.734,5.227,5.227,0,0,1,.9,1.014,13.393,13.393,0,0,1,1.79,4.293,28.8,28.8,0,0,1,.815,8.819,23.329,23.329,0,0,1-.665,4.389,15.055,15.055,0,0,1-1.7,4.138.564.564,0,0,1-.979-.558h0a13.811,13.811,0,0,0,1.3-3.879,23.508,23.508,0,0,0,.388-4.135,28.447,28.447,0,0,0-1.137-8.2,12.116,12.116,0,0,0-1.629-3.547c-.334-.477-.794-.8-.946-.779a.433.433,0,0,0-.26.09,2.111,2.111,0,0,0-.436.439,7.33,7.33,0,0,0-.874,1.6c-.122.3-.242.612-.355.928l-.334.982a32.389,32.389,0,0,1-1.644,4.129l-.483,1.017-.531.976c-.346.656-.752,1.277-1.14,1.906s-.832,1.223-1.25,1.835a18.9,18.9,0,0,1-1.36,1.748,41.068,41.068,0,0,1-6.283,6.173,46.284,46.284,0,0,1-15.434,8.055.561.561,0,1,1-.352-1.065Z" transform="translate(-68.31 -114.328)"/><path class="t" d="M220.644,318.846a11.43,11.43,0,0,0,5.9-1.9,21.586,21.586,0,0,0,4.72-4.284c.7-.818,1.36-1.677,1.981-2.557l1.886-2.709q1.883-2.715,3.67-5.478t3.44-5.594c1.1-1.889,2.112-3.819,3.067-5.773s1.79-3.962,2.557-5.991,1.39-4.105,1.975-6.191a46.375,46.375,0,0,0,1.155-6.31,55.74,55.74,0,0,0,.28-6.441,43.382,43.382,0,0,0-2.088-12.674l-.248-.767-.3-.746c-.2-.492-.379-1-.6-1.492l-.7-1.435a6.5,6.5,0,0,0-.379-.7l-.4-.689-.415-.692c-.143-.224-.3-.436-.453-.653-.3-.43-.6-.9-.922-1.292a16.9,16.9,0,0,0-2.184-2.253,13.373,13.373,0,0,0-2.557-1.763,6.167,6.167,0,0,0-2.79-.773,3.386,3.386,0,0,0-2.429,1.053,6.686,6.686,0,0,0-1.441,2.6l.027-.185h0l-.027.182a16.3,16.3,0,0,0-.65,3.8h0a.564.564,0,0,1-1.125-.054,17.488,17.488,0,0,1,.528-4.1l-.027.182h0l.027-.2a8.013,8.013,0,0,1,1.632-3.2,4.9,4.9,0,0,1,1.542-1.161,4.836,4.836,0,0,1,1.892-.459,6.31,6.31,0,0,1,1.865.218,9.209,9.209,0,0,1,1.7.626,15.034,15.034,0,0,1,2.942,1.9,18.659,18.659,0,0,1,2.488,2.423c.373.451.7.913,1.044,1.372.17.233.349.456.507.692l.453.728.453.728a7.365,7.365,0,0,1,.427.743l.788,1.519c.254.51.459,1.041.689,1.56l.337.785.3.8a44.862,44.862,0,0,1,2.518,13.3,50.862,50.862,0,0,1-.215,6.781,44.628,44.628,0,0,1-1.256,6.7q-.916,3.246-2.145,6.388c-.835,2.088-1.742,4.138-2.754,6.137a100.463,100.463,0,0,1-6.862,11.472q-1.889,2.742-3.852,5.421l-1.972,2.685c-.677.9-1.39,1.775-2.148,2.617a23,23,0,0,1-5.224,4.386,12.679,12.679,0,0,1-6.623,1.85.561.561,0,1,1,0-1.122Z" transform="translate(-72.809 -109.589)"/><path class="t" d="M98.309,303.728a117.145,117.145,0,0,1-27.248-3.049,110.014,110.014,0,0,1-13.178-3.959,90.771,90.771,0,0,1-12.531-5.788,67.614,67.614,0,0,1-11.358-7.912,55.081,55.081,0,0,1-9.332-10.3l-.94-1.453-.477-.734-.436-.758-.877-1.519c-.3-.51-.525-1.041-.788-1.563s-.537-1.038-.755-1.578l-.674-1.617-.337-.809-.3-.817c-.194-.546-.4-1.086-.6-1.635q-1.1-3.282-1.889-6.692a67.948,67.948,0,0,1-1.134-6.862,62.908,62.908,0,0,1-.325-6.969,57.407,57.407,0,0,1,.6-6.963,47.178,47.178,0,0,1,4.111-13.366,43.159,43.159,0,0,1,3.488-6.051,44.668,44.668,0,0,1,4.383-5.454,49.079,49.079,0,0,1,10.89-8.652,47.054,47.054,0,0,1,6.236-3.112,49.346,49.346,0,0,1,6.629-2.175,62.535,62.535,0,0,1,6.8-1.3c2.285-.3,4.574-.5,6.862-.638s4.595-.17,6.862-.2a5.176,5.176,0,0,0,4.642-3.2,5.021,5.021,0,0,0,.37-1.453l.03-.376v-.379c0-.233-.03-.558-.048-.847A16.779,16.779,0,0,1,77.156,182a16.5,16.5,0,0,1,2.6-6.531.564.564,0,0,1,.943.618,15.3,15.3,0,0,0-2.288,6.107,15.481,15.481,0,0,0-.11,3.282c.021.28.054.522.066.856,0,.158.021.316.018.474l-.024.474a6.408,6.408,0,0,1-.43,1.853,6.071,6.071,0,0,1-.94,1.659,6.39,6.39,0,0,1-1.375,1.328,6.674,6.674,0,0,1-1.7.9,6.907,6.907,0,0,1-1.889.346c-2.294.066-4.535.137-6.8.3s-4.5.4-6.722.725a60.769,60.769,0,0,0-6.594,1.34,47.48,47.48,0,0,0-6.334,2.157,45.07,45.07,0,0,0-5.928,3.07,47.736,47.736,0,0,0-10.311,8.422,42.417,42.417,0,0,0-4.108,5.227,40.837,40.837,0,0,0-3.255,5.788A46.292,46.292,0,0,0,18.206,233.1a54.943,54.943,0,0,0-.54,6.638,60.981,60.981,0,0,0,.3,6.668,65.519,65.519,0,0,0,1.059,6.605c.489,2.178,1.071,4.338,1.763,6.462.173.531.367,1.056.549,1.584l.277.791.3.77.627,1.539c.2.516.471,1,.7,1.492s.468,1.005.734,1.492l.814,1.453.424.743.448.7.9,1.4A52.858,52.858,0,0,0,35.42,281.4a67.321,67.321,0,0,0,10.94,7.787,88.859,88.859,0,0,0,12.173,5.83,108.278,108.278,0,0,0,12.925,4.075,116.311,116.311,0,0,0,26.851,3.521h0a.561.561,0,1,1,0,1.122Z" transform="translate(-14.175 -91.595)"/><path class="t" d="M74.888,223.916a22.871,22.871,0,0,0-1.05,4.523,15.335,15.335,0,0,0-.131,2.264,8.98,8.98,0,0,0,.269,2.145,5.7,5.7,0,0,0,.853,1.811,5.036,5.036,0,0,0,1.426,1.316,4.822,4.822,0,0,0,1.79.656,6.739,6.739,0,0,0,1.987,0,9.113,9.113,0,0,0,1.957-.579A8.084,8.084,0,0,0,83.731,235a5.78,5.78,0,0,0,1.31-1.492,4.428,4.428,0,0,0,.6-1.841c.084-.7.069-1.492.1-2.327a9.967,9.967,0,0,1,.122-1.3,11.938,11.938,0,0,1,.3-1.262,14.145,14.145,0,0,1,2.208-4.505.564.564,0,0,1,.949.6h0a14.452,14.452,0,0,0-1.542,4.281,10.332,10.332,0,0,0-.152,1.092,8.885,8.885,0,0,0,0,1.092c.024.761.107,1.575.075,2.47a6.5,6.5,0,0,1-.68,2.745,7.828,7.828,0,0,1-1.7,2.22,9.117,9.117,0,0,1-4.911,2.306,8.239,8.239,0,0,1-2.79-.078,7.1,7.1,0,0,1-5.6-5.707,10.834,10.834,0,0,1-.131-2.625,17.073,17.073,0,0,1,.343-2.5,21.275,21.275,0,0,1,1.626-4.675.564.564,0,0,1,1.041.424Z" transform="translate(-30.401 -104.991)"/><path class="t" d="M269.669,157.037a18.09,18.09,0,0,1-2.888,4.854,24.76,24.76,0,0,1-4.028,3.947c-.373.3-.773.54-1.167.8-.2.125-.4.254-.6.376l-.627.328-1.268.641-1.289.54-.647.269c-.218.084-.442.152-.662.227-.442.152-.9.3-1.328.427-.9.263-1.805.439-2.7.633a.564.564,0,0,1-.364-1.059l.048-.024c.812-.388,1.635-.716,2.429-1.1.394-.2.785-.409,1.193-.6.2-.1.4-.188.6-.3l.567-.331,1.134-.656,1.089-.722.534-.346c.173-.131.349-.257.525-.382.349-.254.719-.48,1.065-.737a31.027,31.027,0,0,0,4.013-3.282,24.885,24.885,0,0,0,3.347-3.971l.03-.045a.561.561,0,0,1,.991.51Z" transform="translate(-81.876 -86.173)"/><path class="t" d="M234.395,167.125a20.386,20.386,0,0,0,1.256,7.7,13.559,13.559,0,0,0,1.835,3.344,10.94,10.94,0,0,0,2.736,2.527,11.843,11.843,0,0,0,3.419,1.492,28.994,28.994,0,0,0,3.867.633,37.214,37.214,0,0,0,7.867-.021q1.951-.236,3.879-.647a33.415,33.415,0,0,0,3.759-1.08,27.818,27.818,0,0,0,6.916-3.625A29.041,29.041,0,0,0,275.6,172a36.788,36.788,0,0,0,4.177-6.793h0a.564.564,0,0,1,1.035.448,34.98,34.98,0,0,1-3.879,7.339,29.2,29.2,0,0,1-5.761,6.1,29.71,29.71,0,0,1-15.514,6.194,35.953,35.953,0,0,1-8.4-.191,30.838,30.838,0,0,1-4.177-.829,13.243,13.243,0,0,1-3.962-1.895,12.865,12.865,0,0,1-3.085-3.121,15.294,15.294,0,0,1-1.9-3.879,19.891,19.891,0,0,1-.838-4.15,20.289,20.289,0,0,1,0-4.213.561.561,0,0,1,1.119.075Z" transform="translate(-76.553 -88.628)"/><path class="t" d="M374.163,198.925a72.8,72.8,0,0,0-15.741,5.537,81.15,81.15,0,0,0-7.271,4.061c-2.339,1.492-4.586,3.13-6.781,4.827-1.074.88-2.163,1.736-3.216,2.646l-.794.674-.779.692c-.519.459-1.05.91-1.551,1.393-2.047,1.883-4,3.879-5.872,5.934s-3.631,4.237-5.32,6.459c-.844,1.113-1.647,2.256-2.438,3.407s-1.554,2.336-2.235,3.524v.018a.564.564,0,0,1-.994-.528,63.787,63.787,0,0,1,4.3-7.381,84.132,84.132,0,0,1,5.117-6.844,83.033,83.033,0,0,1,5.785-6.31c.5-.513,1.026-.993,1.545-1.492s1.05-.973,1.593-1.438,1.071-.949,1.632-1.393l1.68-1.337a73.913,73.913,0,0,1,14.733-8.748c.656-.283,1.322-.546,1.981-.817l.991-.406,1.008-.364,2.017-.722q1.017-.337,2.044-.641a65,65,0,0,1,8.336-1.862h0a.562.562,0,1,1,.209,1.1Z" transform="translate(-101.713 -98.053)"/><path class="t" d="M73.156,145.663c1.745-.107,3.488-.176,5.233-.257l5.233-.188,5.233-.143,2.617-.057h.6a2.012,2.012,0,0,0,.445-.072c.072-.018.146-.03.218-.051l.212-.084a2.667,2.667,0,0,0,.418-.206,4.639,4.639,0,0,0,1.432-1.414,7.39,7.39,0,0,0,.913-2,7.96,7.96,0,0,0,.3-2.264v-2.667a22.264,22.264,0,0,1,.758-5.406,13.208,13.208,0,0,1,2.464-4.893.564.564,0,0,1,.913.656h0a13.02,13.02,0,0,0-1.757,4.607,22.921,22.921,0,0,0-.331,5c.021.421.039.841.075,1.262,0,.209.036.421.057.63l.03.316.024.361a10.255,10.255,0,0,1-.209,2.927,8.578,8.578,0,0,1-1.134,2.79c-.134.221-.3.424-.451.635s-.346.4-.522.6a5.886,5.886,0,0,1-.6.531,7.662,7.662,0,0,1-.689.453,5.109,5.109,0,0,1-.761.358l-.4.143c-.137.042-.277.066-.418.1a4.125,4.125,0,0,1-.85.1h-.749l-2.617-.057-5.233-.143-5.233-.188c-1.745-.084-3.488-.152-5.233-.257a.564.564,0,0,1,0-1.122Z" transform="translate(-30.626 -77.442)"/></g></g></g></svg>