<svg xmlns="http://www.w3.org/2000/svg" xmlns:xlink="http://www.w3.org/1999/xlink" width="300.43" height="293.466" viewBox="0 0 300.43 293.466"><defs><style>.a{fill:#e5e5e5;}.b{fill:#def1ff;}.c{clip-path:url(#a);}.d{fill:#f4b49c;}.e{fill:#f4d28b;}.f{fill:#f4cfc1;}.g{fill:#818fd0;}.h{fill:#f0baa5;}.i{fill:#f4aa8f;}.j{fill:#f4a78b;}.k{fill:#f09f82;}.l{fill:#f09878;}.m{fill:#f49c7c;}.n{fill:#5a669c;}.o{fill:#515c8c;}.p{fill:#233940;}.q{fill:#7d5648;}.r{fill:#6b493d;}</style><clipPath id="a"><circle class="a" cx="142" cy="142" r="142" transform="translate(0.375 -0.046)"/></clipPath></defs><g transform="translate(-1361.57 -6917)"><path class="b" d="M141.712,290.084a147.7,147.7,0,0,1-28.56-2.773,142.869,142.869,0,0,1-26.6-8,139.407,139.407,0,0,1-45.045-29.8,138.48,138.48,0,0,1-30.37-45.029,142.54,142.54,0,0,1-8.257-27.04A150.261,150.261,0,0,1,0,148.015a158.795,158.795,0,0,1,2.557-28.242,163.627,163.627,0,0,1,19-52.084A155.2,155.2,0,0,1,37.039,45.426,141.374,141.374,0,0,1,55.855,26.737,125.388,125.388,0,0,1,77.528,12.409a112.1,112.1,0,0,1,24.043-9.175A105.893,105.893,0,0,1,127.5,0a108.13,108.13,0,0,1,14.211.947,242.745,242.745,0,0,1,27.974,5.331,181.592,181.592,0,0,1,25.371,8.436,142.44,142.44,0,0,1,22.492,11.853,121.948,121.948,0,0,1,19.334,15.583,118.646,118.646,0,0,1,15.9,19.624A133.093,133.093,0,0,1,264.97,85.752a168.637,168.637,0,0,1,8.2,28.642,231.611,231.611,0,0,1,3.931,33.62c.911,15.389-2.472,32.684-9.781,50.014a163.6,163.6,0,0,1-31.491,48.007,157.61,157.61,0,0,1-19.719,17.71,140.556,140.556,0,0,1-22.564,13.938,123.443,123.443,0,0,1-24.95,9.126A113.015,113.015,0,0,1,141.712,290.084ZM134.75,8.192c-54.76,0-98.267,54.292-111.4,105.368C9.274,168.3,23.092,211.793,69.554,258.992c14.8,15.031,34.944,22.653,59.883,22.654h.006c23.608,0,45.73-6.815,60.131-12.53,16.165-6.416,30.9-14.849,37.532-21.485,18.14-18.14,38.672-51.789,33.473-109.074a194.49,194.49,0,0,0-18.67-67.13,165.745,165.745,0,0,0-10.3-18.191c-2.588-3.931-4.314-6.1-4.5-6.329l0,0h0a58.006,58.006,0,0,0-5.053-5.249A108.651,108.651,0,0,0,206.56,29.707C193.861,21.56,172.4,11.273,142.27,8.534c-2.5-.227-5.024-.342-7.513-.342Z" transform="translate(1384.756 6920.382)"/><g class="c" transform="translate(1361.195 6917.046)"><g transform="translate(0 27.52)"><path class="d" d="M173.714,163.407c-.126.2-.251.4-.371.6-.395.676-.751,1.379-1.08,2.094a2.348,2.348,0,0,1-1.068,0,1.557,1.557,0,0,1-.272-.081,50.225,50.225,0,0,0-6.837,21.05c-.209,2.524,1.959,2.554,2.9,4.038a2.871,2.871,0,0,1,.425,1.5c0,.44.024.9.033,1.34.087,4,.042,8.327-.159,12.765a162.764,162.764,0,0,1-3.446,27.878,52.692,52.692,0,0,1-18.245,29.033l-7.373.114.272-.176-90.968-.018a2.146,2.146,0,0,1-1.02-4q-2.6-16.749-5.769-33.381a989.406,989.406,0,0,0-29.81-116.885c-1.391-1.008-1.131-3.658.882-3.807a2.3,2.3,0,0,1,1.555.018q15.218.263,30.435.643,55.592,1.379,111.127,4.286a2.094,2.094,0,0,1,1.938,1.457,2.07,2.07,0,0,1,.634.975l3.718,11.6,3.6,11.234,5.746,17.93.706,2.192,2.088,6.475Z" transform="translate(-10.053 -65.131)"/><path class="e" d="M298,225.1C280.478,174.447,264.856,122.746,246.34,72.55c-4.05-10.977-12.2-21.881-23.811-23.356-11.213-1.427-21.235,6.215-31.2,11.554a84.024,84.024,0,0,1-42.447,9.87c-12.583-.449-27.762-2.713-35.433,7.271-1.463,1.9-5.563,9.227-3.972,11.7,2.393,3.73,16.127,2.725,19.788,2.949,8.991.553,18,.831,27.008.6,10.546-.263,23.649-.32,33.6,2.007,0,0,12.146,29.927,16.339,44.654,5.231,18.382,6.556,37.685,9.891,56.474,2.467,13.9,1.693,29.4-9.047,40.584-7.534,7.857-17.945,7.627-27.989,7.477-19.4-.3-37.087,1.795-56.483,1.795-8.8-.3-1.2,5.408,1.373,7.426,4.334,3.4,8.65,4.471,13.381,6.58a208.329,208.329,0,0,0,93.5,17.8c18.959-.823,38.328-4.462,54.312-14.691,7.791-4.986,15.062-12.3,16.013-21.5q.075-.724.1-1.445C301.426,235.12,299.7,230.024,298,225.1Z" transform="translate(-38.393 -49.019)"/><path class="f" d="M181.951,163.405c-.123.2-.251.407-.368.6-.395.679-.754,1.379-1.08,2.094a2.264,2.264,0,0,1-1.065,0,1.32,1.32,0,0,1-.278-.081,49.97,49.97,0,0,0-6.837,21.032c-.209,2.518,1.956,2.554,2.9,4.035a2.913,2.913,0,0,1,.422,1.5c0,.443.027.9.033,1.337,0,.631.027,1.277.027,1.929v1.977c0,2.859-.069,5.841-.2,8.862a162.325,162.325,0,0,1-3.443,27.875,52.608,52.608,0,0,1-15.774,26.918q-1.2,1.1-2.47,2.133l-7.376.263a.472.472,0,0,1,.272-.024H128.794c-24.352,0-48.7-.161-73.05-.168-2.357,0-2.737-3.248-1.02-4.077-1.732-11.156-3.661-22.327-5.772-33.423A990.475,990.475,0,0,0,19.165,109.288c-1.391-1-1.134-3.667.9-3.81a2.288,2.288,0,0,1,1.549,0q15.218.263,30.435.643,55.583,1.382,111.106,4.292a2.094,2.094,0,0,1,1.935,1.46,2.04,2.04,0,0,1,.631.972l3.721,11.6,3.607,11.231,5.665,17.67.081.257.706,2.192,2.07,6.478Z" transform="translate(-12.411 -65.132)"/><path class="g" d="M86.909,122.606l-37.542-1.654c-2.692-.12-2.59,4.083.1,4.187l37.542,1.654C89.711,126.928,89.6,122.725,86.909,122.606Z" transform="translate(-20.737 -69.597)"/><path class="g" d="M213.691,156.829l-28.114,2.521a2.126,2.126,0,0,1-2.094-2.608l4.3-24.6a12.641,12.641,0,0,0,.087-3.015c-.087-1.331.9-2.692,2.473-2.127a38,38,0,0,1,22.611,22.064,22.061,22.061,0,0,0,2.366,4.328A2.238,2.238,0,0,1,213.691,156.829Z" transform="translate(-59.659 -71.292)"/><path class="h" d="M169.222,201.736Z" transform="translate(-55.588 -92.708)"/><path class="h" d="M225.719,187.711a3.478,3.478,0,0,1-.341,1.14c-.679,1.406-2.336,2.052-2.844,3.589-1,3.057-1.977,1.561-2.393,4.753-.443,3.368-.673,6.75-.978,9.921-.17,1.732,3.888,3.416,3.589,5.2-.042.257.422,5.746.374,6,0,.631-.5.846-.5,1.5,0,.422-4.4-3.864-2.273,2.228v.7c-2.124-2.805-2.109.176-2.243,3.2a38.982,38.982,0,0,1-5.817,5.324,27.8,27.8,0,0,1-19.408,5.527c-7.45-.828-12.837-5.216-16.546-11.557-4-6.843-8.171-14.823-8.787-22.862a21.576,21.576,0,0,1,.96-8.216.336.336,0,0,1,.03-.075c.069-.209.144-.434.224-.646,4.561,3.179,10.45,5.91,15.005,9.074,4.115,2.886,8.536,6.281,13.791,4.187,9.705-3.87,9.67-16.19,13.411-24.346a19.4,19.4,0,0,1,4.522-6.317c1.214-1.1,3.864-3.443,5.907-3.478l.081.257.706,2.192,2.07,6.478.368,1.134C224.95,184.023,225.9,186.344,225.719,187.711Z" transform="translate(-55.093 -84.357)"/><path class="h" d="M175.912,285.195q-1.2,1.1-2.47,2.133l-7.376.263a.473.473,0,0,1,.272-.024H148.423a18.622,18.622,0,0,1-.3-4.295c2.064-9.391-9.14-15.227-14.981-20.251a25.039,25.039,0,0,1-6.655-8.6,56.411,56.411,0,0,1-3.09-10.169c-.834-3.44-1.717-6.969-3.7-9.939s-5.094-4.905-8.156-6.661-6.281-3.52-8.829-6.048A23.1,23.1,0,0,1,97.3,212.2c-2.186-6.661-2.692-15.681-9.406-19.605-2.234-1.31-.449-4.72,1.765-3.81a1.75,1.75,0,0,1,1.929-.47c9.194,2.886,11.865,10.941,16.414,18.221,2.393,3.822,4.917,7.516,9.215,8.718,3.924,1.095,14.844-4.02,17.99-1.277,5.623,4.911-.161,19,2.342,25.65,3.158,8.4,9.37,15.1,15.538,21.433,7.232,7.423,14.506,14.8,21.765,22.2a7.427,7.427,0,0,1,1.062,1.941Z" transform="translate(-32.028 -88.835)"/><path class="i" d="M112.933,188.814c-.251.045-.505.1-.757.156-2.635.571-3.822-3.46-1.181-4.032l.5-.1a10.647,10.647,0,0,1,1.337,1.217,2.07,2.07,0,0,1,.1,2.764Z" transform="translate(-38.506 -87.873)"/><path class="j" d="M197.363,272.729c-6.335,2.554-13.839,1.2-20.093-.933a49.885,49.885,0,0,1-12.921-6.607,2.068,2.068,0,0,1-2.5.332,70.286,70.286,0,0,1-28.982-45.5,7.947,7.947,0,0,0-3.792-3.38,12.5,12.5,0,0,0-2.856-.837c-3.347-.6-6.58-.966-9.586-2.692-5.046-2.883-8.41-7.857-11.724-12.472-.063-.084-.123-.167-.185-.257a64.2,64.2,0,0,0-4.328-5.575,17.808,17.808,0,0,0-7.561-5.315c-1.519.063-3.054-1.43-1.983-3.021.045-.066.087-.135.138-.2,4.406-4.271,11.249-5.273,17.476-5.028a60,60,0,0,1,17.2,3.29.09.09,0,0,1,0,.033c.861.3,1.777.6,2.734.987l.47.185c1.43.571,2.952,1.253,4.555,2.067l.7.362a60.711,60.711,0,0,1,5.725,3.392l.042-.024a.386.386,0,0,1,.371,0,47.343,47.343,0,0,1,19.229,19.034,52.412,52.412,0,0,1,3.134,7.519,34.35,34.35,0,0,0,7.758,12.065c3.682,4,9.086,5.626,13.48,4.13,3.888-1.316,6.107-1.893,8.246-5.5.138-.236,1.872-2.393,2-2.623.933-1.771,2.183-3.649,2.249-5.623.06-1.732,0-4.05.751-5.623,2.97,1.292,4.337,3.081,7.082,4.785a2.064,2.064,0,0,1,.9,1.071,2.094,2.094,0,0,1,.263.159l.159.117.093.084.087.084a1.887,1.887,0,0,1,.194.218.9.9,0,0,1,.06.075,55.173,55.173,0,0,0-3.042,5.6c-.715,1.549-1.711,2.889-2.306,4.486a18.9,18.9,0,0,0-1.116,5.279c-.377,5.6,2.061,9.966,4.5,14.751.126.242.3.488.428.73a5.811,5.811,0,0,0,.745,1.477s-.045.03-.045.042c.093.2.138.4.218.6s.123.341.188.511c.164.437.3.882.437,1.331.054.185.1.371.153.559.1.365.173.739.242,1.119.039.209.072.416.1.631s.051.377.066.568C207.1,265.32,202.816,270.533,197.363,272.729Z" transform="translate(-33.066 -86.837)"/><path class="k" d="M240.3,289.607q-.831,1.777-1.669,3.553a1.4,1.4,0,0,1-2.15.867A100.883,100.883,0,0,1,226.609,290c-3.158-1.5-6.368-3.179-9.87-3.35-2.838-.144-5.614.736-8.428,1.116-8.838,1.2-17.592-2.5-25.3-6.987a7.4,7.4,0,0,0-2.74-1.146,17.51,17.51,0,0,1-1.759-.126,4.759,4.759,0,0,1-1.72-.9,69.688,69.688,0,0,1-26.556-39.507c-.655-2.692-1.235-5.557-3.179-7.513,6.942-.814,13.582.162,19.019,4.947,3.493,3.075,5.9,7.2,9.113,10.573a26.792,26.792,0,0,0,17.592,8.428,17.894,17.894,0,0,0,9.661-1.965,11.949,11.949,0,0,0,5.982-7.633,19.493,19.493,0,0,0,.329-3.745,24.767,24.767,0,0,0,4.615-11.5.849.849,0,0,1,.158-.452c.395-.446,3.855.2,4.558.239a32.806,32.806,0,0,1,4.785.511,1.621,1.621,0,0,1,1.645,1.711,182,182,0,0,1,.769,45.462,4.033,4.033,0,0,0,.129,2.019,3.652,3.652,0,0,0,.93,1.16,37.807,37.807,0,0,0,13.959,8.258Z" transform="translate(-49.248 -100.821)"/><path class="l" d="M141,202.775c-6.281,4.9-12.328-4.549-16.049-8.315a16.691,16.691,0,0,0-8.375-5,11.455,11.455,0,0,0-5.049.23,2.265,2.265,0,0,0-.446.182,5.33,5.33,0,0,1-4.747.1,2.151,2.151,0,0,1-.652-.422,4.457,4.457,0,0,0-6.5.039,2.11,2.11,0,0,0-.332,2.587,2.246,2.246,0,0,0,1.122.718c2.363.766,5.5-.042,7.968-.072a24.494,24.494,0,0,1,8,1.023c9.418,3.1,13.576,13.558,12.8,22.8-.227,2.692,3.975,2.569,4.187-.1a29.263,29.263,0,0,0-.8-9.625l.15.072c3.481,1.57,7.708,1.848,10.86-.613C145.267,204.719,143.126,201.1,141,202.775Z" transform="translate(-35.368 -88.824)"/><path class="l" d="M206.446,295.015q-1.1.718-2.213,1.421a46.176,46.176,0,0,1-7.477-1.9,49.886,49.886,0,0,1-12.921-6.607c-.126.114,2.6,5.554,2.45,5.638-.646.377-4.5-2.817-5.123-3.248-9.759-6.792-17.365-18-22.557-28.479a1.914,1.914,0,0,1,.864-.377,2.18,2.18,0,0,1,3.042-.23c2.719,2.273,4,6.036,6.975,7.968,3.383,2.2,4.7-1.05,6.3-3.437,1.445-2.15,3.416-3.81,6.021-3.772a6.463,6.463,0,0,1,.879.075l.3.054a.587.587,0,0,1,.173.042h0c5.928,3.134,8.267,11.682,12.481,16.9a2.817,2.817,0,0,0,2.162.484c1.908-.395,1.866-2.635,1.639-4.163-.526-3.508-1.579-7.02-2.438-10.468a1.72,1.72,0,0,1-.176-1.89,2.224,2.224,0,0,1,3.5-1.041,26.237,26.237,0,0,1,8.713,6.254c.861,1.379,1.66,2.79,2.458,4.142,1.654,2.805,3.5,5.743,4,9.021C216.453,287.789,211.21,291.9,206.446,295.015Z" transform="translate(-52.551 -109.581)"/><path class="j" d="M334.819,282.858c-.568,1.385-1.1,2.779-1.567,4.208-.978,3.015-1.857,6.069-3.075,9a48.022,48.022,0,0,1-6.5,11.3q-.473.6-.963,1.2c-11.8,13.959-29.978,22.324-48.177,24.352-14.736,1.648-30,.449-43.009-6.5a67.977,67.977,0,0,1-23-13.728,65.878,65.878,0,0,1-16.788-24.14,55.49,55.49,0,0,1-3.975-23.257,3.513,3.513,0,0,1,2.366-2.991,1.911,1.911,0,0,1,1.364.176c5.928,3.135,8.267,11.682,12.481,16.9a2.818,2.818,0,0,0,2.162.485c1.908-.395,1.866-2.635,1.639-4.163-.526-3.508-1.579-7.02-2.438-10.468a1.717,1.717,0,0,1-.176-1.89,2.224,2.224,0,0,1,3.5-1.041,26.236,26.236,0,0,1,8.712,6.254c4.166,4.4,7.2,9.987,9.972,15.343a2.487,2.487,0,0,1,.188.5c.185.236.374.47.571.706,8.464,10.169,25.722,17,37.889,15.762,7.256-.745,15.388-2.261,21.005-7,4.717-3.975,11.665-12.077,12.586-19.261a11.82,11.82,0,0,0,.1-1.322,1.023,1.023,0,0,0,0,.114h.06a2.07,2.07,0,0,1,.9.335,1.917,1.917,0,0,1,.227.165,35.829,35.829,0,0,0,27.412,7.821h.072a11.786,11.786,0,0,0,4.014-1.531c1.442-.712,2.991-1.172,4.4-1.9C336.123,279.8,335.444,281.32,334.819,282.858Z" transform="translate(-60.879 -109.887)"/><path class="m" d="M349.925,285.587c-.323-.281-1.774.093-2,.132a38.322,38.322,0,0,1-3.8.691h-.072a39.875,39.875,0,0,1-27.349-8.123,3.118,3.118,0,0,0-.3.138,2.669,2.669,0,0,0-.419.272l-.063.048a3.846,3.846,0,0,0-.6.55c-.924,7.178-8.2,13.9-12.918,17.877a39.16,39.16,0,0,1-20.673,8.375c-7.791.793-15.906-1.436-22.907-4.729a48.878,48.878,0,0,1-10.322-6.442c-1.256-1.038-2.725-3.29-4.127-3.972-2.527-1.232-1.415,3.347-1.02,4.427,1.711,4.675,6.41,7.845,10.51,10.31a49.2,49.2,0,0,0,22.4,6.712c12.3.7,24.388-4.187,33.322-12.562a45.784,45.784,0,0,0,9.706-13.226c-.1.212,5.683,2.174,6.218,2.315a33.752,33.752,0,0,0,12.188.867,41.606,41.606,0,0,0,11.766-3.012.852.852,0,0,0,.434-.317C350.018,285.77,350,285.659,349.925,285.587Z" transform="translate(-76.63 -114.609)"/><path class="m" d="M205.51,284.929a34.644,34.644,0,0,0-13.686-22.9c-2.162-1.615-4.187,2.064-2.064,3.661a29.939,29.939,0,0,1,11.551,19.342C201.7,287.668,205.908,287.605,205.51,284.929Z" transform="translate(-61.207 -109.843)"/><path class="n" d="M356.043,241.932a23.724,23.724,0,0,1-3.164,6c-1.277,1.666-2.246,3.365-4.166,3.831-2.524.613-4.905,2.237-7.5,2.375-4.22.221-8.754.23-12.8-.951-1.756-.511-2.716-.3-4.525-.6-2.279-.377-4.017-.084-5.832-.332-1.615-.221-5.467.936-6.831,1.833-2.868,1.884-2.417,1.424-4.534,4.047a38.741,38.741,0,0,1-28.752,14.548,43.128,43.128,0,0,1-8.751-.526,44.724,44.724,0,0,1-14.987-4.842,13.361,13.361,0,0,1-4.98-6.1c-1.364-3.742,1.229-7.241,1.268-10.953.03-3.167.389-6.344.467-9.511a186.849,186.849,0,0,0-.467-18.69c-.039-.233-.078-.467-.117-.712a2.807,2.807,0,0,1,.021-.428c.03-.625.06-1.238.087-1.851a1.471,1.471,0,0,0-.263-.138c-.078-.039-.176-.078-.284-.138-1.286-.574-4.424-1.911-4.785-2.124a31.842,31.842,0,0,1-4.92-3.44c-2.435-2.046-6.335-4.812-6.245-8.375a9.1,9.1,0,0,1,.748-3.048c3.957-10.468,11.694-19.2,21-25.276a60.355,60.355,0,0,1,15.1-7.124c1.872-.6,17.521-2.943,17.607-3.29-1.394,5.243-3.1,11.066-5.144,17.569-.781,2.494,3.1-6.628,5.6-5.886,6.362,1.9,1.14.544,7.28-1.959s-2.055-4.026,3.362-7.833a5.763,5.763,0,0,0,1.4-1.675c18.914,2.321,34.934,13.971,43.7,30.735C351.892,210.95,359.25,226.021,356.043,241.932Z" transform="translate(-74.114 -82.519)"/><path class="j" d="M323.2,147.344a54.832,54.832,0,0,1-10.124,13.345c-6.424,5.955-15.469,9.723-24.026,7.824a20.62,20.62,0,0,1-10.995-6.75,21.007,21.007,0,0,1-5.255-14.437.188.188,0,0,0,0-.063c.021,0,.042,0,.054-.027l.386-.144.048-.021a2.361,2.361,0,0,0,.23-.087c.359-.135.7-.266,1.02-.395a15.04,15.04,0,0,0,3.538-1.821c2.309-1.881-2.533-2.575-3.015-6.131a4.523,4.523,0,0,1-.027-.918,6.189,6.189,0,0,1,.359-1.624c.658-1.866-.218-3.87-1.128-5.826-.38-.834-.775-1.657-1.053-2.465-.637-1.881-1.854-4.486-4.148-4.645-2.186-.144-4.062-3.272-3.694-5.384a70.789,70.789,0,0,1,6.8-20.524,33.244,33.244,0,0,1,28.946-18.17c5.961-.135,11.258,3.2,11.512,9.571.15,3.837.646,7.7.577,11.539-.09,5.458-.963,10.737-.535,16.238.814,10.507,3.981,20.876,10.417,29.329a1.433,1.433,0,0,1,.108,1.585Z" transform="translate(-83.081 -57.619)"/><path class="o" d="M321.2,249.612a33.382,33.382,0,0,1-2.109,10.92c-.278.787-.574,1.549-.882,2.285a40.109,40.109,0,0,1-32.089,24.28,40.624,40.624,0,0,1-22.554-3.185c-4.456-2.043-8.324-5.147-9.062-10.25-.849-5.805.966-11,1.5-16.749a77.639,77.639,0,0,0,0-14.7c-.82-8.461-.4-16.887-4.047-25.124a1.029,1.029,0,0,1,.173-1.02c.353-.428,1.053-.275,1.519.024a6.646,6.646,0,0,1,2.255,3.266c2.692,6.6,3.254,13.513,4.187,20.5,1.809,13.495,6.759,25.219,20.239,30.256,12.888,4.818,29.939-.772,36.86-12.81a24.3,24.3,0,0,0,2.853-7.806.583.583,0,0,1,1.161.111Z" transform="translate(-79.239 -96.735)"/><path class="p" d="M56.468,193.2c3.41-.47,6.816-.682,10.223-.817a49.538,49.538,0,0,1,5.111.3c1.7.144,3.407.32,5.108.574a.694.694,0,0,1,0,1.37c-1.7.248-3.41.416-5.111.55a49.6,49.6,0,0,1-5.111.263c-3.407-.15-6.813-.377-10.22-.864a.691.691,0,0,1,0-1.367Z" transform="translate(-23.163 -90.033)"/><path class="q" d="M312.857,105.115c-.511,1.2-3.437,3.437-3.511.9a24.061,24.061,0,0,0,1.424-3.912,8.524,8.524,0,0,0,.329-3.685,3.761,3.761,0,0,0-2.13-2.865,4.387,4.387,0,0,0-3.033.138,9.065,9.065,0,0,0-5.034,4.447,8.908,8.908,0,0,0-.9,3.29,2.357,2.357,0,0,0-.132.778.631.631,0,0,1-.924.374c-3.888-2.767-4.041-7.477-4.274-11.826a15.358,15.358,0,0,0-1.469-6.6c-1.092-1.995-3.212-3.589-5.479-3.407a6.685,6.685,0,0,0-3.837,1.869c-4.531,4.038-7.678,12.562-15.328,9.607a10.049,10.049,0,0,1-6.365-9.167c-.185-6.176,3.544-10.612,8.485-13.653a40.215,40.215,0,0,1,13.7-4.941c9.792-1.714,21.627.82,26.619,10.343.063.117.123.236.176.356,3.455,7.7,2.228,16.5,2.127,24.714a8.685,8.685,0,0,1-.434,3.215Z" transform="translate(-82.185 -53.865)"/><path class="r" d="M314.58,77.156a18.924,18.924,0,0,1-1.95-.018c-3.532-.2-6.852.547-8.781,3.828-1.433,2.438-1.02,5.306-1.63,7.965-.488,2.141-2.094,4.343-4.08,4.881a28.565,28.565,0,0,0-.676-5.464,8.278,8.278,0,0,0-3.236-4.842,10.468,10.468,0,0,0-5.9-4.6c-4.723-1.412-10.4-.488-13.283-5.417a11.766,11.766,0,0,1-.969-2.094,40.214,40.214,0,0,1,13.7-4.941c9.792-1.714,21.627.82,26.619,10.343C314.467,76.916,314.523,77.033,314.58,77.156Z" transform="translate(-85.587 -53.865)"/><path class="m" d="M289.509,165.036c.15,5.276-4.415,14.09-8.467,20.589a21.006,21.006,0,0,1-5.255-14.437.188.188,0,0,0,0-.063c.021,0,.042,0,.054-.027l.386-.144.048-.021a2.365,2.365,0,0,0,.23-.087c.359-.135.7-.266,1.02-.395a15.04,15.04,0,0,0,3.538-1.821c2.309-1.881-2.533-2.575-3.015-6.131A12.876,12.876,0,0,0,289.509,165.036Z" transform="translate(-86.07 -81.484)"/><path class="l" d="M293.66,142.786a9.3,9.3,0,0,1-8.548,3.173c-2.139-.359-3.057,2.913-.9,3.275a12.756,12.756,0,0,0,11.85-4.044C297.5,143.555,295.1,141.144,293.66,142.786Z" transform="translate(-88.133 -75.687)"/><path class="l" d="M273.536,136.05a3.377,3.377,0,0,1-3.948-1.008c-1.28-1.744-4.229-.051-2.931,1.714a6.879,6.879,0,0,0,8.593,2.225C277.233,138.068,275.51,135.14,273.536,136.05Z" transform="translate(-83.371 -73.419)"/><path class="l" d="M326.171,113.682a3.412,3.412,0,0,0-4.57-1.346,3.616,3.616,0,0,0-1.642,4.412,2.267,2.267,0,0,0,.948,1.235,2.109,2.109,0,0,0,1.588.209,3.036,3.036,0,0,0,1.762.072A3.248,3.248,0,0,0,326.171,113.682Z" transform="translate(-98.646 -67.026)"/><path class="l" d="M294.994,112.714a6.593,6.593,0,0,0-7.953,1.175c-1.525,1.57.987,3.855,2.509,2.288a3.158,3.158,0,0,1,3.9-.428C295.344,116.845,296.878,113.815,294.994,112.714Z" transform="translate(-89.159 -67)"/><path class="p" d="M114.921,182.387a1.22,1.22,0,0,0-.634.541,3.382,3.382,0,0,0-.458,1.053,2.763,2.763,0,0,0-.081,1.086,1.319,1.319,0,0,0,.138.4,2.524,2.524,0,0,0,.275.413,3.7,3.7,0,0,0,1.884,1.125,11.4,11.4,0,0,0,2.584.281,20.086,20.086,0,0,1,3.033.251,16.966,16.966,0,0,1,3.024.79,17.323,17.323,0,0,1,5.408,3.14,14.954,14.954,0,0,1,2.171,2.279,28.087,28.087,0,0,1,1.708,2.459,21,21,0,0,0,3.29,4.3,7.716,7.716,0,0,0,2.058,1.4,5.824,5.824,0,0,0,1.137.368,3.654,3.654,0,0,0,1.14.078,3.692,3.692,0,0,0,3.437-2.671v-.021a.685.685,0,1,1,1.361.159,4.486,4.486,0,0,1-1.5,3.048,6.03,6.03,0,0,1-3.024,1.5,5.77,5.77,0,0,1-1.735.057,7.148,7.148,0,0,1-1.648-.383,10.065,10.065,0,0,1-2.841-1.606,15.187,15.187,0,0,1-2.246-2.2c-.655-.784-1.25-1.582-1.815-2.357s-1.125-1.519-1.684-2.213c-.281-.35-.577-.667-.876-.981s-.6-.622-.933-.912a15.646,15.646,0,0,0-6.936-3.619,20.8,20.8,0,0,0-2.692-.4,13.4,13.4,0,0,1-3.1-.6,5.743,5.743,0,0,1-2.811-2.073,3.965,3.965,0,0,1-.434-.84,3.26,3.26,0,0,1-.2-.993,4.525,4.525,0,0,1,.3-1.756,4.953,4.953,0,0,1,.861-1.5,2.533,2.533,0,0,1,1.747-.942.676.676,0,0,1,.227,1.325Z" transform="translate(-39.194 -86.788)"/><path class="p" d="M93.7,192.833a30.292,30.292,0,0,1,9.87-1.364,31.552,31.552,0,0,1,9.87,1.9,30.6,30.6,0,0,1,8.763,5.064,30.953,30.953,0,0,1,6.724,7.618,34,34,0,0,1,3.888,9.326c.867,3.206,1.466,6.436,2.076,9.613q.449,2.382.99,4.723a40,40,0,0,0,1.307,4.561,59.664,59.664,0,0,0,3.987,8.715h0a.686.686,0,0,1-1.175.706A54.432,54.432,0,0,1,135.3,235a37.416,37.416,0,0,1-1.633-4.717c-.446-1.585-.843-3.176-1.226-4.761-.772-3.164-1.466-6.314-2.411-9.338-.473-1.51-1.014-2.991-1.606-4.421l-.47-1.065-.488-1.044c-.347-.688-.712-1.364-1.113-2.022a29.236,29.236,0,0,0-22.883-14.174,30.256,30.256,0,0,0-9.412.691h0a.685.685,0,0,1-.362-1.316Z" transform="translate(-33.856 -89.768)"/><path class="p" d="M197.769,215.423a27.6,27.6,0,0,1-2.3,8.8,22.2,22.2,0,0,1-5.321,7.5,15.639,15.639,0,0,1-8.536,3.888,14.506,14.506,0,0,1-9.185-2.321,23.666,23.666,0,0,1-6.6-6.58,64.157,64.157,0,0,1-4.418-7.908l-2.007-3.915c-.679-1.286-1.409-2.521-2.186-3.739a61.7,61.7,0,0,0-5.18-6.927c-.939-1.095-1.932-2.147-2.949-3.17s-2.052-2.016-3.146-2.964a67.851,67.851,0,0,0-6.861-5.3,63.763,63.763,0,0,0-7.525-4.328c-1.307-.628-2.617-1.229-3.972-1.756l-2.028-.79c-.679-.257-1.367-.488-2.055-.715a57.608,57.608,0,0,0-17.1-2.892,29.837,29.837,0,0,0-8.5,1.1,15.522,15.522,0,0,0-7.178,4.3.685.685,0,1,1-1.035-.9,17,17,0,0,1,7.678-5.034,31.036,31.036,0,0,1,9.006-1.451,59.818,59.818,0,0,1,17.862,2.512c.724.215,1.445.437,2.156.685l2.133.763c1.421.505,2.82,1.107,4.187,1.735a66.594,66.594,0,0,1,7.962,4.343,62.147,62.147,0,0,1,7.268,5.446,58.779,58.779,0,0,1,6.4,6.448c.981,1.154,1.929,2.342,2.826,3.565s1.735,2.491,2.533,3.781,1.546,2.62,2.228,3.96l1.983,4.017a63.512,63.512,0,0,0,4.1,7.66,21.047,21.047,0,0,0,5.754,5.982,11.976,11.976,0,0,0,7.645,2.165,13.7,13.7,0,0,0,7.441-3.194,20.578,20.578,0,0,0,5.085-6.712,26.083,26.083,0,0,0,2.461-8.222v-.015a.683.683,0,1,1,1.358.153Z" transform="translate(-32.787 -86.583)"/><path class="p" d="M115.276,194.62a8.865,8.865,0,0,0-2.2,4.34,10.483,10.483,0,0,0,.141,4.848,17.946,17.946,0,0,0,5.321,8.315,25.766,25.766,0,0,0,8.5,5.467,24.226,24.226,0,0,0,10.169,1.51h0a.688.688,0,0,1,.188,1.358,23.754,23.754,0,0,1-20.981-6.161,21.929,21.929,0,0,1-3.544-4.528,16.683,16.683,0,0,1-2.064-5.452,12.72,12.72,0,0,1,.329-5.862,10.031,10.031,0,0,1,3.209-4.848.685.685,0,0,1,.924,1Z" transform="translate(-38.821 -90.342)"/><path class="p" d="M69.1,323.627c4.074-.057,8.147-.069,12.221-.1H93.542l12.218.054c4.074.03,8.144.021,12.218.087q3.054.027,6.107.111c2.037.039,4.071.111,6.107.176l12.209.395q12.212.422,24.421.993a.685.685,0,1,1-.024,1.37q-12.221.159-24.439.135l-12.218-.021c-2.037,0-4.074,0-6.107-.039s-4.071-.054-6.107-.1c-4.071-.078-8.141-.23-12.212-.344L93.5,325.963l-12.212-.443c-4.071-.173-8.141-.326-12.209-.529a.685.685,0,0,1,.024-1.367Z" transform="translate(-26.761 -127.551)"/><path class="p" d="M14.619,104.766a115.32,115.32,0,0,1,8,18.173c2.183,6.242,3.957,12.619,5.683,18.971s3.38,12.729,4.986,19.118,3.2,12.777,4.669,19.2c2.991,12.834,5.551,25.755,7.947,38.705q1.795,9.714,3.428,19.441c1.119,6.487,2.094,13,3.078,19.51a.686.686,0,1,1-1.352.23h0c-2.429-12.927-4.86-25.847-7.585-38.711q-2.019-9.652-4.151-19.276L35,180.89q-4.283-19.229-9.065-38.361c-1.582-6.38-3.212-12.729-5.207-18.959a116.866,116.866,0,0,0-7.31-18.158.682.682,0,0,1,1.2-.646Z" transform="translate(-10.999 -64.878)"/><path class="p" d="M101.689,107.473l6.021-.314,6.024-.242,6.03-.153,6.03-.1,6.033-.015,6.033.048,6.033.1q3.015.072,6.03.182c4.02.147,8.037.4,12.047.7l6.015.485,6.006.556q12.009,1.163,23.942,2.91a.685.685,0,1,1-.159,1.361q-11.991-1.017-23.984-1.795l-6-.347-6-.3c-2-.084-4-.162-6-.272s-4-.173-6-.3-4-.176-6-.3l-6.015-.218-5.982-.2-6.006-.156-6.009-.132-6.012-.075-6.012-.054-6.015-.018h0a.684.684,0,1,1-.033-1.367Z" transform="translate(-36.083 -65.506)"/><path class="p" d="M220.956,108.957c.742,1.445,1.5,2.886,2.2,4.352s1.4,2.934,2.052,4.424,1.3,2.991,1.905,4.486,1.232,3.006,1.795,4.525c1.166,3.033,2.246,6.1,3.3,9.164l1.561,4.63q.748,2.315,1.46,4.645c.942,3.1,1.795,6.236,2.581,9.379s1.555,6.281,2.27,9.454q2.168,9.475,3.867,19.046a.686.686,0,0,1-1.34.3q-2.409-9.39-4.947-18.723-1.3-4.663-2.635-9.308c-.458-1.543-.921-3.09-1.358-4.639s-.912-3.09-1.343-4.642-.912-3.087-1.349-4.639l-1.385-4.627c-.47-1.54-.969-3.069-1.454-4.6s-1.029-3.048-1.519-4.582-1.053-3.039-1.576-4.561-1.119-3.015-1.675-4.525-1.175-2.991-1.762-4.486l-1.881-4.441v-.021a.682.682,0,0,1,1.235-.577Z" transform="translate(-70.023 -66.067)"/><path class="p" d="M189.417,264.5a52.433,52.433,0,0,0,.129,11.234l.182,1.394c.057.464.12.93.221,1.388l.55,2.755.718,2.716c.242.9.574,1.795.852,2.674a59.587,59.587,0,0,0,4.63,10.2A62.044,62.044,0,0,0,203.178,306c1.2,1.442,2.5,2.776,3.8,4.118l2.034,1.926c.685.634,1.412,1.232,2.112,1.851a81.951,81.951,0,0,0,29.463,15.828,73.4,73.4,0,0,0,10.935,2.294,91.909,91.909,0,0,0,11.2.745,112.01,112.01,0,0,0,22.444-2.27c1.836-.368,3.675-.783,5.506-1.242s3.682-.936,5.384-1.543a61.912,61.912,0,0,0,10-5.052,99.5,99.5,0,0,0,9.287-6.433,46.917,46.917,0,0,0,8.108-7.731l.009-.045a.685.685,0,1,1,1.092.828,48.153,48.153,0,0,1-8.135,8.264,93.916,93.916,0,0,1-9.329,6.786,63.853,63.853,0,0,1-10.247,5.464c-1.881.721-3.715,1.22-5.569,1.735s-3.724.972-5.6,1.391a110.361,110.361,0,0,1-22.928,2.731,85.149,85.149,0,0,1-11.593-.631c-1.923-.239-3.849-.553-5.755-.948s-3.789-.9-5.653-1.439a81.653,81.653,0,0,1-21.026-9.78,83.859,83.859,0,0,1-9.272-6.96c-.718-.649-1.457-1.274-2.159-1.944l-2.094-2.031c-1.334-1.409-2.671-2.82-3.888-4.343a64.4,64.4,0,0,1-6.532-9.613,61.7,61.7,0,0,1-4.588-10.669c-.272-.93-.6-1.848-.814-2.791l-.664-2.829-.491-2.862c-.093-.476-.144-.957-.188-1.439l-.15-1.445a53.962,53.962,0,0,1,.188-11.572.683.683,0,0,1,1.358.15Z" transform="translate(-60.864 -110.447)"/><path class="p" d="M215.168,272.147a8.339,8.339,0,0,1-4.37-5.234,7.628,7.628,0,0,1-.281-1.795,7.515,7.515,0,0,1,0-.912,5.366,5.366,0,0,1,.15-.963,4.672,4.672,0,0,1,.9-1.86,3.3,3.3,0,0,1,.933-.784,3.053,3.053,0,0,1,1.274-.365,4.115,4.115,0,0,1,2.15.568c.275.147.505.284.736.422l.7.413c.918.574,1.836,1.151,2.71,1.795a43.706,43.706,0,0,1,5,4.157c.392.377.772.763,1.151,1.151s.736.8,1.089,1.2c.724.8,1.382,1.669,2.034,2.533A37.528,37.528,0,0,1,232.82,278a15.329,15.329,0,0,1,1.747,6.511,9.87,9.87,0,0,1-2.031,6.445.688.688,0,0,1-1.113-.8h0a8.649,8.649,0,0,0,1.125-5.518,14.027,14.027,0,0,0-1.938-5.455,39.1,39.1,0,0,0-3.55-4.926q-1.977-2.345-4.124-4.516a50.616,50.616,0,0,0-4.552-4.074c-.8-.634-1.624-1.235-2.462-1.819l-.637-.425c-.212-.144-.428-.3-.6-.4a2.13,2.13,0,0,0-.828-.347.634.634,0,0,0-.526.239,2.393,2.393,0,0,0-.523.921,3.156,3.156,0,0,0-.135.6,5.384,5.384,0,0,0-.057.661,5.582,5.582,0,0,0,.114,1.34,6.894,6.894,0,0,0,3.081,4.486h0a.685.685,0,0,1-.658,1.2Z" transform="translate(-67.399 -109.444)"/><path class="p" d="M227.86,216.56a52.016,52.016,0,0,0,5.9,4.941c2.079,1.531,4.226,2.973,6.41,4.343s4.3,2.847,6.529,4.121a34.2,34.2,0,0,0,6.924,3.173h.042a.685.685,0,0,1-.275,1.34,19.9,19.9,0,0,1-4-.846c-.649-.2-1.3-.4-1.92-.664s-1.262-.491-1.872-.772-1.238-.535-1.833-.84-1.214-.58-1.795-.9-1.2-.628-1.759-.978-1.137-.709-1.7-1.08a63.726,63.726,0,0,1-6.281-4.986,34.805,34.805,0,0,1-5.417-5.982.685.685,0,0,1,1.05-.87Z" transform="translate(-72.033 -96.894)"/><path class="p" d="M266.7,173.247q-1.4.685-2.8,1.34l-2.734,1.457c-.9.508-1.78,1.041-2.668,1.558s-1.717,1.131-2.575,1.69a57.7,57.7,0,0,0-9.29,7.935c-.35.368-.676.757-1.014,1.134l-1.032,1.119q-.96,1.178-1.95,2.339l-1.795,2.453-1.651,2.569a48.852,48.852,0,0,0-4.872,11.258.688.688,0,0,1-1.337-.3A42.094,42.094,0,0,1,237,195.64l1.561-2.829,1.768-2.71c.646-.861,1.283-1.738,1.962-2.575s1.424-1.624,2.174-2.393a51.3,51.3,0,0,1,10.148-7.893c.936-.52,1.857-1.056,2.8-1.558s1.908-.951,2.868-1.406l2.943-1.226q1.5-.544,2.991-1.062a.682.682,0,1,1,.523,1.259Z" transform="translate(-73.826 -84.184)"/><path class="p" d="M340.243,189.145c1.714,1.965,3.368,3.987,4.941,6.072.8,1.035,1.5,2.133,2.261,3.2l2.237,3.218a78.846,78.846,0,0,1,7.071,14.024c.96,2.435,1.824,4.893,2.653,7.367s1.585,4.983,2.225,7.534a61.679,61.679,0,0,1,1.472,7.776,25.721,25.721,0,0,1-.191,8.105l-.209,1c-.078.335-.179.661-.269.993-.164.667-.428,1.307-.655,1.956a19.582,19.582,0,0,1-1.935,3.67,17.048,17.048,0,0,1-6.167,5.6,19.8,19.8,0,0,1-7.989,2.133,39.938,39.938,0,0,1-8.025-.395c-2.611-.347-5.156-.8-7.672-1.089a28.665,28.665,0,0,0-7.382-.051,14.592,14.592,0,0,0-3.41.9,12.824,12.824,0,0,0-3.018,1.741,33.45,33.45,0,0,0-5.189,5.3c-.843.99-1.672,1.992-2.623,2.991a29.11,29.11,0,0,1-3.027,2.761,27.344,27.344,0,0,1-7.13,4.056c-.643.248-1.3.464-1.956.658s-1.28.359-1.926.523q-1.926.494-3.888.861a53.625,53.625,0,0,1-7.938.9,41.732,41.732,0,0,1-8.022-.479c-1.334-.2-2.65-.514-3.918-.82s-2.569-.682-3.837-1.083a25.312,25.312,0,0,1-7.319-3.616,15.745,15.745,0,0,1-3.033-2.907,16.339,16.339,0,0,1-1.223-1.75c-.176-.3-.335-.622-.5-.93a8.539,8.539,0,0,1-.452-.96,14.078,14.078,0,0,1-1.023-4.092,22.57,22.57,0,0,1,0-4.1c.114-1.337.3-2.641.47-3.921s.332-2.548.467-3.825a148.621,148.621,0,0,0,.763-15.415,155.068,155.068,0,0,0-3.12-30.72.686.686,0,1,1,1.34-.3,149.518,149.518,0,0,1,3.76,31,150.687,150.687,0,0,1-.529,15.648c-.117,1.3-.254,2.608-.413,3.888s-.3,2.557-.395,3.8a14.8,14.8,0,0,0,.954,7.059,6.545,6.545,0,0,0,.389.79c.144.257.278.523.431.775a13.814,13.814,0,0,0,1.041,1.43,13.178,13.178,0,0,0,2.6,2.414,22.914,22.914,0,0,0,6.613,3.137q1.795.559,3.652.99c1.253.3,2.467.562,3.7.73a38.925,38.925,0,0,0,7.477.359,50.711,50.711,0,0,0,7.477-.939c1.238-.248,2.471-.535,3.7-.852.6-.159,1.232-.332,1.824-.505a18.085,18.085,0,0,0,1.726-.6,24.293,24.293,0,0,0,6.32-3.631,26.484,26.484,0,0,0,2.722-2.465c.84-.876,1.672-1.866,2.512-2.847a36.414,36.414,0,0,1,5.707-5.74,15.6,15.6,0,0,1,3.721-2.094,17.541,17.541,0,0,1,4.1-1.044,31.634,31.634,0,0,1,8.126.117c2.626.32,5.192.811,7.717,1.169a37.267,37.267,0,0,0,7.477.452,17.15,17.15,0,0,0,6.948-1.762l.772-.443.386-.221.362-.257.727-.514.673-.583.338-.3.3-.323.619-.643a17.316,17.316,0,0,0,1.113-1.382,17.043,17.043,0,0,0,1.7-3.182c.2-.571.449-1.128.6-1.72.084-.3.179-.583.254-.879l.2-.9a9.091,9.091,0,0,0,.164-.9c.045-.3.1-.6.135-.9.042-.6.135-1.223.129-1.839l.021-.921-.036-.924c0-.6-.087-1.253-.141-1.875a59.447,59.447,0,0,0-1.307-7.51c-.6-2.488-1.3-4.956-2.073-7.408s-1.6-4.9-2.506-7.3a77.549,77.549,0,0,0-6.637-13.839l-2.135-3.212c-.724-1.062-1.4-2.159-2.165-3.2q-2.264-3.128-4.753-6.089h0a.686.686,0,1,1,1.038-.9Z" transform="translate(-79.196 -89.041)"/><path class="p" d="M331.336,163.438c-.706,1.537-1.448,3.081-2.18,4.618s-1.433,3.1-2.273,4.594a63.626,63.626,0,0,1-5.635,8.674,35.229,35.229,0,0,1-16.887,12.227,23.727,23.727,0,0,1-10.689.9,21.534,21.534,0,0,1-2.656-.6,20.236,20.236,0,0,1-2.566-.921c-.419-.17-.814-.4-1.217-.6l-.6-.3c-.2-.1-.383-.236-.577-.353l-1.14-.727-1.074-.817a11.227,11.227,0,0,1-1.026-.867c-.326-.3-.676-.6-.981-.915a25.094,25.094,0,0,1-3.317-4.187c-.23-.38-.437-.775-.655-1.16l-.323-.583-.275-.6a20.664,20.664,0,0,1-1.989-10.31v-.1a.174.174,0,0,0,0,.063v-.057a.685.685,0,1,1,1.37,0v.075a1.541,1.541,0,0,1-.015.182v-.1a20.919,20.919,0,0,0,8.695,16.558l.981.682,1.035.6c.173.1.341.206.52.3l.538.248c.362.159.709.353,1.08.485a17.471,17.471,0,0,0,2.246.715,18.662,18.662,0,0,0,2.315.443,23.857,23.857,0,0,0,4.735,0l1.2-.147c.392-.066.781-.15,1.172-.221s.778-.167,1.166-.26.778-.182,1.157-.3a30.486,30.486,0,0,0,8.674-4.223,37.337,37.337,0,0,0,7.2-6.658,61.431,61.431,0,0,0,5.805-8.12c.9-1.418,1.675-2.919,2.5-4.388l2.473-4.439h0a.685.685,0,0,1,1.217.616Z" transform="translate(-85.916 -81.489)"/><path class="p" d="M268.915,95.564a8.336,8.336,0,0,1-4.785-2.641,10.621,10.621,0,0,1-2.536-4.932,13.1,13.1,0,0,1,.1-5.521,17.454,17.454,0,0,1,2.01-5.04,20.217,20.217,0,0,1,7.681-7.3,20.547,20.547,0,0,1,10.058-2.68.688.688,0,0,1,.1,1.367h0a21.481,21.481,0,0,0-8.856,3.419,22.219,22.219,0,0,0-6.386,6.733A13.431,13.431,0,0,0,264,87.552a8.4,8.4,0,0,0,1.642,4.059A7.044,7.044,0,0,0,269.2,94.2h0a.685.685,0,0,1-.3,1.331Z" transform="translate(-81.943 -54.292)"/><path class="p" d="M275.834,98.493c-.529,1.609-1.1,3.2-1.663,4.785l-1.741,4.765q-1.772,4.751-3.637,9.466c-.6,1.57-1.376,3.14-1.881,4.549a8.221,8.221,0,0,0-.473,2.094,4.734,4.734,0,0,0,.254,1.941,2.85,2.85,0,0,0,1.065,1.433,3.96,3.96,0,0,0,1.86.625,5.153,5.153,0,0,0,.532.021h.257a.354.354,0,0,0,.123-.015,1.552,1.552,0,0,0,.682-.443c.269-.251.541-.574.873-.9a3.931,3.931,0,0,1,1.268-.9.685.685,0,0,1,.625,1.214l-.045.027a8.084,8.084,0,0,0-1.445,1.723,3.221,3.221,0,0,1-1.331,1.053,2.536,2.536,0,0,1-.488.141c-.144.027-.245.039-.374.057a7.146,7.146,0,0,1-.733.054,5.841,5.841,0,0,1-2.991-.685,5.246,5.246,0,0,1-2.183-2.363,7.145,7.145,0,0,1-.679-2.991,10.426,10.426,0,0,1,.41-2.886,22.21,22.21,0,0,1,.882-2.527c.3-.79.634-1.567.975-2.342,1.346-3.1,2.749-6.173,4.172-9.242l2.162-4.588c.745-1.519,1.472-3.048,2.24-4.555a.685.685,0,0,1,1.262.526Z" transform="translate(-82.621 -62.924)"/><path class="p" d="M276.982,144.411a16.39,16.39,0,0,0,3.84.664,13.994,13.994,0,0,0,3.724-.332,17.5,17.5,0,0,0,3.562-.987,11.785,11.785,0,0,0,3.218-2.043l.018-.015a.694.694,0,0,1,1.077.843,9.753,9.753,0,0,1-3.069,3.4,12.4,12.4,0,0,1-2.037,1.146,8.264,8.264,0,0,1-2.246.664,12.756,12.756,0,0,1-4.612-.242,11.366,11.366,0,0,1-4.1-1.875.694.694,0,0,1,.6-1.22Z" transform="translate(-86.161 -75.482)"/><path class="p" d="M310.115,143.134c-1.319,1.3-2.674,2.563-4.023,3.831l-4.107,3.733-4.13,3.685-2.064,1.839c-.682.616-1.364,1.226-2.094,1.845a19.124,19.124,0,0,1-2.366,1.762,11.588,11.588,0,0,1-2.838,1.325,8.859,8.859,0,0,1-3.233.38,9.083,9.083,0,0,1-3.113-.781,8.955,8.955,0,0,1-2.629-1.795,8.108,8.108,0,0,1-1.765-2.611,8.467,8.467,0,0,1-.3-6.015.688.688,0,0,1,1.325.344h0a7.226,7.226,0,0,0,.8,4.785,6.457,6.457,0,0,0,3.514,2.985,6.705,6.705,0,0,0,2.273.383,6.3,6.3,0,0,0,2.216-.419,10.925,10.925,0,0,0,2.118-1.119c.347-.23.691-.476,1.032-.745s.694-.526,1.038-.808L293.89,154l2.162-1.747q2.171-1.732,4.367-3.428l4.394-3.374c1.475-1.11,2.934-2.24,4.418-3.344a.686.686,0,1,1,.9,1.038Z" transform="translate(-86.434 -75.602)"/><path class="p" d="M294.509,166.4a14.489,14.489,0,0,1,.5,1.5,12.769,12.769,0,0,1,.3,1.555,12.516,12.516,0,0,1,0,3.218,8.575,8.575,0,0,1-1.235,3.018,9.838,9.838,0,0,1-.963,1.316c-.185.2-.365.4-.568.6-.1.093-.2.179-.3.269a1.909,1.909,0,0,1-.15.123c-.054.039-.063.054-.063.045a.08.08,0,0,0,0-.036.685.685,0,1,1-1.226-.613,1.532,1.532,0,0,1,.093-.185.865.865,0,0,0,.048-.1l.075-.17c.045-.108.093-.215.135-.326l.245-.643a13.056,13.056,0,0,0,.4-1.289c.245-.858.323-1.738.538-2.581.09-.428.242-.849.3-1.292.036-.221.1-.44.135-.661s.06-.449.1-.676a5.61,5.61,0,0,0,.09-.685l.084-.7c.051-.47.069-.945.144-1.436v-.069a.7.7,0,0,1,1.337-.15Z" transform="translate(-90.35 -82.482)"/><path class="p" d="M333.228,96.9c-.248,2.527-.452,5.055-.544,7.582s-.147,5.058-.084,7.579a119.043,119.043,0,0,0,1.28,15.047c.188,1.244.377,2.488.6,3.721s.44,2.456.709,3.667a37.1,37.1,0,0,0,2.267,7.014,24.824,24.824,0,0,0,3.888,6.158,18.7,18.7,0,0,0,5.728,4.486h0a.686.686,0,1,1-.544,1.259,18.983,18.983,0,0,1-6.652-4.358,25.332,25.332,0,0,1-4.672-6.448,37.175,37.175,0,0,1-2.82-7.4c-.347-1.268-.649-2.542-.9-3.822q-.182-.96-.341-1.92c-.1-.64-.179-1.283-.266-1.923a97.559,97.559,0,0,1-.733-15.484q.138-3.873.547-7.72c.3-2.56.673-5.111,1.2-7.633a.685.685,0,0,1,1.352.2Z" transform="translate(-101.611 -62.506)"/><path class="p" d="M195.342,259.387a92.072,92.072,0,0,0,2.584,11.694c.538,1.905.96,3.846,1.537,5.757s1.214,3.81,1.893,5.716a.691.691,0,0,1-1.223.616,38.444,38.444,0,0,1-3.009-5.446,32.828,32.828,0,0,1-2.147-5.871,42.364,42.364,0,0,1-1-12.4.688.688,0,0,1,1.364-.057Z" transform="translate(-62.644 -109.039)"/><path class="p" d="M201.533,257.055a68.174,68.174,0,0,0,2.539,10.378c.538,1.678.966,3.395,1.549,5.085s1.235,3.347,1.935,5.022h0a.691.691,0,0,1-1.181.7,30.147,30.147,0,0,1-3.048-4.726,26.023,26.023,0,0,1-2.183-5.213,33.2,33.2,0,0,1-.981-11.189.688.688,0,0,1,1.364-.054Z" transform="translate(-64.408 -108.37)"/><path class="p" d="M313.769,114.132a30.14,30.14,0,0,1,3.55-5.545,9.553,9.553,0,0,1,2.692-2.5,4.735,4.735,0,0,1,4.385-.15,5.4,5.4,0,0,1,2.8,3.152,7.154,7.154,0,0,1,.156,3.888,10.011,10.011,0,0,1-1.4,3.29,22.255,22.255,0,0,1-2.007,2.614.691.691,0,0,1-1.14-.763c.488-.957.981-1.884,1.364-2.808a9.158,9.158,0,0,0,.721-2.737,4.785,4.785,0,0,0-.389-2.429,3.374,3.374,0,0,0-1.43-1.469,2.208,2.208,0,0,0-.867-.266,1.878,1.878,0,0,0-.9.173,7.768,7.768,0,0,0-2.144,1.651,53.65,53.65,0,0,0-4.217,4.63h0a.688.688,0,0,1-1.149-.739Z" transform="translate(-96.927 -65.17)"/><path class="p" d="M286.494,113.143a5.731,5.731,0,0,1,2.013-1.795,7.271,7.271,0,0,1,2.632-.846,5.683,5.683,0,0,1,2.713.541,5.767,5.767,0,0,1,2.186,1.6.715.715,0,0,1-.724,1.146h-.048a10.076,10.076,0,0,0-2.049-.3c-.661-.045-1.3.09-1.914.075a9.157,9.157,0,0,0-1.923.1,10.291,10.291,0,0,0-2,.547l-.042.015a.709.709,0,0,1-.846-1.089Z" transform="translate(-89.094 -66.606)"/><path class="p" d="M55.655,182.185c3.344-.6,6.7-.954,10.052-1.223a48.314,48.314,0,0,1,5.052.081c1.687.075,3.374.182,5.064.371a.694.694,0,0,1,.051,1.37c-1.672.317-3.344.55-5.022.754a48.305,48.305,0,0,1-5.031.467,97.985,97.985,0,0,1-10.115-.458.691.691,0,0,1-.051-1.364Z" transform="translate(-22.94 -86.757)"/><path class="p" d="M54.463,168.656c5.5-.757,11.007-1.256,16.516-1.678,2.758-.17,5.521-.147,8.285-.144s5.527.033,8.3.144a.688.688,0,0,1,.069,1.367h-.018c-2.749.392-5.5.7-8.252.981s-5.506.6-8.264.694c-5.521.138-11.045.2-16.582,0a.685.685,0,0,1-.069-1.364Z" transform="translate(-22.582 -82.723)"/><path d="M89.6,131.607l-43.4-2.764a.84.84,0,0,1-.793-.631l-1.612-7.178a.846.846,0,0,1,.661-1.008.784.784,0,0,1,.957.6l.712,3.185c.057.239.1.568.15.939a5.927,5.927,0,0,0,.488,2.073c.6.718,2.668.7,4.05.694.479,0,.918,0,1.265.015L89.622,129.9a.772.772,0,0,1,.712.4,1.038,1.038,0,0,1-.042.948.772.772,0,0,1-.637.347Z" transform="translate(-19.7 -69.326)"/><path d="M86.116,272.31,102,245.03a.855.855,0,0,1,.544-.389.757.757,0,0,1,.6.09l6.057,3.909c1.238.793,1.43.918,2.306-.1l2.133-2.47q3.73-4.325,7.459-8.674l1.795-2.094.281.562c.1.206.2.413.3.6l.224.464-12.263,14.261a.843.843,0,0,1-1.041.15l-7.37-4.744-15.442,26.52a.8.8,0,0,1-.694.413.9.9,0,0,1-.446-.123A.811.811,0,0,1,86.116,272.31Z" transform="translate(-31.786 -102.312)"/><path d="M133.961,294.105a.748.748,0,0,1-.8.742h-.018l-46.183-.957a.8.8,0,0,1-.817-.843.766.766,0,0,1,.817-.781l46.183,1.077A.749.749,0,0,1,133.961,294.105Z" transform="translate(-31.821 -118.607)"/><path d="M79.969,273.476a.867.867,0,0,1-.3.81.9.9,0,0,1-.571.206,1,1,0,0,1-.272-.042.76.76,0,0,1-.479-.6L70.294,226.9a.873.873,0,0,1,.727-1.008.751.751,0,0,1,.9.628Z" transform="translate(-27.284 -99.613)"/><path d="M179.191,127.243a.9.9,0,0,1-.966.793,29.071,29.071,0,0,0-29.057,42.845c.141.272.132.188-.024.437s-.446.024-.736.024h-.033c-.281,0-.52.233-.661-.033a31.169,31.169,0,0,1,2.231-32.873A31.614,31.614,0,0,1,178.531,126.3v.042a.79.79,0,0,1,.661.9Z" transform="translate(-48.392 -71.073)"/></g></g></g></svg>