<svg xmlns="http://www.w3.org/2000/svg" xmlns:xlink="http://www.w3.org/1999/xlink" width="376.35" height="382.262" viewBox="0 0 376.35 382.262"><defs><style>.a{fill:#e5e5e5;}.b{fill:#def1ff;}.c{clip-path:url(#a);}.d{fill:#ffce8f;}.e{fill:#ffc2a7;}.f{fill:#ffb391;}.g{fill:#ffa37a;}.h{fill:#ff7761;}.i{fill:#f0634d;}.j{fill:#62b9cc;}.k{fill:#41b3cc;}.l{fill:#7d5f52;}.m{fill:#233940;}</style><clipPath id="a"><circle class="a" cx="142" cy="142" r="142" transform="translate(-0.282 -0.046)"/></clipPath></defs><g transform="translate(-209.592 -6869.295)"><path class="b" d="M141.712,290.084a147.7,147.7,0,0,1-28.56-2.773,142.869,142.869,0,0,1-26.6-8,139.408,139.408,0,0,1-45.045-29.8,138.48,138.48,0,0,1-30.37-45.029,142.54,142.54,0,0,1-8.257-27.04A150.261,150.261,0,0,1,0,148.015a158.795,158.795,0,0,1,2.557-28.242,163.627,163.627,0,0,1,19-52.084A155.2,155.2,0,0,1,37.039,45.426,141.374,141.374,0,0,1,55.855,26.737,125.388,125.388,0,0,1,77.528,12.409a112.1,112.1,0,0,1,24.043-9.175A105.893,105.893,0,0,1,127.5,0a108.13,108.13,0,0,1,14.211.947,242.745,242.745,0,0,1,27.974,5.331,181.592,181.592,0,0,1,25.371,8.436,142.44,142.44,0,0,1,22.492,11.853,121.948,121.948,0,0,1,19.334,15.583,118.646,118.646,0,0,1,15.9,19.624A133.093,133.093,0,0,1,264.97,85.752a168.637,168.637,0,0,1,8.2,28.642,231.611,231.611,0,0,1,3.931,33.62c.911,15.389-2.472,32.684-9.781,50.014a163.6,163.6,0,0,1-31.491,48.007,157.61,157.61,0,0,1-19.719,17.71,140.556,140.556,0,0,1-22.564,13.938,123.443,123.443,0,0,1-24.95,9.126A113.015,113.015,0,0,1,141.712,290.084ZM134.75,8.192c-54.76,0-98.267,54.292-111.4,105.368C9.274,168.3,23.092,211.793,69.554,258.992c14.8,15.031,34.944,22.653,59.883,22.654h.006c23.608,0,45.73-6.815,60.131-12.53,16.165-6.416,30.9-14.849,37.532-21.485,18.14-18.14,38.672-51.789,33.473-109.074a194.49,194.49,0,0,0-18.67-67.13,165.745,165.745,0,0,0-10.3-18.191c-2.588-3.931-4.314-6.1-4.5-6.329l0,0h0a58.006,58.006,0,0,0-5.053-5.249A108.651,108.651,0,0,0,206.56,29.707C193.861,21.56,172.4,11.273,142.27,8.534c-2.5-.227-5.024-.342-7.513-.342Z" transform="matrix(-0.899, -0.438, 0.438, -0.899, 458.777, 7251.557)"/><g class="c" transform="translate(266.281 6917.046)"><g transform="translate(0 0.638)"><path class="d" d="M198.508,121.777c-2.632,16.291-5.084,32.9-4.073,48.3a85.688,85.688,0,0,0,1.071,9.271,146.4,146.4,0,0,1,2.27,28.011q-.1,4.725-.565,9.152c-5.8,55.906-53.5,76.991-108,76.991-17.977,0-32.025-6.607-42.95-17.553C21.35,250.989,12.722,203.5,10.88,160.495c-.281-6.541-.407-12.977-.407-19.213C10.473,76.057,63.35,11.37,128.578,11.37,216.623,11.37,206.709,71,198.508,121.777Z" transform="translate(-10.473 -11.37)"/><path class="e" d="M299.525,93.169c-.191,3.451-.6,7.094-2.692,9.87-3.024,4.029-9.514,5.832-13.955,3.227l-.06-.021c-.73,0,.084,8.972.688,15.42.314,3.275.571,5.9.544,6.409-.425,9.612-33.954-16.461-33.954-16.461,2.461-25.341,6.777-49.946,11.739-75.035,1.567-7.931,13.351-8.2,12.068-.06-1.313,8.311-2.461,12.531.933,17.906.033.054.066.1.1.159a8.835,8.835,0,0,0,1.5,1.738c4.187,3.765,10.958,2.611,15.779,5.518,5.216,3.137,6.672,9.959,7.139,16.03a114.324,114.324,0,0,1,.17,15.3Z" transform="translate(-79.025 -16.848)"/><path class="e" d="M153.35,150.668c-1.169,10.468.4,24.088.649,26.121.021.17.033.263.033.263l-.06.027c-1.794.8-44.2,19.362-65.555-1.666,0,0,6.613-2.348,4.429-7.546-.281-.67-.631-1.457-1.017-2.342-2.6-5.982-6.936-16.449-4.253-26.205,0,0-9.965-8.266-1.038-15.42S99.9,92.247,99.9,92.247l51.5,13.123s9.134-.769,9.185,7.052.493,19.739-4.758,28.87C154.531,143.562,153.763,146.918,153.35,150.668Z" transform="translate(-31.171 -34.507)"/><path class="f" d="M270.692,126.3s.493-10.662-4.594-18.043c-3.5-5.084-5.045-12.791-2.261-18.495,1.5-3.048,3.4-5.213,3.128-8.775-.266-3.5-2.094-6.945.449-10.088,2.775-3.424,8.473-3.392,11.024-6.983-.257,1.151.479,2.315.392,3.493a3.416,3.416,0,0,1-1.726,2.515c-1.46.9-3.167.793-4.325,2.183a8.823,8.823,0,0,0-1.462,4.331c-.416,2.722.087,5.73-.793,8.374-2.327,6.962-1.753,13.01,3.771,20.834a28.854,28.854,0,0,0,12.053,10.169c-.73,0,.084,8.972.688,15.42Z" transform="translate(-82.546 -26.401)"/><path class="f" d="M157.71,184.169l.039.3a126.947,126.947,0,0,1-18.767,6.08,7.723,7.723,0,0,1-3.072.3,8.114,8.114,0,0,1-2.342-.9l-9.241-4.722,11.664-16.913c-5.383,6.263-12.217,11.948-20.4,13.052a24.078,24.078,0,0,1-18.8-6.032l1.693,1.986c-1.424-1.2-2.991-2.937-2.306-4.663a3.759,3.759,0,0,1,.757-1.1c3.975-4.352,10.45-5.108,15.678-7.827a22.4,22.4,0,0,0,10.982-13.276,14.616,14.616,0,0,0-12.08-3.508c-3.685.631-7.537,2.668-10.934,1.11-2.964-1.361-4.187-4.932-4.528-8.174A14.361,14.361,0,0,1,108.7,123.648a12.03,12.03,0,0,1,10,3.179c2.728,2.737,4.253,7.178,8.027,8.018a11.659,11.659,0,0,0,3.451-5.21,5.885,5.885,0,0,0-1.412-5.847c-.8-.724-1.827-1.148-2.635-1.857a2.454,2.454,0,0,1-.846-2.859c.526-.939,1.839-1.089,2.931-1.044,2.9.123,6.173.984,7.477,3.571,1.5,2.949-.185,6.968,1.824,9.594.984,1.283,2.6,1.86,4.049,2.584a17.645,17.645,0,0,1,9.529,14.846c.081,2.291-.3,4.669.52,6.813s3.448,3.849,5.383,2.638a141.3,141.3,0,0,0,.7,26.094Z" transform="translate(-34.928 -41.881)"/><path class="g" d="M134.456,188.515s-8.272,20.238,2.461,23.128c7.812,2.094-19.515,2.028-28.044.4a34.442,34.442,0,0,1-18.214-9.095s6.418-2.276,4.522-7.309a18.508,18.508,0,0,0,1.765,1.9h0c3.128,2.925,7.477,4.908,13.509,4.908,0,0,17.047.347,23.66-13.557A3.728,3.728,0,0,0,134.456,188.515Z" transform="translate(-33.413 -62.048)"/><path class="h" d="M240.312,305.6c-1.884-.335-3.813-.748-5.8-1.226l11.963-38.063c-.526-4.16-.963-8.485-1.331-12.905q-.471-5.59-.793-11.365c-2.357-40.944.32-85.482.32-85.482h.209l31.953.918a5.633,5.633,0,0,1-.347,1.313l-3.275,8.26s-.9.033-2.348,0a33.242,33.242,0,0,1,15.794,13.758c4.121,6.98,7.952,17.322,10.662,29.133a156.021,156.021,0,0,1,4,33.305C301.581,279.462,287.339,314.092,240.312,305.6Z" transform="translate(-74.567 -52.906)"/><path class="i" d="M251.56,264.615c-4.725.269-8.524,5.727-10.635,9.541-2.467,4.486-4.77,8.778-9.047,11.8-6.858,4.83-17.846,5.682-24.028,11.664a73.341,73.341,0,0,1-17.29,29.348c-20.1,20.813-52.171,29.429-87.013,29.429-17.977,0-32.025-6.607-42.95-17.553l18.674-96.6,115.321,21.181,10.381,1.905c7.139-13.581,18.764-26.37,32.815-32.393a19.114,19.114,0,0,1,9.777-1.615A156.023,156.023,0,0,1,251.56,264.615Z" transform="translate(-24.813 -74.259)"/><path class="f" d="M135.977,189.06c-6.607,13.9-23.66,13.557-23.66,13.557-6.029,0-10.381-1.983-13.509-4.908h0l-1.672-2.034C97.773,196.291,115.511,212.962,135.977,189.06Z" transform="translate(-35.266 -62.204)"/><path class="e" d="M259.347,239.012q-2.692,2.2-5.342,4.447a12.589,12.589,0,0,1,1.851-1.738Q257.588,240.362,259.347,239.012Z" transform="translate(-80.143 -76.494)"/><path class="j" d="M285.5,153.472c-.054,1.283-.263,2.578-.329,3.825a72.774,72.774,0,0,0,.532,8.222l.1,1.794s-6.786-4.863-8.374-5.413c-9.221-3.209-23.421.966-28.5-9.056-.075-.135-.144-.284-.209-.425l.5-3.448,2.12-14.463a47.241,47.241,0,0,0,28.017,11.341,6.642,6.642,0,0,1,5.479,3.732A7.918,7.918,0,0,1,285.5,153.472Z" transform="translate(-78.633 -46.597)"/><path class="h" d="M197.032,245.684c-.819,10.53-3.146,21.4-7.339,30.458-5.165,11.162-12.923,20.795-19.228,31.286A63.575,63.575,0,0,1,142,332.793c-.407.182-.819.374-1.241.559q-2.094.924-4.331,1.747a100.919,100.919,0,0,1-29.094,5.682c-.742.045-1.5.078-2.243.111q-2.964.129-6.062.126h-.093l-.473.054h-.2a.541.541,0,0,1-.1,0,1.644,1.644,0,0,0-.176,0c-.314.021-.688.045-1.122.06-1.175.054-2.787.072-4.743,0q-1.062-.048-2.243-.138c-15.552-1.2-46.626-9.161-57.124-52.485-5.309-21.913-6.173-45.161,3.864-65.94,3.825-7.92,9.87-15.109,17.945-18.576.2-.084.4-.17.6-.248l.6-.236c.4-.15.808-.3,1.214-.428,8.811-2.88,18.641-1.477,27.754.709,12.69,3.051,35.411,10.919,46.611.73,6.894-6.281,4.941-14.442,4.8-22.473,0,.06,13.106,2.47,14.089,2.713a108.4,108.4,0,0,1,19.787,6.786c8.03,3.738,15.92,8.748,20.484,16.491,4.486,7.617,6.49,16.554,6.783,25.329a111.593,111.593,0,0,1-.242,12.319Z" transform="translate(-15.735 -60.197)"/><path class="i" d="M221.47,219.981c-.027-.024-3.374-5.709-3.347-5.733a41.134,41.134,0,0,0-8.168-8.64,1.869,1.869,0,0,1-.568.257c-6.7,1.777-12.083,3.933-17.071,8.993-7.507,7.614-12.4,17.373-17.681,26.54-4.313,7.477-9.3,16.626-17.631,20.244-19.246,8.374-14.433-19.3-24.112-22.308s-9.185,14.762-9.185,14.762l-.1.17c1.5,47.374,29.061,29.908,62.181,5.309,7.65-5.682,20.636-17.3,27.65-23.358,10.716-10.061,32.578-21.312,36.906-27.557C251.539,206.929,225.681,223.534,221.47,219.981Z" transform="translate(-42.838 -66.938)"/><path class="e" d="M364.306,205.464c-.257-1.618-2.393-2.635-4.187-2.97a36.236,36.236,0,0,0-19.56,1.759,6.224,6.224,0,0,1-3.643.664,6.364,6.364,0,0,1-2.393-1.5c-4.42-3.777-9.87-6.834-15.678-6.705-4.486.1-8.673,2.064-12.654,4.142a176.454,176.454,0,0,0-23.809,15q-5.641,4.217-10.934,8.874-2.713,2.393-5.324,4.881c-.479.458-1.923,1.352-1.845,2.061s1.163,1.331,1.729.769A56.525,56.525,0,0,0,276.62,256c1.2,1.576,2.575,3.589,1.681,5.383-.4.79-1.169,1.824-.473,2.369.6.455,1.4-.221,1.7-.9s.565-1.531,1.283-1.7c-.3.99,1.594,1.367,2,.419s-.425-2.031-1.394-2.393c3.933-6.475,9.92-11.535,16.554-15.19a87.032,87.032,0,0,1,21.276-7.8c4.1-1.014,8.449-1.983,11.538-4.863,4.582-4.274,5.138-11.562,9.5-16.069,5.039-5.219,13.237-5.051,20.337-6.487,1.564-.314,3.395-1.014,3.67-2.584A2.152,2.152,0,0,0,364.306,205.464Z" transform="translate(-83.082 -64.393)"/><path class="j" d="M285.541,269.942c-.111,1.747-1.292,2.934-2.835,3.837a30.7,30.7,0,0,1-4.352,1.9,24.115,24.115,0,0,0-9.433,6.654c-1.983,2.282-4.1,5.222-7.112,5-5.512-.413-7.656-10.025-8.859-14.1-2.336-7.946-5.216-19.356-3.374-28.134a4.932,4.932,0,0,1,1.7-2.775q7.043-5.82,14.356-11.317a1.6,1.6,0,0,1,2.464.733v.021a12.062,12.062,0,0,1,.374,4.848,64.024,64.024,0,0,0,.045,12.02c.1.858.257,1.7.446,2.551,1.083,4.749,3.78,9.376,8.1,11.625,1.759.9,3.721,1.406,5.419,2.408S285.669,267.968,285.541,269.942Z" transform="translate(-78.709 -74.113)"/><path class="k" d="M285.647,286.263c-11.766,3.852-11.987,7.519-17.269,12.035a5.578,5.578,0,0,1-9.173-4.974,1.777,1.777,0,0,1,.027-.182,54.2,54.2,0,0,0,.374-6.6,5.981,5.981,0,0,0,.511-.395c5.282-4.513,5.506-8.183,17.269-12.041a2.9,2.9,0,0,0,.484-.2,30.274,30.274,0,0,0,7.2,3.439C288.961,278.882,289.625,284.956,285.647,286.263Z" transform="translate(-81.617 -86.477)"/><path class="l" d="M142.878,101.92c.574,15.145,4.812,23.567,7.052,11.317s13.943-8.374,13.943-8.374c10.934-33.736-3.819-55.966-24.441-64.3-16.614-6.714-31.328-3.553-40.025,10.827-6.813,11.269,2.757,31.508,16.895,31.5C139.453,82.869,142.226,84.7,142.878,101.92Z" transform="translate(-35.273 -18.756)"/><path class="f" d="M350.412,212c-2.177,1.136-4.986,3.122-7.42,1.528-2.309-1.516-2.291-4.429-2.022-6.864a1.065,1.065,0,0,1,1.154-.939,4.122,4.122,0,0,1,.23-.852c.461-1.169,2.363-.655,1.9.523-1.37,3.457,3.314,4.468,5.661,4.764C350.789,210.27,351.378,211.491,350.412,212Z" transform="translate(-104.988 -66.537)"/><path class="m" d="M124.049,247.084A100.641,100.641,0,0,0,125.08,260.7c.706,4.477,1.794,8.906,4,12.639a13.18,13.18,0,0,0,4.22,4.552,11.2,11.2,0,0,0,5.832,1.681,21.334,21.334,0,0,0,6.358-.9,43.171,43.171,0,0,0,6.227-2.348,101.056,101.056,0,0,0,11.84-6.61c3.837-2.449,7.591-5.066,11.3-7.746s7.411-5.422,11.027-8.219c1.794-1.394,3.613-2.79,5.383-4.244l2.674-2.15,2.644-2.2c1.768-1.453,3.514-2.946,5.264-4.429l5.267-4.45q5.249-4.486,10.608-8.871A252.377,252.377,0,0,1,239.991,210.8a131.09,131.09,0,0,1,24.743-12.836c2.222-.742,4.4-1.51,6.654-2.222a23.412,23.412,0,0,1,7.2-.754,25.161,25.161,0,0,1,7.073,1.256,15.779,15.779,0,0,1,6.281,3.718.9.9,0,0,1-1.244,1.3l-.027-.027a13.907,13.907,0,0,0-5.614-3.057,23.029,23.029,0,0,0-6.526-.939,22.23,22.23,0,0,0-6.463.849c-2.115.724-4.262,1.54-6.388,2.3A127.157,127.157,0,0,0,241.792,213.5a266.692,266.692,0,0,0-21.647,16.82l-10.468,8.972c-3.49,2.991-6.992,6-10.575,8.924l-2.692,2.2-2.695,2.153c-1.794,1.451-3.661,2.838-5.518,4.229-3.706,2.781-7.447,5.455-11.23,8.12s-7.626,5.249-11.583,7.7a95.375,95.375,0,0,1-12.364,6.648,46.278,46.278,0,0,1-6.735,2.372,24.267,24.267,0,0,1-7.279.843,14.057,14.057,0,0,1-7.217-2.273,15.852,15.852,0,0,1-4.98-5.566c-2.366-4.313-3.314-9.02-3.918-13.641a99.941,99.941,0,0,1-.637-13.922.9.9,0,1,1,1.794,0Z" transform="translate(-42.449 -63.891)"/><path class="m" d="M90.186,146.848l-2.548-1.4c-.425-.242-.837-.461-1.274-.721l-.682-.443-.341-.224-.3-.26a10.5,10.5,0,0,1-3.559-5.461,10.985,10.985,0,0,1,.215-6.645,13.138,13.138,0,0,1,.691-1.564,11.367,11.367,0,0,1,.918-1.43l.535-.676.616-.619a14.75,14.75,0,0,1,1.16-1.026c2.976-2.473,5.922-4.986,9.005-7.327s6.209-4.645,9.319-6.939L103.6,114.2a5.583,5.583,0,0,0-.374-.532,5.861,5.861,0,0,0-.479-.559c-.179-.182-.35-.347-.523-.526l-.568-.479a7.776,7.776,0,0,0-2.6-1.379,7.943,7.943,0,0,0-2.976-.335,9.982,9.982,0,0,0-1.549.212c-.514.12-1.026.3-1.546.44l-.132.036a.9.9,0,0,1-.6-1.684c.562-.245,1.116-.526,1.7-.733a12.139,12.139,0,0,1,1.833-.479,9.777,9.777,0,0,1,3.888.036,10.39,10.39,0,0,1,3.649,1.5c.269.185.538.38.8.577a8.039,8.039,0,0,1,.751.643c.239.23.479.455.7.7a8.429,8.429,0,0,1,.685.834,1.5,1.5,0,0,1-.236,2.013l-.111.1c-2.928,2.524-5.859,5.045-8.826,7.516s-6.068,4.785-9.143,7.121a12.132,12.132,0,0,0-1.053.843l-.437.38-.389.443a7.822,7.822,0,0,0-.709.945,9.825,9.825,0,0,0-.544,1.053,7.046,7.046,0,0,0-.38,1.133,7.477,7.477,0,0,0-.23,1.2,8.3,8.3,0,0,0,.918,4.752,7.776,7.776,0,0,0,.679,1.041c.129.164.245.341.383.5l.437.455.218.23.248.2.5.4c.365.278.781.559,1.169.837l2.36,1.7a.9.9,0,0,1-.957,1.516Z" transform="translate(-30.669 -39.016)"/><path class="m" d="M130.412,118.682a9.463,9.463,0,0,1,2.234-.969c.386-.117.781-.191,1.178-.3a6.153,6.153,0,0,1,1.217-.144A10.668,10.668,0,0,1,140,118.1a6.162,6.162,0,0,1,1.119.628c.176.123.356.236.526.365s.3.3.467.431c.3.3.6.583.9.9l.754.978c.12.164.254.32.356.49l.3.526c.2.347.377.7.556,1.053a20.674,20.674,0,0,1,.775,2.186.9.9,0,0,1-1.516.9l-.093-.1c-.5-.511-.93-1.038-1.376-1.534-.245-.23-.493-.449-.721-.679l-.344-.341c-.12-.108-.251-.2-.374-.3a16.542,16.542,0,0,0-3.048-1.9,9.944,9.944,0,0,0-3.347-1.214,15.211,15.211,0,0,0-3.837-.159h-.138a.9.9,0,0,1-.529-1.675Z" transform="translate(-44.658 -41.658)"/><path class="m" d="M126.913,81.363a18.287,18.287,0,0,1-2.375,1.169,21.674,21.674,0,0,1-7.647,1.645,18.312,18.312,0,0,1-10.139-2.784,22.341,22.341,0,0,1-4.124-3.344,30.138,30.138,0,0,1-3.29-4.082c-.5-.712-.918-1.468-1.382-2.2l-1.2-2.393c-.326-.831-.6-1.687-.9-2.53-.218-.87-.392-1.756-.58-2.638a21.378,21.378,0,0,1,1.2-10.629,26.358,26.358,0,0,1,5.7-8.972,29.5,29.5,0,0,1,18.842-8.972,37.19,37.19,0,0,1,5.276-.051,40.945,40.945,0,0,1,5.2.718,43.767,43.767,0,0,1,9.869,3.29,47.539,47.539,0,0,1,16.4,12.406,44.952,44.952,0,0,1,9.074,38.647.9.9,0,1,1-1.759-.377,43.448,43.448,0,0,0-9.8-36.131A45.142,45.142,0,0,0,139.8,43.057a38.87,38.87,0,0,0-18.447-3.439,27.594,27.594,0,0,0-4.591.748,22.294,22.294,0,0,0-4.369,1.525,25.649,25.649,0,0,0-7.6,5.255A22.825,22.825,0,0,0,99.7,54.793a18.5,18.5,0,0,0-1.226,8.972c.147.748.269,1.5.425,2.249.242.727.455,1.462.709,2.189l.969,2.094c.407.682.769,1.4,1.2,2.061a27.312,27.312,0,0,0,2.847,3.777,19.656,19.656,0,0,0,3.52,3.045,15.977,15.977,0,0,0,8.739,2.757A20.277,20.277,0,0,0,126,79.814l.048-.024a.9.9,0,0,1,.867,1.567Z" transform="translate(-34.675 -18.276)"/><path class="m" d="M126.967,164.417a8.915,8.915,0,0,1-.144,1.759c-.039.3-.1.559-.168.834a7.138,7.138,0,0,1-.215.825,15,15,0,0,1-1.355,3.122,19,19,0,0,1-4.4,5.156c-.449.341-.9.676-1.37.99a13.655,13.655,0,0,1-1.5.784l-.745.374-.772.3-1.543.6c-1.041.341-2.094.616-3.14.879-1.065.188-2.126.356-3.185.484a.9.9,0,0,1-.505-1.714l.069-.033c.93-.449,1.857-.861,2.784-1.25.9-.487,1.794-.9,2.656-1.37a49.732,49.732,0,0,0,4.8-3.212,20.637,20.637,0,0,0,4.157-3.783,12.327,12.327,0,0,0,.849-1.131l.4-.6.356-.613a12.183,12.183,0,0,0,.658-1.265c.1-.218.194-.437.269-.655s.17-.458.23-.622l.054-.153a.9.9,0,0,1,1.732.3Z" transform="translate(-38.193 -54.907)"/><path class="m" d="M133.29,103.462a15.34,15.34,0,0,1,2.3-1.609,10.366,10.366,0,0,1,2.647-1.1,5.383,5.383,0,0,1,3.122.072,4.857,4.857,0,0,1,2.414,2.079,12.636,12.636,0,0,1,1.477,5.443c.078.9.1,1.794.093,2.716a11.879,11.879,0,0,1-.072,1.382,13.478,13.478,0,0,1-.173,1.376,18.681,18.681,0,0,1-1.729,5.24c-.811,1.63-1.762,3.14-2.662,4.624a38.666,38.666,0,0,0-2.423,4.486,17.645,17.645,0,0,0-1.373,4.752,50,50,0,0,0,0,10.255c.209,3.505.362,7.178-.7,10.806a16,16,0,0,1-2.491,5.048l-.9,1.1-.987,1a12.349,12.349,0,0,1-1.053.933,12.113,12.113,0,0,1-1.119.864,22.94,22.94,0,0,1-10.345,3.67,47.2,47.2,0,0,1-10.767-.081A96.734,96.734,0,0,1,98.086,164.7c-6.9-1.522-13.578-3.655-20.358-4.824-1.7-.3-3.395-.547-5.084-.712a47.569,47.569,0,0,0-5.1-.266,36.212,36.212,0,0,0-5.051.314c-.837.09-1.657.263-2.482.41-.81.2-1.63.368-2.426.628-6.427,1.848-11.852,6.281-15.851,11.718a44.485,44.485,0,0,0-5.051,8.817l-1.044,2.348-.9,2.393c-.649,1.588-1.092,3.248-1.621,4.878a84.336,84.336,0,0,0-3.17,20.307,113.051,113.051,0,0,0,1.3,20.636q.4,2.56.876,5.111c.353,1.693.658,3.4,1.071,5.084l.6,2.53.661,2.494c.41,1.672.975,3.29,1.468,4.944a84.884,84.884,0,0,0,3.828,9.535,72.052,72.052,0,0,0,5.084,8.88,57.677,57.677,0,0,0,14.092,14.52,56.6,56.6,0,0,0,8.772,5.123,60.622,60.622,0,0,0,9.555,3.5,64.026,64.026,0,0,0,10.013,1.9c1.684.176,3.389.32,5.084.332h3.819l1.172-.066h.206a.966.966,0,0,0-.263.03l.2-.03.365-.03.323-.03h.251a116.506,116.506,0,0,0,28.182-3.242q3.427-.87,6.765-2.019l1.663-.6,1.633-.655c1.086-.452,2.18-.852,3.263-1.34A63.168,63.168,0,0,0,152,280.258a70.823,70.823,0,0,0,18.4-21.019A99.236,99.236,0,0,0,180.852,233a127.246,127.246,0,0,0,3.589-28.17c.09-4.743-.164-9.475-.493-14.281s-.706-9.6-.966-14.448-.341-9.69-.428-14.52-.081-9.669-.021-14.5c.123-9.669.517-19.344,1.292-28.992q2.512-28.918,7.608-57.459c.858-4.752,1.759-9.5,2.74-14.23.482-2.366.99-4.728,1.5-7.088l.784-3.538a10.372,10.372,0,0,1,1.627-3.822,8.6,8.6,0,0,1,3.251-2.808,9,9,0,0,1,2.067-.691,8.5,8.5,0,0,1,2.192-.114,6.819,6.819,0,0,1,4.115,1.794,6.075,6.075,0,0,1,1.352,1.929,6.558,6.558,0,0,1,.508,2.24,8.315,8.315,0,0,1-.191,2.162c-.138.649-.278,1.2-.416,1.794-.266,1.16-.532,2.321-.739,3.472a20.363,20.363,0,0,0-.359,6.723,10.043,10.043,0,0,0,2.859,5.608,8.7,8.7,0,0,0,2.512,1.905,14.687,14.687,0,0,0,3.116,1.11c2.234.559,4.654.837,7.115,1.579a15.277,15.277,0,0,1,3.61,1.576,12.516,12.516,0,0,1,2.991,2.644,14.7,14.7,0,0,1,2.094,3.32,21.607,21.607,0,0,1,1.307,3.589,39.356,39.356,0,0,1,1.172,7.357,114.755,114.755,0,0,1,.176,14.595,31.43,31.43,0,0,1-1.047,7.417,12.656,12.656,0,0,1-1.693,3.562,10.988,10.988,0,0,1-2.856,2.8,14.188,14.188,0,0,1-7.39,2.264,17.316,17.316,0,0,1-3.816-.281c-.144-.024-.332-.057-.5-.093l-.464-.117c-.3-.087-.625-.141-.921-.251-.6-.206-1.2-.395-1.794-.622a23.658,23.658,0,0,1-6.424-3.906,26.077,26.077,0,0,1-4.983-5.587,21.587,21.587,0,0,1-3.03-6.879,16.15,16.15,0,0,1-.021-7.591.9.9,0,0,1,1.747.428,14.314,14.314,0,0,0,.09,6.732,19.707,19.707,0,0,0,2.826,6.245,23.292,23.292,0,0,0,10.557,8.637c.535.2,1.086.362,1.627.547.269.1.55.144.822.218l.413.1.392.069a15.189,15.189,0,0,0,3.38.221,12.037,12.037,0,0,0,6.242-1.953,8.763,8.763,0,0,0,2.255-2.246,10.411,10.411,0,0,0,1.364-2.955,29.337,29.337,0,0,0,.9-6.879,114.6,114.6,0,0,0-.272-14.293,36.976,36.976,0,0,0-1.136-6.879,19.1,19.1,0,0,0-1.178-3.182,12.188,12.188,0,0,0-1.747-2.787,9.975,9.975,0,0,0-2.408-2.094,12.748,12.748,0,0,0-2.991-1.28c-2.162-.646-4.558-.912-7-1.5a17.275,17.275,0,0,1-3.682-1.3,11.44,11.44,0,0,1-3.236-2.408,12.773,12.773,0,0,1-3.622-7.037,22.981,22.981,0,0,1,.323-7.644c.212-1.223.479-2.414.742-3.589.129-.577.3-1.2.395-1.741a5.53,5.53,0,0,0,.123-1.427,3.272,3.272,0,0,0-1-2.267,3.99,3.99,0,0,0-2.408-1,5.449,5.449,0,0,0-4.893,2.431,7.456,7.456,0,0,0-1.154,2.8l-.757,3.523q-.745,3.526-1.45,7.061c-.945,4.713-1.809,9.439-2.635,14.173-3.266,18.935-5.662,38.054-7.2,57.189-.706,9.57-1.065,19.162-1.136,28.765q-.054,7.2.087,14.406c.108,4.8.2,9.609.49,14.374s.685,9.57,1.032,14.392.64,9.705.571,14.6a126.847,126.847,0,0,1-3.652,29.067,102.984,102.984,0,0,1-10.877,27.285,74.6,74.6,0,0,1-19.44,22.182,67.139,67.139,0,0,1-12.842,7.477c-1.113.5-2.282.936-3.421,1.406l-1.72.688-1.741.619q-3.505,1.2-7.094,2.079a119.543,119.543,0,0,1-29.13,3.221l.248-.018-.443.042c-.156.015-.3.024-.4.03l.2-.03a3.124,3.124,0,0,1-.473.042h.206l-.476.03-.323.015-.649.033H92.242c-1.794-.021-3.589-.179-5.383-.377a67.7,67.7,0,0,1-10.575-2.064,64.266,64.266,0,0,1-10.115-3.762,60.184,60.184,0,0,1-9.3-5.494A61.189,61.189,0,0,1,41.949,271.9a75.44,75.44,0,0,1-5.3-9.394,88.27,88.27,0,0,1-3.942-9.95c-.505-1.708-1.08-3.395-1.5-5.123l-.67-2.581-.6-2.587c-.413-1.72-.715-3.463-1.068-5.195s-.6-3.487-.873-5.237A116.229,116.229,0,0,1,26.78,210.6a87.472,87.472,0,0,1,3.392-21.049c.559-1.7,1.032-3.418,1.714-5.084l.957-2.5,1.119-2.417a47.428,47.428,0,0,1,5.407-9.331,39.442,39.442,0,0,1,3.526-4.139,33.913,33.913,0,0,1,4.1-3.616,29.907,29.907,0,0,1,9.774-4.932c.873-.278,1.768-.464,2.659-.673.9-.159,1.794-.338,2.692-.434a38.993,38.993,0,0,1,5.416-.3,50.359,50.359,0,0,1,5.383.3c1.794.179,3.544.446,5.294.763,3.5.622,6.945,1.477,10.33,2.378s6.75,1.794,10.13,2.572a95.709,95.709,0,0,0,10.184,1.824,44.717,44.717,0,0,0,10.169.167,20.526,20.526,0,0,0,9.271-3.176,9.994,9.994,0,0,0,.978-.724,10.254,10.254,0,0,0,.915-.8l.864-.858.763-.939a13.646,13.646,0,0,0,2.159-4.289c.951-3.122.861-6.58.691-10.031a51.9,51.9,0,0,1,.123-10.695,19.82,19.82,0,0,1,1.573-5.285,40.656,40.656,0,0,1,2.578-4.722c.927-1.5,1.854-2.949,2.614-4.447a16.667,16.667,0,0,0,1.591-4.675,20.541,20.541,0,0,0,.17-4.989,10.856,10.856,0,0,0-1.163-4.618,2.991,2.991,0,0,0-1.451-1.316,3.562,3.562,0,0,0-2.046-.033,11.16,11.16,0,0,0-4.187,2.276l-.039.03a.9.9,0,0,1-1.142-1.382Z" transform="translate(-15.119 -16.215)"/><path class="m" d="M195.643,184.741a72.251,72.251,0,0,1,7.719,1.038q3.828.754,7.591,1.86a66.608,66.608,0,0,1,14.451,6.194,43.608,43.608,0,0,1,11.987,10.4,32.868,32.868,0,0,1,6.732,14.3.9.9,0,0,1-1.744.446,34.43,34.43,0,0,0-7.477-12.621,54.311,54.311,0,0,0-11.547-9.125,76.92,76.92,0,0,0-13.426-6.553q-3.517-1.346-7.178-2.363c-2.423-.709-4.884-1.289-7.363-1.794h0a.9.9,0,1,1,.254-1.788Z" transform="translate(-63.152 -60.966)"/><path class="m" d="M135.991,175.291a17.956,17.956,0,0,1-3.057,9.469,25.036,25.036,0,0,1-7.073,7.043,30.048,30.048,0,0,1-9.1,4.088,29.725,29.725,0,0,1-9.986,1.017,23.522,23.522,0,0,1-5.03-.87c-.825-.257-1.654-.571-2.467-.882-.778-.413-1.576-.787-2.318-1.253a19.79,19.79,0,0,1-6.879-7.635,28.962,28.962,0,0,1-2.892-9.49,43.236,43.236,0,0,1-.224-9.7.9.9,0,1,1,1.794.051h0a48.186,48.186,0,0,0,1.032,9.164,28.18,28.18,0,0,0,3.152,8.374,16.748,16.748,0,0,0,5.964,5.982c.6.341,1.265.6,1.89.9.679.2,1.325.461,2.01.655.709.15,1.4.362,2.123.443l1.074.185,1.089.1a28.059,28.059,0,0,0,8.79-.6,31.172,31.172,0,0,0,4.265-1.289,29.529,29.529,0,0,0,4-1.956,22.132,22.132,0,0,0,6.645-5.823,16.473,16.473,0,0,0,3.412-8.075h0A.9.9,0,1,1,136,175.3Z" transform="translate(-32.307 -55.666)"/><path class="m" d="M283.64,176.79a36.869,36.869,0,0,0-4.585-4.035,27.179,27.179,0,0,0-5.141-3.057c-.452-.2-.9-.389-1.361-.571a10.912,10.912,0,0,0-1.34-.437,19.051,19.051,0,0,0-2.811-.526c-1.941-.23-4.008-.188-6.191-.362a23.113,23.113,0,0,1-3.338-.455,30.535,30.535,0,0,1-3.206-.879,50.847,50.847,0,0,1-6.044-2.44,96.3,96.3,0,0,1-11.09-6.328.9.9,0,1,1,.852-1.585c3.861,1.7,7.65,3.472,11.508,4.89a57.42,57.42,0,0,0,5.832,1.794c.969.236,1.986.464,2.916.637s1.911.278,2.913.389c2.007.182,4.154.317,6.382.685a20.3,20.3,0,0,1,3.335.867c.55.185,1.089.428,1.618.661a16.407,16.407,0,0,1,1.5.778,30.081,30.081,0,0,1,5.35,3.909,32.354,32.354,0,0,1,4.295,4.9.9.9,0,1,1-1.379,1.148Z" transform="translate(-75.581 -52.748)"/><path class="m" d="M195.467,329.287c5.192,2.2,10.438,4.244,15.779,5.982,2.665.873,5.347,1.7,8.075,2.345l4.053,1.017c1.367.266,2.725.6,4.1.8a76.718,76.718,0,0,0,16.509,1.235,50.876,50.876,0,0,0,15.914-3.26l1.839-.828a15.572,15.572,0,0,0,1.794-.9l1.765-.963a6.805,6.805,0,0,0,.855-.526l.834-.559c.547-.383,1.131-.724,1.654-1.139l1.564-1.265.787-.628c.248-.224.482-.467.727-.7l1.448-1.4a42.107,42.107,0,0,0,5.042-6.376c.778-1.119,1.418-2.33,2.094-3.511.341-.6.619-1.223.933-1.833s.625-1.223.879-1.863l.816-1.9c.263-.637.487-1.289.733-1.935.508-1.283.9-2.62,1.319-3.936.754-2.668,1.468-5.359,1.965-8.1a119.106,119.106,0,0,0,1.908-16.688h0a.9.9,0,0,1,1.794.042,109.406,109.406,0,0,1-1.1,17.1,79.983,79.983,0,0,1-1.693,8.464c-.4,1.388-.751,2.793-1.238,4.157-.233.685-.446,1.379-.7,2.058l-.766,2.022c-.248.682-.565,1.34-.864,2s-.6,1.337-.927,1.983c-.688,1.289-1.337,2.6-2.141,3.834a45.755,45.755,0,0,1-5.279,7.067,39.2,39.2,0,0,1-14.586,10.01,51.968,51.968,0,0,1-17.254,3.2,77.737,77.737,0,0,1-17.245-1.717c-1.412-.278-2.8-.658-4.187-.981l-4.127-1.2c-2.763-.76-5.464-1.7-8.144-2.692a169.759,169.759,0,0,1-15.666-6.81.9.9,0,0,1,.748-1.63Z" transform="translate(-63.045 -88.644)"/><path class="m" d="M324.471,205.582a6.225,6.225,0,0,0-.751.981,5.75,5.75,0,0,0-.538,1.125,3.852,3.852,0,0,0-.1,2.306,4.785,4.785,0,0,0,1.235,2.064c.12.144.371.383.26.3a2.077,2.077,0,0,0,.245.027,4.519,4.519,0,0,0,1.128-.161,28.847,28.847,0,0,0,5.165-2.147c1.7-.846,3.4-1.794,5.141-2.737.452-.233.858-.461,1.445-.7l1.388-.535c.93-.344,1.86-.685,2.8-1,1.884-.625,3.783-1.2,5.724-1.684a44.874,44.874,0,0,1,12-1.5,21.776,21.776,0,0,1,6.23,1.071l.766.281.383.144c.15.066.323.161.482.245a5.359,5.359,0,0,1,1.615,1.427,4.923,4.923,0,0,1,.9,2.058,3.643,3.643,0,0,1-.511,2.629,3.753,3.753,0,0,1-2.168,1.513,4.259,4.259,0,0,1-.538.111c-.167.027-.389.063-.482.069l-.715.075c-.954.1-1.908.215-2.856.341-1.9.254-3.789.562-5.653.942a54.85,54.85,0,0,0-5.479,1.385,23.267,23.267,0,0,0-4.953,2.123c-.35.227-.688.464-1.02.7a11.027,11.027,0,0,0-.846.784,14.429,14.429,0,0,0-1.522,2.058,54.223,54.223,0,0,0-2.692,4.956l-1.3,2.641a27.285,27.285,0,0,1-1.543,2.754,17.529,17.529,0,0,1-10.62,7.3c-1.887.446-3.75.873-5.6,1.388a100.987,100.987,0,0,0-10.913,3.589,69.719,69.719,0,0,0-10.261,4.995,46.815,46.815,0,0,0-4.7,3.164q-.57.422-1.107.876c-.359.3-.73.6-1.077.9s-.667.6-1.142.984l-.664.532-.727.449a10.184,10.184,0,0,1-11.18-.619c-.23-.164-.431-.368-.643-.55a4.978,4.978,0,0,1-.6-.6l-.55-.643a8.068,8.068,0,0,1-.476-.7,8.909,8.909,0,0,1-.787-1.5,14.838,14.838,0,0,1-.523-1.582l-.335-1.424c-.452-1.905-.879-3.846-1.175-5.823a31.1,31.1,0,0,1,.3-12.017.9.9,0,0,1,1.759.389h0a29.061,29.061,0,0,0,.179,11.245c.362,1.872.825,3.729,1.325,5.611l.374,1.415A12.522,12.522,0,0,0,279,248.8a6.381,6.381,0,0,0,.6,1.077,5.6,5.6,0,0,0,.359.5l.416.455a3.082,3.082,0,0,0,.452.419,5.532,5.532,0,0,0,.479.389,7.7,7.7,0,0,0,3.421,1.313A7.213,7.213,0,0,0,289.4,251.9l.511-.329.464-.4c.3-.227.685-.616,1.047-.954s.748-.682,1.128-1.011.763-.661,1.16-.972a49.947,49.947,0,0,1,4.9-3.514,84.858,84.858,0,0,1,21.862-9.475c1.9-.565,3.825-1.053,5.73-1.54a14.119,14.119,0,0,0,4.639-2.094,13.458,13.458,0,0,0,3.538-3.622,24.528,24.528,0,0,0,1.325-2.345l1.3-2.6a57.751,57.751,0,0,1,2.931-5.312,17.578,17.578,0,0,1,2.007-2.6,15.485,15.485,0,0,1,1.322-1.178c.467-.326.936-.64,1.409-.933a26.9,26.9,0,0,1,5.817-2.393,58.557,58.557,0,0,1,5.889-1.385c1.968-.365,3.936-.652,5.91-.879.987-.111,1.974-.215,2.961-.3L366,208a2.033,2.033,0,0,0,.242-.033,1.2,1.2,0,0,0,.179-.027c.215-.054.221-.108.209-.072s.027,0,0-.17a1.52,1.52,0,0,0-.254-.6,2,2,0,0,0-.553-.508l-.167-.093-.3-.117-.6-.233a19.556,19.556,0,0,0-5.249-1.02,41.718,41.718,0,0,0-11.185,1.128c-1.863.4-3.709.918-5.545,1.477-.918.278-1.827.6-2.737.9l-1.385.467c-.32.12-.781.347-1.2.553-1.723.861-3.487,1.759-5.285,2.587-.9.416-1.815.813-2.754,1.181a20.119,20.119,0,0,1-2.961.939,6.427,6.427,0,0,1-1.771.162,2.763,2.763,0,0,1-1.16-.329,3.167,3.167,0,0,1-.775-.739,6.789,6.789,0,0,1-1.6-2.991,5.823,5.823,0,0,1,.248-3.442,7.616,7.616,0,0,1,.775-1.5,7.746,7.746,0,0,1,1.083-1.292.9.9,0,0,1,1.265,1.268Z" transform="translate(-85.918 -65.88)"/></g></g><g class="c" transform="translate(266.281 6917.046)"><g transform="translate(0 0.638)"><path class="d" d="M198.508,121.777c-2.632,16.291-5.084,32.9-4.073,48.3a85.688,85.688,0,0,0,1.071,9.271,146.4,146.4,0,0,1,2.27,28.011q-.1,4.725-.565,9.152c-5.8,55.906-53.5,76.991-108,76.991-17.977,0-32.025-6.607-42.95-17.553C21.35,250.989,12.722,203.5,10.88,160.495c-.281-6.541-.407-12.977-.407-19.213C10.473,76.057,63.35,11.37,128.578,11.37,216.623,11.37,206.709,71,198.508,121.777Z" transform="translate(-10.473 -11.37)"/><path class="e" d="M299.525,93.169c-.191,3.451-.6,7.094-2.692,9.87-3.024,4.029-9.514,5.832-13.955,3.227l-.06-.021c-.73,0,.084,8.972.688,15.42.314,3.275.571,5.9.544,6.409-.425,9.612-33.954-16.461-33.954-16.461,2.461-25.341,6.777-49.946,11.739-75.035,1.567-7.931,13.351-8.2,12.068-.06-1.313,8.311-2.461,12.531.933,17.906.033.054.066.1.1.159a8.835,8.835,0,0,0,1.5,1.738c4.187,3.765,10.958,2.611,15.779,5.518,5.216,3.137,6.672,9.959,7.139,16.03a114.324,114.324,0,0,1,.17,15.3Z" transform="translate(-79.025 -16.848)"/><path class="e" d="M153.35,150.668c-1.169,10.468.4,24.088.649,26.121.021.17.033.263.033.263l-.06.027c-1.794.8-44.2,19.362-65.555-1.666,0,0,6.613-2.348,4.429-7.546-.281-.67-.631-1.457-1.017-2.342-2.6-5.982-6.936-16.449-4.253-26.205,0,0-9.965-8.266-1.038-15.42S99.9,92.247,99.9,92.247l51.5,13.123s9.134-.769,9.185,7.052.493,19.739-4.758,28.87C154.531,143.562,153.763,146.918,153.35,150.668Z" transform="translate(-31.171 -34.507)"/><path class="f" d="M270.692,126.3s.493-10.662-4.594-18.043c-3.5-5.084-5.045-12.791-2.261-18.495,1.5-3.048,3.4-5.213,3.128-8.775-.266-3.5-2.094-6.945.449-10.088,2.775-3.424,8.473-3.392,11.024-6.983-.257,1.151.479,2.315.392,3.493a3.416,3.416,0,0,1-1.726,2.515c-1.46.9-3.167.793-4.325,2.183a8.823,8.823,0,0,0-1.462,4.331c-.416,2.722.087,5.73-.793,8.374-2.327,6.962-1.753,13.01,3.771,20.834a28.854,28.854,0,0,0,12.053,10.169c-.73,0,.084,8.972.688,15.42Z" transform="translate(-82.546 -26.401)"/><path class="f" d="M157.71,184.169l.039.3a126.947,126.947,0,0,1-18.767,6.08,7.723,7.723,0,0,1-3.072.3,8.114,8.114,0,0,1-2.342-.9l-9.241-4.722,11.664-16.913c-5.383,6.263-12.217,11.948-20.4,13.052a24.078,24.078,0,0,1-18.8-6.032l1.693,1.986c-1.424-1.2-2.991-2.937-2.306-4.663a3.759,3.759,0,0,1,.757-1.1c3.975-4.352,10.45-5.108,15.678-7.827a22.4,22.4,0,0,0,10.982-13.276,14.616,14.616,0,0,0-12.08-3.508c-3.685.631-7.537,2.668-10.934,1.11-2.964-1.361-4.187-4.932-4.528-8.174A14.361,14.361,0,0,1,108.7,123.648a12.03,12.03,0,0,1,10,3.179c2.728,2.737,4.253,7.178,8.027,8.018a11.659,11.659,0,0,0,3.451-5.21,5.885,5.885,0,0,0-1.412-5.847c-.8-.724-1.827-1.148-2.635-1.857a2.454,2.454,0,0,1-.846-2.859c.526-.939,1.839-1.089,2.931-1.044,2.9.123,6.173.984,7.477,3.571,1.5,2.949-.185,6.968,1.824,9.594.984,1.283,2.6,1.86,4.049,2.584a17.645,17.645,0,0,1,9.529,14.846c.081,2.291-.3,4.669.52,6.813s3.448,3.849,5.383,2.638a141.3,141.3,0,0,0,.7,26.094Z" transform="translate(-34.928 -41.881)"/><path class="g" d="M134.456,188.515s-8.272,20.238,2.461,23.128c7.812,2.094-19.515,2.028-28.044.4a34.442,34.442,0,0,1-18.214-9.095s6.418-2.276,4.522-7.309a18.508,18.508,0,0,0,1.765,1.9h0c3.128,2.925,7.477,4.908,13.509,4.908,0,0,17.047.347,23.66-13.557A3.728,3.728,0,0,0,134.456,188.515Z" transform="translate(-33.413 -62.048)"/><path class="h" d="M240.312,305.6c-1.884-.335-3.813-.748-5.8-1.226l11.963-38.063c-.526-4.16-.963-8.485-1.331-12.905q-.471-5.59-.793-11.365c-2.357-40.944.32-85.482.32-85.482h.209l31.953.918a5.633,5.633,0,0,1-.347,1.313l-3.275,8.26s-.9.033-2.348,0a33.242,33.242,0,0,1,15.794,13.758c4.121,6.98,7.952,17.322,10.662,29.133a156.021,156.021,0,0,1,4,33.305C301.581,279.462,287.339,314.092,240.312,305.6Z" transform="translate(-74.567 -52.906)"/><path class="i" d="M251.56,264.615c-4.725.269-8.524,5.727-10.635,9.541-2.467,4.486-4.77,8.778-9.047,11.8-6.858,4.83-17.846,5.682-24.028,11.664a73.341,73.341,0,0,1-17.29,29.348c-20.1,20.813-52.171,29.429-87.013,29.429-17.977,0-32.025-6.607-42.95-17.553l18.674-96.6,115.321,21.181,10.381,1.905c7.139-13.581,18.764-26.37,32.815-32.393a19.114,19.114,0,0,1,9.777-1.615A156.023,156.023,0,0,1,251.56,264.615Z" transform="translate(-24.813 -74.259)"/><path class="f" d="M135.977,189.06c-6.607,13.9-23.66,13.557-23.66,13.557-6.029,0-10.381-1.983-13.509-4.908h0l-1.672-2.034C97.773,196.291,115.511,212.962,135.977,189.06Z" transform="translate(-35.266 -62.204)"/><path class="e" d="M259.347,239.012q-2.692,2.2-5.342,4.447a12.589,12.589,0,0,1,1.851-1.738Q257.588,240.362,259.347,239.012Z" transform="translate(-80.143 -76.494)"/><path class="j" d="M285.5,153.472c-.054,1.283-.263,2.578-.329,3.825a72.774,72.774,0,0,0,.532,8.222l.1,1.794s-6.786-4.863-8.374-5.413c-9.221-3.209-23.421.966-28.5-9.056-.075-.135-.144-.284-.209-.425l.5-3.448,2.12-14.463a47.241,47.241,0,0,0,28.017,11.341,6.642,6.642,0,0,1,5.479,3.732A7.918,7.918,0,0,1,285.5,153.472Z" transform="translate(-78.633 -46.597)"/><path class="h" d="M197.032,245.684c-.819,10.53-3.146,21.4-7.339,30.458-5.165,11.162-12.923,20.795-19.228,31.286A63.575,63.575,0,0,1,142,332.793c-.407.182-.819.374-1.241.559q-2.094.924-4.331,1.747a100.919,100.919,0,0,1-29.094,5.682c-.742.045-1.5.078-2.243.111q-2.964.129-6.062.126h-.093l-.473.054h-.2a.541.541,0,0,1-.1,0,1.644,1.644,0,0,0-.176,0c-.314.021-.688.045-1.122.06-1.175.054-2.787.072-4.743,0q-1.062-.048-2.243-.138c-15.552-1.2-46.626-9.161-57.124-52.485-5.309-21.913-6.173-45.161,3.864-65.94,3.825-7.92,9.87-15.109,17.945-18.576.2-.084.4-.17.6-.248l.6-.236c.4-.15.808-.3,1.214-.428,8.811-2.88,18.641-1.477,27.754.709,12.69,3.051,35.411,10.919,46.611.73,6.894-6.281,4.941-14.442,4.8-22.473,0,.06,13.106,2.47,14.089,2.713a108.4,108.4,0,0,1,19.787,6.786c8.03,3.738,15.92,8.748,20.484,16.491,4.486,7.617,6.49,16.554,6.783,25.329a111.593,111.593,0,0,1-.242,12.319Z" transform="translate(-15.735 -60.197)"/><path class="i" d="M221.47,219.981c-.027-.024-3.374-5.709-3.347-5.733a41.134,41.134,0,0,0-8.168-8.64,1.869,1.869,0,0,1-.568.257c-6.7,1.777-12.083,3.933-17.071,8.993-7.507,7.614-12.4,17.373-17.681,26.54-4.313,7.477-9.3,16.626-17.631,20.244-19.246,8.374-14.433-19.3-24.112-22.308s-9.185,14.762-9.185,14.762l-.1.17c1.5,47.374,29.061,29.908,62.181,5.309,7.65-5.682,20.636-17.3,27.65-23.358,10.716-10.061,32.578-21.312,36.906-27.557C251.539,206.929,225.681,223.534,221.47,219.981Z" transform="translate(-42.838 -66.938)"/><path class="e" d="M364.306,205.464c-.257-1.618-2.393-2.635-4.187-2.97a36.236,36.236,0,0,0-19.56,1.759,6.224,6.224,0,0,1-3.643.664,6.364,6.364,0,0,1-2.393-1.5c-4.42-3.777-9.87-6.834-15.678-6.705-4.486.1-8.673,2.064-12.654,4.142a176.454,176.454,0,0,0-23.809,15q-5.641,4.217-10.934,8.874-2.713,2.393-5.324,4.881c-.479.458-1.923,1.352-1.845,2.061s1.163,1.331,1.729.769A56.525,56.525,0,0,0,276.62,256c1.2,1.576,2.575,3.589,1.681,5.383-.4.79-1.169,1.824-.473,2.369.6.455,1.4-.221,1.7-.9s.565-1.531,1.283-1.7c-.3.99,1.594,1.367,2,.419s-.425-2.031-1.394-2.393c3.933-6.475,9.92-11.535,16.554-15.19a87.032,87.032,0,0,1,21.276-7.8c4.1-1.014,8.449-1.983,11.538-4.863,4.582-4.274,5.138-11.562,9.5-16.069,5.039-5.219,13.237-5.051,20.337-6.487,1.564-.314,3.395-1.014,3.67-2.584A2.152,2.152,0,0,0,364.306,205.464Z" transform="translate(-83.082 -64.393)"/><path class="j" d="M285.541,269.942c-.111,1.747-1.292,2.934-2.835,3.837a30.7,30.7,0,0,1-4.352,1.9,24.115,24.115,0,0,0-9.433,6.654c-1.983,2.282-4.1,5.222-7.112,5-5.512-.413-7.656-10.025-8.859-14.1-2.336-7.946-5.216-19.356-3.374-28.134a4.932,4.932,0,0,1,1.7-2.775q7.043-5.82,14.356-11.317a1.6,1.6,0,0,1,2.464.733v.021a12.062,12.062,0,0,1,.374,4.848,64.024,64.024,0,0,0,.045,12.02c.1.858.257,1.7.446,2.551,1.083,4.749,3.78,9.376,8.1,11.625,1.759.9,3.721,1.406,5.419,2.408S285.669,267.968,285.541,269.942Z" transform="translate(-78.709 -74.113)"/><path class="k" d="M285.647,286.263c-11.766,3.852-11.987,7.519-17.269,12.035a5.578,5.578,0,0,1-9.173-4.974,1.777,1.777,0,0,1,.027-.182,54.2,54.2,0,0,0,.374-6.6,5.981,5.981,0,0,0,.511-.395c5.282-4.513,5.506-8.183,17.269-12.041a2.9,2.9,0,0,0,.484-.2,30.274,30.274,0,0,0,7.2,3.439C288.961,278.882,289.625,284.956,285.647,286.263Z" transform="translate(-81.617 -86.477)"/><path class="l" d="M142.878,101.92c.574,15.145,4.812,23.567,7.052,11.317s13.943-8.374,13.943-8.374c10.934-33.736-3.819-55.966-24.441-64.3-16.614-6.714-31.328-3.553-40.025,10.827-6.813,11.269,2.757,31.508,16.895,31.5C139.453,82.869,142.226,84.7,142.878,101.92Z" transform="translate(-35.273 -18.756)"/><path class="f" d="M350.412,212c-2.177,1.136-4.986,3.122-7.42,1.528-2.309-1.516-2.291-4.429-2.022-6.864a1.065,1.065,0,0,1,1.154-.939,4.122,4.122,0,0,1,.23-.852c.461-1.169,2.363-.655,1.9.523-1.37,3.457,3.314,4.468,5.661,4.764C350.789,210.27,351.378,211.491,350.412,212Z" transform="translate(-104.988 -66.537)"/><path class="m" d="M124.049,247.084A100.641,100.641,0,0,0,125.08,260.7c.706,4.477,1.794,8.906,4,12.639a13.18,13.18,0,0,0,4.22,4.552,11.2,11.2,0,0,0,5.832,1.681,21.334,21.334,0,0,0,6.358-.9,43.171,43.171,0,0,0,6.227-2.348,101.056,101.056,0,0,0,11.84-6.61c3.837-2.449,7.591-5.066,11.3-7.746s7.411-5.422,11.027-8.219c1.794-1.394,3.613-2.79,5.383-4.244l2.674-2.15,2.644-2.2c1.768-1.453,3.514-2.946,5.264-4.429l5.267-4.45q5.249-4.486,10.608-8.871A252.377,252.377,0,0,1,239.991,210.8a131.09,131.09,0,0,1,24.743-12.836c2.222-.742,4.4-1.51,6.654-2.222a23.412,23.412,0,0,1,7.2-.754,25.161,25.161,0,0,1,7.073,1.256,15.779,15.779,0,0,1,6.281,3.718.9.9,0,0,1-1.244,1.3l-.027-.027a13.907,13.907,0,0,0-5.614-3.057,23.029,23.029,0,0,0-6.526-.939,22.23,22.23,0,0,0-6.463.849c-2.115.724-4.262,1.54-6.388,2.3A127.157,127.157,0,0,0,241.792,213.5a266.692,266.692,0,0,0-21.647,16.82l-10.468,8.972c-3.49,2.991-6.992,6-10.575,8.924l-2.692,2.2-2.695,2.153c-1.794,1.451-3.661,2.838-5.518,4.229-3.706,2.781-7.447,5.455-11.23,8.12s-7.626,5.249-11.583,7.7a95.375,95.375,0,0,1-12.364,6.648,46.278,46.278,0,0,1-6.735,2.372,24.267,24.267,0,0,1-7.279.843,14.057,14.057,0,0,1-7.217-2.273,15.852,15.852,0,0,1-4.98-5.566c-2.366-4.313-3.314-9.02-3.918-13.641a99.941,99.941,0,0,1-.637-13.922.9.9,0,1,1,1.794,0Z" transform="translate(-42.449 -63.891)"/><path class="m" d="M90.186,146.848l-2.548-1.4c-.425-.242-.837-.461-1.274-.721l-.682-.443-.341-.224-.3-.26a10.5,10.5,0,0,1-3.559-5.461,10.985,10.985,0,0,1,.215-6.645,13.138,13.138,0,0,1,.691-1.564,11.367,11.367,0,0,1,.918-1.43l.535-.676.616-.619a14.75,14.75,0,0,1,1.16-1.026c2.976-2.473,5.922-4.986,9.005-7.327s6.209-4.645,9.319-6.939L103.6,114.2a5.583,5.583,0,0,0-.374-.532,5.861,5.861,0,0,0-.479-.559c-.179-.182-.35-.347-.523-.526l-.568-.479a7.776,7.776,0,0,0-2.6-1.379,7.943,7.943,0,0,0-2.976-.335,9.982,9.982,0,0,0-1.549.212c-.514.12-1.026.3-1.546.44l-.132.036a.9.9,0,0,1-.6-1.684c.562-.245,1.116-.526,1.7-.733a12.139,12.139,0,0,1,1.833-.479,9.777,9.777,0,0,1,3.888.036,10.39,10.39,0,0,1,3.649,1.5c.269.185.538.38.8.577a8.039,8.039,0,0,1,.751.643c.239.23.479.455.7.7a8.429,8.429,0,0,1,.685.834,1.5,1.5,0,0,1-.236,2.013l-.111.1c-2.928,2.524-5.859,5.045-8.826,7.516s-6.068,4.785-9.143,7.121a12.132,12.132,0,0,0-1.053.843l-.437.38-.389.443a7.822,7.822,0,0,0-.709.945,9.825,9.825,0,0,0-.544,1.053,7.046,7.046,0,0,0-.38,1.133,7.477,7.477,0,0,0-.23,1.2,8.3,8.3,0,0,0,.918,4.752,7.776,7.776,0,0,0,.679,1.041c.129.164.245.341.383.5l.437.455.218.23.248.2.5.4c.365.278.781.559,1.169.837l2.36,1.7a.9.9,0,0,1-.957,1.516Z" transform="translate(-30.669 -39.016)"/><path class="m" d="M130.412,118.682a9.463,9.463,0,0,1,2.234-.969c.386-.117.781-.191,1.178-.3a6.153,6.153,0,0,1,1.217-.144A10.668,10.668,0,0,1,140,118.1a6.162,6.162,0,0,1,1.119.628c.176.123.356.236.526.365s.3.3.467.431c.3.3.6.583.9.9l.754.978c.12.164.254.32.356.49l.3.526c.2.347.377.7.556,1.053a20.674,20.674,0,0,1,.775,2.186.9.9,0,0,1-1.516.9l-.093-.1c-.5-.511-.93-1.038-1.376-1.534-.245-.23-.493-.449-.721-.679l-.344-.341c-.12-.108-.251-.2-.374-.3a16.542,16.542,0,0,0-3.048-1.9,9.944,9.944,0,0,0-3.347-1.214,15.211,15.211,0,0,0-3.837-.159h-.138a.9.9,0,0,1-.529-1.675Z" transform="translate(-44.658 -41.658)"/><path class="m" d="M126.913,81.363a18.287,18.287,0,0,1-2.375,1.169,21.674,21.674,0,0,1-7.647,1.645,18.312,18.312,0,0,1-10.139-2.784,22.341,22.341,0,0,1-4.124-3.344,30.138,30.138,0,0,1-3.29-4.082c-.5-.712-.918-1.468-1.382-2.2l-1.2-2.393c-.326-.831-.6-1.687-.9-2.53-.218-.87-.392-1.756-.58-2.638a21.378,21.378,0,0,1,1.2-10.629,26.358,26.358,0,0,1,5.7-8.972,29.5,29.5,0,0,1,18.842-8.972,37.19,37.19,0,0,1,5.276-.051,40.945,40.945,0,0,1,5.2.718,43.767,43.767,0,0,1,9.869,3.29,47.539,47.539,0,0,1,16.4,12.406,44.952,44.952,0,0,1,9.074,38.647.9.9,0,1,1-1.759-.377,43.448,43.448,0,0,0-9.8-36.131A45.142,45.142,0,0,0,139.8,43.057a38.87,38.87,0,0,0-18.447-3.439,27.594,27.594,0,0,0-4.591.748,22.294,22.294,0,0,0-4.369,1.525,25.649,25.649,0,0,0-7.6,5.255A22.825,22.825,0,0,0,99.7,54.793a18.5,18.5,0,0,0-1.226,8.972c.147.748.269,1.5.425,2.249.242.727.455,1.462.709,2.189l.969,2.094c.407.682.769,1.4,1.2,2.061a27.312,27.312,0,0,0,2.847,3.777,19.656,19.656,0,0,0,3.52,3.045,15.977,15.977,0,0,0,8.739,2.757A20.277,20.277,0,0,0,126,79.814l.048-.024a.9.9,0,0,1,.867,1.567Z" transform="translate(-34.675 -18.276)"/><path class="m" d="M126.967,164.417a8.915,8.915,0,0,1-.144,1.759c-.039.3-.1.559-.168.834a7.138,7.138,0,0,1-.215.825,15,15,0,0,1-1.355,3.122,19,19,0,0,1-4.4,5.156c-.449.341-.9.676-1.37.99a13.655,13.655,0,0,1-1.5.784l-.745.374-.772.3-1.543.6c-1.041.341-2.094.616-3.14.879-1.065.188-2.126.356-3.185.484a.9.9,0,0,1-.505-1.714l.069-.033c.93-.449,1.857-.861,2.784-1.25.9-.487,1.794-.9,2.656-1.37a49.732,49.732,0,0,0,4.8-3.212,20.637,20.637,0,0,0,4.157-3.783,12.327,12.327,0,0,0,.849-1.131l.4-.6.356-.613a12.183,12.183,0,0,0,.658-1.265c.1-.218.194-.437.269-.655s.17-.458.23-.622l.054-.153a.9.9,0,0,1,1.732.3Z" transform="translate(-38.193 -54.907)"/><path class="m" d="M133.29,103.462a15.34,15.34,0,0,1,2.3-1.609,10.366,10.366,0,0,1,2.647-1.1,5.383,5.383,0,0,1,3.122.072,4.857,4.857,0,0,1,2.414,2.079,12.636,12.636,0,0,1,1.477,5.443c.078.9.1,1.794.093,2.716a11.879,11.879,0,0,1-.072,1.382,13.478,13.478,0,0,1-.173,1.376,18.681,18.681,0,0,1-1.729,5.24c-.811,1.63-1.762,3.14-2.662,4.624a38.666,38.666,0,0,0-2.423,4.486,17.645,17.645,0,0,0-1.373,4.752,50,50,0,0,0,0,10.255c.209,3.505.362,7.178-.7,10.806a16,16,0,0,1-2.491,5.048l-.9,1.1-.987,1a12.349,12.349,0,0,1-1.053.933,12.113,12.113,0,0,1-1.119.864,22.94,22.94,0,0,1-10.345,3.67,47.2,47.2,0,0,1-10.767-.081A96.734,96.734,0,0,1,98.086,164.7c-6.9-1.522-13.578-3.655-20.358-4.824-1.7-.3-3.395-.547-5.084-.712a47.569,47.569,0,0,0-5.1-.266,36.212,36.212,0,0,0-5.051.314c-.837.09-1.657.263-2.482.41-.81.2-1.63.368-2.426.628-6.427,1.848-11.852,6.281-15.851,11.718a44.485,44.485,0,0,0-5.051,8.817l-1.044,2.348-.9,2.393c-.649,1.588-1.092,3.248-1.621,4.878a84.336,84.336,0,0,0-3.17,20.307,113.051,113.051,0,0,0,1.3,20.636q.4,2.56.876,5.111c.353,1.693.658,3.4,1.071,5.084l.6,2.53.661,2.494c.41,1.672.975,3.29,1.468,4.944a84.884,84.884,0,0,0,3.828,9.535,72.052,72.052,0,0,0,5.084,8.88,57.677,57.677,0,0,0,14.092,14.52,56.6,56.6,0,0,0,8.772,5.123,60.622,60.622,0,0,0,9.555,3.5,64.026,64.026,0,0,0,10.013,1.9c1.684.176,3.389.32,5.084.332h3.819l1.172-.066h.206a.966.966,0,0,0-.263.03l.2-.03.365-.03.323-.03h.251a116.506,116.506,0,0,0,28.182-3.242q3.427-.87,6.765-2.019l1.663-.6,1.633-.655c1.086-.452,2.18-.852,3.263-1.34A63.168,63.168,0,0,0,152,280.258a70.823,70.823,0,0,0,18.4-21.019A99.236,99.236,0,0,0,180.852,233a127.246,127.246,0,0,0,3.589-28.17c.09-4.743-.164-9.475-.493-14.281s-.706-9.6-.966-14.448-.341-9.69-.428-14.52-.081-9.669-.021-14.5c.123-9.669.517-19.344,1.292-28.992q2.512-28.918,7.608-57.459c.858-4.752,1.759-9.5,2.74-14.23.482-2.366.99-4.728,1.5-7.088l.784-3.538a10.372,10.372,0,0,1,1.627-3.822,8.6,8.6,0,0,1,3.251-2.808,9,9,0,0,1,2.067-.691,8.5,8.5,0,0,1,2.192-.114,6.819,6.819,0,0,1,4.115,1.794,6.075,6.075,0,0,1,1.352,1.929,6.558,6.558,0,0,1,.508,2.24,8.315,8.315,0,0,1-.191,2.162c-.138.649-.278,1.2-.416,1.794-.266,1.16-.532,2.321-.739,3.472a20.363,20.363,0,0,0-.359,6.723,10.043,10.043,0,0,0,2.859,5.608,8.7,8.7,0,0,0,2.512,1.905,14.687,14.687,0,0,0,3.116,1.11c2.234.559,4.654.837,7.115,1.579a15.277,15.277,0,0,1,3.61,1.576,12.516,12.516,0,0,1,2.991,2.644,14.7,14.7,0,0,1,2.094,3.32,21.607,21.607,0,0,1,1.307,3.589,39.356,39.356,0,0,1,1.172,7.357,114.755,114.755,0,0,1,.176,14.595,31.43,31.43,0,0,1-1.047,7.417,12.656,12.656,0,0,1-1.693,3.562,10.988,10.988,0,0,1-2.856,2.8,14.188,14.188,0,0,1-7.39,2.264,17.316,17.316,0,0,1-3.816-.281c-.144-.024-.332-.057-.5-.093l-.464-.117c-.3-.087-.625-.141-.921-.251-.6-.206-1.2-.395-1.794-.622a23.658,23.658,0,0,1-6.424-3.906,26.077,26.077,0,0,1-4.983-5.587,21.587,21.587,0,0,1-3.03-6.879,16.15,16.15,0,0,1-.021-7.591.9.9,0,0,1,1.747.428,14.314,14.314,0,0,0,.09,6.732,19.707,19.707,0,0,0,2.826,6.245,23.292,23.292,0,0,0,10.557,8.637c.535.2,1.086.362,1.627.547.269.1.55.144.822.218l.413.1.392.069a15.189,15.189,0,0,0,3.38.221,12.037,12.037,0,0,0,6.242-1.953,8.763,8.763,0,0,0,2.255-2.246,10.411,10.411,0,0,0,1.364-2.955,29.337,29.337,0,0,0,.9-6.879,114.6,114.6,0,0,0-.272-14.293,36.976,36.976,0,0,0-1.136-6.879,19.1,19.1,0,0,0-1.178-3.182,12.188,12.188,0,0,0-1.747-2.787,9.975,9.975,0,0,0-2.408-2.094,12.748,12.748,0,0,0-2.991-1.28c-2.162-.646-4.558-.912-7-1.5a17.275,17.275,0,0,1-3.682-1.3,11.44,11.44,0,0,1-3.236-2.408,12.773,12.773,0,0,1-3.622-7.037,22.981,22.981,0,0,1,.323-7.644c.212-1.223.479-2.414.742-3.589.129-.577.3-1.2.395-1.741a5.53,5.53,0,0,0,.123-1.427,3.272,3.272,0,0,0-1-2.267,3.99,3.99,0,0,0-2.408-1,5.449,5.449,0,0,0-4.893,2.431,7.456,7.456,0,0,0-1.154,2.8l-.757,3.523q-.745,3.526-1.45,7.061c-.945,4.713-1.809,9.439-2.635,14.173-3.266,18.935-5.662,38.054-7.2,57.189-.706,9.57-1.065,19.162-1.136,28.765q-.054,7.2.087,14.406c.108,4.8.2,9.609.49,14.374s.685,9.57,1.032,14.392.64,9.705.571,14.6a126.847,126.847,0,0,1-3.652,29.067,102.984,102.984,0,0,1-10.877,27.285,74.6,74.6,0,0,1-19.44,22.182,67.139,67.139,0,0,1-12.842,7.477c-1.113.5-2.282.936-3.421,1.406l-1.72.688-1.741.619q-3.505,1.2-7.094,2.079a119.543,119.543,0,0,1-29.13,3.221l.248-.018-.443.042c-.156.015-.3.024-.4.03l.2-.03a3.124,3.124,0,0,1-.473.042h.206l-.476.03-.323.015-.649.033H92.242c-1.794-.021-3.589-.179-5.383-.377a67.7,67.7,0,0,1-10.575-2.064,64.266,64.266,0,0,1-10.115-3.762,60.184,60.184,0,0,1-9.3-5.494A61.189,61.189,0,0,1,41.949,271.9a75.44,75.44,0,0,1-5.3-9.394,88.27,88.27,0,0,1-3.942-9.95c-.505-1.708-1.08-3.395-1.5-5.123l-.67-2.581-.6-2.587c-.413-1.72-.715-3.463-1.068-5.195s-.6-3.487-.873-5.237A116.229,116.229,0,0,1,26.78,210.6a87.472,87.472,0,0,1,3.392-21.049c.559-1.7,1.032-3.418,1.714-5.084l.957-2.5,1.119-2.417a47.428,47.428,0,0,1,5.407-9.331,39.442,39.442,0,0,1,3.526-4.139,33.913,33.913,0,0,1,4.1-3.616,29.907,29.907,0,0,1,9.774-4.932c.873-.278,1.768-.464,2.659-.673.9-.159,1.794-.338,2.692-.434a38.993,38.993,0,0,1,5.416-.3,50.359,50.359,0,0,1,5.383.3c1.794.179,3.544.446,5.294.763,3.5.622,6.945,1.477,10.33,2.378s6.75,1.794,10.13,2.572a95.709,95.709,0,0,0,10.184,1.824,44.717,44.717,0,0,0,10.169.167,20.526,20.526,0,0,0,9.271-3.176,9.994,9.994,0,0,0,.978-.724,10.254,10.254,0,0,0,.915-.8l.864-.858.763-.939a13.646,13.646,0,0,0,2.159-4.289c.951-3.122.861-6.58.691-10.031a51.9,51.9,0,0,1,.123-10.695,19.82,19.82,0,0,1,1.573-5.285,40.656,40.656,0,0,1,2.578-4.722c.927-1.5,1.854-2.949,2.614-4.447a16.667,16.667,0,0,0,1.591-4.675,20.541,20.541,0,0,0,.17-4.989,10.856,10.856,0,0,0-1.163-4.618,2.991,2.991,0,0,0-1.451-1.316,3.562,3.562,0,0,0-2.046-.033,11.16,11.16,0,0,0-4.187,2.276l-.039.03a.9.9,0,0,1-1.142-1.382Z" transform="translate(-15.119 -16.215)"/><path class="m" d="M195.643,184.741a72.251,72.251,0,0,1,7.719,1.038q3.828.754,7.591,1.86a66.608,66.608,0,0,1,14.451,6.194,43.608,43.608,0,0,1,11.987,10.4,32.868,32.868,0,0,1,6.732,14.3.9.9,0,0,1-1.744.446,34.43,34.43,0,0,0-7.477-12.621,54.311,54.311,0,0,0-11.547-9.125,76.92,76.92,0,0,0-13.426-6.553q-3.517-1.346-7.178-2.363c-2.423-.709-4.884-1.289-7.363-1.794h0a.9.9,0,1,1,.254-1.788Z" transform="translate(-63.152 -60.966)"/><path class="m" d="M135.991,175.291a17.956,17.956,0,0,1-3.057,9.469,25.036,25.036,0,0,1-7.073,7.043,30.048,30.048,0,0,1-9.1,4.088,29.725,29.725,0,0,1-9.986,1.017,23.522,23.522,0,0,1-5.03-.87c-.825-.257-1.654-.571-2.467-.882-.778-.413-1.576-.787-2.318-1.253a19.79,19.79,0,0,1-6.879-7.635,28.962,28.962,0,0,1-2.892-9.49,43.236,43.236,0,0,1-.224-9.7.9.9,0,1,1,1.794.051h0a48.186,48.186,0,0,0,1.032,9.164,28.18,28.18,0,0,0,3.152,8.374,16.748,16.748,0,0,0,5.964,5.982c.6.341,1.265.6,1.89.9.679.2,1.325.461,2.01.655.709.15,1.4.362,2.123.443l1.074.185,1.089.1a28.059,28.059,0,0,0,8.79-.6,31.172,31.172,0,0,0,4.265-1.289,29.529,29.529,0,0,0,4-1.956,22.132,22.132,0,0,0,6.645-5.823,16.473,16.473,0,0,0,3.412-8.075h0A.9.9,0,1,1,136,175.3Z" transform="translate(-32.307 -55.666)"/><path class="m" d="M283.64,176.79a36.869,36.869,0,0,0-4.585-4.035,27.179,27.179,0,0,0-5.141-3.057c-.452-.2-.9-.389-1.361-.571a10.912,10.912,0,0,0-1.34-.437,19.051,19.051,0,0,0-2.811-.526c-1.941-.23-4.008-.188-6.191-.362a23.113,23.113,0,0,1-3.338-.455,30.535,30.535,0,0,1-3.206-.879,50.847,50.847,0,0,1-6.044-2.44,96.3,96.3,0,0,1-11.09-6.328.9.9,0,1,1,.852-1.585c3.861,1.7,7.65,3.472,11.508,4.89a57.42,57.42,0,0,0,5.832,1.794c.969.236,1.986.464,2.916.637s1.911.278,2.913.389c2.007.182,4.154.317,6.382.685a20.3,20.3,0,0,1,3.335.867c.55.185,1.089.428,1.618.661a16.407,16.407,0,0,1,1.5.778,30.081,30.081,0,0,1,5.35,3.909,32.354,32.354,0,0,1,4.295,4.9.9.9,0,1,1-1.379,1.148Z" transform="translate(-75.581 -52.748)"/><path class="m" d="M195.467,329.287c5.192,2.2,10.438,4.244,15.779,5.982,2.665.873,5.347,1.7,8.075,2.345l4.053,1.017c1.367.266,2.725.6,4.1.8a76.718,76.718,0,0,0,16.509,1.235,50.876,50.876,0,0,0,15.914-3.26l1.839-.828a15.572,15.572,0,0,0,1.794-.9l1.765-.963a6.805,6.805,0,0,0,.855-.526l.834-.559c.547-.383,1.131-.724,1.654-1.139l1.564-1.265.787-.628c.248-.224.482-.467.727-.7l1.448-1.4a42.107,42.107,0,0,0,5.042-6.376c.778-1.119,1.418-2.33,2.094-3.511.341-.6.619-1.223.933-1.833s.625-1.223.879-1.863l.816-1.9c.263-.637.487-1.289.733-1.935.508-1.283.9-2.62,1.319-3.936.754-2.668,1.468-5.359,1.965-8.1a119.106,119.106,0,0,0,1.908-16.688h0a.9.9,0,0,1,1.794.042,109.406,109.406,0,0,1-1.1,17.1,79.983,79.983,0,0,1-1.693,8.464c-.4,1.388-.751,2.793-1.238,4.157-.233.685-.446,1.379-.7,2.058l-.766,2.022c-.248.682-.565,1.34-.864,2s-.6,1.337-.927,1.983c-.688,1.289-1.337,2.6-2.141,3.834a45.755,45.755,0,0,1-5.279,7.067,39.2,39.2,0,0,1-14.586,10.01,51.968,51.968,0,0,1-17.254,3.2,77.737,77.737,0,0,1-17.245-1.717c-1.412-.278-2.8-.658-4.187-.981l-4.127-1.2c-2.763-.76-5.464-1.7-8.144-2.692a169.759,169.759,0,0,1-15.666-6.81.9.9,0,0,1,.748-1.63Z" transform="translate(-63.045 -88.644)"/><path class="m" d="M324.471,205.582a6.225,6.225,0,0,0-.751.981,5.75,5.75,0,0,0-.538,1.125,3.852,3.852,0,0,0-.1,2.306,4.785,4.785,0,0,0,1.235,2.064c.12.144.371.383.26.3a2.077,2.077,0,0,0,.245.027,4.519,4.519,0,0,0,1.128-.161,28.847,28.847,0,0,0,5.165-2.147c1.7-.846,3.4-1.794,5.141-2.737.452-.233.858-.461,1.445-.7l1.388-.535c.93-.344,1.86-.685,2.8-1,1.884-.625,3.783-1.2,5.724-1.684a44.874,44.874,0,0,1,12-1.5,21.776,21.776,0,0,1,6.23,1.071l.766.281.383.144c.15.066.323.161.482.245a5.359,5.359,0,0,1,1.615,1.427,4.923,4.923,0,0,1,.9,2.058,3.643,3.643,0,0,1-.511,2.629,3.753,3.753,0,0,1-2.168,1.513,4.259,4.259,0,0,1-.538.111c-.167.027-.389.063-.482.069l-.715.075c-.954.1-1.908.215-2.856.341-1.9.254-3.789.562-5.653.942a54.85,54.85,0,0,0-5.479,1.385,23.267,23.267,0,0,0-4.953,2.123c-.35.227-.688.464-1.02.7a11.027,11.027,0,0,0-.846.784,14.429,14.429,0,0,0-1.522,2.058,54.223,54.223,0,0,0-2.692,4.956l-1.3,2.641a27.285,27.285,0,0,1-1.543,2.754,17.529,17.529,0,0,1-10.62,7.3c-1.887.446-3.75.873-5.6,1.388a100.987,100.987,0,0,0-10.913,3.589,69.719,69.719,0,0,0-10.261,4.995,46.815,46.815,0,0,0-4.7,3.164q-.57.422-1.107.876c-.359.3-.73.6-1.077.9s-.667.6-1.142.984l-.664.532-.727.449a10.184,10.184,0,0,1-11.18-.619c-.23-.164-.431-.368-.643-.55a4.978,4.978,0,0,1-.6-.6l-.55-.643a8.068,8.068,0,0,1-.476-.7,8.909,8.909,0,0,1-.787-1.5,14.838,14.838,0,0,1-.523-1.582l-.335-1.424c-.452-1.905-.879-3.846-1.175-5.823a31.1,31.1,0,0,1,.3-12.017.9.9,0,0,1,1.759.389h0a29.061,29.061,0,0,0,.179,11.245c.362,1.872.825,3.729,1.325,5.611l.374,1.415A12.522,12.522,0,0,0,279,248.8a6.381,6.381,0,0,0,.6,1.077,5.6,5.6,0,0,0,.359.5l.416.455a3.082,3.082,0,0,0,.452.419,5.532,5.532,0,0,0,.479.389,7.7,7.7,0,0,0,3.421,1.313A7.213,7.213,0,0,0,289.4,251.9l.511-.329.464-.4c.3-.227.685-.616,1.047-.954s.748-.682,1.128-1.011.763-.661,1.16-.972a49.947,49.947,0,0,1,4.9-3.514,84.858,84.858,0,0,1,21.862-9.475c1.9-.565,3.825-1.053,5.73-1.54a14.119,14.119,0,0,0,4.639-2.094,13.458,13.458,0,0,0,3.538-3.622,24.528,24.528,0,0,0,1.325-2.345l1.3-2.6a57.751,57.751,0,0,1,2.931-5.312,17.578,17.578,0,0,1,2.007-2.6,15.485,15.485,0,0,1,1.322-1.178c.467-.326.936-.64,1.409-.933a26.9,26.9,0,0,1,5.817-2.393,58.557,58.557,0,0,1,5.889-1.385c1.968-.365,3.936-.652,5.91-.879.987-.111,1.974-.215,2.961-.3L366,208a2.033,2.033,0,0,0,.242-.033,1.2,1.2,0,0,0,.179-.027c.215-.054.221-.108.209-.072s.027,0,0-.17a1.52,1.52,0,0,0-.254-.6,2,2,0,0,0-.553-.508l-.167-.093-.3-.117-.6-.233a19.556,19.556,0,0,0-5.249-1.02,41.718,41.718,0,0,0-11.185,1.128c-1.863.4-3.709.918-5.545,1.477-.918.278-1.827.6-2.737.9l-1.385.467c-.32.12-.781.347-1.2.553-1.723.861-3.487,1.759-5.285,2.587-.9.416-1.815.813-2.754,1.181a20.119,20.119,0,0,1-2.961.939,6.427,6.427,0,0,1-1.771.162,2.763,2.763,0,0,1-1.16-.329,3.167,3.167,0,0,1-.775-.739,6.789,6.789,0,0,1-1.6-2.991,5.823,5.823,0,0,1,.248-3.442,7.616,7.616,0,0,1,.775-1.5,7.746,7.746,0,0,1,1.083-1.292.9.9,0,0,1,1.265,1.268Z" transform="translate(-85.918 -65.88)"/></g></g></g></svg>