<svg xmlns="http://www.w3.org/2000/svg" xmlns:xlink="http://www.w3.org/1999/xlink" width="1032" height="1376" viewBox="0 0 1032 1376"><defs><style>.a{fill:#fff;}.b{fill:#ececec;}.c{clip-path:url(#a);}.d{opacity:0.5;}.aa,.ab,.ac,.ad,.ae,.af,.ag,.ah,.ai,.aj,.ak,.al,.am,.an,.ao,.ap,.aq,.ar,.as,.at,.au,.av,.aw,.ax,.ay,.az,.ba,.bb,.bc,.bd,.be,.bf,.bg,.bh,.bi,.bj,.bk,.bl,.bm,.bn,.cn,.e,.f,.g,.h,.i,.j,.k,.l,.m,.n,.o,.p,.q,.r,.s,.t,.u,.v,.w,.x,.y,.z{fill:none;}.e{stroke:#1b75bc;}.aa,.ab,.ac,.ad,.ae,.af,.ag,.ah,.ai,.aj,.ak,.al,.am,.an,.ao,.ap,.aq,.ar,.as,.at,.au,.av,.aw,.ax,.ay,.az,.ba,.bb,.bc,.bd,.be,.bf,.bg,.bh,.bi,.bj,.bk,.bl,.bm,.bn,.e,.f,.g,.h,.i,.j,.k,.l,.m,.n,.o,.p,.q,.r,.s,.t,.u,.v,.w,.x,.y,.z{stroke-linecap:round;stroke-miterlimit:10;stroke-width:0.5px;}.bh,.e{stroke-dasharray:2.007 2.007 2.007 2.007 2.007 2.007;}.f{stroke:#1776bd;stroke-dasharray:1.992 1.992 1.992 1.992 1.992 1.992;}.g{stroke:#1177be;}.g,.q{stroke-dasharray:1.993 1.993 1.993 1.993 1.993 1.993;}.h{stroke:#0978be;stroke-dasharray:1.995 1.995 1.995 1.995 1.995 1.995;}.i{stroke:#0079bf;stroke-dasharray:1.996 1.996 1.996 1.996 1.996 1.996;}.j{stroke:#007ac0;stroke-dasharray:1.998 1.998 1.998 1.998 1.998 1.998;}.k{stroke:#007bc1;stroke-dasharray:2 2 2 2 2 2;}.l{stroke:#007cc1;stroke-dasharray:2.001 2.001 2.001 2.001 2.001 2.001;}.m{stroke:#007dc2;stroke-dasharray:2.003 2.003 2.003 2.003 2.003 2.003;}.n{stroke:#007ec3;stroke-dasharray:2.005 2.005 2.005 2.005 2.005 2.005;}.o{stroke:#007fc4;stroke-dasharray:2.007 2.007 2.007 2.007 2.007 2.007;}.p{stroke:#0080c5;stroke-dasharray:1.991 1.991 1.991 1.991 1.991 1.991;}.q{stroke:#0081c5;}.r{stroke:#0082c6;stroke-dasharray:1.995 1.995 1.995 1.995 1.995 1.995;}.s{stroke:#0083c7;stroke-dasharray:1.998 1.998 1.998 1.998 1.998 1.998;}.t{stroke:#0083c8;stroke-dasharray:2 2 2 2 2 2;}.u{stroke:#0084c9;stroke-dasharray:2.003 2.003 2.003 2.003 2.003 2.003;}.v{stroke:#0085ca;stroke-dasharray:2.005 2.005 2.005 2.005 2.005 2.005;}.w{stroke:#0086ca;stroke-dasharray:2.008 2.008 2.008 2.008 2.008 2.008;}.x{stroke:#0087cb;stroke-dasharray:1.992 1.992 1.992 1.992 1.992 1.992;}.y{stroke:#08c;}.ar,.y{stroke-dasharray:1.995 1.995 1.995 1.995 1.995 1.995;}.z{stroke:#0089cd;stroke-dasharray:1.998 1.998 1.998 1.998 1.998 1.998;}.aa{stroke:#008ace;}.aa,.as{stroke-dasharray:2.001 2.001 2.001 2.001 2.001 2.001;}.ab{stroke:#008bcf;stroke-dasharray:2.005 2.005 2.005 2.005 2.005 2.005;}.ac{stroke:#008cd0;stroke-dasharray:2.008 2.008 2.008 2.008 2.008 2.008;}.ad{stroke:#008dd0;stroke-dasharray:1.991 1.991 1.991 1.991 1.991 1.991;}.ae{stroke:#008ed1;stroke-dasharray:1.995 1.995 1.995 1.995 1.995 1.995;}.af{stroke:#008fd2;stroke-dasharray:1.999 1.999 1.999 1.999 1.999 1.999;}.ag{stroke:#0090d3;stroke-dasharray:2.003 2.003 2.003 2.003 2.003 2.003;}.ah{stroke:#0091d4;stroke-dasharray:2.007 2.007 2.007 2.007 2.007 2.007;}.ai,.aj{stroke:#0092d5;}.ai{stroke-dasharray:1.991 1.991 1.991 1.991 1.991 1.991;}.aj{stroke-dasharray:1.995 1.995 1.995 1.995 1.995 1.995;}.ak{stroke:#0093d6;stroke-dasharray:2 2 2 2 2 2;}.al{stroke:#0094d7;}.al,.ap{stroke-dasharray:2.005 2.005 2.005 2.005 2.005 2.005;}.am{stroke:#0095d8;stroke-dasharray:2.01 2.01 2.01 2.01 2.01 2.01;}.an{stroke:#0096d9;stroke-dasharray:1.994 1.994 1.994 1.994 1.994 1.994;}.ao{stroke:#0097da;stroke-dasharray:1.999 1.999 1.999 1.999 1.999 1.999;}.ap{stroke:#0098da;}.aq{stroke:#0099db;stroke-dasharray:1.989 1.989 1.989 1.989 1.989 1.989;}.ar{stroke:#0099dc;}.as{stroke:#009add;}.at{stroke:#009bde;stroke-dasharray:2.008 2.008 2.008 2.008 2.008 2.008;}.au{stroke:#009cde;stroke-dasharray:1.992 1.992 1.992 1.992 1.992 1.992;}.av{stroke:#009ddf;stroke-dasharray:1.999 1.999 1.999 1.999 1.999 1.999;}.aw{stroke:#009ee0;stroke-dasharray:2.006 2.006 2.006 2.006 2.006 2.006;}.ax{stroke:#009fe1;stroke-dasharray:1.99 1.99 1.99 1.99 1.99 1.99;}.ay{stroke:#009fe2;stroke-dasharray:1.998 1.998 1.998 1.998 1.998 1.998;}.az{stroke:#00a0e2;stroke-dasharray:2.006 2.006 2.006 2.006 2.006 2.006;}.ba{stroke:#00a1e3;stroke-dasharray:1.99 1.99 1.99 1.99 1.99 1.99;}.bb{stroke:#00a2e4;stroke-dasharray:1.999 1.999 1.999 1.999 1.999 1.999;}.bc{stroke:#00a3e5;stroke-dasharray:2.008 2.008 2.008 2.008 2.008 2.008;}.bd{stroke:#00a4e6;stroke-dasharray:1.992 1.992 1.992 1.992 1.992 1.992;}.be,.bf{stroke:#00a5e7;}.be{stroke-dasharray:2.002 2.002 2.002 2.002 2.002 2.002;}.bf{stroke-dasharray:2.012 2.012 2.012 2.012 2.012 2.012;}.bg{stroke:#00a6e8;stroke-dasharray:1.996 1.996 1.996 1.996 1.996 1.996;}.bh{stroke:#00a7e9;}.bi{stroke:#00a8ea;stroke-dasharray:1.992 1.992 1.992 1.992 1.992 1.992;}.bj{stroke:#00a9eb;stroke-dasharray:2.003 2.003 2.003 2.003 2.003 2.003;}.bk{stroke:#00aaec;stroke-dasharray:1.988 1.988 1.988 1.988 1.988 1.988;}.bl{stroke:#00abed;stroke-dasharray:2 2 2 2 2 2;}.bm{stroke:#00acee;stroke-dasharray:2.012 2.012 2.012 2.012 2.012 2.012;}.bn{stroke:#00aeef;stroke-dasharray:1.997 1.997 1.997 1.997 1.997 1.997;}.bo{clip-path:url(#b);}.bp{fill:#ecf6ff;}.bq,.bs{fill:#1694f3;}.br{fill:#444053;}.bs,.bz{opacity:0.2;}.bt{fill:url(#c);}.bu{fill:#65617d;}.bv,.cg{opacity:0.1;}.bw{fill:#fbbebe;}.bx{fill:#3f3d56;}.by{fill:#e7effd;}.ca{fill:url(#d);}.cb{opacity:0.05;}.cc{fill:#ee8e9e;}.cd{fill:#e3e8f4;}.ce{fill:#e6e8ec;}.cf{fill:#565387;}.ch{fill:#f1f1f1;}.ci{fill:#2f2e41;}.cj{fill:url(#e);}.ck{fill:#be6f72;}.cl{fill:#f3f5f9;}.cm{fill:#67647e;}</style><clipPath id="a"><rect class="a" width="1032" height="1376" transform="translate(888 4335)"/></clipPath><clipPath id="b"><rect class="b" width="625" height="625" transform="translate(1049.614 1987.614)"/></clipPath><linearGradient id="c" x1="0.5" y1="1" x2="0.5" gradientUnits="objectBoundingBox"><stop offset="0" stop-color="gray" stop-opacity="0.251"/><stop offset="0.535" stop-color="gray" stop-opacity="0.122"/><stop offset="1" stop-color="gray" stop-opacity="0.102"/></linearGradient><linearGradient id="d" x1="0.5" y1="1" x2="0.5" y2="0" xlink:href="#c"/><linearGradient id="e" x1="-4.618" y1="1" x2="-4.618" y2="0" xlink:href="#c"/></defs><g class="c" transform="translate(-888 -4335)"><g class="d" transform="translate(2580.643 7084.143) rotate(-132)"><g transform="translate(0 0)"><g transform="translate(0)"><path class="e" d="M2527.4,419.721C2502,1007.1,2439.7,2264.195,1444.888,2148.056,860.953,2079.847,0,1644.143,0,1056.236s791.7-395.823,1369.988-501.77C1978.593,442.98,2569.217-546.656,2527.4,419.721Z" transform="translate(0 0)"/></g><g transform="translate(10.349 16.081)"><path class="f" d="M2510.208,418.8c-24.984,584.4-91.677,1826.337-1076.871,1712.08C852.277,2063.818,0,1629.84,0,1044.86S784.172,643.444,1359.639,539.222C1964.951,429.565,2551.342-538.432,2510.208,418.8Z" transform="translate(0 0)"/></g><g transform="translate(20.751 32.14)"><path class="g" d="M2492.906,417.9c-24.566,581.478-95.65,1808.2-1071.225,1695.825C843.548,2047.759,0,1615.505,0,1033.5S776.541,626.5,1349.238,524C1951.257,416.171,2533.362-530.135,2492.906,417.9Z" transform="translate(0 0)"/></g><g transform="translate(31.1 48.131)"><path class="h" d="M2475.658,417.063c-24.147,578.5-99.622,1790.011-1065.581,1679.569C834.872,2031.82,0,1601.292,0,1022.218S769.014,609.617,1338.889,508.9C1937.615,402.846,2515.434-521.821,2475.658,417.063Z" transform="translate(0 0)"/></g><g transform="translate(41.449 64.055)"><path class="i" d="M2458.462,416.244c-23.729,575.572-103.594,1771.874-1059.884,1663.366C826.2,2015.9,0,1587.093,0,1011.05S761.435,592.8,1328.54,493.81C1923.973,389.588,2497.506-513.441,2458.462,416.244Z" transform="translate(0 0)"/></g><g transform="translate(51.85 79.954)"><path class="j" d="M2441.162,415.5C2417.85,988.095,2333.594,2169.24,1386.922,2062.614,817.414,2000.049,0,1572.97,0,999.855S753.857,576.017,1318.138,478.747C1910.279,376.406,2479.526-505.035,2441.162,415.5Z" transform="translate(0 0)"/></g><g transform="translate(62.199 95.787)"><path class="k" d="M2423.913,414.827c-22.893,569.665-111.539,1735.6-1048.594,1630.856C808.738,1984.216,0,1558.862,0,988.726S746.33,559.3,1307.789,463.75C1896.637,363.239,2461.651-496.564,2423.913,414.827Z" transform="translate(0 0)"/></g><g transform="translate(72.548 111.562)"><path class="l" d="M2406.717,414.21c-22.475,566.686-115.511,1717.463-1042.949,1614.6C800.061,1968.494,0,1544.864,0,977.656S738.751,542.632,1297.44,448.811C1883,350.13,2443.722-488.034,2406.717,414.21Z" transform="translate(0 0)"/></g><g transform="translate(82.896 127.278)"><path class="m" d="M2389.469,413.652c-22.057,563.759-119.275,1697.341-1037.3,1598.4C791.49,1951.628,0,1530.926,0,966.7S731.225,526.027,1287.092,433.984C1869.3,337.08,2425.795-479.446,2389.469,413.652Z" transform="translate(0 0)"/></g><g transform="translate(93.298 142.936)"><path class="n" d="M2372.168,413.1c-21.691,560.832-123.247,1678.994-1031.607,1582.142C782.813,1935.813,0,1516.992,0,955.689S723.594,509.481,1276.69,419.162C1855.607,324.087,2407.815-470.747,2372.168,413.1Z" transform="translate(0 0)"/></g><g transform="translate(103.647 158.517)"><path class="o" d="M2354.972,412.676C2333.7,970.529,2227.753,2073.324,1329.01,1978.563,774.136,1920.127,0,1503.188,0,944.865S716.067,493.011,1266.341,404.417C1841.965,311.172,2389.887-462.024,2354.972,412.676Z" transform="translate(0 0)"/></g><g transform="translate(114.048 174.038)"><path class="p" d="M2337.672,412.312C2316.817,967.237,2206.532,2054.614,1317.354,1962,765.408,1904.5,0,1489.391,0,934.047S708.488,476.6,1255.94,389.732C1828.271,298.368,2371.959-453.241,2337.672,412.312Z" transform="translate(0 0)"/></g><g transform="translate(124.397 189.471)"><path class="q" d="M2320.423,412.037c-20.437,551.947-135.112,1623.956-1014.672,1533.429C756.732,1888.964,0,1475.736,0,923.319S700.91,460.28,1245.591,375.136C1814.629,285.6,2354.031-444.369,2320.423,412.037Z" transform="translate(0 0)"/></g><g transform="translate(134.798 204.824)"><path class="r" d="M2303.175,411.841c-20.019,549.02-139.085,1605.61-1009.028,1517.173C748,1873.506,0,1462.107,0,912.67s693.331-468.632,1235.19-552C1800.935,272.914,2336.052-435.418,2303.175,411.841Z" transform="translate(0 0)"/></g><g transform="translate(145.148 220.076)"><path class="s" d="M2285.927,411.695c-19.6,546.04-143.057,1587.264-1003.331,1500.918C739.326,1858.151,0,1448.633,0,902.122S685.8,427.9,1224.84,346.256C1787.293,260.328,2318.124-426.365,2285.927,411.695Z" transform="translate(0 0)"/></g><g transform="translate(155.497 235.249)"><path class="t" d="M2268.678,411.68C2249.5,954.793,2121.7,1980.651,1270.993,1896.395,730.65,1842.873,0,1435.185,0,891.653S678.225,411.836,1214.492,331.919C1773.651,247.82,2300.2-417.233,2268.678,411.68Z" transform="translate(0 0)"/></g><g transform="translate(165.898 250.324)"><path class="u" d="M2251.377,411.762c-18.764,540.134-150.949,1550.677-992.04,1468.46C721.921,1827.693,0,1421.887,0,881.335S670.646,395.873,1204.09,317.681C1759.9,235.411,2282.268-408,2251.377,411.762Z" transform="translate(0 0)"/></g><g transform="translate(176.247 265.332)"><path class="v" d="M2234.182,411.912c-18.346,537.207-154.921,1532.332-986.4,1452.2C713.3,1812.581,0,1408.6,0,871.031S663.068,379.976,1193.741,303.509C1746.263,223.121,2264.34-398.655,2234.182,411.912Z" transform="translate(0 0)"/></g><g transform="translate(186.596 280.194)"><path class="w" d="M2216.933,412.207c-17.927,534.228-158.893,1514.038-980.75,1435.949C704.568,1797.666,0,1395.518,0,860.873S655.541,364.225,1183.393,289.535C1732.621,210.924,2246.412-389.213,2216.933,412.207Z" transform="translate(0 0)"/></g><g transform="translate(196.945 294.923)"><path class="x" d="M2199.685,412.583c-17.51,531.3-162.866,1495.8-975.105,1419.747C695.892,1782.832,0,1382.514,0,850.848S648.015,348.555,1173.043,275.642C1718.979,198.861,2228.484-379.638,2199.685,412.583Z" transform="translate(0 0)"/></g><g transform="translate(207.398 309.537)"><path class="y" d="M2182.385,413.127c-17.091,528.322-166.838,1477.5-969.408,1403.491C687.163,1768.114,0,1369.678,0,840.938S640.331,333.053,1162.59,261.865C1705.233,186.913,2210.453-369.947,2182.385,413.127Z" transform="translate(0 0)"/></g><g transform="translate(217.695 324.014)"><path class="z" d="M2165.188,413.808c-16.673,525.395-170.811,1459.209-963.764,1387.236C678.487,1753.585,0,1356.926,0,831.165S632.857,317.688,1152.293,248.224C1691.643,175.1,2192.629-360.12,2165.188,413.808Z" transform="translate(0 0)"/></g><g transform="translate(228.044 338.361)"><path class="aa" d="M2147.94,414.619c-16.255,522.468-174.783,1440.968-958.119,1370.981C669.81,1739.134,0,1344.356,0,821.523s625.278-519.07,1141.944-586.809C1678,163.473,2174.7-350.162,2147.94,414.619Z" transform="translate(0 0)"/></g><g transform="translate(238.445 352.538)"><path class="ab" d="M2130.692,415.6c-15.837,519.488-178.755,1422.726-952.474,1354.778C661.082,1724.956,0,1331.955,0,812.1S617.7,287.386,1131.543,221.425C1664.307,151.961,2156.721-340.035,2130.692,415.6Z" transform="translate(0 0)"/></g><g transform="translate(248.794 366.533)"><path class="ac" d="M2113.443,416.71c-16.464,516.509-182.728,1404.485-946.829,1338.523C652.405,1710.857,0,1319.686,0,802.811S610.173,272.5,1121.194,208.266C1650.613,140.632,2137.277-329.725,2113.443,416.71Z" transform="translate(0 0)"/></g><g transform="translate(259.196 380.355)"><path class="ad" d="M2096.143,418.045c-16.1,513.582-186.7,1386.243-941.132,1322.267C643.677,1696.983,0,1307.589,0,793.693s602.542-535.9,1110.792-598.413C1636.919,129.475,2119.245-319.243,2096.143,418.045Z" transform="translate(0 0)"/></g><g transform="translate(269.597 393.98)"><path class="ae" d="M2078.894,419.578c-15.68,510.6-190.673,1368-935.487,1306.012C635,1683.305,0,1295.741,0,784.772s594.963-541.493,1100.391-602.28C1623.225,118.516,2101.265-308.563,2078.894,419.578Z" transform="translate(0 0)"/></g><g transform="translate(279.894 407.391)"><path class="af" d="M2061.7,421.324C2046.384,929,1867.053,1771.136,1131.856,1711.133,626.324,1669.894,0,1284.106,0,776.117s587.488-547.138,1090.094-606.2C1609.635,107.77,2083.389-297.67,2061.7,421.324Z" transform="translate(0 0)"/></g><g transform="translate(290.243 420.596)"><path class="ag" d="M2044.45,423.277c-14.9,504.7-198.618,1331.571-924.2,1273.554C617.595,1656.638,0,1272.627,0,767.617S579.91,214.886,1079.745,157.6C1595.993,97.284,2065.462-286.57,2044.45,423.277Z" transform="translate(0 0)"/></g><g transform="translate(300.644 433.519)"><path class="ah" d="M2027.2,425.459c-14.53,501.77-202.59,1313.382-918.552,1257.3C608.918,1643.609,0,1261.428,0,759.345S572.331,201.074,1069.344,145.514C1582.3,87.026,2047.481-275.189,2027.2,425.459Z" transform="translate(0 0)"/></g><g transform="translate(311.045 446.179)"><path class="ai" d="M2009.9,427.957c-14.112,498.79-206.562,1295.193-912.855,1241.1C600.19,1630.95,0,1250.545,0,751.442S564.7,187.526,1058.943,133.69C1568.605,77.032,2029.449-263.544,2009.9,427.957Z" transform="translate(0 0)"/></g><g transform="translate(321.394 458.542)"><path class="aj" d="M1992.653,430.752c-13.694,495.863-210.534,1277.056-907.21,1224.841C591.461,1618.587,0,1239.96,0,743.783S557.173,174.274,1048.594,122.163C1554.911,67.334,2011.522-251.6,1992.653,430.752Z" transform="translate(0 0)"/></g><g transform="translate(331.795 470.602)"><path class="ak" d="M1975.4,433.849c-13.329,492.884-214.559,1258.867-901.565,1208.585C582.785,1606.474,0,1229.624,0,736.426s549.595-575.1,1038.193-625.487C1541.217,57.94,1993.594-239.307,1975.4,433.849Z" transform="translate(0 0)"/></g><g transform="translate(342.144 482.299)"><path class="al" d="M1958.156,437.31c-12.91,489.957-218.531,1240.73-895.92,1192.33C574.056,1594.777,0,1219.7,0,729.434s542.016-580.694,1027.844-629.3C1527.575,48.909,1975.666-226.7,1958.156,437.31Z" transform="translate(0 0)"/></g><g transform="translate(352.441 493.62)"><path class="am" d="M1940.96,441.094c-12.492,486.978-222.5,1222.593-890.275,1176.127C565.379,1583.456,0,1210.108,0,722.87S534.541,136.531,1017.547,89.646C1513.985,40.306,1957.79-213.715,1940.96,441.094Z" transform="translate(0 0)"/></g><g transform="translate(362.79 504.507)"><path class="an" d="M1923.712,445.365c-12.074,484.051-226.476,1204.456-884.631,1159.872C556.7,1572.569,0,1201,0,716.686S526.963,124.755,1007.2,79.6C1500.344,32.084,1939.862-200.3,1923.712,445.365Z" transform="translate(0 0)"/></g><g transform="translate(373.244 514.936)"><path class="ao" d="M1906.411,450.094c-11.708,481.124-230.5,1186.319-878.933,1143.616C547.974,1562.14,0,1192.294,0,710.961S519.332,113.438,996.744,70C1486.6,24.321,1921.883-186.422,1906.411,450.094Z" transform="translate(0)"/></g><g transform="translate(383.593 524.875)"><path class="ap" d="M1889.162,455.312c-11.29,478.145-234.473,1168.182-873.288,1127.362C539.246,1552.2,0,1184.133,0,705.727S511.8,102.61,986.4,60.953C1472.955,17.048,1903.954-172.057,1889.162,455.312Z" transform="translate(0 0)"/></g><g transform="translate(393.942 534.273)"><path class="aq" d="M1871.915,461.071c-10.872,475.218-238.445,1150.1-867.643,1111.159C530.517,1542.908,0,1176.511,0,701.085S504.226,92.323,976.047,52.39C1459.313,10.315,1886.027-157.1,1871.915,461.071Z" transform="translate(0 0)"/></g><g transform="translate(404.343 543.084)"><path class="ar" d="M1854.666,467.366c-10.454,472.239-242.47,1132.013-862,1094.9C521.84,1534.045,0,1169.425,0,696.926s496.647-614.3,965.645-652.51C1445.567,4.223,1868.1-141.6,1854.666,467.366Z" transform="translate(0 0)"/></g><g transform="translate(414.692 551.233)"><path class="as" d="M1837.417,474.375c-9.983,469.311-246.442,1113.929-856.353,1078.648C513.112,1525.948,0,1163,0,693.481S489.069,73.586,955.3,37.1C1431.925-1.261,1850.223-125.449,1837.417,474.375Z" transform="translate(0 0)"/></g><g transform="translate(425.041 558.693)"><path class="at" d="M1820.169,482.072c-9.565,466.332-250.414,1095.9-850.656,1062.393C504.435,1518.54,0,1157.318,0,690.724S481.542,65.237,944.947,30.479C1418.283-6.056,1832.3-108.605,1820.169,482.072Z" transform="translate(0 0)"/></g><g transform="translate(435.442 565.442)"><path class="au" d="M1802.921,490.481c-9.147,463.405-254.439,1077.812-845.011,1046.189C495.707,1511.9,0,1152.346,0,688.732S473.963,57.6,934.546,24.619C1404.589-10.139,1814.367-91.049,1802.921,490.481Z" transform="translate(0 0)"/></g><g transform="translate(445.791 571.412)"><path class="av" d="M1785.673,499.668c-8.729,460.478-258.411,1059.779-839.366,1029.935C487.03,1505.978,0,1148.153,0,687.519S466.384,50.741,924.2,19.485C1390.947-13.443,1796.492-72.715,1785.673,499.668Z" transform="translate(0 0)"/></g><g transform="translate(456.14 576.613)"><path class="aw" d="M1768.424,509.573c-8.258,457.5-262.384,1041.747-833.722,1013.679C478.3,1500.829,0,1144.625,0,686.969S458.858,44.652,913.848,15.121C1377.306-15.979,1778.616-53.559,1768.424,509.573Z" transform="translate(0 0)"/></g><g transform="translate(466.542 581.064)"><path class="ax" d="M1751.176,520.28c-7.84,454.572-266.408,1023.767-828.077,997.424C469.573,1496.483,0,1141.9,0,687.223S451.279,39.313,903.447,11.506C1363.611-17.711,1760.689-33.705,1751.176,520.28Z" transform="translate(0 0)"/></g><g transform="translate(476.943 584.774)"><path class="ay" d="M1733.875,531.727c-7.37,451.593-270.381,1005.735-822.38,981.221C460.844,1492.929,0,1140.018,0,688.268S443.648,34.714,893.045,8.632C1349.917-18.756,1742.761-13.111,1733.875,531.727Z" transform="translate(0 0)"/></g><g transform="translate(487.239 587.876)"><path class="az" d="M1716.679,543.783c-6.952,448.666-274.4,987.754-816.734,964.966C452.168,1489.932,0,1138.641,0,689.871S436.174,30.723,882.749,6.419C1336.275-19.192,1724.99,8.091,1716.679,543.783Z" transform="translate(0 0)"/></g><g transform="translate(497.588 590.409)"><path class="ba" d="M1699.484,556.407c-6.481,445.686-278.43,969.775-811.142,948.711C443.439,1487.5,0,1137.885,0,692.042S428.595,27.3,872.348,4.723C1322.634-19.06,1707.115,29.863,1699.484,556.407Z" transform="translate(0 0)"/></g><g transform="translate(507.99 592.511)"><path class="bb" d="M1682.183,569.41c-6.011,442.759-282.35,951.847-805.445,932.455C434.762,1485.506,0,1137.455,0,694.591S421.016,24.311,862,3.456C1308.94-18.5,1689.187,52.065,1682.183,569.41Z" transform="translate(0 0)"/></g><g transform="translate(518.339 594.287)"><path class="bc" d="M1664.934,582.792c-5.54,439.78-286.374,933.919-799.8,916.252C426.034,1483.939,0,1137.509,0,697.572S413.49,21.647,851.65,2.517C1295.3-17.606,1671.363,74.646,1664.934,582.792Z" transform="translate(0 0)"/></g><g transform="translate(528.688 595.826)"><path class="bd" d="M1647.686,596.41c-5.07,436.853-290.347,915.991-794.155,900C417.305,1482.556,0,1137.694,0,700.737S405.911,19.219,841.3,1.813C1281.656-16.428,1653.54,97.411,1647.686,596.41Z" transform="translate(0 0)"/></g><g transform="translate(539.141 597.221)"><path class="be" d="M1630.386,610.174c-3.763,433.926-294.372,898.063-788.458,883.742C408.576,1481.371,0,1138.077,0,704.046S398.28,16.936,830.847,1.308C1267.909-15.157,1636.553,120.321,1630.386,610.174Z" transform="translate(0 0)"/></g><g transform="translate(549.49 598.441)"><path class="bf" d="M1613.137,624.111c-3.345,430.947-298.344,880.187-782.813,867.539C399.848,1480.412,0,1138.634,0,707.635S390.7,14.827,820.5.924C1254.267-13.711,1618.625,143.406,1613.137,624.111Z" transform="translate(0 0)"/></g><g transform="translate(559.839 599.563)"><path class="bg" d="M1595.889,638.095c-2.927,428.02-302.316,862.26-777.168,851.283C391.171,1479.5,0,1139.237,0,711.165S383.174,12.817,810.149.638C1240.625-12.167,1600.7,166.588,1595.889,638.095Z" transform="translate(0 0)"/></g><g transform="translate(570.188 600.611)"><path class="bh" d="M1578.693,652.2c-2.509,425.041-306.341,844.437-771.523,835.028C382.495,1478.661,0,1139.914,0,714.821S375.648,10.88,799.8.427C1226.931-10.55,1582.77,189.9,1578.693,652.2Z" transform="translate(0 0)"/></g><g transform="translate(580.537 601.602)"><path class="bi" d="M1561.444,666.37c-2.091,422.114-310.313,826.561-765.878,818.773C373.766,1477.931,0,1140.7,0,718.534S368.069,9,789.451.271C1213.289-8.876,1564.894,213.21,1561.444,666.37Z" transform="translate(0 0)"/></g><g transform="translate(590.939 602.602)"><path class="bj" d="M1544.144,680.529c-1.673,419.134-314.286,808.738-760.181,802.57C365.038,1477.3,0,1141.477,0,722.291S360.49,7.06,779.05.16C1199.6-7.157,1546.914,236.515,1544.144,680.529Z" transform="translate(0 0)"/></g><g transform="translate(601.34 603.515)"><path class="bk" d="M1526.9,694.773c-1.254,416.207-318.31,790.914-754.536,786.315C356.309,1476.7,0,1142.341,0,726.081S352.911,5.258,768.648.084C1185.9-5.4,1528.934,259.906,1526.9,694.773Z" transform="translate(0 0)"/></g><g transform="translate(611.689 604.4)"><path class="bl" d="M1509.647,708.993c-.836,413.28-322.283,773.875-748.891,770.06C347.632,1476.806,0,1143.129,0,729.848S345.333,3.484,758.3.035C1172.259-3.624,1511.006,283.325,1509.647,708.993Z" transform="translate(0 0)"/></g><g transform="translate(622.038 605.263)"><path class="bm" d="M1492.4,723.288c-.418,410.3-326.255,755.738-743.246,753.8C338.9,1475.995,0,1144.043,0,733.742S337.806,1.733,747.951.008C1158.618-1.821,1493.078,306.767,1492.4,723.288Z" transform="translate(0 0)"/></g><g transform="translate(632.387 606.107)"><circle class="bn" cx="737.601" cy="737.601" r="737.601" transform="translate(0)"/></g></g></g><g class="bo" transform="translate(-74.613 2846.386)"><g transform="translate(1050 2088.752)"><path class="bp" d="M631.106,267.112c0-38.792-16.405-73.054-41.465-93.656q.517-5.88.524-11.925c0-62.984-43.236-114.043-96.57-114.043A84.9,84.9,0,0,0,446.72,61.81c-37.756-28.919-87.044-46.423-140.965-46.423-87.737,0-163.2,46.342-196.686,112.8-1.861-.126-3.734-.2-5.621-.2-53.334,0-96.57,51.059-96.57,114.043a128.635,128.635,0,0,0,15.891,62.684h0A102.607,102.607,0,0,0,125.375,407.32H536.293a80.563,80.563,0,0,0,80.56-80.56v0A129.179,129.179,0,0,0,631.106,267.112Z" transform="translate(-6.878 -15.387)"/><path class="bq" d="M174.252,179.963s-6.706-4.425-13.354-1.277c0,0,2.048,3.944,10.46,3.568Z" transform="translate(181.252 182.693)"/><path class="bq" d="M169.727,178.745s2.04,7.771-3.074,13.058c0,0-3.079-3.2-.024-11.052Z" transform="translate(186.6 184.147)"/><path class="bq" d="M179.522,178.061s-.495-6.609-15.417-4.416c0,0-.07,4.264,5.169,6.284S176.909,180.246,179.522,178.061Z" transform="translate(185.168 177.372)"/><path class="bq" d="M173.855,175.367s6.309,2.029.683,16.023c0,0-4.162-.93-4.9-6.5S171.119,177.4,173.855,175.367Z" transform="translate(191.754 180.021)"/><path class="bq" d="M183.189,176.557s.853-10.875-14.4-9.759c0,0-1.083,9.843,11.7,12.373Z" transform="translate(190.868 169.456)"/><path class="bq" d="M189.329,170.752S187.238,158.43,172,162.1c0,0-.057,10.655,14.845,11.588Z" transform="translate(194.806 162.984)"/><path class="bq" d="M193.342,164.905s-3.5-12.031-18.6-8.411c0,0,3.594,10.8,17.6,10.628Z" transform="translate(198.156 156.139)"/><path class="bq" d="M196.159,159.507s-3.422-12.46-18-8.718c0,0,4.865,11.835,17.041,10.839Z" transform="translate(202.335 149.144)"/><path class="bq" d="M197.216,155.819s-2.631-15.237-16.229-11.865c0,0,3.95,13.86,15.227,14.082Z" transform="translate(205.789 141.056)"/><path class="bq" d="M199.488,149.06s-3.157-15.358-16.9-10.892c0,0,5.4,14.513,15.943,13.012Z" transform="translate(207.743 133.589)"/><path class="bq" d="M199.979,144.883s-5.013-15.356-15.65-14.941c0,0,5.127,16.221,14.761,18.022Z" transform="translate(209.871 124.526)"/><path class="bq" d="M199.882,140.272s-5.457-18.488-14.112-17.061c0,0,3.777,14.13,13.8,19.94Z" transform="translate(211.631 116.218)"/><path class="bq" d="M200.058,132.708s-5.114-15.4-13.659-16.018c0,0,3.48,15.156,13.47,20.021Z" transform="translate(212.399 108.35)"/><path class="bq" d="M199.625,126.1s-6.378-15.422-12.026-15.769c0,0,2.771,15.184,11.462,18.3Z" transform="translate(213.866 100.587)"/><path class="bq" d="M198.59,121.384s-3.921-16.749-9.562-18.138c0,0,.772,13.7,9,19.391Z" transform="translate(215.61 91.928)"/><path class="bq" d="M199.065,111.989s-4.124-13.347-8.691-15.384c0,0,.9,15.738,7.632,18.649Z" transform="translate(217.255 83.816)"/><path class="bq" d="M196.966,111.3l.832-23.539s-8.523,17.765-1.46,27.691Z" transform="translate(221.119 73.009)"/><path class="bq" d="M199.884,97.8s6.146-17.189,7.624-18.147c0,0-12.057,11.15-10.88,25.5Z" transform="translate(224.794 63.112)"/><path class="bq" d="M176.807,171.13S187.624,169.714,187.3,185c0,0-9.773,1.592-12.963-11.047Z" transform="translate(197.665 174.803)"/><path class="bq" d="M181.386,165.435s12.5-.042,11.48,15.6c0,0-10.489,1.874-13.95-12.651Z" transform="translate(203.259 167.889)"/><path class="bq" d="M183.719,160.921s11.344-5.32,18.6,8.411c0,0-10.479,4.434-19.606-6.194Z" transform="translate(207.902 161.137)"/><path class="bq" d="M186.9,155.032s11.615-5.662,18.436,7.754c0,0-12.1,4.165-19.394-5.634Z" transform="translate(211.844 153.733)"/><path class="bq" d="M188.508,151.766s11.181-10.68,20.1.121c0,0-11.422,8.788-20.617,2.257Z" transform="translate(214.348 145.439)"/><path class="bq" d="M190.13,145.048s11.25-10.922,20.1.5c0,0-12.626,8.963-20.5,1.789Z" transform="translate(216.468 137.236)"/><path class="bq" d="M190.857,142.534s8.665-13.633,18.866-10.592c0,0-8.99,14.442-18.77,13.8Z" transform="translate(217.845 126.438)"/><path class="bq" d="M192.129,138.807s8.739-17.181,16.989-14.2c0,0-6.293,13.2-17.212,17.086Z" transform="translate(219.126 117.597)"/><path class="bq" d="M192.755,130.111s8.977-13.523,17.384-11.872c0,0-7.336,13.712-18.253,15.784Z" transform="translate(219.102 110.071)"/><path class="bq" d="M192.585,125.713s6.956-15.17,12.612-15.3c0,0-3.342,15.069-12.144,17.855Z" transform="translate(219.956 100.676)"/><path class="bq" d="M193.207,119.729s7.732-15.366,13.541-15.4c0,0-3.956,13.139-13.283,16.748Z" transform="translate(220.715 93.254)"/><path class="bq" d="M193.73,111.738s5.784-12.716,10.572-14.157c0,0-2.892,15.5-9.937,17.53Z" transform="translate(221.354 85.009)"/><path class="bq" d="M196.429,108.98l12.925-19.69s-3.312,19.423-14.813,23.442Z" transform="translate(222.345 74.881)"/><path class="bq" d="M202.828,95.159s15.023-10.371,15.567-12.046c0,0-7.664,14.525-21.829,17.088Z" transform="translate(224.818 67.337)"/><path class="bq" d="M200.016,95.544s17.248-16.581,21.652-16.564c0,0-14.224.651-22.065,15.681Z" transform="translate(228.528 62.289)"/><path class="br" d="M193.805,128.562l.63.081c3.241-25.371,7.966-40.364,13.306-42.219l-.208-.6C201.872,87.789,197.126,102.568,193.805,128.562Z" transform="translate(221.446 70.647)"/><path class="br" d="M191.66,166.759l.949.08c.2-2.369.353-4.794.457-7.208.9-21,2.308-40.28,4.155-54.736l-.55-.68c-1.85,14.482-3.65,34.349-4.556,55.375C192.012,161.991,191.859,164.4,191.66,166.759Z" transform="translate(218.826 93.112)"/><path class="br" d="M159.217,248.23c.167-.073,16.879-7.535,34.225-25.338a137.681,137.681,0,0,0,25.019-35.443c8.019-16.329,12.907-36.4,14.548-55.9l-.989.465c-3.682,43.758-23.605,73.676-39.447,89.947-17.177,17.644-33.7,25.03-33.867,25.1Z" transform="translate(178.574 126.504)"/><path class="a" d="M329.859,96.416V302.554c0,6.131-5.913,11.116-13.214,11.116H36.96c-7.3,0-13.214-4.985-13.214-11.116V96.416c0-6.142,5.913-12.4,13.214-12.4H316.644C323.946,84.015,329.859,90.274,329.859,96.416Z" transform="translate(13.727 68.438)"/><path class="bs" d="M329.859,97.229v32.406H23.746V97.229A13.21,13.21,0,0,1,36.96,84.015H316.644A13.21,13.21,0,0,1,329.859,97.229Z" transform="translate(13.727 68.438)"/><circle class="a" cx="8.836" cy="8.836" r="8.836" transform="translate(45.424 166.426)"/><circle class="a" cx="8.836" cy="8.836" r="8.836" transform="translate(71.133 166.426)"/><circle class="a" cx="8.836" cy="8.836" r="8.836" transform="translate(96.841 166.426)"/><path class="bt" d="M109.725,241.407s-8.544,2.067-11.926,5.932a11.5,11.5,0,0,1-4.548,2.89v-5.845c1.953-3.282,3.925-6.932,3.925-6.932.089-.18.8-2.7.8-2.7,1.6-1.258-.089-5.663-.089-5.663s.979-2.786.445-3.326-.089-1.977.356-2.607a3.256,3.256,0,0,0,.356-1.978c0-.539-.712-1.348-1.869-1.8s.089-1.169.8-1.348.89-1.888.089-2.786.089-1.438.534-2.427-1.424-.809-1.424-.809v-9.077h0s-.534-2.966-1.068-8.181S93.527,189,93.527,189a23.292,23.292,0,0,1-3.2-1.259,21.931,21.931,0,0,0-3.383-1.257,17.342,17.342,0,0,1-4.36-.6,13.374,13.374,0,0,0-2.977-.644c-.109-.051-.214-.105-.32-.159a11.652,11.652,0,0,1-5.4-5.722c-.055-.124-.105-.245-.155-.367a12.709,12.709,0,0,0,1.423-1.887l.009-.015c0,.092,0,.184,0,.275,0,.039,0,.077,0,.116,0,.222,0,.443-.009.664v.018c1.421-2.508,5.538-3.081,5.93-5.943a3,3,0,0,0,.026-.393v-.018c0-.1,0-.193-.012-.289-.053-.8-.327-1.6-.38-2.4a4.683,4.683,0,0,1,.011-.693v.013c.184-2.224,1.861-4.157,2.629-6.317a7.74,7.74,0,0,0,.4-1.8l0-.016q.028-.278.038-.558c0-.046,0-.092,0-.139q0-.194,0-.388a8.41,8.41,0,0,0-2.778-6.074c-1.419-1.233-3.294-2.008-4.276-3.618-.458-.751-.684-1.633-1.183-2.357a5.923,5.923,0,0,0-4.3-2.116,25.072,25.072,0,0,1-4.882-.645c-1.109-.364-2.115-1.008-3.235-1.333a6.192,6.192,0,0,0-6.651,2.4,11.791,11.791,0,0,1-1.773,2.566c-1.631,1.378-4.4.78-5.827,2.37a4.221,4.221,0,0,0-.78,3.28l0,.043q.012.142.026.283c0,.044.009.088.013.132s.011.094.016.141c.05.436.114.87.168,1.288.008.064.015.128.022.192.015.13.031.26.043.39.009.095.017.19.025.285q.015.177.026.354c.006.092.012.185.017.277a19.184,19.184,0,0,1-2.041,9.587c-1.346,2.644-3.349,5.077-3.7,8.029a8.51,8.51,0,0,0-.038,1.456c0,.057,0,.114.008.171.006.088.016.175.024.262s.018.2.031.3c.007.057.016.114.024.171.018.133.038.266.06.4,0,.028.01.057.015.085.354,2.012,1.154,4,1.581,6.016a16.667,16.667,0,0,1,.318,2.273v.016q.025.364.035.729c.008.329,0,.659-.007.988a15.5,15.5,0,0,1-2.075.637c-1.247.181-4.9,3.417-4.63,4.225s-1.634,6.48-1.687,6.647l0,0h0l-3,20.673s-1.586,1.528-1.09,2.517a4.358,4.358,0,0,1-.1,2.7s-2.679,1.168-2.084,1.888.323,2.067-.086,2.966-1.077,2.517,0,2.786.185,3.775.185,3.775,3.756-.431,3.481,1.8c-.088.712,2.627,2.663,3.761,3.444v10.739a32.877,32.877,0,0,1-4.45-1.509C30.692,249.766,17.7,247.7,14.85,253.9s3.916,14.472,5.607,15.37a11.577,11.577,0,0,1,1.958,1.888c.356.629,2.4.809,2.4.809a15.1,15.1,0,0,1,2.67,1.528c.394.4,3.647,1.431,7.505,2.235h0s-3.115,7.172,1.967,6.58,7.558-3.092,11.141-3.092c1.432,0,4.091-.2,6.769-.439a17.865,17.865,0,0,1,1.99.469,25.454,25.454,0,0,0,4.628.989s4.005,2.157,6.141,1.618a1.4,1.4,0,0,0,.485-.259l.049-.01a2.854,2.854,0,0,0,1.286-1.1,38.36,38.36,0,0,1,6.862,1.1c2.215.855,18.047-.329,18.047-.329s10.229.2,13.161,1.088,1.889-9.049-3.518-10.168a22.057,22.057,0,0,0-4.4-.389,9.646,9.646,0,0,0,1.022-1.242c1.949-.177,3.229-.287,3.229-.287s5.162-2.517,8.1-4.045a18.471,18.471,0,0,0,4.984-3.955s2.581-1.618,3.649-2.247,1.6-2.7,1.6-2.7C130.284,238.98,109.725,241.407,109.725,241.407Zm-23.177-23c0-.3,0-.605,0-.906.285.205.243.527,0,.906Zm.085,6.357c.215.284.425.542.575.735.575.738-.466,1.1-.391,2.334.017.278.041.662.067,1.09h0c-.11-1.771-.2-3.242-.252-4.159Z" transform="translate(2.016 140.323)"/><path class="bu" d="M40.3,194.387a52.617,52.617,0,0,1-7.3-2.225c-2.314-1.068-15.308-3.115-18.156,3.026s3.916,14.329,5.607,15.219,18.156-11.3,18.156-11.3l12.994,5.474,2.492-8.5Z" transform="translate(2.016 199.065)"/><rect class="bu" width="56.539" height="19.669" rx="4.075" transform="translate(47.816 395.143)"/><path class="bv" d="M84.94,203.1a9.836,9.836,0,0,1-9.834,9.836H38.237a9.835,9.835,0,1,1,0-19.67h36.87a9.835,9.835,0,0,1,9.834,9.833Z" transform="translate(19.413 201.88)"/><path class="bw" d="M60.619,197.949a47.005,47.005,0,0,1-10.294,1.391c-4.626-.065-26.268,8.926-26.268,8.926s-3.115,7.1,1.967,6.515,7.558-3.062,11.141-3.062,14.854-1.238,14.854-1.238l10.847-8.014Z" transform="translate(12.952 207.603)"/><path class="bw" d="M56.274,181.75,46.1,183.756l-.659.131s-8.039-2.136-8.306-2.315-7.564-10.013-7.564-10.013a14.722,14.722,0,0,0,6.59-1.631c.1-.059.206-.123.307-.187a6.415,6.415,0,0,0,2.75-3.359c.051-.147.1-.3.139-.457a9.023,9.023,0,0,0-.085-4.379c-.983-4.149,1.295-5.292,4.331-5.193,4.384.144,10.354,2.881,10.354,2.881a12.154,12.154,0,0,0,.937,4.058c.048.12.1.24.155.363a11.583,11.583,0,0,0,5.4,5.666c.107.053.211.107.32.158.323.155.665.3,1.02.435C69.536,172.851,56.274,181.75,56.274,181.75Z" transform="translate(20.845 156.789)"/><path class="bv" d="M49.845,163.655a12.819,12.819,0,0,1-15.831,2.726,8.616,8.616,0,0,0,.053-4.835c-2.4-10.146,14.685-2.312,14.685-2.312a12.314,12.314,0,0,0,1.092,4.422Z" transform="translate(26.051 156.789)"/><path class="bw" d="M56.581,162.626a12.748,12.748,0,0,1-1.941,6.782,12.6,12.6,0,0,1-1.423,1.869,12.755,12.755,0,0,1-8.678,4.141c-.256.016-.515.024-.774.024a12.816,12.816,0,1,1,12.816-12.816Z" transform="translate(22.525 148.804)"/><path class="bv" d="M56.274,174.616,46.1,176.622l-.659.131s-8.039-2.136-8.306-2.315-7.564-10.013-7.564-10.013a14.723,14.723,0,0,0,6.59-1.631c.1-.059.206-.123.307-.187a11.934,11.934,0,0,0,8.675,3.794,12.343,12.343,0,0,0,1.81-.144c1.431-.219,2.873-.36,4.312-.51,2.755-.288,6.971-1.124,9.185-3.559.107.053.211.107.32.158.323.155.665.3,1.02.435C69.536,165.717,56.274,174.616,56.274,174.616Z" transform="translate(20.845 163.923)"/><path class="bq" d="M74.362,200.517c.088,1.96,1.514,24.03,1.514,24.03H31.463l.3-13.895.243-11.115.08-3.647.355-12.637-1.284-1.132-6.993-6.168,0,0c.053-.166,1.952-5.791,1.687-6.582s3.383-4.005,4.63-4.184a15.721,15.721,0,0,0,2.088-.635c2.1-.737,4.9-1.821,5.209-1.653.435.235,4.8-.171,4.988-.19h.005a11.909,11.909,0,0,0,8.977,4.141,12.333,12.333,0,0,0,1.81-.144c1.431-.219,2.873-.36,4.312-.51,2.894-.3,7.4-1.21,9.505-3.936a13.492,13.492,0,0,1,2.977.638,17.506,17.506,0,0,0,4.36.6,22.072,22.072,0,0,1,3.383,1.244,23.428,23.428,0,0,0,3.2,1.247s2.048.534,2.582,5.7,1.068,8.1,1.068,8.1l-10.592,9.166S74.274,198.56,74.362,200.517Z" transform="translate(14.239 164.009)"/><path class="bw" d="M18.169,175.185l1.556,2.492,5.831,2.055,4.005-7.306-3.692-2.492-5.92-2.314-3.382,1.958Z" transform="translate(20.235 204.74)"/><path class="bu" d="M47,197.676s8.277-.623,11.659-4.45,11.926-5.874,11.926-5.874,20.559-2.4,12.46,15.753c0,0-.534,2.047-1.6,2.67S77.793,208,77.793,208L46.2,205.241Z" transform="translate(41.157 194.531)"/><path class="bv" d="M72.05,201.727a9.8,9.8,0,0,1-1.637,5.436c-5.313.473-17.083,1.578-19.545,2.264-3.025.838-9.148-.622-9.818-.788l-.061-.013s-1.18-3.581-1.744-5.871c-.254-1.041-.382-1.816-.216-1.872.534-.179,5.431-1.514,5.34-.758s14.685-5.74,14.685-5.74l.454,5.7C61.015,201.809,72.05,199.255,72.05,201.727Z" transform="translate(32.304 203.25)"/><path class="bu" d="M86.975,196.819l-.623,2.314a18.432,18.432,0,0,1-4.984,3.916c-2.937,1.513-8.1,4.005-8.1,4.005s-18.957,1.6-22.161,2.492-9.879-.8-9.879-.8S38.737,201.18,39.271,201s5.429-1.513,5.34-.757S59.3,194.505,59.3,194.505Z" transform="translate(32.598 203.397)"/><path class="bw" d="M36.946,209.246s9.317.651,11.532,1.5,18.047-.326,18.047-.326,10.229.2,13.161,1.077,1.889-8.96-3.518-10.068-13.03.521-13.03.521-8.6-1.108-9.642-1.238-7.914.063-7.914.063Z" transform="translate(29.849 210.923)"/><path class="bv" d="M20.463,193.472s12.314,1.108,15.7,3.127Z" transform="translate(9.717 202.135)"/><path class="bv" d="M62.421,189.835s-9.642,2.345-13.421,5.8Z" transform="translate(44.572 197.693)"/><path class="bv" d="M20.786,192.211c.2.065,5.668.782,5.538,1.3S20.786,192.211,20.786,192.211Z" transform="translate(10.111 200.595)"/><path class="bv" d="M16.914,201.424l.712,2.67a11.527,11.527,0,0,1,1.958,1.869c.356.623,2.4.8,2.4.8a15.138,15.138,0,0,1,2.67,1.513c.534.534,6.319,2.225,11.748,2.937s15.486,2.047,17.622,2.759a25.687,25.687,0,0,0,4.628.979s4.005,2.136,6.141,1.6,5.785-10.235,5.785-10.235-14.062-3.293-14.507-4.361S42.1,195.909,42.1,195.909l-8.01.19Z" transform="translate(5.381 205.112)"/><path class="bu" d="M16.674,204.042l.712,2.67a11.533,11.533,0,0,1,1.958,1.869c.356.623,2.4.8,2.4.8a15.141,15.141,0,0,1,2.67,1.513c.534.534,6.319,2.225,11.748,2.937s15.486,2.047,17.622,2.759a25.674,25.674,0,0,0,4.628.979s4.005,2.136,6.141,1.6,5.785-10.235,5.785-10.235-14.062-3.293-14.507-4.361-20.292-9.167-20.292-9.167l-6.23-1.424Z" transform="translate(5.088 202.761)"/><path class="bq" d="M29.539,168.023l-1.556.89-3,20.47s-1.586,1.513-1.09,2.492a4.275,4.275,0,0,1-.1,2.67s-2.679,1.157-2.084,1.869.323,2.047-.086,2.937-1.077,2.492,0,2.759.185,3.738.185,3.738,3.756-.427,3.481,1.78c-.111.89,4.249,3.738,4.249,3.738s-4.955-8.989,6.144-7.743l.954-5.068s.954-2.853,0-3.743.214-5.118.214-5.118l.21-18.379Z" transform="translate(10.422 171.05)"/><path class="bv" d="M23.777,179.922c.2.326,6.189.99,6.58,2.059S23.777,179.922,23.777,179.922Z" transform="translate(13.765 185.585)"/><path class="bv" d="M22.927,183.387s.813-2.541,2.752-2.085S22.927,183.387,22.927,183.387Z" transform="translate(12.726 187.203)"/><path class="bv" d="M22.458,185.609s1.433-3.388,3.388-3.127S22.458,185.609,22.458,185.609Z" transform="translate(12.153 188.693)"/><path class="bw" d="M61.353,186.148l-.623,3.738s-6.408,11.748-7.565,11.926-7.476-7.832-7.476-7.832L44,186.148l6.657-1.262,2.955-2.921S61.086,182.677,61.353,186.148Z" transform="translate(38.462 188.08)"/><path class="bq" d="M55.632,170.238l2.4,1.691v8.989s1.869-.178,1.424.8-1.335,1.513-.534,2.4.623,2.581-.089,2.759-1.958.89-.8,1.335S59.9,189.462,59.9,190a3.2,3.2,0,0,1-.356,1.958c-.445.623-.89,2.047-.356,2.581s-.445,3.293-.445,3.293,1.691,4.361.089,5.607c0,0-.712,2.492-.8,2.67,0,0,1.122-8.665-10.075-5,0,0-.208-3.3-.284-4.527s.966-1.58.391-2.311-2.015-2.4-1.335-2.848.445-1.246.178-1.869-1.21-.623-.357-1.379,1.356-1.467.856-1.824-1.369-1.516-.678-2.048.712-8.277.712-8.277S50.292,164.631,55.632,170.238Z" transform="translate(41.157 171.861)"/><path class="bv" d="M49.938,176.505s3.422-.928,3.535,0S49.938,176.505,49.938,176.505Z" transform="translate(45.719 180.907)"/><path class="bv" d="M48.208,177.764s4.691-1.173,5.277-.261S48.208,177.764,48.208,177.764Z" transform="translate(43.605 182.205)"/><path class="bv" d="M47.738,178.723s7.036-.977,7.492.456S47.738,178.723,47.738,178.723Z" transform="translate(43.032 183.722)"/><path class="bv" d="M48.208,179.922c.261.065,6.776.521,6.906,1.759S48.208,179.922,48.208,179.922Z" transform="translate(43.605 185.585)"/><rect class="bx" width="55.794" height="31.691" rx="2.571" transform="translate(39.472 369.519)"/><circle class="by" cx="2.058" cy="2.058" r="2.058" transform="translate(65.312 383.307)"/><path class="bv" d="M28.853,172.985s5.347,4.088,9.482.973C38.335,173.957,31.345,174.594,28.853,172.985Z" transform="translate(19.964 177.111)"/><path class="bv" d="M41.043,173.479s5.347,4.088,9.482.973C50.525,174.452,43.535,175.088,41.043,173.479Z" transform="translate(34.854 177.715)"/><path class="bv" d="M62.845,162.627a12.748,12.748,0,0,1-1.941,6.782,19.529,19.529,0,0,0-2.889-10.119c-1.778-2.731-7.182-7.519-10.9-6.186a2.638,2.638,0,0,0-1.623,1.746c-.368,1.4.71,1.981,1.4,3.095a9.476,9.476,0,0,1,1.295,6.395,9,9,0,0,1-.187.886c-.585,2.195-1.925,4.707-.542,6.509.964,1.255,3.036,1.687,3.316,3.244a1.9,1.9,0,0,1,.027.441c-.064,1.047-.959,1.97-1.348,3a4.926,4.926,0,0,0,.275,3.634c.619,1.589,1.6,3.2,1.842,4.873a9.631,9.631,0,0,1-.884,4.814,21.573,21.573,0,0,0-1.469,4.531c-.43,2.958.654,6.379-1.207,8.718a1.3,1.3,0,0,1-.814.55c-1.194.126-.991-2.018-1.949-2.739A8.387,8.387,0,0,1,45,206.512a2.857,2.857,0,0,1-2.865,1.96l-.425-2.8a8.07,8.07,0,0,1-2.964,1.856,21.6,21.6,0,0,1,3.092-8.376c-3.135,1.509-4.961,4.777-6.592,7.847-1.017,1.92-2.069,4.018-1.714,6.162.144.873.521,1.7.6,2.585a2.149,2.149,0,0,1-1.057,2.243,1.911,1.911,0,0,1-2.064-.641c-.029-.035-.059-.069-.088-.107a2.088,2.088,0,0,1-.142-.2,3.11,3.11,0,0,1-.238-.422,8.181,8.181,0,0,1-.5-1.637l-.056-.24c-.828-3.639-1.575-7.391-.969-11.07A20.8,20.8,0,0,0,29.6,199.6a7.536,7.536,0,0,0-.465-2.272c-.726-2.035-2.125-3.906-2.924-5.957a.332.332,0,0,1-.019-.045c-.419-1.087-.625-2.443.149-3.313A6.747,6.747,0,0,1,27.831,187a6.706,6.706,0,0,0,2.526-4.75,16.008,16.008,0,0,0,.195-2.5c2.1-.737,4.9-1.821,5.209-1.653.435.235,4.8-.171,4.988-.19a6.526,6.526,0,0,0,3.057-3.546c.051-.147.1-.3.139-.457a12.818,12.818,0,1,1,18.9-11.284Z" transform="translate(16.261 148.803)"/><path class="bx" d="M48,172.555c-.586,2.2-1.924,4.708-.541,6.51.964,1.256,3.036,1.687,3.314,3.245.22,1.233-.877,2.269-1.321,3.441-1.057,2.8,1.7,5.545,2.116,8.5.454,3.211-1.885,6.138-2.351,9.347-.43,2.958.654,6.378-1.207,8.716a1.292,1.292,0,0,1-.814.551c-1.193.127-.991-2.017-1.95-2.738A8.344,8.344,0,0,1,45,213.843a2.855,2.855,0,0,1-2.864,1.959l-.425-2.8a8.1,8.1,0,0,1-2.964,1.856,21.614,21.614,0,0,1,3.092-8.376c-3.133,1.509-4.96,4.776-6.591,7.847-1.019,1.919-2.069,4.018-1.715,6.161.145.874.521,1.7.6,2.585a2.148,2.148,0,0,1-1.058,2.242,1.942,1.942,0,0,1-2.152-.746,5.627,5.627,0,0,1-.881-2.26c-.85-3.715-1.646-7.551-1.025-11.311a20.724,20.724,0,0,0,.583-4.074c-.108-3.005-2.325-5.468-3.408-8.274-.419-1.087-.623-2.443.15-3.314a6.8,6.8,0,0,1,1.489-1.006,6.711,6.711,0,0,0,2.526-4.749,16.46,16.46,0,0,0-.168-5.946c-.625-2.927-2.058-5.784-1.7-8.756.349-2.923,2.351-5.332,3.7-7.95a18.82,18.82,0,0,0,1.907-10.993c-.232-1.755-.637-3.787.553-5.1,1.429-1.574,4.2-.982,5.827-2.347a11.672,11.672,0,0,0,1.773-2.54,6.224,6.224,0,0,1,6.651-2.375c1.121.321,2.127.959,3.235,1.319a25.31,25.31,0,0,0,4.882.639,5.944,5.944,0,0,1,4.3,2.095c.5.717.725,1.59,1.183,2.334.982,1.594,2.857,2.361,4.276,3.582a8.3,8.3,0,0,1,2.337,8.867c-.847,2.359-2.807,4.444-2.641,6.946a15.263,15.263,0,0,1,.364,3.055c-.392,2.834-4.509,3.4-5.93,5.885a20.358,20.358,0,0,0-2.891-11.683c-1.779-2.732-7.183-7.519-10.9-6.187a2.639,2.639,0,0,0-1.624,1.746c-.368,1.4.71,1.98,1.4,3.1A9.41,9.41,0,0,1,48,172.555Z" transform="translate(16.261 140.939)"/><g class="bz" transform="translate(42.091 293.947)"><path d="M29.11,169.041a16.449,16.449,0,0,0-.355-3.811c-.531-2.489-1.643-4.927-1.747-7.428-.143,2.784,1.159,5.475,1.747,8.229a16.425,16.425,0,0,1,.355,3.01Z" transform="translate(-24.395 -135.382)"/><path d="M36.951,172.6c.217-.4.441-.79.683-1.173-3.133,1.509-4.96,4.776-6.591,7.847-.943,1.777-1.912,3.708-1.769,5.686a12.808,12.808,0,0,1,1.769-4.885C32.551,177.237,34.23,174.232,36.951,172.6Z" transform="translate(-21.629 -118.737)"/><path d="M32.48,184.443A1.888,1.888,0,0,1,31.438,186a1.942,1.942,0,0,1-2.152-.746,5.628,5.628,0,0,1-.881-2.26,40.251,40.251,0,0,1-1.239-8.081,36.967,36.967,0,0,0,1.239,8.882,5.627,5.627,0,0,0,.881,2.26,1.942,1.942,0,0,0,2.152.746,2.148,2.148,0,0,0,1.058-2.242C32.492,184.522,32.485,184.483,32.48,184.443Z" transform="translate(-24.192 -114.476)"/><path d="M36.725,155.3a8.906,8.906,0,0,1-.289,1.892c-.434,1.628-1.281,3.429-1.127,4.986A26.708,26.708,0,0,1,36.436,158a9.024,9.024,0,0,0,.289-2.693Z" transform="translate(-14.264 -138.433)"/><path d="M29.833,152.7a18.479,18.479,0,0,0-.153-2.84c-.092-.694-.209-1.43-.246-2.148a16.066,16.066,0,0,0,.246,2.949A18.392,18.392,0,0,1,29.833,152.7Z" transform="translate(-21.418 -147.709)"/><path d="M37.913,160.942c0-.022-.012-.041-.016-.063a20.78,20.78,0,0,1-1.3,2.7,3.821,3.821,0,0,0-.218,1.742,3.67,3.67,0,0,1,.218-.941C37.036,163.211,38.134,162.175,37.913,160.942Z" transform="translate(-12.967 -131.623)"/><path d="M29.6,176.931c-.108-3.005-2.325-5.468-3.408-8.274a5.555,5.555,0,0,1-.348-1.368,4.612,4.612,0,0,0,.348,2.169c1.064,2.759,3.222,5.188,3.4,8.125C29.6,177.367,29.6,177.149,29.6,176.931Z" transform="translate(-25.825 -123.794)"/><path d="M47.24,157.012c-1.779-2.732-7.183-7.519-10.9-6.187a2.639,2.639,0,0,0-1.624,1.746,1.892,1.892,0,0,0-.028.936c.009-.045.016-.088.028-.135a2.639,2.639,0,0,1,1.624-1.747c3.715-1.332,9.12,3.455,10.9,6.187a19.768,19.768,0,0,1,2.9,10.528A20.181,20.181,0,0,0,47.24,157.012Z" transform="translate(-15.054 -144.184)"/><path d="M47.546,156.115c-.391,2.828-4.491,3.4-5.92,5.869q0,.409-.01.817c1.421-2.484,5.538-3.051,5.93-5.885a3.479,3.479,0,0,0,0-.839C47.547,156.089,47.547,156.1,47.546,156.115Z" transform="translate(-6.538 -137.489)"/><path d="M46.767,152.828c-.847,2.359-2.807,4.444-2.641,6.946,0,.037.008.073.012.11.184-2.2,1.861-4.116,2.629-6.255a7.849,7.849,0,0,0,.436-3.048,7.711,7.711,0,0,1-.436,2.248Z" transform="translate(-3.483 -144.203)"/><path d="M37.331,176.238a1.293,1.293,0,0,1-.814.551c-1.193.127-.991-2.017-1.95-2.738.023.284.046.57.062.857.885.767.722,2.805,1.888,2.682a1.293,1.293,0,0,0,.814-.551c1.062-1.334,1.165-3.02,1.138-4.771A6.289,6.289,0,0,1,37.331,176.238Z" transform="translate(-15.148 -117.712)"/><path d="M37.891,175.694a2.855,2.855,0,0,1-2.864,1.959l-.425-2.8a8.1,8.1,0,0,1-2.816,1.8c-.054.285-.107.571-.148.858a8.1,8.1,0,0,0,2.964-1.856l.425,2.8a2.855,2.855,0,0,0,2.864-1.959,6.311,6.311,0,0,0,.329-2.533,5.387,5.387,0,0,1-.329,1.732Z" transform="translate(-18.725 -115.643)"/><path d="M36.418,174.584a14.336,14.336,0,0,0-.108,2.268,11.716,11.716,0,0,1,.108-1.467c.444-3.059,2.589-5.861,2.4-8.9C38.641,169.22,36.824,171.8,36.418,174.584Z" transform="translate(-13.028 -124.773)"/></g><path class="a" d="M266.026,69.093v53.574c0,2.828-2.727,5.127-6.095,5.127h-129c-3.368,0-6.095-2.3-6.095-5.127V69.093a6.14,6.14,0,0,1,6.095-5.72h129A6.14,6.14,0,0,1,266.026,69.093Z" transform="translate(137.21 43.225)"/><path class="bs" d="M266.026,69.468V84.414H124.841V69.468a6.093,6.093,0,0,1,6.095-6.095h129A6.093,6.093,0,0,1,266.026,69.468Z" transform="translate(137.21 43.225)"/><circle class="a" cx="4.075" cy="4.075" r="4.075" transform="translate(265.718 113.044)"/><circle class="a" cx="4.075" cy="4.075" r="4.075" transform="translate(277.576 113.044)"/><circle class="a" cx="4.075" cy="4.075" r="4.075" transform="translate(289.433 113.044)"/><circle class="bq" cx="15.933" cy="15.933" r="15.933" transform="translate(359.497 133.052)"/><rect class="bq" width="67.191" height="2.371" transform="translate(341.439 140.635) rotate(180)"/><rect class="bs" width="67.191" height="2.371" transform="translate(341.439 146.416) rotate(180)"/><rect class="bs" width="67.191" height="2.371" transform="translate(341.439 152.196) rotate(180)"/><rect class="bs" width="67.191" height="2.371" transform="translate(341.439 157.977) rotate(180)"/><path class="bq" d="M169.509,126.423s-4.734-1.087-7.833,2.1c0,0,1.994,1.8,6.679-.192Z" transform="translate(182.202 120.02)"/><path class="bq" d="M166.167,126.307s2.8,3.969,1.022,8.045c0,0-2.422-1.164-2.352-6.254Z" transform="translate(186.061 120.096)"/><path class="bq" d="M172.171,124.385s-1.679-3.638-9.665.761c0,0,.862,2.429,4.257,2.465S171.153,126.176,172.171,124.385Z" transform="translate(183.214 116.023)"/><path class="bq" d="M167.775,123.51s4-.186,3.777,8.929c0,0-2.554.354-4.149-2.643S166.655,125.238,167.775,123.51Z" transform="translate(188.121 116.679)"/><path class="bq" d="M173.965,122.364s-1.818-6.339-10.217-2.481c0,0,1.469,5.8,9.246,4.531Z" transform="translate(184.732 110.728)"/><path class="bq" d="M176.151,118.044s-3.791-6.536-11.647-1.231c0,0,2.222,6.046,10.859,3.421Z" transform="translate(185.656 105.964)"/><path class="bq" d="M177.186,113.917s-4.528-6.073-12.315-.827c0,0,4.319,5.354,12.216,2.295Z" transform="translate(186.105 101.345)"/><path class="bq" d="M177.638,110.212s-4.574-6.332-12.038-1.129c0,0,5.259,5.673,11.944,2.533Z" transform="translate(186.994 96.551)"/><path class="bq" d="M177.481,107.672s-4.714-8.072-11.7-3.285c0,0,5.169,7.013,11.6,4.753Z" transform="translate(187.214 91.468)"/><path class="bq" d="M177.3,103.466s-5.037-8.03-11.876-2.592c0,0,6.127,7.077,11.782,4Z" transform="translate(186.778 86.723)"/><path class="bq" d="M176.787,100.483s-6.088-7.636-12.024-5.15c0,0,6.336,8.1,12.173,7.083Z" transform="translate(185.972 81.654)"/><path class="bq" d="M175.748,97.855s-7-9.315-11.6-6.676c0,0,5.129,7.2,12.037,8.372Z" transform="translate(185.219 76.614)"/><path class="bq" d="M174.257,93.4s-6.155-7.642-11.125-6.181c0,0,5.178,7.847,11.865,8.488Z" transform="translate(183.98 72.128)"/><path class="bq" d="M172.615,89.7s-6.875-7.384-10.147-6.386c0,0,4.782,8.013,10.363,7.939Z" transform="translate(183.168 67.473)"/><path class="bq" d="M171.029,87.206s-5.764-8.655-9.253-8.249c0,0,3.336,7.595,9.2,9.078Z" transform="translate(182.324 62.243)"/><path class="bq" d="M169.31,81.777s-5.16-6.686-8.177-6.873c0,0,3.841,8.722,8.268,8.946Z" transform="translate(181.539 57.309)"/><path class="bq" d="M166.688,82.324l-4.509-13.507s-1.068,11.864,5.032,15.991Z" transform="translate(182.728 49.875)"/><path class="bq" d="M164.588,74.844s-.156-11.035.478-11.89c0,0-4.469,8.866-.767,16.741Z" transform="translate(183.613 42.713)"/><path class="bq" d="M168.886,120.547s5.826-3.09,8.876,5.635c0,0-5.2,2.969-9.678-3.514Z" transform="translate(190.029 112.412)"/><path class="bq" d="M170.264,116.273s7.069-2.668,9.8,6.408c0,0-5.543,3.28-10.577-4.213Z" transform="translate(191.745 107.394)"/><path class="bq" d="M170.6,113.733s5.3-5.413,12.315.827c0,0-5,4.728-12.413.641Z" transform="translate(192.978 102.077)"/><path class="bq" d="M171.145,109.775s5.38-5.664,12.081.491c0,0-5.971,4.919-12.175.913Z" transform="translate(193.653 96.999)"/><path class="bq" d="M171.04,108.084s4.072-8.414,11.41-4.185c0,0-4.609,7.394-11.2,5.64Z" transform="translate(193.64 91.274)"/><path class="bq" d="M170.573,103.9s4.06-8.565,11.49-3.968c0,0-5.254,7.747-11.231,5.351Z" transform="translate(193.068 86.22)"/><path class="bq" d="M169.841,102.868s2.023-9.554,8.443-9.99c0,0-2.036,10.081-7.71,11.785Z" transform="translate(192.175 79.264)"/><path class="bq" d="M169.3,100.326s1.314-11.579,6.617-11.635c0,0-.77,8.809-6.133,13.318Z" transform="translate(191.508 74.149)"/><path class="bq" d="M167.9,95.455s2.223-9.558,7.333-10.4c0,0-1.253,9.317-7,12.8Z" transform="translate(189.808 69.707)"/><path class="bq" d="M166.764,92.387s.729-10.063,3.9-11.336c0,0,1.3,9.241-3.1,12.681Z" transform="translate(188.417 64.818)"/><path class="bq" d="M165.839,88.975s1.127-10.338,4.411-11.584c0,0,.539,8.278-3.979,12.295Z" transform="translate(187.287 60.346)"/><path class="bq" d="M164.589,83.994s.585-8.425,2.992-10.254c0,0,1.641,9.388-1.918,12.03Z" transform="translate(185.76 55.887)"/><path class="bq" d="M164.454,82.354l3.154-13.886s2.234,11.7-3.429,16.41Z" transform="translate(185.258 49.449)"/><path class="bq" d="M165.893,73.989s6.313-9.052,6.267-10.115c0,0-1.267,9.847-8.747,14.3Z" transform="translate(184.323 43.837)"/><path class="bq" d="M164.545,74.83s6.26-13.04,8.757-13.962a17.024,17.024,0,0,0-9.178,13.549Z" transform="translate(185.192 40.166)"/><path class="br" d="M166.56,93.872l.374-.088c-3.533-15.054-4.029-24.544-1.4-26.725l-.245-.3C162.5,69.075,162.941,78.449,166.56,93.872Z" transform="translate(184.404 47.367)"/><path class="br" d="M175.145,114.943l.554-.155c-.388-1.384-.814-2.79-1.266-4.179-3.931-12.084-7.215-23.3-9.228-31.877l-.455-.269c2.016,8.593,5.2,20.225,9.136,32.324C174.335,112.169,174.759,113.567,175.145,114.943Z" transform="translate(185.956 61.658)"/><path class="br" d="M162.132,176.007c.079-.077,7.965-7.839,14.021-21.591a83.236,83.236,0,0,0,6.669-25.366c1.086-10.944-.392-23.345-3.588-34.732l-.462.473c7.173,25.56,2.221,46.718-3.308,59.285-5.995,13.626-13.79,21.305-13.868,21.381Z" transform="translate(182.104 81.023)"/><path class="ca" d="M335.934,257.943l-15.1-21.891s-.282-5.42-1.27-6.687-.212-4.083-.212-4.083,1.058-1.548.141-1.689-.141-3.59-.141-3.59l-.071-5.49s.847-5.279.141-6.546a2.076,2.076,0,0,1,.071-2.252s.847-3.027,0-3.8-.635-5.49-.423-9.221-1.482-5.842-1.482-6.405-5.574-6.053-5.574-6.546-3.528-2.534-5.645-3.1-3.175-.985-3.1-1.267-3.316-1.408-3.316-1.408-2.963-.211-4.092-1.689c-1.113-1.457-4.581-1.906-4.679-1.918-.021-.1-.046-.2-.065-.3s-.043-.212-.064-.318c.267-.447.514-.906.737-1.38q.1-.213.194-.43a6,6,0,0,0,3.472-1.077,4.726,4.726,0,0,0,1.691-3.376,7.407,7.407,0,0,0-.825-3.751c-.619-1.268-1.527-2.581-1.213-3.955.136-.594.492-1.115.673-1.7a4.467,4.467,0,0,0-.506-3.334c-.535-1.023-1.279-1.921-1.873-2.911a11.417,11.417,0,0,1-1.489-4.118,6.39,6.39,0,0,0-.551-2.241,4.158,4.158,0,0,0-1.237-1.25,12.364,12.364,0,0,0-7.584-2.3c-1.921.067-3.835.584-5.743.349a21.025,21.025,0,0,1-3.353-.877c-2.366-.7-5.1-.988-7.157.367-2.1,1.379-2.881,4.018-4.277,6.1-1.235,1.843-3.043,3.388-3.984,5.34.011-.038.02-.076.032-.114a6.415,6.415,0,0,0-.526,1.422,10.118,10.118,0,0,0,.312,4.668,3.246,3.246,0,0,0,1.14,2.084,6.641,6.641,0,0,0,2.467.484c-.032.134-.066.267-.094.4a16.116,16.116,0,0,0,11.186,18.8c0,.144.006.287,0,.427a11.064,11.064,0,0,1-.074,1.21h0s-7.094-1.458-9-.472-5.644,1.76-6.209,2.323-1.976.141-3.246,3.449-1.411,6.687-3.034,8.235-2.469,2.6-2.54,3.731.212,1.408-.423,1.76-1.552,1.83-1.27,2.393a2,2,0,0,1-.776,2.112,2.352,2.352,0,0,0-.988,2.112s-.423,1.549-1.411,1.9-1.623,2.675-1.623,2.675l-3.2,3.679-6.339-7.013a2.676,2.676,0,0,0-3.774-.194l-3.113,2.8a6.145,6.145,0,0,0-3.116,1.854,8.1,8.1,0,0,0-1.615,2.4l-1.706,1.535a4.328,4.328,0,0,0-.437,4.783l4.063,4.493.025.037a7.157,7.157,0,0,0-3.929,1.6c-6.067,5.349-6.138,10.277-5.22,12.528S222.2,248.23,222.2,248.23a34.352,34.352,0,0,0,10.917,8.9l-.009.009-.049.05c-.128.135-.254.283-.378.442-.035.044-.069.087-.1.133s-.066.091-.1.138-.078.111-.116.169-.06.092-.089.139c-.041.065-.081.133-.121.2-.026.045-.052.089-.078.135-.049.088-.1.18-.144.273-.015.03-.031.059-.047.09-.06.123-.118.252-.175.384-.02.046-.038.1-.058.142-.037.092-.074.184-.109.28-.022.059-.043.12-.064.181q-.047.135-.091.276c-.02.065-.041.131-.06.2-.029.1-.057.2-.084.309-.017.064-.034.125-.05.191q-.059.245-.11.5c-.013.065-.023.134-.035.2-.021.119-.043.239-.061.363-.013.083-.024.169-.035.254-.015.115-.03.232-.043.352-.01.088-.019.177-.027.268-.012.131-.022.265-.031.4-.006.082-.012.163-.017.247-.012.221-.021.447-.025.681-.142,8.235.341,9.433.341,9.433a4.571,4.571,0,0,0,3.744,2.811,4.887,4.887,0,0,0,1.207-.065c3.668-.634,12.277-2.112,15.31-1.548,1.825.338,5.2-.163,7.605-.617q.331-.062.634-.122l.439,1.4,1.4-.382c.451.262.852.494,1.184.684l.747.43c1.394,4.721,7.044,3.111,7.044,3.111l1.342.775,13.617.351a27.426,27.426,0,0,0,4.82,2.314,4.305,4.305,0,0,0,.684.15,31.281,31.281,0,0,0,3.8.072c1.044-.028,1.85-.072,1.85-.072s-.139-3.7-.336-7.836a111.247,111.247,0,0,0,12.613-1.033c7.271-1.277,10.3-7.89,11.423-11.423a33.294,33.294,0,0,1,.713,4.385,31.683,31.683,0,0,0,1.129,3.8,12.865,12.865,0,0,0,1.552,2.815c5.362-1.83,2.117-4.575.988-5.772s.776-2.182.776-2.182,1.482-.986,1.341-1.9-.212-1.9,4.586-1.83S335.934,257.943,335.934,257.943ZM261.434,213c.061.4.73,4.739,1.336,5.879a7.759,7.759,0,0,1,.159,2.318c-2.842-.227-5.8-.348-5.8-.348a.678.678,0,0,1,.152.362c-.144-.031-.293-.065-.447-.1-.211-.049-.429-.1-.65-.159l5.239-7.964Zm-10.376,16.507,4.921.779.413.065a16.324,16.324,0,0,0-.255,2.324c.014.073.111.162.269.263a6.435,6.435,0,0,0-.1,1.165c.078.389,2.38,1.23,5.018,1.929-.036.142-.072.277-.108.4h0c-2.33-1.227-6-1.8-6.424-2.709s-12.912-5.275-12.912-5.275-.457-.242-1.244-.621l3.291.622.9-.092a49.231,49.231,0,0,0,6.223,1.147Z" transform="translate(245.09 132.933)"/><path class="bu" d="M310.075,207.257s-1.958,11.818-11.888,13.566-43.075,1.4-43.075,1.4-18.95-2.727-25.8-18.741-11.258-22.377-5.384-22.657,37.551,10.7,39.369,10.839S311.827,167.328,310.075,207.257Z" transform="translate(254.89 186.68)"/><path class="cb" d="M310.075,207.257s-1.958,11.818-11.888,13.566-43.075,1.4-43.075,1.4-18.95-2.727-25.8-18.741-11.258-22.377-5.384-22.657,37.551,10.7,39.369,10.839S311.827,167.328,310.075,207.257Z" transform="translate(254.89 186.68)"/><path class="bx" d="M221.386,208.481a4.533,4.533,0,0,0,3.711,2.792,4.831,4.831,0,0,0,1.2-.065c3.636-.629,12.167-2.1,15.174-1.538,1.808.336,5.154-.162,7.538-.613,1.584-.3,2.742-.577,2.742-.577s-2.8-9.3-3.147-9.581-12.587-7.621-12.587-7.621l-9.69-.7-.029,0a5.1,5.1,0,0,0-3.285,1.93c-1.024,1.238-1.9,3.271-1.959,6.6C220.908,207.292,221.386,208.481,221.386,208.481Z" transform="translate(254.691 198.603)"/><path class="cb" d="M221.386,208.481a4.533,4.533,0,0,0,3.711,2.792,39.954,39.954,0,0,1-2.633-3.841l.052-6.782a11.949,11.949,0,0,1,3.805-10.068l-.029,0s-5.1.348-5.245,8.53S221.386,208.481,221.386,208.481Z" transform="translate(254.691 198.603)"/><path class="bv" d="M243.214,203.633l9.021-7.061,14.2-13.986s-1.534-.073-3.847-.174c-.575.367-2.188,1.521-2.247,2.922-.069,1.71-3.837.12-5.794,1.1S243,199.671,241.326,199.591s-3.006-.852-3.707.338c-.015.027-.034.052-.05.078Z" transform="translate(274.901 188.625)"/><path class="bv" d="M221.916,192.51q.481.233.978.447c6.854,2.937,15.314,9.09,15.943,10.21.384.68,5.289,3.659,9.075,5.891,1.584-.3,2.742-.577,2.742-.577s-2.8-9.3-3.147-9.581-12.587-7.621-12.587-7.621l-9.69-.7-.029,0a5.1,5.1,0,0,0-3.285,1.93Z" transform="translate(255.782 198.603)"/><path class="bu" d="M213.588,190.2c.908,2.238,8.53,10.839,8.53,10.839s4.825,6.294,11.679,9.23,15.314,9.09,15.943,10.21c.4.72,5.866,4.009,9.715,6.268.3.174.585.344.862.5.753.438,1.41.82,1.909,1.108.629.365,1.009.581,1.009.581s2.341-1.88,4.674-3.772c2.3-1.867,4.592-3.745,4.628-3.849.069-.21.978-2.589.768-2.727-.109-.073-.59-1.04-1.473-2.163a9.9,9.9,0,0,0-3.562-2.943,10.127,10.127,0,0,1-4.615-4.812s-.306-.222-.77-.516a9.349,9.349,0,0,0-3.145-1.4c-1.54-.193-4.405-3.34-4.405-3.34a8.61,8.61,0,0,1-2.727-2.866c-.734-1.534-11.58-8.983-12.585-9.671l26.292,16.885,6.291,4.043,9.021-7.061,14.2-13.986s-1.909-.092-4.684-.212c-6.9-.3-19.153-.766-20.7-.417a11.8,11.8,0,0,1-3.847.252,13.494,13.494,0,0,1-5.8-1.062c-2.31-1.219-5.947-1.787-6.367-2.691s-12.8-5.24-12.8-5.24-16.852-8.949-22.866-3.635S212.677,187.961,213.588,190.2Z" transform="translate(245.09 180.873)"/><path class="cc" d="M237.813,170.729l2.167,7.2,2.8,16.222,10.279.7,2.977-4.936L259,184.994s1.85-6.556,3.18-12.9c1.177-5.612,1.945-11.056.665-11.647-1.135-.524-1.882-2.415-2.366-4.445-.061-.252-.117-.508-.168-.762a39.61,39.61,0,0,1-.682-5.213s-21.538-1.118-18.532,7.762a14.132,14.132,0,0,1,.812,4.722,11.012,11.012,0,0,1-.073,1.2,10.069,10.069,0,0,1-4.024,7.013Z" transform="translate(275.199 149.016)"/><path class="cd" d="M235.8,161.989l.77,12.237,1.747,10.42,1.959,4.825,1.747,26.4s16.86,1.949,20.961-.036a1.793,1.793,0,0,0,.743-.579c4.953-7.479,3.329-29.141,3.329-29.141l1.888-13.986-1.259-7.258-3.042-.323-2.341-.25s-.529.65-1.292,1.659c-2.073,2.738-5.886,8.121-5.631,10.367.348,3.078-.42,6.224-1.609,6.713s-2.167,1.33-2.377.491a3.787,3.787,0,0,1-.21-2.238c.21-1.189-.91-4.825-.91-4.825s-1.888-4.265-1.747-6.084-.21-3.917-.77-4.405-1.328-.98-.7-3.216-2.759-6.593-2.759-6.593Z" transform="translate(272.737 156.567)"/><path class="bv" d="M245.84,196.866l.7,20.909s1.588.879,4.038,2.238a1.793,1.793,0,0,0,.743-.579c4.953-7.479,3.329-29.141,3.329-29.141l1.888-13.986-1.259-7.258-3.042-.323c1.177-5.612,1.945-11.056.665-11.647-1.135-.524-1.882-2.415-2.366-4.445h0l-2.18,14.794s.182,1.332.248,2.708a7.75,7.75,0,0,1-.176,2.605,8.681,8.681,0,0,0-.141,3.5c-1.261,2.222-1.89,6.335-2.2,10.309C245.682,191.831,245.84,196.866,245.84,196.866Z" transform="translate(284.967 152.252)"/><path class="bx" d="M250.392,152.483s3.523.438,4.642,1.906,4.056,1.678,4.056,1.678,3.357,1.119,3.287,1.4.979.7,3.077,1.259,5.594,2.587,5.594,3.077,5.524,5.944,5.524,6.5,1.678,2.657,1.469,6.363-.42,8.391.42,9.16,0,3.776,0,3.776a2.066,2.066,0,0,0-.07,2.238c.7,1.259-.14,6.5-.14,6.5l.07,5.454s-.769,3.426.14,3.566-.14,1.678-.14,1.678-.769,2.8.21,4.056,1.259,6.643,1.259,6.643l14.964,21.747s.21,3.986-4.545,3.916-4.685.909-4.545,1.818-1.329,1.888-1.329,1.888-1.888.979-.769,2.168,4.336,3.916-.979,5.734a12.785,12.785,0,0,1-1.538-2.8,31.519,31.519,0,0,1-1.119-3.776s-.49-5.315-1.468-6.014-.839-4.056-.839-4.056,1.4-2.727-.559-3.846-30.349-16.853-30.349-16.853l-.7-20.908s-.49-15.454,2.447-20.629a8.7,8.7,0,0,1,.14-3.5c.489-1.259-.07-5.314-.07-5.314Z" transform="translate(285.178 152.069)"/><path class="bv" d="M253.763,156.7s-7.03-1.448-8.918-.469-5.594,1.748-6.154,2.308-1.958.14-3.217,3.427-1.4,6.643-3.007,8.182-2.447,2.587-2.517,3.706.21,1.4-.42,1.748-1.538,1.818-1.259,2.378,14.545,12.867,14.545,12.867.7,4.685,1.329,5.874-.7,17.552-2.1,18.671,9.44,1.016,9.44,1.016.49-10.736.909-11.3-.28-12.028-.28-12.028-.07-9.79.839-12.377.807-11.188.807-11.188.8-5.162,1.781-6.363S253.763,156.7,253.763,156.7Z" transform="translate(263.481 156.237)"/><path class="bx" d="M253.668,156.61s-7.03-1.448-8.918-.469-5.594,1.748-6.154,2.308-1.958.14-3.217,3.426-1.4,6.643-3.007,8.182-2.447,2.587-2.517,3.706.21,1.4-.42,1.748-1.538,1.818-1.259,2.378,14.545,12.867,14.545,12.867.7,4.685,1.329,5.874-.7,17.552-2.1,18.671,9.44,1.016,9.44,1.016.49-10.736.909-11.3-.28-12.028-.28-12.028-.07-9.79.839-12.377.807-11.188.807-11.188.8-5.162,1.781-6.363S253.668,156.61,253.668,156.61Z" transform="translate(263.366 156.121)"/><path class="bv" d="M239.45,157.791a14.133,14.133,0,0,1,.812,4.722,16.036,16.036,0,0,0,18.4-7.271,39.6,39.6,0,0,1-.682-5.213S236.443,148.911,239.45,157.791Z" transform="translate(276.847 149.016)"/><path class="cc" d="M234.507,157.33a16,16,0,1,0,.348-3.329,16,16,0,0,0-.348,3.329Z" transform="translate(271.161 138.428)"/><path class="bx" d="M237.608,165.208l-3.846,1.189a1.994,1.994,0,0,1-.769,2.1,2.339,2.339,0,0,0-.979,2.1s-.42,1.538-1.4,1.888-1.608,2.657-1.608,2.657l-3.217,3.706s-1.189.979-.979,1.468-1.259.629-1.259.629l.769,12.447,6.643,1.259,4.126-.42,3.357-1.259,2.937-1.748,1.329-3.426,5.874-8.951Z" transform="translate(257.781 167.612)"/><path class="cc" d="M233.419,176.928s-8.531-12.307-14.895-5.664,2.587,17.412,4.685,17.062,12.1-.909,12.1-.909Z" transform="translate(248.893 172.605)"/><rect class="bx" width="44.652" height="34.67" rx="0.379" transform="matrix(0.891, 0.455, -0.455, 0.891, 463.704, 324.443)"/><rect class="bq" width="37.532" height="28.282" transform="matrix(0.891, 0.455, -0.455, 0.891, 465.483, 328.862)"/><circle class="ce" cx="0.616" cy="0.616" r="0.616" transform="translate(457.138 340.176)"/><circle class="ce" cx="1.015" cy="1.015" r="1.015" transform="translate(492.925 358.318)"/><path class="cc" d="M221.507,176.28c-.069,9.23,19.021,11.188,19.021,11.188l4.877.774,2.184.346.91-9.021s-1-.149-2.251-.441c-1.848-.43-4.242-1.175-4.743-2.217C240.666,175.162,221.576,167.049,221.507,176.28Z" transform="translate(255.281 175.841)"/><path class="bv" d="M234.664,154a1.9,1.9,0,0,1,1.171.524c.541.573.571,1.588,1.273,1.941a1.418,1.418,0,0,0,.835.1c1.859-.262,2.935-2.362,4.72-2.939a4.744,4.744,0,0,1,3.128.269,2.329,2.329,0,0,1,1.036.665c.6.774.178,1.911.455,2.847.384,1.3,1.934,1.815,3.277,1.985s2.855.264,3.751,1.278a3.4,3.4,0,0,1,.667,2.706,2.126,2.126,0,0,0-.008,1c.369,1.049,2.184.894,2.658.065.346-.6.241-1.1,1.057-1.269a3.475,3.475,0,0,1,1.712.3,12.569,12.569,0,0,0,4.429.68A16.016,16.016,0,1,0,234.664,154Z" transform="translate(271.353 138.429)"/><path class="bx" d="M257.128,168.638a2.154,2.154,0,0,1,.008-1,3.4,3.4,0,0,0-.666-2.706c-.9-1.015-2.409-1.109-3.752-1.279s-2.892-.684-3.277-1.983c-.277-.936.142-2.075-.455-2.847a2.307,2.307,0,0,0-1.035-.665,4.75,4.75,0,0,0-3.129-.27c-1.785.577-2.862,2.678-4.72,2.94a1.422,1.422,0,0,1-.835-.1c-.7-.353-.733-1.367-1.273-1.939-.849-.9-2.46-.318-3.5-.986a3.227,3.227,0,0,1-1.13-2.071,10.074,10.074,0,0,1-.31-4.638c.609-2.6,2.932-4.385,4.417-6.605,1.384-2.07,2.16-4.691,4.239-6.061,2.042-1.346,4.748-1.059,7.093-.364a20.8,20.8,0,0,0,3.323.872c1.89.233,3.788-.281,5.691-.347a12.233,12.233,0,0,1,7.516,2.285,4.125,4.125,0,0,1,1.226,1.241,6.362,6.362,0,0,1,.546,2.226,11.36,11.36,0,0,0,1.476,4.091c.589.983,1.326,1.876,1.856,2.892a4.447,4.447,0,0,1,.5,3.312c-.18.578-.533,1.1-.667,1.685-.311,1.366.588,2.67,1.2,3.93a7.374,7.374,0,0,1,.817,3.726,4.7,4.7,0,0,1-1.676,3.354,6.021,6.021,0,0,1-3.545,1.074,12.575,12.575,0,0,1-4.516-.678,3.5,3.5,0,0,0-1.712-.3c-.817.168-.712.667-1.058,1.27C259.312,169.53,257.5,169.685,257.128,168.638Z" transform="translate(269.193 133.745)"/><path class="bv" d="M243.381,203.843l9.021-7.061L266.6,182.8s-1.909-.092-4.684-.212a3.066,3.066,0,0,0-.99,1.911c-.069,1.71-3.837.12-5.794,1.1s-11.538,13.239-13.216,13.16-3.006-.852-3.707.338c-.015.027-.034.052-.05.078a1.991,1.991,0,0,1-1.066.633Z" transform="translate(274.315 188.835)"/><path class="bu" d="M231.737,206.009l4.533,14.469.711,2.272,2.157-.592,4.76-1.307,21.194-5.822a18.389,18.389,0,0,0,7.628-2.035,23.108,23.108,0,0,1,13.17-2.872c2.8.262,5.917-.947,8.5-5.723,0,0,5.874-17.341-8.951-22.306s-15.532,2.639-15.532,2.639-.076.042-.2.124c-.575.367-2.188,1.521-2.247,2.922-.069,1.71-3.837.12-5.794,1.1s-11.538,13.239-13.216,13.16-3.006-.852-3.707.338c-.015.027-.034.052-.05.078-.518.713-2.075.879-3.1.908-.562.017-.969-.008-.969-.008l-.132.04-1.076.321Z" transform="translate(267.777 186.181)"/><path class="bv" d="M232.264,184.293l2.184.346.91-9.021s-1-.149-2.251-.441C233.439,176.437,232.688,181.3,232.264,184.293Z" transform="translate(268.422 179.79)"/><path class="bv" d="M289.267,160.425s6.5-1.888,4.895,16.573a51.609,51.609,0,0,1-13.636,30.139s-13.846,6.084-20.069,5.1-10.769-1.189-10.769-1.189a15.808,15.808,0,0,0-6.293-1.678c-3.5-.14-10.839-2.308-10.979-3.007s1.818-10.979.979-11.748c0,0,9.79.4,10.769,1.11s2.378.2,3.426,0,4.266-3,10.629-.55c0,0,2.168.21,3.007-.35a3,3,0,0,1,2.187-.14,6.153,6.153,0,0,0,1.519-.769c.21-.28,1.888,0,1.888,0a.744.744,0,0,0,1.049-.49,4.575,4.575,0,0,1,.979-1.538s1.888-10.629,5.454-14.615a2.278,2.278,0,0,0,.769-2.028C274.792,174.131,280.875,158.187,289.267,160.425Z" transform="translate(268.599 161.507)"/><path class="bx" d="M289.189,159.786s6.5-1.888,4.895,16.573A51.609,51.609,0,0,1,280.448,206.5s-13.846,6.084-20.069,5.1-10.769-1.189-10.769-1.189a15.81,15.81,0,0,0-6.293-1.678c-3.5-.14-10.839-2.308-10.979-3.007s1.818-10.979.979-11.748c0,0,9.79.4,10.769,1.11s2.378.2,3.426,0,4.266-3,10.629-.55c0,0,2.168.21,3.007-.35a3,3,0,0,1,2.187-.14,6.154,6.154,0,0,0,1.519-.769c.21-.28,1.888,0,1.888,0a.744.744,0,0,0,1.049-.49,4.574,4.574,0,0,1,.979-1.538s1.888-10.629,5.454-14.615a2.278,2.278,0,0,0,.769-2.028C274.714,173.492,280.8,157.549,289.189,159.786Z" transform="translate(268.503 160.727)"/><path class="bv" d="M235.191,191.076l9.237,11.175a.281.281,0,0,0,.059-.065c.069-.21.978-2.589.768-2.727s-1.817-3.638-5.035-5.106a9.56,9.56,0,0,1-3.952-3.6Z" transform="translate(271.996 198.816)"/><path class="bv" d="M235.358,206.393c.629.365,1.009.581,1.009.581s2.341-1.88,4.674-3.772c2.3-1.867,4.592-3.745,4.628-3.85.069-.21.978-2.589.768-2.727-.109-.073-.59-1.04-1.473-2.163-6.262-1.754-2.274,2.593-1.743,2.792,0,0-7.621-1.75-8.041,6.554a9.754,9.754,0,0,0,.178,2.584Z" transform="translate(271.958 202.837)"/><path class="bx" d="M242.732,209.911l1.33.77,13.5.348a27.157,27.157,0,0,0,4.777,2.3,4.252,4.252,0,0,0,.678.149,30.924,30.924,0,0,0,3.761.071c1.034-.027,1.833-.071,1.833-.071s-.638-17.02-1.12-18.811c-.231-.856-1.362-.667-2.478-.239a16.4,16.4,0,0,0-2.417,1.223s-5.733.556-6.644,1.049-3.495-.283-5.1,0-4.475-1.892-4.475-1.892c-7.833-2.587-3.428,2.238-2.868,2.448,0,0-7.621-1.75-8.041,6.554S242.732,209.911,242.732,209.911Z" transform="translate(272.306 202.837)"/><path class="cf" d="M247.509,203.329c.147,3.522,2.893,7.9,4.531,10.21,1.034-.027,1.834-.071,1.834-.071s-.638-17.02-1.12-18.811c-.231-.856-1.361-.667-2.478-.239C248.923,196.955,247.395,200.488,247.509,203.329Z" transform="translate(287.035 202.847)"/><path class="bv" d="M247.509,203.329c.147,3.522,2.893,7.9,4.531,10.21,1.034-.027,1.834-.071,1.834-.071s-.638-17.02-1.12-18.811c-.231-.856-1.361-.667-2.478-.239C248.923,196.955,247.395,200.488,247.509,203.329Z" transform="translate(287.035 202.847)"/><path class="cb" d="M246.595,203.8c.929,3.4.919,7.214,2.4,9.522a4.255,4.255,0,0,0,.678.149,30.929,30.929,0,0,0,3.761.071c1.034-.027,1.833-.071,1.833-.071s-.638-17.02-1.12-18.811c-.231-.856-1.362-.667-2.478-.239a16.4,16.4,0,0,0-2.417,1.223S245.405,199.441,246.595,203.8Z" transform="translate(285.647 202.847)"/><path class="bv" d="M225.51,182.909s6.7,2.179,12.384,9.907Z" transform="translate(260.171 189.232)"/><g class="cg" transform="translate(502.066 283.427)"><path d="M250.182,145.137c-.013.05-.025.1-.041.148a4.939,4.939,0,0,1-.233.583,4.265,4.265,0,0,1,.274-.732Z" transform="translate(-212.094 -140.331)"/><path d="M233.046,144.387a6.383,6.383,0,0,1,.521-1.413c-.036.12-.073.24-.1.364a10.074,10.074,0,0,0,.31,4.638,3.227,3.227,0,0,0,1.129,2.071c1.04.668,2.651.087,3.5.986.54.572.57,1.587,1.273,1.939a1.421,1.421,0,0,0,.835.1c1.858-.262,2.935-2.363,4.72-2.94a4.75,4.75,0,0,1,3.129.27,2.307,2.307,0,0,1,1.035.665c.6.772.178,1.911.455,2.847.384,1.3,1.933,1.813,3.276,1.983s2.856.265,3.752,1.279a3.4,3.4,0,0,1,.666,2.706,2.153,2.153,0,0,0-.008,1c.371,1.048,2.184.893,2.659.064.346-.6.241-1.1,1.058-1.27a3.5,3.5,0,0,1,1.712.3,12.575,12.575,0,0,0,4.516.678,6.021,6.021,0,0,0,3.545-1.074,4.18,4.18,0,0,0,1.088-1.322,4.473,4.473,0,0,1-1.507,2.371,6.021,6.021,0,0,1-3.545,1.074,12.575,12.575,0,0,1-4.517-.678,3.5,3.5,0,0,0-1.712-.3c-.817.168-.712.667-1.058,1.27-.475.828-2.288.984-2.659-.064a2.152,2.152,0,0,1,.008-1,3.4,3.4,0,0,0-.665-2.706c-.9-1.015-2.409-1.109-3.752-1.279s-2.892-.684-3.276-1.983c-.277-.936.142-2.075-.455-2.847a2.308,2.308,0,0,0-1.035-.665,4.75,4.75,0,0,0-3.129-.27c-1.785.577-2.862,2.678-4.72,2.94a1.422,1.422,0,0,1-.835-.1c-.7-.353-.733-1.367-1.273-1.939-.849-.9-2.46-.318-3.5-.986a3.227,3.227,0,0,1-1.13-2.071A10.073,10.073,0,0,1,233.046,144.387Z" transform="translate(-232.886 -142.974)"/></g><path class="bv" d="M253.606,170.648c-1.28,1.73-2.743,3.329-3.877,5.159a9.811,9.811,0,0,0-1.7,6.1c1.173-1.2,1.71-2.866,2.45-4.375,1.253-2.556,3.125-4.723,4.7-7.072.3-.45,2.233-3.042,1.256-3.166C255.636,167.2,254.043,170.058,253.606,170.648Z" transform="translate(287.628 170.161)"/><ellipse class="ch" cx="66.024" cy="62.205" rx="66.024" ry="62.205" transform="translate(103.947 223.64)"/><path class="ci" d="M221.088,260.8l-54.621-16.284a83.419,83.419,0,0,1-36.3,8.253c-42.724,0-77.483-31.821-77.483-70.935S87.446,110.9,130.17,110.9s77.483,31.821,77.483,70.935c0,19.745-9.065,38.694-24.9,52.1Zm-54.717-17.452.2.061,48.379,14.424-33.989-23.827.55-.457c15.918-13.219,25.048-32.069,25.048-51.715,0-38.512-34.269-69.844-76.392-69.844s-76.392,31.332-76.392,69.844,34.269,69.844,76.392,69.844a82.3,82.3,0,0,0,36.009-8.235Z" transform="translate(49.077 101.279)"/><circle class="bq" cx="6.002" cy="6.002" r="6.002" transform="translate(147.327 281.206)"/><circle class="bq" cx="6.002" cy="6.002" r="6.002" transform="translate(164.788 281.206)"/><circle class="bq" cx="6.002" cy="6.002" r="6.002" transform="translate(182.249 281.206)"/><path class="cj" d="M72.365,204.29c3.759,2.519,9.459,1.319,9.459,1.319s8.61-4.078,11.157-4.078,8.731-2.519,8.731-2.519l-.209-1.7-.631-5.116c3.919,3.054,8.274,2,10.42,1.777,2.3-.24,14.61-7.556,15.794-8.035a3.132,3.132,0,0,0,1.079-1.089h0a27.719,27.719,0,0,0,2.083-3.807h0c.772-.678,1.334-1.223,1.294-1.341a8.476,8.476,0,0,1,.754-2.014,9.867,9.867,0,0,0,3.733-1.344,3.392,3.392,0,0,0,.517-.523,3.319,3.319,0,0,0,.7-2.116s12.005-12.113,10.429-17.15,3.881-5.157,3.881-5.157,8.367-3.6,9.532-5.757c.718-1.329,6.992-4.243,11.717-6.292l.58-.251c1.836,4.018,11.141.927,12.975-.774,1.94-1.8,7.64-2.638,7.64-2.638s.243-23.507,2.062-26.505c.863-1.422,1.072-6.064,1.05-10.547q0-.239,0-.477c2.548-.5,8.607-1.648,11.422-1.929a10.936,10.936,0,0,0,5.068-2.37c.109.135.168.211.168.211a3.5,3.5,0,0,0,1.551.255,2.4,2.4,0,0,0,1.359-.255c1.091-.6,5.093-1.8,6.548-2.4s-.243-4.917-1.334-5.757-1.819-1.919-1.213-2.4-1.455-1.679-2.668-1.919a39.466,39.466,0,0,1-4.851-1.919s-1.334-2.758-3.517-2.758-5.093-2.159-5.093-2.159c-.121-.959-2.425-1.079-2.425-1.079s-8.731-6.716-10.186-5.877-5.457-1.319-5.457-1.319-4.908.549-6.063-.354v-.006a1.379,1.379,0,0,0-.291-.814c-.262-.81-1.53-1.923-2.759-2.85a10.817,10.817,0,0,0,.14-1.733c0-.252-.01-.5-.027-.751,0-.042-.008-.083-.012-.124l.171-1.689a3.5,3.5,0,0,1,.424-1.589c.2-.315.506-.565.734-.866a2.4,2.4,0,0,0,.149-.224c.012-.021.024-.042.035-.063q.049-.089.091-.181c.009-.021.019-.041.028-.062a2.729,2.729,0,0,0,.157-.511c0-.014.005-.028.008-.041q.023-.119.036-.24l0-.033a5.164,5.164,0,0,0-.273-2.059,13.854,13.854,0,0,1-.993-3.41,10.513,10.513,0,0,0-.062-1.758c-.292-1.31-1.641-2.146-2.938-2.689A16.36,16.36,0,0,1,170.9,41.75c-1.224-.949-3.243-.473-4.784-.374a41.781,41.781,0,0,0-10.3,2.381,10.239,10.239,0,0,0-3.6,1.787,3.965,3.965,0,0,0-1.317,2.222h0v0a2.787,2.787,0,0,0-.04.606c0,.018,0,.036,0,.054q.008.116.026.232c0,.025.008.05.012.076a2.467,2.467,0,0,0,.067.275l0,.007c.139.442.4.843.549,1.282a2.781,2.781,0,0,1,.082.3c0,.011,0,.021.007.032.02.1.037.192.049.289h0a12.4,12.4,0,0,1-.447,3.341c-.025.157-.042.317-.055.478h0v.006a5.719,5.719,0,0,0,.168,1.915l.005.021c.021.077.046.152.07.228.011.033.02.066.032.1.023.064.048.127.073.19.017.042.034.084.052.125s.051.111.078.165.046.092.07.137.055.1.084.147.058.094.088.14.059.088.091.131.07.093.107.139.063.078.1.116.084.09.127.134.066.068.1.1.1.087.151.129c.034.028.067.057.1.083.06.045.124.087.188.128.031.02.059.041.091.06a3.164,3.164,0,0,0,.306.161c.7.317,1.573.431,1.995,1.042a1.365,1.365,0,0,1,.2.478c0,.041,0,.082,0,.124v.106c0,.355.024.705.061,1.051a4.023,4.023,0,0,0,.032.568,1.643,1.643,0,0,0,.119.413,10.879,10.879,0,0,0,3.678,6.177c.035.185.077.4.124.645a12.117,12.117,0,0,1-3.528,1.849c-2.91.852-7.033,4.783-7.033,4.783s-2.049,14.752-2.539,16.551a79.961,79.961,0,0,0-.856,8.755,20.1,20.1,0,0,1-1.213,4.318c-.514,1.015-.422,5.373,1.016,8.021a6.77,6.77,0,0,1-.894,1.454c-2.91,3.358-11.642,3.238-14.552,3.238-2.681,0-3.508,1.625-3.622,1.882-5.328,1.513-22.586,6.439-24.633,7.334-2.425,1.06-3.759,11.533-3.759,11.533s-5.093,17.39-4.851,19.678-1.7,8.626-1.7,8.626,0,7.174-.825,7.661a.064.064,0,0,1-.024.014c-.849.36-.728,3.838-.728,3.838s.624.181,1.6.427a27.869,27.869,0,0,1-1.965,5.963c-.378-.477-.746-.678-.968-.12-.606,1.526-9.7,12.319-12.005,12.319a6.986,6.986,0,0,0-4.106,2.113C70.953,201.26,70.4,202.973,72.365,204.29Zm41.716-62.485a101.116,101.116,0,0,0,21.343-.732,24.515,24.515,0,0,1-1.576,4.21,42.609,42.609,0,0,0-2.789,9.475c0,1.439-3.274,13.792-4.244,14.392a3.59,3.59,0,0,0-1.055,1.526,14.321,14.321,0,0,0-.643,1.833c.014.313.043.608.084.888-.725.665-1.491,1.36-2.174,1.976h0a47.218,47.218,0,0,0-5.792,3.732c-1.455,1.319-8.246,2.936-8.246,2.936a42.09,42.09,0,0,0-4.88,2.49C102,185.8,99.9,187.41,99.348,189c.238-2.68.626-5.909.885-7.963.132,0,.261-.008.387-.016,3.4-.211,2.891-3.454,2.712-4.258-.024-.115-.044-.18-.044-.18,2.425-2.639,7.882-22.307,7.155-24.466s.606-4.078.895-4.078.682-2.4.075-3.718,2.667-2.519,2.667-2.519ZM197.435,88.9c-.215.052-.429.1-.643.159l-.008-.139s.242,0,.651-.02ZM162.2,70.8c-.1.12-.2.238-.3.35-.041.044-.083.086-.124.129,0-.225,0-.449,0-.665q.21.1.424.186ZM150.052,94.066l.044.675s-.066.411-.188,1.117Zm55.729-6.7-2.115.365c.3-.113.6-.237.881-.372a2.018,2.018,0,0,1,.674-.183,3.677,3.677,0,0,1,.789.169,1.656,1.656,0,0,0-.229.022Z" transform="translate(71.541 16.104)"/><path class="ck" d="M106.862,102.941s-2.437,5.043-2.318,5.4-5.237,4.642-5.237,4.642l-5.832-4.166.6-2.856s6.546-5.9,7.022-6.58S106.862,102.941,106.862,102.941Z" transform="translate(98.897 87.116)"/><path class="bx" d="M84.961,117.4c4.047,3.928,8.808,2.738,11.069,2.5s14.34-7.5,15.5-7.974a3.09,3.09,0,0,0,1.059-1.081h0a27.622,27.622,0,0,0,2.045-3.778c-.081.021-4.04,1.152-5.039,0,0,0-1.666-2.042-2.023-2.042s-.029-3.585-.029-3.585a46.279,46.279,0,0,0-5.684,3.7c-1.428,1.309-8.094,2.914-8.094,2.914a41.129,41.129,0,0,0-4.789,2.471C85.822,112.453,82.659,115.168,84.961,117.4Z" transform="translate(87.534 89.72)"/><path class="bv" d="M84.961,112.4c4.047,3.928,8.808,2.738,11.069,2.5s14.34-7.5,15.5-7.974a3.09,3.09,0,0,0,1.059-1.081c-1.409-.84-10.61,5.008-13.185,6.08s-9.088.476-12.778-1.071c-1.842-.771.024-3.145,2.352-5.327C85.822,107.455,82.659,110.171,84.961,112.4Z" transform="translate(87.534 94.717)"/><path class="ck" d="M91.286,104s-1.7,12.735-1.264,14.4-10.638-5.713-10.638-5.713,3.873-7.98,2.737-9.814S91.286,104,91.286,104Z" transform="translate(81.685 90.743)"/><path class="bx" d="M79.976,136.666s6.9,2.023,10.712,1.785c3.335-.209,2.837-3.428,2.661-4.225-.024-.114-.043-.179-.043-.179,2.38-2.618,7.736-22.138,7.022-24.28s.6-4.047.878-4.047.669-2.38.074-3.69,2.618-2.5,2.618-2.5a98.167,98.167,0,0,0,20.948-.726,24.5,24.5,0,0,1-1.547,4.178,42.641,42.641,0,0,0-2.738,9.4c0,1.428-3.214,13.687-4.166,14.283a3.563,3.563,0,0,0-1.036,1.514A14.31,14.31,0,0,0,114.73,130c.357,7.974,9.4,4.88,10.712,3.809a3.245,3.245,0,0,0,1.19-2.618s11.783-12.021,10.236-17.02,3.809-5.118,3.809-5.118,8.212-3.571,9.355-5.713c.7-1.319,6.863-4.211,11.5-6.244,2.9-1.274,5.211-2.207,5.211-2.207l-1.931-6.922-1.521-5.456-2.864-1.076-9.158-3.447-16.442-2.261-1.507.2-15.973,2.066S94.02,84.654,91.64,85.706s-3.69,11.445-3.69,11.445-5,17.258-4.761,19.529-1.666,8.56-1.666,8.56,0,7.12-.809,7.6a.063.063,0,0,1-.024.014C79.857,133.215,79.976,136.666,79.976,136.666Z" transform="translate(82.401 58.315)"/><path class="bv" d="M90.742,91.616a98.166,98.166,0,0,0,20.948-.726c.714-2.249,10.719-8.439,10.719-8.439C114.2,80.428,90.742,91.616,90.742,91.616Z" transform="translate(95.559 66.23)"/><path class="br" d="M95.618,101.159c.357,7.974,9.4,4.88,10.712,3.809a3.348,3.348,0,0,0,.507-.519c-3.161,1.164-8.765,2.064-10.588-5.108A14.311,14.311,0,0,0,95.618,101.159Z" transform="translate(101.514 87.157)"/><path class="br" d="M79.976,105.261s6.9,2.023,10.712,1.785c3.335-.209,2.837-3.428,2.661-4.225-3.494-.109-9.512-.438-12.635-1.383a.064.064,0,0,1-.024.014C79.857,101.81,79.976,105.261,79.976,105.261Z" transform="translate(82.401 89.72)"/><path class="bv" d="M95.618,101.159c.357,7.974,9.4,4.88,10.712,3.809a3.348,3.348,0,0,0,.507-.519c-3.161,1.164-8.765,2.064-10.588-5.108A14.311,14.311,0,0,0,95.618,101.159Z" transform="translate(101.514 87.157)"/><path class="bv" d="M79.976,105.261s6.9,2.023,10.712,1.785c3.335-.209,2.837-3.428,2.661-4.225-3.494-.109-9.512-.438-12.635-1.383a.064.064,0,0,1-.024.014C79.857,101.81,79.976,105.261,79.976,105.261Z" transform="translate(82.401 89.72)"/><path class="bx" d="M73,124.8c3.69,2.5,9.284,1.309,9.284,1.309s8.45-4.047,10.95-4.047,8.57-2.5,8.57-2.5l-.2-1.685-.985-8.074s-9.269-.238-9.641-1.071c0,0-1.666-4.1-2.261-2.585s-9.522,12.226-11.783,12.226a6.83,6.83,0,0,0-4.03,2.1C71.62,121.791,71.074,123.491,73,124.8Z" transform="translate(72.352 95.059)"/><path class="bv" d="M86.724,82.692s7.736,4.88,5.594,5.951S86.724,82.692,86.724,82.692Z" transform="translate(90.651 66.822)"/><path class="bv" d="M85.277,86.925s6.665,6.328,4.166,6.5S85.277,86.925,85.277,86.925Z" transform="translate(88.884 71.992)"/><path class="bv" d="M82.062,95.98s3.384,6.36,2.108,7.465S82.062,95.98,82.062,95.98Z" transform="translate(84.957 83.053)"/><path class="bv" d="M98.877,101.168c-1.19,1.19,11.307-3.928,8.45-4.166S98.877,101.168,98.877,101.168Z" transform="translate(105.397 84.291)"/><path class="ck" d="M110.084,67.575l.4-.06c1.481-.226,6.846-1.069,11.659-2.114,1.174-.255,2.311-.521,3.354-.8,3.687-.966,6.161-2.009,4.585-2.864a8.442,8.442,0,0,1-3.768-4.963c-.055-.174-.107-.343-.155-.509a13.08,13.08,0,0,1-.481-2.74s-13.449-4.761-10.831,0a4.512,4.512,0,0,1-.793,5.577,10.445,10.445,0,0,1-2.9,2.159Z" transform="translate(119.184 28.618)"/><path class="bv" d="M132.717,57.028s-4.811,3.452-9.725.6S111.65,82.856,111.65,82.856l-6.665,16.425s-4.318,3.571,1.055,5.118,17.294-1.547,20.319,2.976,8.758,5.237,9.343,5.237,2.854-17.02,2.854-17.02l.588-24.637Z" transform="translate(110.952 35.475)"/><path class="cl" d="M106.147,103.97c5.373,1.547,17.294-1.547,20.319,2.976a11.623,11.623,0,0,0,5.12,4.121,13.407,13.407,0,0,0,4.223,1.116c.079,0,.19-.312.321-.852.838-3.444,2.533-16.168,2.533-16.168l.588-24.637L133.6,58.273l-.771-1.673a10.25,10.25,0,0,1-2.452,1.193,8.629,8.629,0,0,1-7.275-.6c-1.443-.838-3.014.988-4.516,3.987-3.616,7.222-6.825,21.245-6.825,21.245l-6.665,16.425a5.768,5.768,0,0,0-.452.433C103.693,100.283,101.919,102.754,106.147,103.97Z" transform="translate(111.083 34.952)"/><path class="bv" d="M117.166,108.462a30.986,30.986,0,0,0-.159,6.268,73.427,73.427,0,0,0,1.119,8.853,3.385,3.385,0,0,0,.145.54c2.9-1.274,5.211-2.207,5.211-2.207l-1.931-6.922c.838-3.444,2.533-16.168,2.533-16.168l.588-24.637-5.656-12.252c3.687-.966,6.161-2.009,4.585-2.864a8.727,8.727,0,0,1-3.923-5.473,19.94,19.94,0,0,1-3.383,3.64l-.074.062-.428,4.154-.131,1.276-.274,2.649s1.309,31.3,2.261,33.088.476,5.237-.357,9.284C117.244,107.981,117.2,108.217,117.166,108.462Z" transform="translate(125.663 31.288)"/><path class="cm" d="M117.507,111.4c-.833,4.047-.119,10.712.833,15.83s11.069,1.785,12.973,0,7.5-2.618,7.5-2.618.238-23.328,2.023-26.3c.847-1.412,1.052-6.018,1.031-10.467-.017-4-.214-7.865-.288-9.177-.019-.3-.029-.471-.029-.471s7.736-13.092,7.617-14.045-2.38-1.071-2.38-1.071-8.57-6.665-10-5.832-5.356-1.309-5.356-1.309-4.977.564-6.006-.4a.523.523,0,0,1-.183-.438c.117-1.523-5.073-4.778-5.232-4.877,4.373,3.935-2.7,10-3.5,10.662l-.074.062-.833,8.079s1.309,31.3,2.261,33.088S118.34,107.352,117.507,111.4Z" transform="translate(125.924 27.165)"/><circle class="br" cx="0.595" cy="0.595" r="0.595" transform="translate(243.297 103.966)"/><path class="bv" d="M116.118,61.1l3.616,3.5,5.3-8.846a.523.523,0,0,1-.183-.438c.117-1.523-5.073-4.778-5.232-4.877C123.992,54.374,116.92,60.437,116.118,61.1Z" transform="translate(126.554 27.427)"/><circle class="bv" cx="0.595" cy="0.595" r="0.595" transform="translate(244.487 123.009)"/><circle class="br" cx="0.595" cy="0.595" r="0.595" transform="translate(244.487 122.771)"/><path class="cm" d="M116.011,60.887l3.616,3.5,5.3-8.846a.523.523,0,0,1-.183-.438c.117-1.523-5.073-4.778-5.232-4.877C123.885,54.16,116.813,60.223,116.011,60.887Z" transform="translate(126.423 27.165)"/><rect class="bx" width="8.283" height="17.502" rx="0.417" transform="translate(246.958 121.57) rotate(-178.695)"/><rect class="bv" width="8.283" height="17.502" rx="0.417" transform="translate(246.958 121.57) rotate(-178.695)"/><rect class="bx" width="8.283" height="17.502" rx="0.417" transform="translate(247.002 121.957) rotate(-178.695)"/><circle class="cm" cx="1.302" cy="1.302" r="1.302" transform="translate(241.982 108.18)"/><path class="bv" d="M96.207,106.042c2.976,1.309,22.5-2.142,25.352-2.976s7.022-7.26,5-11.9.714-9.165.714-9.165,4.285-9.165,5.237-10.95,2.937-6.984,3.214-7.855a.707.707,0,0,0-.169-.545,20.768,20.768,0,0,0-3.759-3.264c-.84.3-.945-2.1-.912-3.871.019-.99.079-1.781.079-1.781s-.4.4-1.04.95c-.236.2-.5.417-.8.643a12.324,12.324,0,0,1-3.752,2.05c-2.856.845-6.9,4.747-6.9,4.747l1.19,18.279s-2.737,17.189-5.594,20.522-11.426,3.214-14.283,3.214S96.207,106.042,96.207,106.042Z" transform="translate(102.234 31.452)"/><path class="cm" d="M96.1,105.72c2.976,1.309,22.5-2.142,25.352-2.976s7.022-7.26,5-11.9.714-9.165.714-9.165,4.285-9.165,5.237-10.95,2.937-6.984,3.214-7.855a.707.707,0,0,0-.169-.545,20.769,20.769,0,0,0-3.759-3.264c-.84.3-.945-2.1-.912-3.871.019-.99.079-1.781.079-1.781s-.4.4-1.04.95c-.236.2-.5.417-.8.643a12.325,12.325,0,0,1-3.752,2.05c-2.856.845-6.9,4.747-6.9,4.747l1.19,18.279S116.81,97.27,113.953,100.6s-11.426,3.214-14.283,3.214S96.1,105.72,96.1,105.72Z" transform="translate(102.103 31.059)"/><path class="bv" d="M110.673,53.627s.112.628.3,1.593c.64,3.268,2.169,10.4,3.271,10.129.79-.2,2.126-1.6,3.164-2.807a20.769,20.769,0,0,0-3.759-3.264c-.84.3-.945-2.1-.912-3.871l-.962-.831Z" transform="translate(119.904 31.321)"/><path class="cm" d="M110.78,53.413s.112.628.3,1.593c.64,3.268,2.169,10.4,3.271,10.129.79-.2,2.126-1.6,3.164-2.807a20.769,20.769,0,0,0-3.759-3.264c-.84.3-.945-2.1-.912-3.871l-.962-.831Z" transform="translate(120.035 31.059)"/><path class="ck" d="M110.227,73.147s5.951-1.19,7.617-3.809,13-4.88,11.619-2.142-11.619,11.695-11.619,11.695l-4.435,6.351-5.92-1.5L105,78.891Z" transform="translate(112.97 46.375)"/><path class="bv" d="M117.374,72.247s-5.763,2.142-6.631,5S117.374,72.247,117.374,72.247Z" transform="translate(119.904 54.064)"/><path class="bv" d="M118.965,73.745s.524,2.974-6.7,2.737Z" transform="translate(121.847 55.893)"/><path class="bv" d="M133.964,56.731l2.618-.238s2.856,2.142,5,2.142,3.452,2.737,3.452,2.737a38.489,38.489,0,0,0,4.761,1.9c1.19.238,3.214,1.428,2.618,1.9s.119,1.547,1.19,2.38,2.737,5.118,1.309,5.713-5.356,1.785-6.427,2.38a2.951,2.951,0,0,1-2.38,0s-6.305-8.213-9.52-6.665a20.627,20.627,0,0,1-7.619,1.547l-3.452-7.26Z" transform="translate(138.032 34.821)"/><path class="cm" d="M105.53,95.043a3.182,3.182,0,0,0,2.219,1.543,16.819,16.819,0,0,0,6.932-.64s-11.99-3.809-.445-13.071H111.14l-1.031-.39.471-2.466.678-22.233-2.5-.6s-2.011,14.64-2.492,16.425a80.215,80.215,0,0,0-.84,8.689,20.116,20.116,0,0,1-1.19,4.285C103.7,87.661,103.837,92.5,105.53,95.043Z" transform="translate(111.7 35.672)"/><path class="bv" d="M104.879,81.135a3.182,3.182,0,0,0,2.219,1.543,16.819,16.819,0,0,0,6.932-.64s-11.99-3.809-.445-13.071H110.49l-1.031-.39C107.764,71.577,105.1,76.919,104.879,81.135Z" transform="translate(112.827 49.58)"/><path class="cn" d="M104.665,81.135a3.182,3.182,0,0,0,2.219,1.543,16.819,16.819,0,0,0,6.932-.64s-11.99-3.809-.445-13.071h-3.095l-1.031-.39C107.55,71.577,104.882,76.919,104.665,81.135Z" transform="translate(112.565 49.58)"/><path class="cm" d="M104.665,81.135a3.182,3.182,0,0,0,2.219,1.543,16.819,16.819,0,0,0,6.932-.64s-11.99-3.809-.445-13.071h-3.095l-1.031-.39C107.55,71.577,104.882,76.919,104.665,81.135Z" transform="translate(112.565 49.58)"/><path class="bv" d="M111.87,59.108a10.832,10.832,0,0,0,12.259-2.328c-.055-.174-.107-.343-.155-.509a13.081,13.081,0,0,1-.481-2.74s-13.449-4.761-10.831,0A4.512,4.512,0,0,1,111.87,59.108Z" transform="translate(121.366 28.618)"/><path class="ck" d="M109.012,56.179v.1c0,.352.024.7.059,1.043s.086.655.148.974a10.834,10.834,0,0,0,20.869,1.4c.071-.209.138-.421.2-.636a10.782,10.782,0,0,0,.39-2.885c0-.25-.01-.5-.026-.745a10.831,10.831,0,0,0-21.636.745Z" transform="translate(117.875 21.209)"/><path class="bv" d="M109.012,56.284a4.693,4.693,0,0,1,.059,1.043,4.037,4.037,0,0,0,.031.564,1.64,1.64,0,0,0,.117.409,2.024,2.024,0,0,0,2.809,1.031,3.05,3.05,0,0,0,.845-1.107c1-1.859,2.392-4,4.582-4.035a10.425,10.425,0,0,1,2.714.607,2.908,2.908,0,0,0,2.647-.357c.517-.471.762-1.278,1.457-1.445s1.333.471,1.652,1.095.571,1.357,1.216,1.678c.286.143.621.183.9.336,1.295.709.7,3.195,2.045,3.6a1.014,1.014,0,0,0,.129.031c.021-.221.045-.445.067-.667l.364-3.63a10.831,10.831,0,0,0-21.636.745Z" transform="translate(117.875 21.209)"/><path class="bx" d="M130.724,44.73c1.273.539,2.6,1.369,2.884,2.669a10.55,10.55,0,0,1,.06,1.744,13.865,13.865,0,0,0,.975,3.384,3.761,3.761,0,0,1-.231,3.39c-.224.3-.519.546-.72.859a3.5,3.5,0,0,0-.416,1.577l-.588,5.859c-1.511-.281-.838-2.9-2.174-3.628-.281-.153-.615-.194-.9-.337-.644-.321-.9-1.055-1.216-1.678s-.948-1.262-1.653-1.094-.938.974-1.455,1.445a2.906,2.906,0,0,1-2.649.356,10.488,10.488,0,0,0-2.712-.607c-2.191.037-3.583,2.176-4.583,4.035a3.028,3.028,0,0,1-.845,1.109,2.035,2.035,0,0,1-2.925-1.442c-.1-.7.116-1.479-.287-2.07-.414-.607-1.275-.719-1.958-1.034-1.739-.8-2.279-2.973-1.989-4.795.209-1.313.731-2.664.3-3.928-.147-.435-.4-.833-.539-1.272a3.436,3.436,0,0,1,1.223-3.447,10.007,10.007,0,0,1,3.532-1.773,40.629,40.629,0,0,1,10.11-2.363c1.513-.1,3.494-.571,4.7.371A16.036,16.036,0,0,0,130.724,44.73Z" transform="translate(115.404 16.49)"/><circle class="bv" cx="0.595" cy="0.595" r="0.595" transform="translate(242.702 94.563)"/><circle class="br" cx="0.595" cy="0.595" r="0.595" transform="translate(242.702 94.325)"/><circle class="bv" cx="0.595" cy="0.595" r="0.595" transform="translate(246.51 131.936)"/><circle class="br" cx="0.595" cy="0.595" r="0.595" transform="translate(246.51 131.698)"/><circle class="bv" cx="0.595" cy="0.595" r="0.595" transform="translate(244.487 141.815)"/><circle class="br" cx="0.595" cy="0.595" r="0.595" transform="translate(244.487 141.577)"/><path class="bv" d="M108.314,62.456s-1.309,8.89,0,10.437S108.314,62.456,108.314,62.456Z" transform="translate(116.312 42.105)"/><path class="bv" d="M127.406,69.887s2.5,5.385,0,10.548-4.047,7.259-3.214,10.556S127.406,69.887,127.406,69.887Z" transform="translate(136.14 51.182)"/><path class="bv" d="M73,118.163c3.69,2.5,9.284,1.309,9.284,1.309s8.45-4.047,10.95-4.047,8.57-2.5,8.57-2.5l-.2-1.685c-2.466.476-8.074,1.607-8.722,2.161-.833.714-11.069,4.166-11.069,4.166s-6.97-.871-8.91-3.735C71.62,115.157,71.074,116.856,73,118.163Z" transform="translate(72.352 101.693)"/><g class="cg" transform="translate(222.394 64.293)"><path d="M119,44.717c-.007-.129-.007-.258,0-.388.011.148.012.3.011.446C119.006,44.755,119,44.737,119,44.717Z" transform="translate(-92.324 -44.329)"/><path d="M109.175,51.6c.683.315,1.544.427,1.958,1.034.4.591.185,1.372.287,2.07a2.035,2.035,0,0,0,2.925,1.441,3.027,3.027,0,0,0,.845-1.109c1-1.859,2.393-4,4.583-4.035a10.488,10.488,0,0,1,2.712.607,2.906,2.906,0,0,0,2.649-.356c.517-.471.762-1.279,1.455-1.445s1.333.471,1.653,1.094.572,1.357,1.216,1.678c.286.143.621.184.9.337,1.336.729.663,3.347,2.174,3.628l.588-5.859a3.5,3.5,0,0,1,.416-1.577c.2-.313.5-.561.72-.859a2.621,2.621,0,0,0,.489-1.26,3.045,3.045,0,0,1-.489,2.212c-.224.3-.519.546-.72.859a3.5,3.5,0,0,0-.416,1.577l-.588,5.859c-1.511-.281-.838-2.9-2.174-3.628-.281-.153-.615-.194-.9-.337-.644-.321-.9-1.055-1.216-1.678s-.948-1.262-1.653-1.094-.938.974-1.455,1.445a2.906,2.906,0,0,1-2.649.356,10.488,10.488,0,0,0-2.712-.607c-2.191.037-3.583,2.176-4.583,4.035a3.028,3.028,0,0,1-.845,1.109,2.035,2.035,0,0,1-2.925-1.441c-.1-.7.116-1.479-.287-2.07-.414-.607-1.275-.719-1.958-1.034-1.591-.733-2.175-2.611-2.043-4.32A3.883,3.883,0,0,0,109.175,51.6Z" transform="translate(-106.837 -41.084)"/><path d="M107.1,44.721c.137.439.392.836.539,1.272a3.66,3.66,0,0,1,.135,1.565,3.041,3.041,0,0,0-.135-.613c-.147-.435-.4-.833-.539-1.272a2.634,2.634,0,0,1-.069-1.242,2.476,2.476,0,0,0,.069.29Z" transform="translate(-106.989 -44.204)"/></g><path class="bv" d="M130.877,74.929c2.737-.6,9.165-2.495,9.165-2.495l1.15-.231c-.017-4-.214-7.865-.288-9.177l-.029,0s-5.475,1.785-6.784,2.737-5.356.714-5.356.714a18.344,18.344,0,0,0-11.545,6.189C111.953,78.5,128.14,75.529,130.877,74.929Z" transform="translate(126.598 42.802)"/><path class="ck" d="M157.629,65.426a1.588,1.588,0,0,1,.357,2.668c-1.45,1.2-3.567,2.637-5.587,2.84-3.371.339-11.486,1.967-12.292,2.129-.044.009-.085.019-.128.032-.669.2-6.523,1.911-9.1,2.476-2.738.6-18.924,3.575-13.687-2.257a18.512,18.512,0,0,1,11.429-6.18,1.486,1.486,0,0,1,.209,0c.612.028,4.071.148,5.263-.719a11.233,11.233,0,0,1,1.97-.981,37.819,37.819,0,0,1,8.046-2.32l5.6-.976a1.611,1.611,0,0,1,.943.12Z" transform="translate(126.598 41.683)"/><path class="cm" d="M134.179,56.731l2.618-.238s2.856,2.142,5,2.142,3.452,2.737,3.452,2.737a38.491,38.491,0,0,0,4.761,1.9c1.19.238,3.214,1.428,2.618,1.9s.119,1.547,1.19,2.38,2.738,5.118,1.309,5.713-5.356,1.785-6.427,2.38a2.951,2.951,0,0,1-2.38,0s-6.305-8.213-9.52-6.665a20.628,20.628,0,0,1-7.619,1.547l-3.452-7.26Z" transform="translate(138.293 34.821)"/></g></g></g></svg>