<svg xmlns="http://www.w3.org/2000/svg" xmlns:xlink="http://www.w3.org/1999/xlink" width="955" height="1376" viewBox="0 0 955 1376"><defs><style>.a{fill:#fff;}.b{fill:#ececec;}.c{clip-path:url(#a);}.d{opacity:0.5;}.aa,.ab,.ac,.ad,.ae,.af,.ag,.ah,.ai,.aj,.ak,.al,.am,.an,.ao,.ap,.aq,.ar,.as,.at,.au,.av,.aw,.ax,.ay,.az,.ba,.bb,.bc,.bd,.be,.bf,.bg,.bh,.bi,.bj,.bk,.bl,.bm,.bn,.e,.f,.g,.h,.i,.j,.k,.l,.m,.n,.o,.p,.q,.r,.s,.t,.u,.v,.w,.x,.y,.z{fill:none;stroke-linecap:round;stroke-miterlimit:10;stroke-width:0.5px;}.e{stroke:#1b75bc;}.bh,.e{stroke-dasharray:2.007 2.007 2.007 2.007 2.007 2.007;}.f{stroke:#1776bd;stroke-dasharray:1.992 1.992 1.992 1.992 1.992 1.992;}.g{stroke:#1177be;}.g,.q{stroke-dasharray:1.993 1.993 1.993 1.993 1.993 1.993;}.h{stroke:#0978be;stroke-dasharray:1.995 1.995 1.995 1.995 1.995 1.995;}.i{stroke:#0079bf;stroke-dasharray:1.996 1.996 1.996 1.996 1.996 1.996;}.j{stroke:#007ac0;stroke-dasharray:1.998 1.998 1.998 1.998 1.998 1.998;}.k{stroke:#007bc1;stroke-dasharray:2 2 2 2 2 2;}.l{stroke:#007cc1;stroke-dasharray:2.001 2.001 2.001 2.001 2.001 2.001;}.m{stroke:#007dc2;stroke-dasharray:2.003 2.003 2.003 2.003 2.003 2.003;}.n{stroke:#007ec3;stroke-dasharray:2.005 2.005 2.005 2.005 2.005 2.005;}.o{stroke:#007fc4;stroke-dasharray:2.007 2.007 2.007 2.007 2.007 2.007;}.p{stroke:#0080c5;stroke-dasharray:1.991 1.991 1.991 1.991 1.991 1.991;}.q{stroke:#0081c5;}.r{stroke:#0082c6;stroke-dasharray:1.995 1.995 1.995 1.995 1.995 1.995;}.s{stroke:#0083c7;stroke-dasharray:1.998 1.998 1.998 1.998 1.998 1.998;}.t{stroke:#0083c8;stroke-dasharray:2 2 2 2 2 2;}.u{stroke:#0084c9;stroke-dasharray:2.003 2.003 2.003 2.003 2.003 2.003;}.v{stroke:#0085ca;stroke-dasharray:2.005 2.005 2.005 2.005 2.005 2.005;}.w{stroke:#0086ca;stroke-dasharray:2.008 2.008 2.008 2.008 2.008 2.008;}.x{stroke:#0087cb;stroke-dasharray:1.992 1.992 1.992 1.992 1.992 1.992;}.y{stroke:#08c;}.ar,.y{stroke-dasharray:1.995 1.995 1.995 1.995 1.995 1.995;}.z{stroke:#0089cd;stroke-dasharray:1.998 1.998 1.998 1.998 1.998 1.998;}.aa{stroke:#008ace;}.aa,.as{stroke-dasharray:2.001 2.001 2.001 2.001 2.001 2.001;}.ab{stroke:#008bcf;stroke-dasharray:2.005 2.005 2.005 2.005 2.005 2.005;}.ac{stroke:#008cd0;stroke-dasharray:2.008 2.008 2.008 2.008 2.008 2.008;}.ad{stroke:#008dd0;stroke-dasharray:1.991 1.991 1.991 1.991 1.991 1.991;}.ae{stroke:#008ed1;stroke-dasharray:1.995 1.995 1.995 1.995 1.995 1.995;}.af{stroke:#008fd2;stroke-dasharray:1.999 1.999 1.999 1.999 1.999 1.999;}.ag{stroke:#0090d3;stroke-dasharray:2.003 2.003 2.003 2.003 2.003 2.003;}.ah{stroke:#0091d4;stroke-dasharray:2.007 2.007 2.007 2.007 2.007 2.007;}.ai,.aj{stroke:#0092d5;}.ai{stroke-dasharray:1.991 1.991 1.991 1.991 1.991 1.991;}.aj{stroke-dasharray:1.995 1.995 1.995 1.995 1.995 1.995;}.ak{stroke:#0093d6;stroke-dasharray:2 2 2 2 2 2;}.al{stroke:#0094d7;}.al,.ap{stroke-dasharray:2.005 2.005 2.005 2.005 2.005 2.005;}.am{stroke:#0095d8;stroke-dasharray:2.01 2.01 2.01 2.01 2.01 2.01;}.an{stroke:#0096d9;stroke-dasharray:1.994 1.994 1.994 1.994 1.994 1.994;}.ao{stroke:#0097da;stroke-dasharray:1.999 1.999 1.999 1.999 1.999 1.999;}.ap{stroke:#0098da;}.aq{stroke:#0099db;stroke-dasharray:1.989 1.989 1.989 1.989 1.989 1.989;}.ar{stroke:#0099dc;}.as{stroke:#009add;}.at{stroke:#009bde;stroke-dasharray:2.008 2.008 2.008 2.008 2.008 2.008;}.au{stroke:#009cde;stroke-dasharray:1.992 1.992 1.992 1.992 1.992 1.992;}.av{stroke:#009ddf;stroke-dasharray:1.999 1.999 1.999 1.999 1.999 1.999;}.aw{stroke:#009ee0;stroke-dasharray:2.006 2.006 2.006 2.006 2.006 2.006;}.ax{stroke:#009fe1;stroke-dasharray:1.99 1.99 1.99 1.99 1.99 1.99;}.ay{stroke:#009fe2;stroke-dasharray:1.998 1.998 1.998 1.998 1.998 1.998;}.az{stroke:#00a0e2;stroke-dasharray:2.006 2.006 2.006 2.006 2.006 2.006;}.ba{stroke:#00a1e3;stroke-dasharray:1.99 1.99 1.99 1.99 1.99 1.99;}.bb{stroke:#00a2e4;stroke-dasharray:1.999 1.999 1.999 1.999 1.999 1.999;}.bc{stroke:#00a3e5;stroke-dasharray:2.008 2.008 2.008 2.008 2.008 2.008;}.bd{stroke:#00a4e6;stroke-dasharray:1.992 1.992 1.992 1.992 1.992 1.992;}.be,.bf{stroke:#00a5e7;}.be{stroke-dasharray:2.002 2.002 2.002 2.002 2.002 2.002;}.bf{stroke-dasharray:2.012 2.012 2.012 2.012 2.012 2.012;}.bg{stroke:#00a6e8;stroke-dasharray:1.996 1.996 1.996 1.996 1.996 1.996;}.bh{stroke:#00a7e9;}.bi{stroke:#00a8ea;stroke-dasharray:1.992 1.992 1.992 1.992 1.992 1.992;}.bj{stroke:#00a9eb;stroke-dasharray:2.003 2.003 2.003 2.003 2.003 2.003;}.bk{stroke:#00aaec;stroke-dasharray:1.988 1.988 1.988 1.988 1.988 1.988;}.bl{stroke:#00abed;stroke-dasharray:2 2 2 2 2 2;}.bm{stroke:#00acee;stroke-dasharray:2.012 2.012 2.012 2.012 2.012 2.012;}.bn{stroke:#00aeef;stroke-dasharray:1.997 1.997 1.997 1.997 1.997 1.997;}.bo{clip-path:url(#b);}.bp,.bv{fill:#1694f3;}.bp,.bw{opacity:0.1;}.bq{fill:#ceeaff;}.br{fill:#3f3d56;}.bs{fill:#192534;}.bt{fill:#fbbebe;}.bu{fill:#f2f2f2;}</style><clipPath id="a"><rect class="a" width="955" height="1376" transform="translate(0 1569)"/></clipPath><clipPath id="b"><rect class="b" width="606" height="606" transform="translate(235.95 1423.399)"/></clipPath></defs><g class="c" transform="translate(0 -1569)"><g class="d" transform="matrix(0.719, 0.695, -0.695, 0.719, -87.352, 905.552)"><g transform="translate(43.89 138.918)"><path class="e" d="M1619.082,400.507c-15.832,366.084-54.662,1149.559-674.672,1077.176C580.475,1435.172,43.89,1163.622,43.89,797.212S537.312,550.517,897.728,484.486C1277.038,415,1645.142-201.783,1619.082,400.507Z" transform="translate(-43.89 -138.918)"/><g transform="translate(6.45 10.022)"><path class="f" d="M1610.344,403.008c-15.571,364.227-57.138,1138.256-671.155,1067.045C577.047,1428.259,45.87,1157.784,45.87,793.2S534.6,543.018,893.258,478.062C1270.516,409.718,1635.981-193.581,1610.344,403.008Z" transform="translate(-45.87 -141.994)"/></g><g transform="translate(12.933 20.031)"><path class="g" d="M1601.552,405.518c-15.311,362.4-59.613,1126.952-667.636,1056.914C573.6,1421.322,47.86,1151.922,47.86,789.193S531.835,535.528,888.766,471.647C1263.971,404.443,1626.765-185.337,1601.552,405.518Z" transform="translate(-47.86 -145.067)"/></g><g transform="translate(19.383 29.997)"><path class="h" d="M1592.782,408.059c-15.05,360.546-62.089,1115.616-664.118,1046.783C570.17,1414.448,49.84,1146.123,49.84,785.219S529.124,528.067,884.3,465.294C1257.449,399.2,1617.572-177.1,1592.782,408.059Z" transform="translate(-49.84 -148.126)"/></g><g transform="translate(25.833 39.922)"><path class="i" d="M1584.044,410.6c-14.789,358.722-64.565,1104.312-660.567,1036.685C566.742,1407.57,51.82,1140.32,51.82,781.3s474.561-260.67,828.006-322.368C1250.927,393.982,1608.379-168.826,1584.044,410.6Z" transform="translate(-51.82 -151.173)"/></g><g transform="translate(32.315 49.831)"><path class="j" d="M1575.252,413.175C1560.723,770.04,1508.211,1506.183,918.2,1439.729,563.259,1400.736,53.81,1134.561,53.81,777.37S523.647,513.214,875.333,452.591C1244.382,388.808,1599.162-160.546,1575.252,413.175Z" transform="translate(-53.81 -154.215)"/></g><g transform="translate(38.765 59.699)"><path class="k" d="M1566.482,415.783c-14.268,355.041-69.516,1081.7-653.531,1016.423C559.832,1393.9,55.79,1128.8,55.79,773.463S520.937,505.822,870.863,446.274C1237.86,383.631,1590-152.237,1566.482,415.783Z" transform="translate(-55.79 -157.244)"/></g><g transform="translate(45.215 69.53)"><path class="l" d="M1557.744,418.417c-14.007,353.184-71.992,1070.4-650.013,1006.292C556.4,1387.116,57.77,1123.091,57.77,769.581s460.423-271.126,808.623-329.6C1231.337,378.479,1580.808-143.9,1557.744,418.417Z" transform="translate(-57.77 -160.262)"/></g><g transform="translate(51.665 79.325)"><path class="m" d="M1548.975,421.075c-13.747,351.36-74.337,1057.859-646.495,996.193C553.042,1379.611,59.75,1117.411,59.75,765.757s455.732-274.644,802.174-332.01C1224.783,373.352,1571.615-135.543,1548.975,421.075Z" transform="translate(-59.75 -163.269)"/></g><g transform="translate(58.148 89.084)"><path class="n" d="M1540.182,423.727c-13.519,349.536-76.813,1046.425-642.944,986.062-347.614-37.038-835.5-298.066-835.5-647.9S512.716,483.8,857.431,427.505C1218.238,368.251,1562.4-127.126,1540.182,423.727Z" transform="translate(-61.74 -166.265)"/></g><g transform="translate(64.597 98.795)"><path class="o" d="M1531.445,426.444c-13.258,347.679-79.289,1034.991-639.426,975.931C546.2,1365.956,63.72,1106.1,63.72,758.128S510.005,476.512,852.961,421.3C1211.716,363.182,1553.205-118.708,1531.445,426.444Z" transform="translate(-63.72 -169.246)"/></g><g transform="translate(71.08 108.469)"><path class="p" d="M1522.652,429.187c-13,345.855-81.732,1023.557-635.908,965.833-344-35.833-821.035-294.548-821.035-640.664s441.562-285.1,782.758-339.242C1205.171,358.172,1544.022-110.265,1522.652,429.187Z" transform="translate(-65.71 -172.215)"/></g><g transform="translate(77.53 118.087)"><path class="q" d="M1513.882,431.968c-12.737,344-84.208,1012.123-632.389,955.7-342.174-35.214-813.8-292.756-813.8-637.048S504.528,462.035,844,408.97C1198.648,353.168,1534.828-101.783,1513.882,431.968Z" transform="translate(-67.69 -175.168)"/></g><g transform="translate(84.012 127.656)"><path class="r" d="M1505.122,434.783c-12.477,342.174-86.684,1000.689-628.871,945.571-340.382-34.595-806.571-291-806.571-633.432S501.8,454.85,839.506,402.892C1192.1,348.2,1525.612-93.267,1505.122,434.783Z" transform="translate(-69.68 -178.105)"/></g><g transform="translate(90.463 137.161)"><path class="s" d="M1496.352,437.61c-12.216,340.317-89.159,989.255-625.321,935.44C532.441,1339.107,71.66,1083.877,71.66,743.267S499.084,447.709,835.036,396.826C1185.581,343.271,1516.419-84.706,1496.352,437.61Z" transform="translate(-71.66 -181.023)"/></g><g transform="translate(96.912 146.618)"><path class="t" d="M1487.583,440.5c-11.955,338.493-91.6,977.853-621.8,925.341C529.014,1332.488,73.64,1078.4,73.64,739.645S496.341,440.6,830.566,390.793C1179.059,338.379,1507.225-76.112,1487.583,440.5Z" transform="translate(-73.64 -183.926)"/></g><g transform="translate(103.395 156.013)"><path class="u" d="M1478.79,443.439c-11.695,336.636-94.078,966.452-618.284,915.211C525.564,1325.911,75.63,1072.995,75.63,736.1S493.607,433.536,826.073,384.8C1172.482,333.529,1498.042-67.476,1478.79,443.439Z" transform="translate(-75.63 -186.81)"/></g><g transform="translate(109.845 165.367)"><path class="v" d="M1470.053,446.4c-11.434,334.812-96.554,955.018-614.766,905.079C522.169,1319.364,77.61,1067.587,77.61,732.547S490.864,426.5,821.6,378.842C1165.96,328.741,1488.849-58.778,1470.053,446.4Z" transform="translate(-77.61 -189.682)"/></g><g transform="translate(116.295 174.63)"><path class="w" d="M1461.283,449.431c-11.173,332.955-99.03,943.617-611.248,894.948C518.709,1312.912,79.59,1062.275,79.59,729.06S488.153,419.527,817.133,372.976C1159.438,323.983,1479.655-50.05,1461.283,449.431Z" transform="translate(-79.59 -192.525)"/></g><g transform="translate(122.745 183.81)"><path class="x" d="M1452.513,452.484c-10.913,331.131-101.505,932.247-607.73,884.85-329.5-30.849-763.213-280.345-763.213-611.7S485.442,412.579,812.663,367.136C1152.915,319.282,1470.462-41.264,1452.513,452.484Z" transform="translate(-81.57 -195.343)"/></g><g transform="translate(129.26 192.917)"><path class="y" d="M1443.73,455.619c-10.652,329.274-103.981,920.846-604.179,874.719C511.841,1300.107,83.57,1051.784,83.57,722.25s399.083-316.537,724.578-360.9C1146.348,314.632,1461.223-32.428,1443.73,455.619Z" transform="translate(-83.57 -198.139)"/></g><g transform="translate(135.677 201.94)"><path class="z" d="M1434.983,458.813c-10.391,327.45-106.457,909.445-600.661,864.588C508.4,1293.822,85.54,1046.606,85.54,718.929S479.965,398.906,803.7,355.613C1139.848,310.04,1452.085-23.534,1434.983,458.813Z" transform="translate(-85.54 -200.909)"/></g><g transform="translate(142.127 210.882)"><path class="aa" d="M1426.213,462.063c-10.131,325.625-108.933,898.076-597.143,854.457-324.094-28.96-741.55-275-741.55-600.856s389.7-323.508,711.711-365.726C1133.326,305.537,1442.892-14.583,1426.213,462.063Z" transform="translate(-87.52 -203.654)"/></g><g transform="translate(148.61 219.718)"><path class="ab" d="M1417.453,465.386c-9.87,323.769-111.408,886.707-593.625,844.359C501.526,1281.437,89.51,1036.5,89.51,712.5S474.488,385.479,794.738,344.368C1126.781,301.075,1433.676-5.559,1417.453,465.386Z" transform="translate(-89.51 -206.366)"/></g><g transform="translate(155.06 228.44)"><path class="ac" d="M1408.683,468.756c-10.261,321.912-113.884,875.338-590.106,834.228C498.1,1275.327,91.49,1031.531,91.49,709.392S471.777,378.88,790.268,338.845C1120.226,296.692,1423.537,3.544,1408.683,468.756Z" transform="translate(-91.49 -209.044)"/></g><g transform="translate(161.542 237.054)"><path class="ad" d="M1399.89,472.233c-10.033,320.088-116.36,863.969-586.556,824.1C494.648,1269.324,93.48,1026.636,93.48,706.354s375.531-334,692.3-372.958C1113.682,292.383,1414.289,12.722,1399.89,472.233Z" transform="translate(-93.48 -211.688)"/></g><g transform="translate(168.025 245.546)"><path class="ae" d="M1391.131,475.795c-9.773,318.231-118.836,852.6-583.038,813.966C491.231,1263.407,95.47,1021.859,95.47,703.4S466.278,365.918,781.283,328.032C1107.137,288.16,1405.073,21.985,1391.131,475.795Z" transform="translate(-95.47 -214.295)"/></g><g transform="translate(174.442 253.905)"><path class="af" d="M1382.383,479.449c-9.544,316.406-121.311,841.264-579.519,803.867C487.793,1257.614,97.44,1017.174,97.44,700.572s366.149-341,679.4-377.811C1100.637,284.028,1395.9,31.34,1382.383,479.449Z" transform="translate(-97.44 -216.861)"/></g><g transform="translate(180.892 262.134)"><path class="ag" d="M1373.613,483.193c-9.284,314.55-123.787,829.9-576,793.736C484.333,1251.879,99.42,1012.546,99.42,697.8s361.426-344.487,672.946-380.19C1094.115,280.019,1386.709,40.784,1373.613,483.193Z" transform="translate(-99.42 -219.387)"/></g><g transform="translate(187.375 270.189)"><path class="ah" d="M1364.853,487.025C1355.8,799.751,1238.59,1305.584,792.37,1270.63c-311.455-24.4-690.96-262.592-690.96-575.512s356.7-347.94,666.463-382.568C1087.57,276.1,1377.493,50.35,1364.853,487.025Z" transform="translate(-101.41 -221.86)"/></g><g transform="translate(193.857 278.079)"><path class="ai" d="M1356.061,491c-8.8,310.869-128.739,807.223-568.932,773.507C477.465,1240.764,103.4,1003.678,103.4,692.614S455.346,341.157,763.381,307.6C1081.025,272.292,1368.244,60.029,1356.061,491Z" transform="translate(-103.4 -224.282)"/></g><g transform="translate(200.307 285.784)"><path class="aj" d="M1347.291,495.111c-8.535,309.044-131.214,795.919-565.414,763.376-307.872-23.063-676.5-259.041-676.5-568.281S452.636,335.263,758.911,302.785C1074.47,268.613,1359.051,69.837,1347.291,495.111Z" transform="translate(-105.38 -226.647)"/></g><g transform="translate(206.79 293.301)"><path class="ak" d="M1338.531,499.349c-8.307,307.188-133.723,784.582-561.9,753.245C470.588,1230.182,107.37,995.312,107.37,687.929S449.9,329.5,754.418,298.1C1067.926,265.065,1349.867,79.808,1338.531,499.349Z" transform="translate(-107.37 -228.955)"/></g><g transform="translate(213.24 300.59)"><path class="al" d="M1329.761,503.744c-8.046,305.363-136.2,773.279-558.378,743.114C467.127,1225.13,109.35,991.368,109.35,685.809s337.809-361.915,640.6-392.21C1061.4,261.675,1340.674,89.9,1329.761,503.744Z" transform="translate(-109.35 -231.193)"/></g><g transform="translate(219.657 307.646)"><path class="am" d="M1321.014,508.268c-7.786,303.507-138.674,761.975-554.86,733.016C463.69,1220.24,111.32,987.553,111.32,683.883S444.47,318.451,745.5,289.23C1054.9,258.479,1331.5,100.162,1321.014,508.268Z" transform="translate(-111.32 -233.359)"/></g><g transform="translate(226.107 314.431)"><path class="an" d="M1312.244,513.013C1304.719,814.7,1171.094,1263.684,760.9,1235.9c-300.64-20.36-647.6-251.94-647.6-553.785S441.727,313.194,741.031,285.049C1048.382,255.438,1322.31,110.607,1312.244,513.013Z" transform="translate(-113.3 -235.442)"/></g><g transform="translate(232.622 320.931)"><path class="ao" d="M1303.461,517.955c-7.3,299.858-143.658,739.368-547.791,712.753C456.822,1211.033,115.3,980.528,115.3,680.54s323.671-372.4,621.216-399.474C1041.814,252.595,1313.1,121.25,1303.461,517.955Z" transform="translate(-115.3 -237.437)"/></g><g transform="translate(239.072 327.126)"><path class="ap" d="M1294.691,523.11c-7.036,298-146.134,728.064-544.272,702.622C453.362,1206.74,117.28,977.343,117.28,679.179S436.26,303.29,732.046,277.327C1035.292,249.963,1303.91,132.1,1294.691,523.11Z" transform="translate(-117.28 -239.338)"/></g><g transform="translate(245.522 332.983)"><path class="aq" d="M1285.921,528.5c-6.776,296.177-148.61,716.793-540.754,692.524C449.9,1202.746,119.26,974.391,119.26,678.084s314.257-379.408,608.316-404.3C1028.77,247.565,1294.717,143.226,1285.921,528.5Z" transform="translate(-119.26 -241.136)"/></g><g transform="translate(252.005 338.474)"><path class="ar" d="M1277.161,534.106c-6.515,294.32-151.118,705.522-537.236,682.393C446.484,1198.908,121.25,971.661,121.25,677.178S430.783,294.317,723.084,270.5C1022.192,245.454,1285.533,154.568,1277.161,534.106Z" transform="translate(-121.25 -242.822)"/></g><g transform="translate(258.455 343.553)"><path class="as" d="M1268.391,540.033c-6.222,292.5-153.594,694.25-533.718,672.262C443.024,1195.421,123.23,969.216,123.23,676.59S428.04,290.244,718.614,267.506C1015.67,243.6,1276.373,166.2,1268.391,540.033Z" transform="translate(-123.23 -244.381)"/></g><g transform="translate(264.905 348.203)"><path class="at" d="M1259.622,546.257c-5.961,290.639-156.07,683.012-530.167,662.131C439.6,1192.231,125.21,967.1,125.21,676.3S425.329,286.467,714.144,264.8C1009.148,242.034,1267.179,178.121,1259.622,546.257Z" transform="translate(-125.21 -245.809)"/></g><g transform="translate(271.387 352.409)"><path class="au" d="M1250.862,552.79c-5.7,288.815-158.578,671.741-526.649,652.032C436.147,1189.381,127.2,965.294,127.2,676.349S422.6,283,709.651,262.444C1002.6,240.781,1258,190.354,1250.862,552.79Z" transform="translate(-127.2 -247.1)"/></g><g transform="translate(277.837 356.13)"><path class="av" d="M1242.092,559.658c-5.44,286.991-161.054,660.5-523.131,641.9C432.719,1186.835,129.18,963.823,129.18,676.735s290.672-396.868,576-416.348C996.081,239.864,1248.835,202.923,1242.092,559.658Z" transform="translate(-129.18 -248.242)"/></g><g transform="translate(284.287 359.371)"><path class="aw" d="M1233.322,566.826c-5.147,285.134-163.529,649.264-519.613,631.771C429.259,1184.622,131.16,962.619,131.16,677.387S417.141,277.066,700.711,258.661C989.559,239.278,1239.674,215.857,1233.322,566.826Z" transform="translate(-131.16 -249.237)"/></g><g transform="translate(290.77 362.145)"><path class="ax" d="M1224.562,574.35c-4.886,283.31-166.038,638.058-516.095,621.64C425.809,1182.764,133.15,961.772,133.15,678.4S414.407,274.59,696.219,257.26C983.014,239.05,1230.49,229.082,1224.562,574.35Z" transform="translate(-133.15 -250.089)"/></g><g transform="translate(297.252 364.458)"><path class="ay" d="M1215.769,582.195c-4.593,281.453-168.513,626.819-512.544,611.541C422.359,1181.259,135.14,961.309,135.14,679.758s276.5-407.325,556.586-423.58C976.469,239.109,1221.307,242.627,1215.769,582.195Z" transform="translate(-135.14 -250.799)"/></g><g transform="translate(303.67 366.391)"><path class="az" d="M1207.022,590.3C1202.689,869.93,1036,1205.915,698,1191.712,418.921,1179.985,137.11,961.044,137.11,681.351S408.953,270.54,687.279,255.392C969.937,239.43,1212.2,256.435,1207.022,590.3Z" transform="translate(-137.11 -251.392)"/></g><g transform="translate(310.119 367.969)"><path class="ba" d="M1198.285,598.655c-4.039,277.772-173.53,604.407-505.54,591.279C415.461,1178.956,139.09,961.058,139.09,683.188s267.12-414.3,543.686-428.369C963.415,240,1203.041,270.488,1198.285,598.655Z" transform="translate(-139.09 -251.876)"/></g><g transform="translate(316.602 369.28)"><path class="bb" d="M1189.492,607.161c-3.746,275.948-175.973,593.234-501.99,581.148-275.459-10.2-546.423-227.117-546.423-503.13s262.4-417.749,537.236-430.747C956.87,240.751,1193.857,284.728,1189.492,607.161Z" transform="translate(-141.08 -252.279)"/></g><g transform="translate(323.052 370.386)"><path class="bc" d="M1180.722,615.841c-3.453,274.091-178.482,582.06-498.471,571.05C408.583,1177.476,143.06,961.565,143.06,687.377S400.765,266.11,673.846,254.187C950.348,241.645,1184.729,299.141,1180.722,615.841Z" transform="translate(-143.06 -252.618)"/></g><g transform="translate(329.502 371.346)"><path class="bd" d="M1171.952,624.623C1168.792,896.889,990.995,1195.51,677,1185.542c-271.876-8.633-531.959-223.566-531.959-495.9s252.982-424.753,524.336-435.6C943.826,242.674,1175.6,313.624,1171.952,624.623Z" transform="translate(-145.04 -252.913)"/></g><g transform="translate(336.017 372.215)"><path class="be" d="M1163.17,633.467c-2.345,270.442-183.466,559.713-491.4,550.788C401.683,1176.437,147.04,962.481,147.04,691.973S395.266,263.735,664.861,253.995C937.258,243.733,1167.014,328.169,1163.17,633.467Z" transform="translate(-147.04 -253.18)"/></g><g transform="translate(342.467 372.975)"><path class="bf" d="M1154.4,642.387c-2.085,268.586-185.941,548.573-487.884,540.689-268.292-7-517.5-220.015-517.5-488.633s243.5-431.789,511.371-440.454C930.736,244.868,1157.82,342.79,1154.4,642.387Z" transform="translate(-149.02 -253.413)"/></g><g transform="translate(348.917 373.675)"><path class="bg" d="M1145.63,651.317c-1.824,266.761-188.417,537.4-484.366,530.558C394.8,1175.719,151,963.652,151,696.858S389.811,261.616,655.921,254.026C924.214,246.045,1148.627,357.453,1145.63,651.317Z" transform="translate(-151 -253.628)"/></g><g transform="translate(355.367 374.328)"><path class="bh" d="M1136.892,660.311c-1.564,264.9-190.925,526.291-480.848,520.427C391.368,1175.4,152.98,964.274,152.98,699.337S387.1,260.609,651.451,254.094C917.659,247.253,1139.433,372.181,1136.892,660.311Z" transform="translate(-152.98 -253.828)"/></g><g transform="translate(361.817 374.946)"><path class="bi" d="M1128.122,669.33c-1.3,263.08-193.4,515.15-477.33,510.3-262.885-4.5-495.833-214.673-495.833-477.786s229.4-442.213,492.021-447.654C911.137,248.487,1130.272,386.9,1128.122,669.33Z" transform="translate(-154.96 -254.018)"/></g><g transform="translate(368.3 375.569)"><path class="bj" d="M1119.33,678.345c-1.042,261.223-195.877,504.042-473.779,500.2-261.093-3.616-488.6-212.914-488.6-474.17S381.624,258.609,642.489,254.309C904.592,249.749,1121.056,401.616,1119.33,678.345Z" transform="translate(-156.95 -254.209)"/></g><g transform="translate(374.782 376.138)"><path class="bk" d="M1110.57,687.4c-.782,259.4-198.385,492.933-470.261,490.067-259.3-2.736-481.369-211.122-481.369-470.554S378.89,257.661,638,254.436C898.047,251.016,1111.84,416.369,1110.57,687.4Z" transform="translate(-158.94 -254.384)"/></g><g transform="translate(381.232 376.689)"><path class="bl" d="M1101.8,696.43c-.521,257.575-200.861,482.314-466.743,479.936C377.58,1174.965,160.92,967,160.92,709.428s215.227-452.7,472.606-454.853C891.525,252.295,1102.647,431.135,1101.8,696.43Z" transform="translate(-160.92 -254.553)"/></g><g transform="translate(387.682 377.227)"><path class="bm" d="M1093.03,705.5c-.261,255.718-203.337,471.01-463.225,469.8C374.12,1174.625,162.9,967.737,162.9,712.019S373.436,255.8,629.056,254.723C885,253.583,1093.454,445.909,1093.03,705.5Z" transform="translate(-162.9 -254.718)"/></g><g transform="translate(394.132 377.753)"><circle class="bn" cx="459.706" cy="459.706" r="459.706"/></g></g></g><g class="bo" transform="translate(38.051 459.602)"><g transform="translate(236.045 1515.501)"><rect class="bp" width="72.459" height="21.904" rx="1.908" transform="translate(85.911 168.784)"/><rect class="bp" width="72.459" height="21.904" rx="1.908" transform="translate(161.739 190.694)"/><rect class="bp" width="72.459" height="21.904" rx="1.908" transform="translate(237.574 212.599)"/><rect class="bp" width="72.459" height="21.904" rx="1.908" transform="translate(85.911 135.927)"/><rect class="bp" width="72.459" height="21.904" rx="1.908" transform="translate(161.739 157.832)"/><rect class="bp" width="72.459" height="21.904" rx="1.908" transform="translate(237.574 179.742)"/><rect class="bp" width="72.459" height="21.904" rx="1.908" transform="translate(321.827 168.784)"/><rect class="bp" width="72.459" height="21.904" rx="1.908" transform="translate(397.656 190.694)"/><rect class="bp" width="72.459" height="21.904" rx="1.908" transform="translate(473.49 212.599)"/><rect class="bp" width="72.459" height="21.904" rx="1.908" transform="translate(321.827 135.927)"/><rect class="bp" width="72.459" height="21.904" rx="1.908" transform="translate(397.656 157.832)"/><rect class="bp" width="72.459" height="21.904" rx="1.908" transform="translate(473.49 179.742)"/><rect class="bp" width="72.459" height="21.904" rx="1.908" transform="translate(85.911 92.113)"/><rect class="bp" width="72.459" height="21.904" rx="1.908" transform="translate(161.739 114.017)"/><rect class="bp" width="72.459" height="21.904" rx="1.908" transform="translate(237.574 135.927)"/><rect class="bp" width="72.459" height="21.904" rx="1.908" transform="translate(85.911 59.251)"/><rect class="bp" width="72.459" height="21.904" rx="1.908" transform="translate(161.739 81.161)"/><rect class="bp" width="72.459" height="21.904" rx="1.908" transform="translate(237.574 103.065)"/><rect class="bp" width="72.459" height="21.904" rx="1.908" transform="translate(321.827 92.113)"/><rect class="bp" width="72.459" height="21.904" rx="1.908" transform="translate(397.656 114.017)"/><rect class="bp" width="72.459" height="21.904" rx="1.908" transform="translate(473.49 135.927)"/><rect class="bp" width="72.459" height="21.904" rx="1.908" transform="translate(321.827 59.251)"/><rect class="bp" width="72.459" height="21.904" rx="1.908" transform="translate(397.656 81.161)"/><rect class="bp" width="72.459" height="21.904" rx="1.908" transform="translate(473.49 103.065)"/><ellipse class="bq" cx="303.182" cy="55.149" rx="303.182" ry="55.149" transform="translate(0 310.941)"/><path class="br" d="M75.326,82.6,49.83,238.9l115.287-12.194-4.988-13.3-90.068,7.483L91.123,82.322Z" transform="translate(57.697 95.319)"/><path class="br" d="M47.775.554,202.969,0l44.9,339.763L92.116,360.825Z" transform="translate(55.318)"/><path class="a" d="M55.609,6.293H180.873l43.787,315.93L95.516,339.959Z" transform="translate(64.389 7.286)"/><path class="br" d="M134.3,166.051a30.881,30.881,0,0,0,2.4,4.5c2.993,4,8.674,4.628,12.936,7.239a1.191,1.191,0,0,1,.5.488c.194.46-.238.942-.654,1.231-3.231,2.267-7.472,2.317-11.423,2.289a15.237,15.237,0,0,1-3.952-.377c-2.09-.554-3.88-2.012-5.942-2.6a15.763,15.763,0,0,0-3.265-.46l-4.329-.294a10.2,10.2,0,0,1-3.375-.626,3.414,3.414,0,0,1-2.128-2.522,7.248,7.248,0,0,1,.5-2.71c.554-2.128.382-4.7,2.04-6.152a6.291,6.291,0,0,1,2.3-1.109,73.37,73.37,0,0,1,9.206-2.45C131.688,161.983,133.162,163.868,134.3,166.051Z" transform="translate(103.835 149.247)"/><path class="br" d="M110.006,177.686c.111,1.181.144,2.533-.709,3.359a3.786,3.786,0,0,1-1.857.831c-4.1.953-8.663,1.02-12.227-1.208a3.375,3.375,0,0,1-.964-.826,3.01,3.01,0,0,1-.488-1.524,13.077,13.077,0,0,1,.793-4.628,81.217,81.217,0,0,0,2.356-10.947c.044-.3,10.459,1.663,11.152,2.694.87,1.275.876,4.334,1.109,5.853Q109.7,174.471,110.006,177.686Z" transform="translate(79.164 149.601)"/><path class="bs" d="M151.859,112.441l2.771,25.768a89.7,89.7,0,0,1,.754,15.841c-.443,6.1-2.151,12.194-1.43,18.235.283,2.35.926,4.656,1.02,7.022a38.245,38.245,0,0,1-.238,4.711c-1.253,15.636,2.71,31.15,4.927,46.675a20.252,20.252,0,0,1,.233,5.809c-.288,1.968-.865,4.551.887,5.482l-16.451,5.964c-2.1-2.633-.709-6.729-1.109-10.071-.366-3.01-2.017-5.692-2.9-8.591a40.578,40.578,0,0,1-1.225-8.053c-1.436-14.727-5.842-29.071-6.873-43.831a19.953,19.953,0,0,0-.554-4.229,39.329,39.329,0,0,0-2.472-5.16,36.394,36.394,0,0,1-2.45-8.231l-3.52-16.489c-3.558,5.3-3.414,12.194-4.118,18.546-.987,8.868-3.193,17.587-4.988,26.344a52.358,52.358,0,0,0-.937,5.709c-.466,5.138.46,10.326-.033,15.458-.554,5.947-3.054,11.75-2.45,17.7.333,3.292,1.6,6.407,2.45,9.6s1.275,6.7-.028,9.738a29.93,29.93,0,0,0-14.25-1.574c-5.282-5.4-6.219-12.942-6.579-20.508s.51-15.142-.432-22.636c-.277-2.217-.709-4.379-.782-6.59-.233-7.089,3.176-13.724,4.872-20.613a43.62,43.62,0,0,0,.427-18.928c-.831-4.14-2.261-8.159-2.771-12.355-.693-5.881.482-11.806,1.663-17.614.793-3.919,1.58-7.837,2.478-11.734.964-4.185,2.112-8.458,4.689-11.883,4.124-5.482,11.446-7.915,18.291-7.383s13.236,3.647,18.889,7.527A71.212,71.212,0,0,1,151.859,112.441Z" transform="translate(76.076 70.615)"/><path class="bt" d="M121.886,62.425a4.783,4.783,0,0,0-.637,1.63,5.489,5.489,0,0,0,1.109,3.17,17.265,17.265,0,0,1,1.624,4.046,6.651,6.651,0,0,1,.238,2.7,6.512,6.512,0,0,1-.721,1.94,9.87,9.87,0,0,1-4.811,4.828,8.475,8.475,0,0,1-5.2.211,15.8,15.8,0,0,1-4.761-2.261,14.472,14.472,0,0,1-3.259-2.827,19.537,19.537,0,0,1-2.25-3.88c-1.153-2.411-2.322-4.988-2.112-7.632a2.55,2.55,0,0,1,.133-.7,3.785,3.785,0,0,1,.743-1.109,14.466,14.466,0,0,0,3.392-10.06l8.076,1.835c1.779.4,3.558.809,5.315,1.314,1.441.416,3.658.992,4.595,2.278S122.524,61.25,121.886,62.425Z" transform="translate(87.658 21.962)"/><circle class="bt" cx="14.677" cy="14.677" r="14.677" transform="translate(190.545 53.658)"/><path class="bu" d="M119.207,68.584a8.489,8.489,0,0,1,3.187-3.071c1.225-.854,2.466-1.945,2.7-3.425a2.455,2.455,0,0,1,.244-.964c.471-.709,1.591-.355,2.261.166a17.369,17.369,0,0,1,3.819,4.828A41.253,41.253,0,0,1,135,72.874c1.557,4.107,1.746,8.591,1.918,12.975.155,3.991.3,8.042-.665,11.911-.61,2.45-1.663,4.828-1.724,7.35-.183,9.162-3.364,17.919-3.586,27.081a70.261,70.261,0,0,0,.4,7.932l.521,5.947q-12.088-.693-24.11-2.123a46.12,46.12,0,0,0-1.729-8.042,174.552,174.552,0,0,1-5.6-33.112c-.427-5.942-.865-11.861-1.524-17.781-.593-5.382-1.757-10.8-1.059-16.168a22.32,22.32,0,0,1,2.272-6.995,4.611,4.611,0,0,1,1.774-2.123,4.794,4.794,0,0,1,1.253-.4,23.245,23.245,0,0,1,3.813-.449,2.627,2.627,0,0,1,.931.089,2.921,2.921,0,0,1,1.269,1.23,23.013,23.013,0,0,0,10.06,8.392Z" transform="translate(83.654 29.359)"/><path class="bv" d="M104.468,63.441c1.031,1.474,3.215,1.824,4.168,3.326a8.718,8.718,0,0,1,.726,1.979c.582,1.857,1.757,3.47,2.472,5.282,1.031,2.605,1.059,5.487,1.07,8.286a27.419,27.419,0,0,1-.51,6.651c-.333,1.369-.876,2.672-1.275,4.024a19.676,19.676,0,0,0-.743,7.095,2.9,2.9,0,0,0,.4,1.468,3.187,3.187,0,0,0,1.419.965,10.5,10.5,0,0,0,5.1,1.28,1.868,1.868,0,0,0,1.014-.338,2.255,2.255,0,0,0,.5-.66l1.109-1.873c1-1.713,2.051-3.63,1.663-5.587a11.084,11.084,0,0,0-1.258-2.866A33.682,33.682,0,0,1,118.513,88c-1.768-5.083-3.558-10.237-3.957-15.6a13.713,13.713,0,0,1,.665-6.053,17.237,17.237,0,0,1,1.951-3.375,1.447,1.447,0,0,0-1.557-.527,9.266,9.266,0,0,0-1.613.671,7.652,7.652,0,0,1-5.083-.033,8.884,8.884,0,0,0-2.328-.787C106.364,62.322,104.507,63.508,104.468,63.441Z" transform="translate(91.586 33.328)"/><path class="bu" d="M113.451,67.361c-.333-.266-.848-.51-1.142-.2a1.285,1.285,0,0,0-.211.449,2.983,2.983,0,0,1-1.907,1.458c-.77.3-1.6.466-2.067-.105a1.253,1.253,0,0,1,.072-1.48,4.523,4.523,0,0,1,1.214-1.025,11.85,11.85,0,0,0,4.833-7.6,3.614,3.614,0,0,1,1.325,2.289c.183.881.205,1.79.388,2.672a37.444,37.444,0,0,1,1.014,3.725,19.462,19.462,0,0,1,0,2.051,12.589,12.589,0,0,0,.233,1.984C115.906,70.2,114.992,68.586,113.451,67.361Z" transform="translate(95.578 29.347)"/><path class="bu" d="M109.86,66.456c-.554-.527-1.109-1.025-1.663-1.563a21.56,21.56,0,0,1-5.36-8.508A3.2,3.2,0,0,0,101.33,58.6a3.4,3.4,0,0,0,.732,1.8,28.09,28.09,0,0,1,4.063,10.869,3.237,3.237,0,0,1,2.8-1.491c.876,0,4.805,2.328,5.088,1.74C114.427,70.6,110.525,67.082,109.86,66.456Z" transform="translate(87.951 26.488)"/><path class="br" d="M139.918,61.425A46,46,0,0,0,158.53,72.693a4.18,4.18,0,0,1,1.879.953,3.84,3.84,0,0,1,.782,1.718,97.536,97.536,0,0,1,2.256,16.2,9.024,9.024,0,0,1-.055,2.7,8.533,8.533,0,0,1-2.372,3.719c-3.181,3.409-6.812,6.973-7.35,11.606a18.541,18.541,0,0,1-.316,2.66c-.277,1.031-.892,1.94-1.269,2.943-1.851,4.938,2.333,10.919-.216,15.519a28.012,28.012,0,0,1,2.8,8.458,11.007,11.007,0,0,0,.759,3.259c.759,1.585,2.322,2.594,3.553,3.88,3.752,3.847,4.212,9.733,4.434,15.1.139,3.026.094,6.5-2.217,8.486a9.7,9.7,0,0,1-4.905,1.824c-2.322.388-4.85.665-6.906-.482a11.1,11.1,0,0,1-3.436-3.642c-1.818-2.644-3.641-5.282-5.365-7.992-2.727-4.273-5.3-9.156-4.512-14.167a32.911,32.911,0,0,1-3.819,14.76,20.312,20.312,0,0,1-11.484,9.672c-4.916,1.474-10.664.432-14.328-3.159a19.363,19.363,0,0,1-3.054-4.118,40.2,40.2,0,0,1-4.512-11.479,4.463,4.463,0,0,1,.111-3.154c.249-.443.632-.793.892-1.23.876-1.491.033-3.37-.815-4.889-1.291.122-2.217-1.4-2.1-2.694a11.369,11.369,0,0,1,1.441-3.6c1.607-3.481,1.253-7.532.477-11.285s-1.934-7.483-1.846-11.313c.094-4.052-2.821-7.7-5.044-11.085-1.242-1.907-2.688-3.68-3.769-5.681A18.329,18.329,0,0,1,86.775,82.46a35.969,35.969,0,0,1,3.037-6.773l1.829-3.431a5.659,5.659,0,0,1,3.88-3.326l12.654-4.988a19.04,19.04,0,0,0,4.567-2.284c1.546-1.164,2.7-2.771,4.174-4.013a2.339,2.339,0,0,1,1.663-.726c1.186.105,1.607,1.6,1.729,2.771.277,2.616,2.217,4.833,2.877,7.377,3.569,14.051,11.124,27.009,13.2,41.354A150.315,150.315,0,0,1,144.02,91.96a13.67,13.67,0,0,0,1.181-2.389,10.2,10.2,0,0,0,.394-3.708,48.5,48.5,0,0,0-2.056-10.62C142.307,70.5,141.2,66.126,139.918,61.425Z" transform="translate(70.27 27.107)"/><path class="br" d="M130.018,85.8c.244,2.361.482,4.728.92,7.061.51,2.7,1.286,5.338,2.056,7.976a20.756,20.756,0,0,0,1.607,4.284,5.51,5.51,0,0,1,.593,1.269c.272,1.109-.349,2.217-.615,3.326-.8,3.326,1.6,7.023.089,10.088a19.262,19.262,0,0,0-1.546,2.7,8.091,8.091,0,0,0,.183,3.558c.471,3.326-.665,6.707-1.785,9.9l-1.907,5.4a50.079,50.079,0,0,0-5.9-9.284c-.859-1-1.8-1.923-2.588-2.976a20.874,20.874,0,0,1-2.771-5.4,46.8,46.8,0,0,1-2.866-14.256,9.75,9.75,0,0,1,.471-4.1,21.824,21.824,0,0,1,1.23-2.217,17.923,17.923,0,0,0,1.763-8.907,73.41,73.41,0,0,1,0-9.173,20.985,20.985,0,0,1,2.217-7.277,10.326,10.326,0,0,1,3.01-3.752,5.421,5.421,0,0,1,3.326-1.081c1.812.105,1.4,1.663,1.552,3.165Z" transform="translate(104.286 45.662)"/><path class="br" d="M87.652,83.188q-1.7,4.988-3.06,10.065-1.33,4.988-2.378,10.032a21.483,21.483,0,0,0-.6,4.512,20.185,20.185,0,0,0,.9,5.216c3.569,12.864,10.076,24.731,17.4,35.889a32.3,32.3,0,0,1,7.372-6.729,1.58,1.58,0,0,0,.554-.554,1.5,1.5,0,0,0-.177-1.3c-2.023-4.146-5.227-7.8-6.235-12.3-.421-1.873-.438-3.824-.915-5.687-.615-2.411-1.99-4.617-2.306-7.089-.338-2.694.554-5.631-.709-8.02,2.577-1,4.068-3.658,5.16-6.2a33.968,33.968,0,0,0,2.483-8.153,24.532,24.532,0,0,0-3-15.6,24.942,24.942,0,0,0-5.016-6.3c-.66-.593-2.217-2.295-3.176-2.278-1.28.028-1.69,2.1-2.056,3.032C90.423,75.522,88.96,79.33,87.652,83.188Z" transform="translate(65.125 40.734)"/><path class="bt" d="M101.351,106.972c.166.122.355.288.31.488s-.205.249-.349.333a4.3,4.3,0,0,0-1.6,2.162,60.331,60.331,0,0,0-2.405,6.368,27.918,27.918,0,0,0-4.345-5.071c-1.264-1.164-2.677-2.267-3.353-3.841,0-.044,2.9-2.189,3.17-2.422.815-.726,1.84-2.738,2.683-3.181.953-.5,1.862,1.458,2.588,2.245a22.015,22.015,0,0,0,3.3,2.921Z" transform="translate(74.384 78.988)"/><path class="bs" d="M134.728,60.6a2.721,2.721,0,0,0-.687-2,2.622,2.622,0,0,0-1.663-.46c-3.231-.105-6.574.438-9.622-.648-2.006-.715-3.719-2.09-5.676-2.943s-4.462-1.081-6.041.355c-1.2,1.109-1.524,2.81-1.94,4.379a25.673,25.673,0,0,1-4.783,9.489,5.888,5.888,0,0,1-3.27-3.215c-2.356-4.8-1.2-10.531.477-15.619.554-1.707,1.169-3.4,1.785-5.083l1.352-3.725a7.272,7.272,0,0,0,4.634-2.306l.582,1.413a7.372,7.372,0,0,0,4.157-1.469,2.254,2.254,0,0,0,2.633.826c.97-.283,1.807-.826,2.771-1.109,2.577-.831,5.326.449,8.031.593a32.14,32.14,0,0,1,3.431.1c3.193.515,5.448,3.52,6.424,6.6.648,2.051,1.186,4.573,3.209,5.3.044.776-1.33.926-1.447,1.663a1.275,1.275,0,0,0,.166.7l1.857,3.985a4.612,4.612,0,0,1-2.683-.133C137.588,59.265,134.811,62.1,134.728,60.6Z" transform="translate(86.08 5.44)"/><path class="bt" d="M161.655,61.942a72.808,72.808,0,0,1,2.217,9.273c.4,2.35.632,4.961-.715,6.923,5.132-7.721,10.492-15.675,18.291-20.657A16.7,16.7,0,0,1,177.1,44.6c.044-.466-6.4,1.968-6.895,2.245-2.261,1.258-4.334,2.821-6.54,4.168-1.142.693-5.9,2.333-5.942,3.326,0,.637,1.89,2.588,2.245,3.259a25.316,25.316,0,0,1,1.691,4.345Z" transform="translate(153.244 12.773)"/><path class="a" d="M187.88,189.824a8.591,8.591,0,0,0-8.78-.665c-2.511,1.3-4.2,3.752-6.485,5.415-3.924,2.849-9.107,3.076-13.7,4.617a4.67,4.67,0,0,0-3.032,2.217,3.935,3.935,0,0,0,.227,3.087,7.992,7.992,0,0,0,3.8,3.919,15.886,15.886,0,0,0,6.718,1.059l19.843.233a162.533,162.533,0,0,1,18.291.9,6.85,6.85,0,0,0,4.19-.321c2.029-1.109,2.261-3.913,2.106-6.224a57.127,57.127,0,0,0-3.88-17.071c-.238-.6-.554-1.291-1.225-1.4a2,2,0,0,0-1.319.421c-5.6,3.326-12.687,5.2-18.64,2.544" transform="translate(150.869 176.089)"/><path class="br" d="M181.508,129.576c-2.217,12.876-.77,26.106,1.724,38.926a67.85,67.85,0,0,0,1.812,7.56c.892,2.827,2.1,5.543,2.932,8.386,2.128,7.205,1.829,14.91,1.513,22.431L188.037,241.1a24.822,24.822,0,0,0,.632,8.547c.349,1.109.776,2.494-.105,3.242a2.473,2.473,0,0,1-1.169.449,18.1,18.1,0,0,1-11.639-1.746l-.394-34.575c-.122-10.658-.249-21.361-1.89-31.887-1.3-8.369-3.564-16.628-3.714-25.1-.155-8.868,2.018-17.62,4.235-26.217.477-1.84,2.217-3.187,3.647-4.434a4.484,4.484,0,0,1,1.774-1.075C180.078,128.13,181.1,129.016,181.508,129.576Z" transform="translate(167.173 109.743)"/><path class="bw" d="M181.508,129.576c-2.217,12.876-.77,26.106,1.724,38.926a67.85,67.85,0,0,0,1.812,7.56c.892,2.827,2.1,5.543,2.932,8.386,2.128,7.205,1.829,14.91,1.513,22.431L188.037,241.1a24.822,24.822,0,0,0,.632,8.547c.349,1.109.776,2.494-.105,3.242a2.473,2.473,0,0,1-1.169.449,18.1,18.1,0,0,1-11.639-1.746l-.394-34.575c-.122-10.658-.249-21.361-1.89-31.887-1.3-8.369-3.564-16.628-3.714-25.1-.155-8.868,2.018-17.62,4.235-26.217.477-1.84,2.217-3.187,3.647-4.434a4.484,4.484,0,0,1,1.774-1.075C180.078,128.13,181.1,129.016,181.508,129.576Z" transform="translate(167.173 109.743)"/><path class="br" d="M156.03,113.141c-.82,3.375.92,6.873.726,10.343-.111,2.1-.937,4.2-.554,6.258s1.857,3.614,2.644,5.5a14.933,14.933,0,0,1,.9,4.922c.227,4.146.044,8.314-.111,12.443-.261,6.928-.455,13.9.46,20.763a64.953,64.953,0,0,0,4.805,17.265,29.927,29.927,0,0,1,1.79,4.65,33.2,33.2,0,0,1,.61,4.512,45.839,45.839,0,0,0,3.919,14.25c1.413,3.087,3.88,5.543,4.661,8.818.743,3.137.244,6.446.782,9.622.393,2.356,1.352,4.584,1.884,6.912.693,3.01.676,6.13,1.025,9.2,1,8.868,5.027,17.736,2.622,26.339-.482,1.729-1.23,3.486-.892,5.249a6.547,6.547,0,0,1,.4,2.577,12.207,12.207,0,0,1-1.009,1.99,3.657,3.657,0,0,0,1.02,3.841,10.914,10.914,0,0,0,3.6,2.128c4.085,1.746,8.314,3.52,12.748,3.481a3.427,3.427,0,0,0,1.569-.288,3.884,3.884,0,0,0,1.53-2.151l2.272-5.62a2.41,2.41,0,0,0,.172-2.112,3.936,3.936,0,0,0-.953-.887c-1.835-1.546-1.419-4.434-.931-6.757a98.585,98.585,0,0,0,2.062-18.124c.244-12.149-1.757-24.227-3.752-36.215a75.464,75.464,0,0,0-2.771-12.343c-1.38-3.991-3.414-7.832-3.082-11.978.355-4.478-.809-9.173,0-13.59s2.09-8.741,2.915-13.153a135.979,135.979,0,0,0,1.663-17.371,16.8,16.8,0,0,1,1.424-6.928c.649-1.23,1.591-2.284,2.317-3.475,1.873-3.1,2.173-6.939,3.963-10.088a35.272,35.272,0,0,0,2.638-4.4,12.3,12.3,0,0,0,.676-3.913,46.553,46.553,0,0,0-.554-10,65.1,65.1,0,0,0-30.485-7.072,36.165,36.165,0,0,0-11.95,1.879C163.158,110.963,159.854,112.853,156.03,113.141Z" transform="translate(151.032 85.939)"/><path class="a" d="M181.6,192.622c-1.63,2.029-1.519,4.927-2.561,7.316-1.264,2.9-4.079,4.756-6.751,6.446l-16.628,10.531a4.635,4.635,0,0,0-2.217,2.267,3.636,3.636,0,0,0,.083,1.99,8.635,8.635,0,0,0,5.809,5.9,17.182,17.182,0,0,0,4.5.46l7.477.1a43.784,43.784,0,0,0,6.823-.266c2.073-.3,4.09-.892,6.152-1.269,3.752-.682,7.61-.621,11.368-1.28a60.11,60.11,0,0,0,6.806-1.757,27.146,27.146,0,0,0,7.81-3.276,4.052,4.052,0,0,0,1.5-1.618,4.78,4.78,0,0,0-.044-2.932l-3.57-15.686a9.35,9.35,0,0,0-1.4-3.664,3.2,3.2,0,0,0-3.453-1.3,7.323,7.323,0,0,0-1.436.865,8.815,8.815,0,0,1-6.335,1.025,9.98,9.98,0,0,1-4.368-1.557c-.854-.7-1.109-1.8-1.835-2.594a5.2,5.2,0,0,0-7.732.3Z" transform="translate(148.182 182.06)"/><circle class="bt" cx="20.026" cy="20.026" r="20.026" transform="translate(298.98 32.502)"/><path class="bs" d="M154.623,60.357c1.918-1.075,1.918-4.174,3.88-5.2s4.19.759,5.448,2.566a23.6,23.6,0,0,1,3.741,8.8,4.426,4.426,0,0,0,1.02,2.505,3.924,3.924,0,0,0,2.428.793q3.8.377,7.6.687c2.827.227,5.809.41,8.375-.8a6.1,6.1,0,0,0,2.516-2.084,9.378,9.378,0,0,0,1.075-2.816c1.325-5.038,2.66-10.137,2.771-15.348a12.391,12.391,0,0,0-1.181-6.263,12.717,12.717,0,0,1-1.74-3.292c-.249-1.219.554-2.771,1.818-2.638a7.461,7.461,0,0,1-3.326-.632,2.555,2.555,0,0,1-1.391-2.832c-2.816.36-4.866-2.422-7.061-4.223a1.912,1.912,0,0,0-1.341-.554,4.839,4.839,0,0,0-1.109.427c-1.109.388-2.267-.349-3.4-.671-3.048-.854-6.923,1.208-9.184-1.009.216,1.413-1.519,2.361-2.949,2.333s-2.9-.554-4.257-.078a2.771,2.771,0,0,1-1.585,3.969l.671,1.463a3.78,3.78,0,0,0-2.91,2.727c-.737,2.91-.554,7.045-.377,10.038C154.246,49.527,155.526,59.864,154.623,60.357Z" transform="translate(148.936 -6.655)"/><path class="bv" d="M173.458,59.98c-10.06,11.313-12.621,27.236-14.766,42.229l-3.159,22.137c-.82,5.742-1.663,11.484-2.378,17.243a45.422,45.422,0,0,0-.421,11.878,64.793,64.793,0,0,0,2.328,9.084,85.666,85.666,0,0,1,3.326,24.1c.671-1.973,2.993-2.771,5.033-3.215a81.377,81.377,0,0,1,50.915,5.437c2.8-7.843,2.272-16.423,3.054-24.715,1.108-11.822,4.927-23.279,6.058-35.079.416-4.4.466-8.813.51-13.23a44.293,44.293,0,0,0-.61-9.694,40.69,40.69,0,0,0-3.991-9.977,260,260,0,0,0-15.143-25.729Q200.035,64.2,195.5,58.2q-2.3-3.043-4.695-6.019c-1.546-1.923-2.217-3.592-4.672-2.439C181.489,51.916,176.833,56.184,173.458,59.98Z" transform="translate(147.189 18.359)"/><path class="bt" d="M173.23,100.1a54.322,54.322,0,0,1-7.355-.233,15.96,15.96,0,0,0-5.432,0,5.653,5.653,0,0,0-2.112,1.036,1.591,1.591,0,0,0,.9,2.771l1.9.166a5.329,5.329,0,0,1,3.392,1.109,2.117,2.117,0,0,1,.687,1.336c.116,1.291-1,2-2.006,2.533a15.9,15.9,0,0,0-3.913,2.605,5.421,5.421,0,0,0-1.624,3.326.643.643,0,0,0,.942.593c2.217-1.109,3.664-4.4,6.1-3.847a9.877,9.877,0,0,0-5.354,4.118,2.483,2.483,0,0,0,3.326,3.508,10.95,10.95,0,0,0,1.042-.693,25.614,25.614,0,0,0,4.4-4.567c-1.774,3.741-3.569,8.12-1.53,11.839a1.181,1.181,0,0,0,1.109.654c.643-.067.831-.671.937-1.2.333-1.713.416-3.52,1.258-5.044,1.951-3.536,6.762-3.88,10.426-5.6,4.4-2.04,7.4-6.429,8.619-11.119a8.547,8.547,0,0,0,.216-4.223c-.815-3.154-4.706-3.88-7.205-2.356C178.878,98.75,177.1,99.975,173.23,100.1Z" transform="translate(153.181 72.401)"/><path class="bw" d="M164.694,83.51c3.88,5.992,10.614,9.367,16.39,13.574a13.741,13.741,0,0,1,3.625,3.448,11.834,11.834,0,0,1,1.364,7.76,49.154,49.154,0,0,1-2.616,10.2l-2.422,7.233c-1.535,4.589-3.121,9.273-6.041,13.131-.748.981-1.618,2.029-1.585,3.259a4.213,4.213,0,0,0,.709,1.984,13.347,13.347,0,0,0,8.475,6.053,6.464,6.464,0,0,0,3.187,0,8.634,8.634,0,0,0,3.664-2.816c4.988-5.5,9.977-11.085,13.579-17.542,3.52-6.3,5.626-13.3,7.566-20.236a42.6,42.6,0,0,0,1.663-7.832,28.622,28.622,0,0,0-3.037-14.483A71.474,71.474,0,0,0,201.1,74.692a87.341,87.341,0,0,0-9.506-10.908c-6.03-5.637-13.408-8.951-21.478-5.753-5.7,2.261-7.832,6.978-8.342,13.02A19.809,19.809,0,0,0,164.694,83.51Z" transform="translate(157.826 26.949)"/><path class="bv" d="M165.642,82.775c3.88,5.992,10.62,9.367,16.39,13.574a13.786,13.786,0,0,1,3.608,3.47,11.828,11.828,0,0,1,1.363,7.76,49.164,49.164,0,0,1-2.622,10.2l-2.422,7.205c-1.535,4.589-3.12,9.267-6.041,13.131-.743.981-1.613,2.023-1.58,3.259a4.112,4.112,0,0,0,.709,1.979,13.341,13.341,0,0,0,8.469,6.058,6.486,6.486,0,0,0,3.193,0,8.655,8.655,0,0,0,3.664-2.81c4.988-5.509,9.977-11.085,13.579-17.542,3.52-6.3,5.626-13.3,7.566-20.242a42.171,42.171,0,0,0,1.663-7.826A28.708,28.708,0,0,0,210.149,86.5a70.957,70.957,0,0,0-8.114-12.549A87.377,87.377,0,0,0,192.507,63.1c-6.025-5.631-13.4-8.951-21.472-5.748-5.7,2.261-7.832,6.973-8.347,13.02a19.826,19.826,0,0,0,2.954,12.4Z" transform="translate(158.896 26.165)"/><path class="br" d="M234.2,169.376a20.5,20.5,0,0,1-.443,4.3c-.055.266-.116.554-.177.781-1.574,6.313-6.014,10.93-11.312,11.224h-.554c-5.6,0-10.343-4.833-11.906-11.49-.044-.177-.083-.355-.122-.554a20.511,20.511,0,0,1-.443-4.3c0-9.018,5.581-16.323,12.471-16.323S234.2,160.375,234.2,169.376Z" transform="translate(212.898 138.373)"/><path class="bw" d="M234.186,169.361a20.505,20.505,0,0,1-.443,4.3c-.055.266-.116.554-.177.781h-.554a25.361,25.361,0,0,1-4.079-.554,24.9,24.9,0,0,1-3.636.831,25.417,25.417,0,0,1-2.849.266h-.964a25.729,25.729,0,0,1-3.417-.228,25.036,25.036,0,0,1-5.357-1.33,25.254,25.254,0,0,1-2.893.776c-.044-.177-.083-.355-.122-.554a20.5,20.5,0,0,1-.443-4.3c0-9.018,5.581-16.323,12.471-16.323S234.186,160.36,234.186,169.361Z" transform="translate(212.91 138.388)"/><path class="bv" d="M276.834,166.221a25.24,25.24,0,0,0-2.716-11.423l-14.666,4.562,12.876-7.571a25.347,25.347,0,0,0-19.045-10.853,25.307,25.307,0,0,0-1.979-2.616l-21.062,6.557,17.276-10.16a25.346,25.346,0,0,0-39.907,13.518L225.653,169l-19.571-14.156a25.352,25.352,0,0,0,22.686,44.729,25.452,25.452,0,0,0,16.229.449,25.374,25.374,0,0,0,30.828-24.753c0-.554,0-1.109-.055-1.663A25.293,25.293,0,0,0,276.834,166.221Z" transform="translate(196.867 111.121)"/><path class="bw" d="M276.416,151.808a67.565,67.565,0,0,0-23.468-.3c-8.807,1.458-17.808,4.661-26.422,2.322-5.055-1.375-9.422-4.556-14.361-6.324a27.258,27.258,0,0,0-14.827-.887,25.363,25.363,0,0,0,31.421,33.843,25.452,25.452,0,0,0,16.229.449,25.374,25.374,0,0,0,30.828-24.753c0-.554,0-1.109-.055-1.663A25.023,25.023,0,0,0,276.416,151.808Z" transform="translate(196.847 130.235)"/></g></g></g></svg>