<svg xmlns="http://www.w3.org/2000/svg" xmlns:xlink="http://www.w3.org/1999/xlink" width="888" height="1992" viewBox="0 0 888 1992"><defs><style>.a{fill:#fff;stroke:#707070;}.b{fill:#ececec;}.c{clip-path:url(#a);}.aa,.ab,.ac,.ad,.ae,.af,.ag,.ah,.ai,.aj,.ak,.al,.am,.an,.ao,.ap,.aq,.ar,.as,.at,.au,.av,.aw,.ax,.ay,.az,.ba,.bb,.bc,.bd,.d,.e,.f,.g,.h,.i,.j,.k,.l,.m,.n,.o,.p,.q,.r,.s,.t,.u,.v,.w,.x,.y,.z{fill:none;stroke:#7ebbdf;stroke-linecap:round;stroke-miterlimit:10;stroke-width:0.25px;}.d{stroke-dasharray:2.001 2.001 2.001 2.001 2.001 2.001;}.e{stroke-dasharray:1.997 1.997 1.997 1.997 1.997 1.997;}.f{stroke-dasharray:1.992 1.992 1.992 1.992 1.992 1.992;}.g{stroke-dasharray:2.005 2.005 2.005 2.005 2.005 2.005;}.h{stroke-dasharray:2.001 2.001 2.001 2.001 2.001 2.001;}.i{stroke-dasharray:1.996 1.996 1.996 1.996 1.996 1.996;}.j{stroke-dasharray:1.992 1.992 1.992 1.992 1.992 1.992;}.k{stroke-dasharray:2.006 2.006 2.006 2.006 2.006 2.006;}.l{stroke-dasharray:1.996 1.996 1.996 1.996 1.996 1.996;}.m{stroke-dasharray:2.006 2.006 2.006 2.006 2.006 2.006;}.n{stroke-dasharray:2.001 2.001 2.001 2.001 2.001 2.001;}.o{stroke-dasharray:1.997 1.997 1.997 1.997 1.997 1.997;}.p{stroke-dasharray:1.992 1.992 1.992 1.992 1.992 1.992;}.q{stroke-dasharray:2.007 2.007 2.007 2.007 2.007 2.007;}.r{stroke-dasharray:2.003 2.003 2.003 2.003 2.003 2.003;}.s{stroke-dasharray:1.998 1.998 1.998 1.998 1.998 1.998;}.t{stroke-dasharray:1.994 1.994 1.994 1.994 1.994 1.994;}.u{stroke-dasharray:2.009 2.009 2.009 2.009 2.009 2.009;}.v{stroke-dasharray:2.004 2.004 2.004 2.004 2.004 2.004;}.w{stroke-dasharray:2 2 2 2 2 2;}.x{stroke-dasharray:1.996 1.996 1.996 1.996 1.996 1.996;}.y{stroke-dasharray:2.007 2.007 2.007 2.007 2.007 2.007;}.z{stroke-dasharray:2.003 2.003 2.003 2.003 2.003 2.003;}.aa{stroke-dasharray:1.998 1.998 1.998 1.998 1.998 1.998;}.ab{stroke-dasharray:1.995 1.995 1.995 1.995 1.995 1.995;}.ac{stroke-dasharray:1.99 1.99 1.99 1.99 1.99 1.99;}.ad{stroke-dasharray:2.002 2.002 2.002 2.002 2.002 2.002;}.ae{stroke-dasharray:1.998 1.998 1.998 1.998 1.998 1.998;}.af{stroke-dasharray:1.994 1.994 1.994 1.994 1.994 1.994;}.ag{stroke-dasharray:1.99 1.99 1.99 1.99 1.99 1.99;}.ah{stroke-dasharray:2.006 2.006 2.006 2.006 2.006 2.006;}.ai{stroke-dasharray:2.002 2.002 2.002 2.002 2.002 2.002;}.aj{stroke-dasharray:1.999 1.999 1.999 1.999 1.999 1.999;}.ak{stroke-dasharray:1.995 1.995 1.995 1.995 1.995 1.995;}.al{stroke-dasharray:1.991 1.991 1.991 1.991 1.991 1.991;}.am{stroke-dasharray:2.007 2.007 2.007 2.007 2.007 2.007;}.an{stroke-dasharray:2.004 2.004 2.004 2.004 2.004 2.004;}.ao{stroke-dasharray:2 2 2 2 2 2;}.ap{stroke-dasharray:1.997 1.997 1.997 1.997 1.997 1.997;}.aq{stroke-dasharray:1.994 1.994 1.994 1.994 1.994 1.994;}.ar{stroke-dasharray:2.007 2.007 2.007 2.007 2.007 2.007;}.as{stroke-dasharray:2.004 2.004 2.004 2.004 2.004 2.004;}.at{stroke-dasharray:2.001 2.001 2.001 2.001 2.001 2.001;}.au{stroke-dasharray:1.998 1.998 1.998 1.998 1.998 1.998;}.av{stroke-dasharray:1.995 1.995 1.995 1.995 1.995 1.995;}.aw{stroke-dasharray:2.009 2.009 2.009 2.009 2.009 2.009;}.ax{stroke-dasharray:2.006 2.006 2.006 2.006 2.006 2.006;}.ay{stroke-dasharray:2.003 2.003 2.003 2.003 2.003 2.003;}.az{stroke-dasharray:1.995 1.995 1.995 1.995 1.995 1.995;}.ba{stroke-dasharray:1.99 1.99 1.99 1.99 1.99 1.99;}.bb{stroke-dasharray:2.008 2.008 2.008 2.008 2.008 2.008;}.bc{stroke-dasharray:2.006 2.006 2.006 2.006 2.006 2.006;}.bd{stroke-dasharray:2.004 2.004 2.004 2.004 2.004 2.004;}.be{clip-path:url(#b);}.bf{fill:#85848b;}.bg{fill:#504f60;}.bh{opacity:0.2;}.bi{fill:#1694f3;}.bj{fill:#514e7f;}.bk{fill:#464353;}.bl{fill:#a1616a;}.bm,.bx{opacity:0.1;}.bn{fill:#33323d;}.bo{fill:#8dd070;}.bp{fill:#fbbebe;}.bq,.bu{opacity:0.05;}.br{fill:#3f3d56;}.bs{fill:url(#c);}.bt{fill:#2d293d;}.bv{fill:#ffcdd3;}.bw{fill:#575988;}</style><clipPath id="a"><rect class="a" width="888" height="1992" transform="translate(0 3416)"/></clipPath><clipPath id="b"><rect class="b" width="566" height="566" transform="translate(235.574 1987.946)"/></clipPath><linearGradient id="c" x1="0.5" y1="1" x2="0.5" gradientUnits="objectBoundingBox"><stop offset="0" stop-color="gray" stop-opacity="0.251"/><stop offset="0.54" stop-color="gray" stop-opacity="0.122"/><stop offset="1" stop-color="gray" stop-opacity="0.102"/></linearGradient></defs><g class="c" transform="translate(0 -3416)"><g transform="matrix(-0.156, 0.988, -0.988, -0.156, 1068.547, 3412.391)"><g transform="translate(205.836 213.83)"><path class="d" d="M1823.336,1158.38c-267.663,1132.374-476.908,538.906-886.631,473.423C525.3,1566.065,96.04,1584.847,96.04,1143.295S666.44,80.271,1054.582,239.24C1910.422,589.771,2006.837,382.231,1823.336,1158.38Z" transform="translate(-96.04 -213.83)"/></g><g transform="translate(204.936 218.847)"><path class="e" d="M1051.922,239.9c857.195,347.3,947.777,148.642,766.932,914.187-263.709,1116.318-470.749,540.4-883.87,474.026-409.2-65.484-845.677-51.878-839-488.521C102.746,697.948,659.878,81.722,1051.922,239.9Z" transform="translate(-95.911 -214.549)"/></g><g transform="translate(203.798 223.837)"><path class="f" d="M1049.438,240.572c858.685,344.161,943.416,154.219,765.207,909.295-259.823,1100.293-464.677,541.839-881.177,474.58-407.032-65.273-850.616-56.86-837.433-488.53C109.577,694.057,653.511,83.14,1049.438,240.572Z" transform="translate(-95.748 -215.263)"/></g><g transform="translate(202.517 228.822)"><path class="g" d="M1047.039,241.247c860.151,341,939.083,159.811,763.461,904.427-255.91,1084.393-458.587,543.314-878.467,475.173-404.915-65.063-855.482-61.942-835.849-488.582C116.5,690.109,647.192,84.557,1047.039,241.247Z" transform="translate(-95.564 -215.977)"/></g><g transform="translate(200.988 233.36)"><path class="h" d="M1044.791,242.13c862.483,335.7,934.8,165.387,761.783,899.619-252.027,1068.666-452.549,544.869-875.838,475.8-402.758-64.817-860.25-67-834.338-488.59C123.586,686.3,641.4,85.155,1044.791,242.13Z" transform="translate(-95.346 -216.627)"/></g><g transform="translate(199.306 238.22)"><path class="i" d="M1042.673,242.862c864.192,332.064,930.582,170.92,760.165,894.79-248.2,1052.872-446.573,546.28-873.272,476.343C528.873,1549.429,64.618,1541.919,96.678,1125.4,130.809,682.244,635.409,86.374,1042.673,242.862Z" transform="translate(-95.105 -217.323)"/></g><g transform="translate(197.553 243.093)"><path class="j" d="M1040.6,243.587c865.9,328.533,926.382,176.422,758.517,889.98C1554.775,2170.72,1358.5,1681.289,928.394,1610.486c-398.6-64.4-869.485-77.248-831.368-488.635C138.087,678.116,629.468,87.627,1040.6,243.587Z" transform="translate(-94.854 -218.02)"/></g><g transform="translate(195.56 247.959)"><path class="k" d="M1038.674,244.315c867.619,325.018,922.237,181.9,756.91,885.192C1555.047,2151.059,1360.94,1678.662,927.37,1607,530.847,1542.8,53.431,1524.563,97.4,1118.363,145.535,673.931,623.667,88.881,1038.674,244.315Z" transform="translate(-94.569 -218.717)"/></g><g transform="translate(193.602 252.818)"><path class="h" d="M1036.683,245.046c869.353,321.555,918.083,187.338,755.332,880.364-236.7,1005.963-428.679,550.607-865.659,478.045C531.91,1539.51,48.107,1515.864,97.83,1114.835,153.033,669.679,617.853,90.138,1036.683,245.046Z" transform="translate(-94.289 -219.413)"/></g><g transform="translate(191.5 257.688)"><path class="l" d="M1034.826,245.771c871.073,318.112,913.926,192.752,753.742,875.606-232.876,990.5-422.78,552.013-863.177,478.558C533.006,1536.2,42.97,1507.172,98.283,1111.329,160.658,665.325,612.126,91.429,1034.826,245.771Z" transform="translate(-93.988 -220.11)"/></g><g transform="translate(189.393 262.535)"><path class="f" d="M1032.988,246.5c872.8,314.669,909.829,198.1,752.2,870.712-229.1,974.9-416.7,552.275-860.67,479.022-390.216-64.392-886.558-97.975-825.744-488.546C168.313,660.885,606.418,92.709,1032.988,246.5Z" transform="translate(-93.686 -220.804)"/></g><g transform="translate(187.165 267.396)"><path class="m" d="M1031.163,247.231c874.488,311.291,905.739,203.452,750.63,865.931-225.3,959.562-410.785,553.608-858.208,479.554-388.129-64.224-890.45-103.13-824.3-488.516C176.123,656.49,600.732,94,1031.163,247.231Z" transform="translate(-93.367 -221.5)"/></g><g transform="translate(184.962 272.25)"><path class="n" d="M1029.378,247.963c876.179,307.97,901.665,208.774,749.066,861.212-221.5,944.26-404.886,554.848-855.719,480.08C536.637,1525.2,28.461,1480.913,99.814,1100.771,184.028,652.039,595.049,95.3,1029.378,247.963Z" transform="translate(-93.051 -222.195)"/></g><g transform="translate(182.664 277.118)"><path class="o" d="M1027.665,248.687c877.934,304.67,897.625,214.07,747.566,856.528-217.754,929.09-399.05,556.172-853.3,480.57-384.064-63.892-897.981-113.527-821.587-488.458C192,647.573,589.47,96.619,1027.665,248.687Z" transform="translate(-92.722 -222.892)"/></g><g transform="translate(180.326 281.962)"><path class="p" d="M1025.961,249.422c879.6,301.462,893.542,219.335,746.021,851.806-214.012,913.935-393.179,557.434-850.874,481.085C539.07,1518.587,19.546,1463.63,100.892,1093.893,200.1,643.093,583.871,97.913,1025.961,249.422Z" transform="translate(-92.388 -223.586)"/></g><g transform="translate(177.968 286.819)"><path class="q" d="M1024.224,250.152c881.292,298.237,889.5,224.577,744.476,847.171-210.238,898.921-387.317,558.7-848.41,481.61-379.975-63.563-905.016-123.857-818.844-488.4C208.3,638.563,578.289,99.235,1024.224,250.152Z" transform="translate(-92.05 -224.281)"/></g><g transform="translate(175.664 291.674)"><path class="r" d="M1022.514,250.883c882.992,295.071,885.477,229.794,742.979,842.565-206.471,883.95-381.468,560.011-846,482.136-377.958-63.36-908.352-129-817.482-488.374C216.549,634.063,572.7,100.554,1022.514,250.883Z" transform="translate(-91.72 -224.976)"/></g><g transform="translate(173.367 296.524)"><path class="s" d="M1020.792,251.614c884.639,291.957,881.447,234.981,741.435,837.928-202.708,869.08-375.624,561.262-843.538,482.61-375.939-63.2-911.514-134.124-816.111-488.344C224.9,629.585,567.1,101.874,1020.792,251.614Z" transform="translate(-91.391 -225.671)"/></g><g transform="translate(170.931 301.389)"><path class="t" d="M1019.161,252.341c886.312,288.868,877.453,240.149,739.919,833.382-199,854.273-369.8,562.565-841.15,483.137-373.936-63-914.622-139.221-814.809-488.33C233.371,625.059,561.594,103.221,1019.161,252.341Z" transform="translate(-91.042 -226.367)"/></g><g transform="translate(168.605 306.233)"><path class="u" d="M1017.4,253.076c887.939,285.8,873.384,245.3,738.409,828.872-195.244,839.6-363.972,563.831-838.726,483.671-371.919-62.841-917.562-144.3-813.391-488.364C241.9,620.614,556.024,104.532,1017.4,253.076Z" transform="translate(-90.709 -227.061)"/></g><g transform="translate(166.251 311.092)"><path class="v" d="M1015.716,253.806c889.544,282.786,869.38,250.414,736.878,824.381-191.5,824.905-358.2,565.087-836.284,484.158C546.4,1499.7-4.09,1413.041,104.239,1073.989,250.537,616.147,550.446,105.874,1015.716,253.806Z" transform="translate(-90.372 -227.757)"/></g><g transform="translate(163.876 315.951)"><path class="w" d="M1014.047,254.535c891.191,279.838,865.388,255.518,735.354,819.9-187.805,810.441-352.4,566.44-833.891,484.7-367.913-62.45-923.16-154.293-810.72-488.367C259.292,611.761,544.927,107.208,1014.047,254.535Z" transform="translate(-90.032 -228.452)"/></g><g transform="translate(161.588 320.827)"><path class="x" d="M1012.326,255.257c892.777,276.908,861.386,260.6,733.857,815.5-184.072,795.982-346.6,567.755-831.446,485.253-365.948-62.258-925.817-159.26-809.394-488.386C268.07,607.4,539.332,108.569,1012.326,255.257Z" transform="translate(-89.704 -229.15)"/></g><g transform="translate(159.249 325.681)"><path class="f" d="M1010.58,255.99c894.392,274,857.383,265.67,732.317,811.155-180.345,781.663-340.812,569.087-829.037,485.819-363.9-62.07-928.266-164.17-807.984-488.424C277.008,603.084,533.8,109.892,1010.58,255.99Z" transform="translate(-89.37 -229.845)"/></g><g transform="translate(156.935 330.555)"><path class="y" d="M1008.871,256.714c895.971,271.153,853.392,270.714,730.785,806.784-176.664,767.369-335.034,570.41-826.637,486.382C551.152,1488-17.619,1380.784,106.4,1061.38,286,598.824,528.236,111.244,1008.871,256.714Z" transform="translate(-89.038 -230.543)"/></g><g transform="translate(154.699 335.38)"><path class="z" d="M1007.112,257.421c897.526,268.33,849.349,275.748,729.277,802.516-172.946,753.221-329.3,571.755-824.184,486.925-359.9-61.7-932.945-173.888-805.281-488.521C295.094,594.628,522.636,112.608,1007.112,257.421Z" transform="translate(-88.718 -231.234)"/></g><g transform="translate(152.405 340.253)"><path class="aa" d="M1005.337,258.148c899.076,265.57,845.35,280.77,727.731,798.3-169.273,739.13-323.531,573.119-821.771,487.528-357.863-61.478-935.089-178.665-803.863-488.6C304.274,590.488,517.107,113.943,1005.337,258.148Z" transform="translate(-88.39 -231.932)"/></g><g transform="translate(150.194 345.149)"><path class="ab" d="M1003.566,258.865c900.582,262.83,841.356,285.778,726.224,794.088-165.568,725.164-317.774,574.533-819.322,488.141-355.9-61.3-937.227-183.425-802.523-488.7C313.558,586.45,511.512,115.3,1003.566,258.865Z" transform="translate(-88.073 -232.632)"/></g><g transform="translate(147.912 350.022)"><path class="ac" d="M1001.841,259.594c902.137,260.118,837.381,290.78,724.692,789.979-161.871,711.262-312.071,575.935-816.927,488.78-353.914-61.127-939.3-188.135-801.158-488.859C322.936,582.463,505.963,116.621,1001.841,259.594Z" transform="translate(-87.746 -233.33)"/></g><g transform="translate(145.684 354.918)"><path class="m" d="M1000.082,260.314c903.675,257.47,833.4,295.776,723.151,785.929-158.217,697.5-306.334,577.4-814.485,489.4-351.923-60.918-941.231-192.8-799.822-489.007C332.388,578.583,500.393,117.96,1000.082,260.314Z" transform="translate(-87.427 -234.032)"/></g><g transform="translate(143.457 359.819)"><path class="ad" d="M998.264,261.034C1903.412,515.877,1827.629,561.8,1719.9,1042.962,1565.37,1726.74,1419.3,1621.8,907.831,1533.043,557.9,1472.291-35.229,1335.638,109.4,1043.869,341.971,574.815,494.823,119.291,998.264,261.034Z" transform="translate(-87.108 -234.733)"/></g><g transform="translate(141.249 364.741)"><path class="ae" d="M996.494,261.745c906.674,252.239,825.392,305.742,720.092,777.939-150.846,670.184-294.919,580.344-809.665,490.778C558.981,1469.911-37.9,1328.5,109.867,1041.1,351.611,571.109,489.261,120.645,996.494,261.745Z" transform="translate(-86.792 -235.438)"/></g><g transform="translate(139.098 369.647)"><path class="af" d="M994.685,262.465c908.14,249.705,821.41,310.727,718.539,774.066-147.208,656.66-289.2,581.886-807.214,491.513-345.949-60.354-946.566-206.483-795.663-489.587C361.321,567.534,483.676,121.954,994.685,262.465Z" transform="translate(-86.484 -236.14)"/></g><g transform="translate(136.918 374.577)"><path class="ag" d="M992.9,263.177c909.614,247.233,817.444,315.708,717.037,770.25-143.539,643.26-283.5,583.452-804.815,492.23C561.118,1465.456-43.115,1314.7,110.8,1035.819,371.144,564.06,478.119,123.284,992.9,263.177Z" transform="translate(-86.172 -236.846)"/></g><g transform="translate(134.747 379.511)"><path class="ah" d="M991.054,263.887c911.06,244.741,813.463,320.684,715.478,766.44-139.874,629.9-277.845,585.037-802.36,493.005-341.978-59.972-949.8-215.342-792.927-490.108C381.054,560.693,472.517,124.606,991.054,263.887Z" transform="translate(-85.861 -237.552)"/></g><g transform="translate(132.648 384.449)"><path class="ai" d="M989.209,264.6c912.494,242.322,809.443,325.675,713.915,762.761-136.213,616.688-272.154,586.715-799.94,493.827C563.194,1461.358-48.1,1301.452,111.7,1030.759,391.028,557.448,466.93,125.912,989.209,264.6Z" transform="translate(-85.561 -238.26)"/></g><g transform="translate(130.51 389.395)"><path class="aj" d="M987.4,265.309c913.946,239.923,805.486,330.665,712.41,759.132-132.6,603.514-266.519,588.377-797.542,494.67C564.258,1459.462-50.5,1295.066,112.128,1028.342,401.122,554.348,461.378,127.207,987.4,265.309Z" transform="translate(-85.255 -238.968)"/></g><g transform="translate(128.376 394.367)"><path class="ak" d="M985.535,266.009c915.371,237.578,801.516,335.648,710.85,755.5C1567.432,1611.949,1435.536,1611.56,901.3,1517c-336.068-59.473-954.162-228.348-788.741-491.164C411.265,551.337,455.824,128.525,985.535,266.009Z" transform="translate(-84.949 -239.68)"/></g><g transform="translate(126.235 399.346)"><path class="al" d="M983.729,266.709C1900.541,501.974,1781.3,607.357,1693.036,1018.7c-125.354,577.431-255.194,591.819-792.7,496.391-334.1-59.3-955.566-232.582-787.358-491.569C421.513,548.483,450.251,129.827,983.729,266.709Z" transform="translate(-84.643 -240.393)"/></g><g transform="translate(124.263 404.33)"><path class="am" d="M981.821,267.408c918.211,232.972,793.6,345.653,707.776,748.54-121.717,564.492-249.578,593.575-790.234,497.318-332.114-59.136-956.852-236.739-785.945-492C431.775,545.732,444.642,131.119,981.821,267.408Z" transform="translate(-84.36 -241.106)"/></g><g transform="translate(122.094 409.326)"><path class="an" d="M980.026,268.1c919.6,230.739,789.619,350.664,706.233,745.142-118.13,551.626-243.981,595.4-787.843,498.235-330.147-58.974-958.167-240.9-784.6-492.458C442.186,543.16,439.1,132.4,980.026,268.1Z" transform="translate(-84.05 -241.822)"/></g><g transform="translate(119.915 414.327)"><path class="ao" d="M978.195,268.8c921.022,228.485,785.684,355.679,704.69,741.752-114.511,538.861-238.355,597.25-785.453,499.212C569.25,1450.948-62,1264.784,114.216,1016.823,452.7,540.688,433.6,133.667,978.195,268.8Z" transform="translate(-83.737 -242.538)"/></g><g transform="translate(117.956 419.358)"><path class="ap" d="M976.283,269.483c922.407,226.331,781.729,360.706,703.163,738.464-110.894,526.171-232.769,599.14-783,500.224-326.208-58.622-960.631-249.029-781.805-493.457C463.158,538.35,427.979,134.953,976.283,269.483Z" transform="translate(-83.457 -243.258)"/></g><g transform="translate(115.85 424.397)"><path class="aq" d="M974.46,270.166c923.778,224.154,777.8,365.738,701.62,735.222-107.326,513.5-227.162,601.054-780.613,501.258-324.248-58.51-961.85-253.081-780.42-494.036C473.748,536.147,422.472,136.23,974.46,270.166Z" transform="translate(-83.156 -243.98)"/></g><g transform="translate(113.824 429.449)"><path class="ac" d="M972.6,270.845c925.173,222.029,773.875,370.769,700.11,731.971-103.763,500.916-221.64,602.981-778.221,502.3C572.16,1446.8-68.531,1248.144,115.458,1010.569,484.4,534.109,416.9,137.5,972.6,270.845Z" transform="translate(-82.866 -244.703)"/></g><g transform="translate(111.723 434.506)"><path class="ar" d="M970.711,271.523c926.51,219.922,769.9,375.809,698.552,728.809-100.128,488.352-216.009,604.939-775.78,503.339C573.12,1445.493-70.681,1242.793,115.858,1008.5,495.123,532.169,411.363,138.753,970.711,271.523Z" transform="translate(-82.565 -245.427)"/></g><g transform="translate(109.638 439.576)"><path class="as" d="M968.884,272.2c927.907,217.834,765.995,380.864,697.015,725.7-96.579,475.887-210.471,606.972-773.365,504.444C574.121,1444.307-72.8,1237.557,116.252,1006.56,505.909,530.4,405.875,140,968.884,272.2Z" transform="translate(-82.266 -246.153)"/></g><g transform="translate(107.544 444.68)"><path class="at" d="M967.067,272.858c929.267,215.791,762.1,385.909,695.522,722.57-93.038,463.414-204.944,609-771.034,505.549-316.467-57.859-966.467-268.537-774.907-496.4C516.758,528.785,400.365,141.262,967.067,272.858Z" transform="translate(-81.966 -246.884)"/></g><g transform="translate(105.51 449.79)"><path class="au" d="M965.212,273.518c930.645,213.723,758.194,390.961,693.98,719.514-89.425,451.026-199.386,611.02-768.616,506.636C576.019,1441.984-77,1227.339,117.057,1002.633,527.591,527.259,394.833,142.519,965.212,273.518Z" transform="translate(-81.675 -247.615)"/></g><g transform="translate(103.404 454.867)"><path class="av" d="M963.348,274.154c931.978,211.707,754.294,396.019,692.438,716.5-85.894,438.645-193.875,613.1-766.2,507.781C576.976,1440.919-79.1,1222.422,117.455,1000.778,538.545,525.915,389.378,143.784,963.348,274.154Z" transform="translate(-81.374 -248.342)"/></g><g transform="translate(101.293 460.003)"><path class="j" d="M961.548,274.806C1894.881,484.548,1711.97,675.891,1652.5,988.319c-82.335,426.344-188.38,615.2-763.845,508.945-310.678-57.38-969.854-279.694-770.8-498.366C549.53,524.717,383.9,145.021,961.548,274.806Z" transform="translate(-81.072 -249.078)"/></g><g transform="translate(99.235 465.149)"><path class="aw" d="M959.709,275.461c934.7,207.8,746.5,406.212,689.42,710.689-78.818,414.141-183.081,618.607-761.438,510.245-308.854-56.651-970.957-283.41-769.423-499.175C560.537,523.708,378.411,146.224,959.709,275.461Z" transform="translate(-80.777 -249.814)"/></g><g transform="translate(97.041 470.326)"><path class="ax" d="M957.909,276.1c936.047,205.843,742.639,411.265,687.9,707.726-75.272,401.889-177.606,620.628-759.09,511.374-306.927-56.522-972.08-286.971-768.06-499.855C571.627,522.733,372.989,147.479,957.909,276.1Z" transform="translate(-80.463 -250.556)"/></g><g transform="translate(94.979 475.515)"><path class="ay" d="M956.089,276.729c937.423,203.9,738.78,416.322,686.421,704.793-71.731,389.635-172.1,622.667-756.742,512.555-305-56.432-973.193-290.5-766.695-500.55C582.676,521.919,367.521,148.724,956.089,276.729Z" transform="translate(-80.168 -251.299)"/></g><g transform="translate(92.891 480.715)"><path class="at" d="M954.281,277.357c938.755,201.957,734.926,421.37,684.9,701.826-68.235,377.442-166.606,624.7-754.357,513.735C581.75,1436.612-89.513,1198.978,119.5,991.635,593.789,521.217,362.072,149.964,954.281,277.357Z" transform="translate(-79.869 -252.043)"/></g><g transform="translate(90.728 485.928)"><path class="ae" d="M952.523,277.981c940.1,200.065,731.095,426.427,683.4,698.932-64.709,365.247-161.163,626.76-752.03,514.934-301.162-56.218-975.5-297.388-763.983-502C604.923,520.677,356.708,151.194,952.523,277.981Z" transform="translate(-79.559 -252.79)"/></g><g transform="translate(88.58 491.764)"><path class="az" d="M950.663,278.348c941.044,199.85,727.182,431.382,681.892,695.892-61.185,353.036-155.681,628.678-749.618,515.981-299.269-56.081-976.6-300.69-762.623-502.561C616.068,519.945,351.061,153.3,950.663,278.348Z" transform="translate(-79.251 -253.625)"/></g><g transform="translate(86.385 496.912)"><path class="p" d="M948.94,279c942.482,197.634,723.379,436.487,680.409,693.054-57.711,340.908-150.26,630.769-747.314,517.209-297.368-56-977.815-304.032-761.3-503.343C627.258,519.682,345.733,154.394,948.94,279Z" transform="translate(-78.937 -254.362)"/></g><g transform="translate(84.183 502.052)"><path class="ba" d="M947.225,279.656c943.92,195.421,719.583,441.506,678.93,690.179-54.2,328.836-144.812,632.854-745.016,518.434-295.471-55.916-979.031-307.33-759.972-504.083C638.469,519.574,340.417,155.453,947.225,279.656Z" transform="translate(-78.622 -255.098)"/></g><g transform="translate(82.049 507.202)"><path class="bb" d="M945.461,280.309C1890.789,473.566,1661.2,726.881,1622.9,967.682c-50.7,316.758-139.37,634.96-742.664,519.675-293.531-55.836-980.219-310.6-758.63-504.88C649.654,519.589,335.076,156.5,945.461,280.309Z" transform="translate(-78.316 -255.836)"/></g><g transform="translate(79.883 512.365)"><path class="bc" d="M943.69,280.956c946.791,191.057,711.987,451.628,675.992,684.568-47.249,304.734-133.979,637.061-740.367,520.875-291.638-55.717-981.422-313.817-757.266-505.6C660.881,519.749,329.8,157.55,943.69,280.956Z" transform="translate(-78.006 -256.575)"/></g><g transform="translate(77.692 517.534)"><path class="bd" d="M1616.53,963.332c-43.762,292.691-128.559,639.159-738.04,522.112C588.7,1429.808-104.252,1168.486,122.505,979.093c549.555-459.108,202-820.5,819.468-697.492C1890.19,470.463,1650.146,738.279,1616.53,963.332Z" transform="translate(-77.692 -257.315)"/></g></g><g class="be" transform="translate(19.426 1955.055)"><g transform="translate(236 2087.883)"><rect class="bf" width="565.597" height="4.133" transform="translate(0 361.545)"/><path class="bg" d="M285.346,176.182c0,3.179-18.532,12.448-40.545,12.448s-39.166-9.269-39.166-12.448,17.842-2.156,39.877-2.156S285.346,173,285.346,176.182Z" transform="translate(162.754 112.382)"/><path class="bh" d="M285.346,175.018c0,3.179-18.532,12.448-40.545,12.448s-39.166-9.269-39.166-12.448" transform="translate(162.754 113.547)"/><path class="bi" d="M135.87,150.285c3.573.458,7.28.749,10.7-.361.539-.167,1.132-.539,1.078-1.078a1.3,1.3,0,0,0-.243-.539,33.286,33.286,0,0,1-3.233-6.159.539.539,0,0,0-.2-.28.506.506,0,0,0-.345,0c-1.579.415-2.942,1.433-4.51,1.87a6.413,6.413,0,0,1-2.457.183c-.711-.081-1.681-.668-2.328-.593C134.7,145.683,135.6,147.881,135.87,150.285Z" transform="translate(90.54 79.941)"/><path class="bi" d="M170.641,149.22c2.355-1.617,4.8-3.314,6.186-5.809a1.008,1.008,0,0,0,.167-.5,1.035,1.035,0,0,0-.2-.485A20.024,20.024,0,0,0,171.768,137a14.664,14.664,0,0,0-2.8,2.587c-.593.625-2.231,1.617-2.247,2.57,0,.539.625,1.164.916,1.617.393.582.765,1.175,1.121,1.778C168.96,145.847,170.83,149.1,170.641,149.22Z" transform="translate(123.339 75.04)"/><path class="bj" d="M160.428,155.565a2.4,2.4,0,0,1-.431,1.563,2.118,2.118,0,0,1-.905.539c-5,1.789-10.778-.442-15.762,1.32-1.024.361-1.994.884-3.023,1.229a16.449,16.449,0,0,1-3.772.668c-1.762.167-3.535.275-5.3.323a12.751,12.751,0,0,1-4-.35,4.8,4.8,0,0,1-3.066-2.43,2.333,2.333,0,0,1-.151-1.73,1.864,1.864,0,0,1,.329-.539,4.727,4.727,0,0,1,1.175-.954l1.838-1.186a12.337,12.337,0,0,1,2.786-1.477c.727-.237,1.5-.339,2.236-.539,2.581-.754,4.554-2.8,6.386-4.769l2.5-2.667a2.517,2.517,0,0,1,.868-.7,2.4,2.4,0,0,1,1.078-.1,14.409,14.409,0,0,1,6.817,2.285,8.831,8.831,0,0,0,1.681.992,6,6,0,0,0,4.7-.582c.641-.345.5-.539.771-1.153s.927-1.008,1.5-.447a1.585,1.585,0,0,1,.356.679,19.116,19.116,0,0,1,.334,5.556,2.447,2.447,0,0,0,.108.862,4.879,4.879,0,0,0,.49.8,1.815,1.815,0,0,1,.1.2,5.481,5.481,0,0,1,.361,2.6Z" transform="translate(79.988 81.876)"/><path class="bk" d="M160.428,150.937A2.4,2.4,0,0,1,160,152.5a2.118,2.118,0,0,1-.905.539c-5,1.789-10.778-.442-15.762,1.32-1.024.361-1.994.884-3.023,1.229a16.448,16.448,0,0,1-3.772.668c-1.762.167-3.535.275-5.3.323a12.752,12.752,0,0,1-4-.35,4.8,4.8,0,0,1-3.066-2.43,2.333,2.333,0,0,1-.151-1.73,1.865,1.865,0,0,1,.329-.539c.291.609.5,1.417.684,1.708a3.5,3.5,0,0,0,2.339,1.687,5.809,5.809,0,0,0,2.156-.275c4.527-1.121,9.339-1.137,13.688-2.835a31.654,31.654,0,0,1,4.484-1.724,35.244,35.244,0,0,1,4.85-.393c2.554-.2,5.028-.975,7.544-1.38a5.48,5.48,0,0,1,.34,2.619Z" transform="translate(79.988 86.505)"/><path class="bj" d="M188.589,147.249a9.084,9.084,0,0,1-2.759,4.915,32.133,32.133,0,0,0-3.864,4.225c-1.293,1.978-1.875,4.43-3.557,6.1a9.754,9.754,0,0,1-2.156,1.536,15.04,15.04,0,0,1-2.775,1.277,20.707,20.707,0,0,1-7.841.426,7.055,7.055,0,0,1-2.49-.48,7.5,7.5,0,0,1-1.035-.636,4.941,4.941,0,0,1-1.617-1.617,1.617,1.617,0,0,1-.156-1.175,2.76,2.76,0,0,1,.749-1.142,17.793,17.793,0,0,1,1.9-1.708,11.355,11.355,0,0,0,2.468-2.155,6.962,6.962,0,0,0,.954-2.156,19.118,19.118,0,0,0,.7-4.122,13.069,13.069,0,0,1,.286-2.759c.4-1.423,1.455-2.694,1.336-4.166a1.04,1.04,0,0,1,.054-.63.878.878,0,0,1,.5-.307,8.785,8.785,0,0,1,2.576-.6,3,3,0,0,1,2.393.938c.366.442.609,1.078,1.148,1.25a1.821,1.821,0,0,0,.819.032,6.862,6.862,0,0,0,3.772-1.159,4.7,4.7,0,0,0,1.563-3.433c0-.49-.221-1,.539-1.078.571-.075,1.024.539,1.315.916a12.766,12.766,0,0,1,2.522,4.591,1.351,1.351,0,0,1,.48-.092,2.085,2.085,0,0,1,1.719.878A3.422,3.422,0,0,1,188.589,147.249Z" transform="translate(116.832 76.683)"/><path class="bk" d="M188.487,144.561a9.084,9.084,0,0,1-2.759,4.915,32.133,32.133,0,0,0-3.864,4.225c-1.293,1.978-1.875,4.43-3.557,6.1a9.755,9.755,0,0,1-2.155,1.536,15.041,15.041,0,0,1-2.775,1.277,20.706,20.706,0,0,1-7.841.426,7.054,7.054,0,0,1-2.49-.48,7.5,7.5,0,0,1-1.035-.636,4.941,4.941,0,0,1-1.617-1.617,3.94,3.94,0,0,1,1.617-.388c1.164.065,2.015,1.164,3.131,1.5,1.59.48,3.174-.641,4.785-1.024,1.051-.248,2.156-.183,3.2-.539a7.9,7.9,0,0,0,2.366-1.433,12.044,12.044,0,0,0,2.527-2.436,15.653,15.653,0,0,0,1.482-2.958,42.305,42.305,0,0,1,3-5.734,4.053,4.053,0,0,1,.609-.8,8.484,8.484,0,0,1,.825-.6,6.263,6.263,0,0,0,1.9-3.47,6.073,6.073,0,0,1,.426-1.159,2.085,2.085,0,0,1,1.719.878A3.422,3.422,0,0,1,188.487,144.561Z" transform="translate(116.934 79.37)"/><path class="bl" d="M119.269,66.135a11.43,11.43,0,0,1,3.233,3.772c.754,1.477,5.1,12.933,4.85,14.6,1.417-1.428,7.005-1.66,8.439-3.088.6-.6,3.826-3.584,4.311-4.279s4.085-2.156,4.478-2.888c1.471-2.635-10.433-12.621-8.908-15.223a.679.679,0,0,0,.124-.41.669.669,0,0,0-.2-.318,17.851,17.851,0,0,0-3.443-2.355,5.461,5.461,0,0,1-2.624-3.126,11.316,11.316,0,0,0-3.045,2.059q-3.276,2.808-6.44,5.728c-.824.765-2.42,1.784-2.8,2.878C116.791,64.659,118.483,65.494,119.269,66.135Z" transform="translate(73.154 -10.216)"/><path class="bj" d="M135.332,57.328a35.072,35.072,0,0,0-5.1,4.171A10.146,10.146,0,0,0,127,66.694c-.151.8-.129,1.617-.253,2.43-.539,3.53-3.589,6.116-4.936,9.42a16.332,16.332,0,0,0-.857,3.152,37.259,37.259,0,0,0-.62,6.186c-.032,2.01,1.94,3.395,2.662,5.27a32.18,32.18,0,0,1,1.283,5.728,67.871,67.871,0,0,0,3.233,10.616c2.657,7.34,11.268,27.628,13.925,34.973,8.142-2.042,29.816-6.736,37.026-11.042,2.4-1.433-16.678-17.605-14.108-18.721a.959.959,0,0,0,.722-1.353c-2.57-11.241-10.611-20.477-14.259-31.422-1.266-3.8-3.54-7.043-5.265-10.654-1.563-3.271-2.4-6.887-4.268-10a6.3,6.3,0,0,0-1.363-1.7,8.043,8.043,0,0,0-1.5-.911C137.353,58.158,136.361,57.851,135.332,57.328Z" transform="translate(76.361 -5.65)"/><circle class="bl" cx="12.745" cy="12.745" r="12.745" transform="translate(180.11 29.153)"/><path class="bk" d="M124.867,56.013a4.273,4.273,0,0,1,4.791-.69,2.315,2.315,0,0,1,1.423,2.3l6.321.1a12.691,12.691,0,0,1,3,.275,4.354,4.354,0,0,1,2.5,1.568c.076.1.162.226.291.242a.464.464,0,0,0,.291-.1,5.486,5.486,0,0,1,3.147-.539,17,17,0,0,1,9.253,4.063,2.99,2.99,0,0,1,1.078,1.342c.221.717-.043,1.617.539,2.129,0,5.928,2.037,11.467,3.395,17.244A7.735,7.735,0,0,0,162.8,86.7a11.085,11.085,0,0,1,2.042,3.05c1.153,3-.436,6.52.684,9.527a16.329,16.329,0,0,0,2.156,3.422,8.848,8.848,0,0,1,1.843,4.419c.049.722-.043,1.45,0,2.156a13.051,13.051,0,0,0,.539,2.861q.69,2.608,1.444,5.211c.819,2.8,1.886,5.825,4.4,7.318-6.062,1.029-12.454,2.037-18.23-.07a9.454,9.454,0,0,1-2.274-1.137c-2.085-1.487-3.093-4.031-3.993-6.434a30.382,30.382,0,0,1-2.226-8.3,9.533,9.533,0,0,0-.383-2.694c-.587-1.563-2.156-2.506-3.578-3.373a17.181,17.181,0,0,1-4.311-3.352,6.7,6.7,0,0,1-1.746-5.033c.108-.889.458-1.746.49-2.641a2.069,2.069,0,0,0-1.223-2.156c-4.413-1.336-6.52-6.564-7.5-11.069a35.538,35.538,0,0,1-.566-7.059l-.059-4.6a6.068,6.068,0,0,1-1.983-4.36,5.179,5.179,0,0,0-.027-1.444,3.983,3.983,0,0,0-1.013-1.536,13.709,13.709,0,0,1-2.42-3.39Z" transform="translate(80.952 -8.128)"/><path class="bk" d="M118.57,64.589c-.145,1.423.178,2.883-.14,4.279-.124.539-.34,1.078-.5,1.579a9.269,9.269,0,0,0,.587,6,33.41,33.41,0,0,0,3.066,5.308,8.621,8.621,0,0,1,.981,1.838,9.511,9.511,0,0,1,.377,2.1,65.118,65.118,0,0,0,1.5,8.471c.6,2.414,7.458,23.053,9.053,24.966a2.031,2.031,0,0,0,1.229.835,2.236,2.236,0,0,0,1.045-.216L139,118.5a2.113,2.113,0,0,0,.749-.41,1.929,1.929,0,0,0,.463-1.272c.232-2.63-6.639-23.414-7.512-25.9-2.64-7.5-6.154-14.733-7.873-22.5-.48-2.156-.733-5.475-2.312-7.194-.652-.711-.431-.41-1.212-.038a8.847,8.847,0,0,0-1.142.6,3.74,3.74,0,0,0-1.6,2.8Z" transform="translate(73.675 -2.133)"/><path class="bk" d="M149.022,85.884" transform="translate(105.416 23.272)"/><path class="bi" d="M123.383,80.852c.868,4.586,1.762,9.161,2.651,13.747l12.653-3.314c.1-1.326-.6-2.554-1.078-3.772-1.153-2.894-1.18-6.116-2.112-9.091-.706-2.263-1.935-4.343-2.6-6.623-.383-1.326-.577-2.694-.954-4.036a29.311,29.311,0,0,0-1.487-3.853A24.121,24.121,0,0,0,127.7,58.8c-1.617.6-3.341,1.3-4.263,2.764a5.971,5.971,0,0,0-.787,2.694c-.221,2.84.808,5.7.469,8.52a25.058,25.058,0,0,0,.264,8.078Z" transform="translate(78.675 -4.164)"/><path class="bk" d="M134.244,113.824c.711,2.694-.318,5.529-1.159,8.2a63.524,63.524,0,0,0-2.576,12.34,10.681,10.681,0,0,1-.636,3.12c-.4.9-1.078,1.66-1.541,2.517-1.272,2.253-1.239,5-.965,7.577.183,1.7.458,3.39.8,5.06.415,2.042.927,4.176.329,6.17,1-.221,1.681,1.078,1.617,2.1s-.393,2.156.1,3.034c1.239.453,1.25,2.156,1.212,3.476a29.235,29.235,0,0,0,.862,6.79q2.813,13.526,5.971,26.976c4.554,1.412,9.872,2.883,14.216.927a2.851,2.851,0,0,0,1.8-1.811,3.158,3.158,0,0,0-.172-1.39l-2.059-7.49a13.753,13.753,0,0,1-.738-5.54c.2-1.385.8-2.878.124-4.1-.232-.42-.6-.749-.868-1.148-1.078-1.579-.512-3.691-.426-5.6a4.44,4.44,0,0,0-.086-1.283,6.4,6.4,0,0,0-.614-1.407,21.512,21.512,0,0,1-2.371-10.7,2.646,2.646,0,0,0-.189-1.4,4.513,4.513,0,0,1-.35-.571,1.563,1.563,0,0,1,.113-1.029,9.427,9.427,0,0,1-1.66-1.617,2.323,2.323,0,0,0,.4-3.632,1.212,1.212,0,0,0,.577-2.085c-.264-.183-.614-.264-.8-.539-.291-.4-.054-.954.183-1.38l1.256-2.269c.938-1.687,1.148-3.772,2.155-5.389a40.387,40.387,0,0,0,3.319-7.577l3.627-10.007,2.441,2.118a7.717,7.717,0,0,1,2,2.285,9.859,9.859,0,0,1,.652,2.737c.894,5.432,4.311,10.142,5.577,15.493a10.2,10.2,0,0,0,1.153,3.46,7.545,7.545,0,0,1,.657.992,5.259,5.259,0,0,1,.275,1.644,7.668,7.668,0,0,0,3.233,5.5c1.2.824,2.694,1.39,3.346,2.694a5.022,5.022,0,0,0,.539,1.148c.582.7,1.838.781,2.085,1.66.14.49-.119,1.078.156,1.509a1.428,1.428,0,0,0,.6.447l3.508,1.751c3.923,1.962,5.928,6.467,8.821,9.748a21.017,21.017,0,0,1,2.641,3.492c1.25,2.236,1.827,5.044,3.939,6.467a5.96,5.96,0,0,1,1.53,1.137c.663.873.42,2.1.48,3.2s.9,2.409,1.945,2.075a7.668,7.668,0,0,0,0,4.069,20.477,20.477,0,0,0,12.427-5.033,4.9,4.9,0,0,0,2.021-3.395,1.218,1.218,0,0,0-.151-.674,1.923,1.923,0,0,0-.792-.6c-3.282-1.778-4.268-5.9-5.928-9.247-1.45-2.953-3.594-5.5-5.389-8.239-3.9-5.9-6.564-13.041-12.464-16.937-1.3-.857-2.808-1.617-3.46-3.034-.361-.792-.4-1.7-.69-2.517A2.184,2.184,0,0,0,185,146.464a11.294,11.294,0,0,0,.42-3.912,4.942,4.942,0,0,0-.194-1.687,8.205,8.205,0,0,0-.868-1.671,16.027,16.027,0,0,1-2.22-8.622,14.137,14.137,0,0,0-.151-4.651c-.237-.749-.652-1.433-.938-2.156a13.472,13.472,0,0,1-.674-4.052l-.323-5.179a25.479,25.479,0,0,0-.668-5.119c-1.078-4.02-2.156-20.86-5.847-22.757s-10.034,11.063-14.189,11.316a18.477,18.477,0,0,0-5.389,1.04,26.252,26.252,0,0,0-7.34,4.85l-7.641,6.418A28.157,28.157,0,0,1,134.244,113.824Z" transform="translate(83.328 23.865)"/><path class="bk" d="M114.116,47.262a9.607,9.607,0,0,1,7.415-3.616,17.27,17.27,0,0,1,8.2,2.059,10.125,10.125,0,0,0,2.393.981c1.347.275,2.845-.092,4.063.539,1.617.857,1.929,3.039,1.789,4.85s-.48,3.821.485,5.389a12.454,12.454,0,0,1,.932,1.406,4.651,4.651,0,0,1-.075,3,19.419,19.419,0,0,1-1.547-1.978,1.822,1.822,0,0,0-2.231-.577c-.7.469-.684,1.32-.722,2.085s-.232,1.681-.954,1.929a1.547,1.547,0,0,1-1.617-.631c-1.234-1.509-.738-3.918-1.962-5.437-.7-.862-1.854-1.283-2.5-2.188-.507-.711-.636-1.617-1.078-2.382s-1.471-1.326-2.156-.8a2.915,2.915,0,0,0-.577.771,3.314,3.314,0,0,1-3.934,1.186,6.58,6.58,0,0,0-1.7-.738,2.107,2.107,0,0,0-1.945,1.078,4.209,4.209,0,0,0-.539,2.253c0,1.078.194,2.226-.42,3.088a3.194,3.194,0,0,1-.862.819c-.9.577-2.156.965-2.985.307a2.242,2.242,0,0,1-.668-2.091,16.9,16.9,0,0,1,.636-2.209c.474-1.671-.145-3.551.372-5.125A16.361,16.361,0,0,1,114.116,47.262Z" transform="translate(66.78 -19.515)"/><path class="bi" d="M115.9,75.882a1.962,1.962,0,0,0,.119,1.169,1.859,1.859,0,0,0,.636.609,13.073,13.073,0,0,0,6,1.945,1.827,1.827,0,0,1,.83.216,1.459,1.459,0,0,1,.35,1.671,4.348,4.348,0,0,0-.383,1.778c.156,1.126,1.493,1.617,2.619,1.784a6.092,6.092,0,0,0,4.559-.889,7.043,7.043,0,0,0,1.881-2.818c3.093-7.108,4.176-14.965,7.307-22.051a4.678,4.678,0,0,0,.469-1.477,1.455,1.455,0,0,0-.582-1.358c-.582-.361-1.487-.156-1.881-.722-.194-.286-.172-.674-.345-.975-.361-.641-1.309-.539-1.956-.911-.507-.269-.857-.824-1.423-.932a1.789,1.789,0,0,0-1.471.636c-1.838,1.714-2.8,4.144-3.826,6.44a75.489,75.489,0,0,1-5.475,10.152c.242-.377-1.164-3.233-1.714-3.357-.965-.194-2.2,1.5-2.721,2.129a13.558,13.558,0,0,0-3,6.962Z" transform="translate(71.827 -10.117)"/><path class="bm" d="M128.627,53.631a2.581,2.581,0,0,0-2,1,5.7,5.7,0,0,0-.835,2.694,23.414,23.414,0,0,1-3.174,8.525" transform="translate(78.675 -9.394)"/><path class="bm" d="M129.93,54.7a3.077,3.077,0,0,0-2.614,1.568,8.81,8.81,0,0,0-.657,2.662,14.609,14.609,0,0,1-2.614,5.6" transform="translate(80.12 -8.312)"/><path class="bn" d="M342.294,119.754v-6.693a18.581,18.581,0,0,0-18.581-18.575H59.4a18.581,18.581,0,0,0-18.581,18.575V125.4Z" transform="translate(-4.174 31.984)"/><path class="bo" d="M86.589,111.349s-.754,46.807,7.544,62.208,11.855,82.4,11.855,82.4,87,9,147.621-10.778S443.23,217.314,443.23,217.314L421.492,70.8S314.1,63.912,253.006,93.049,86.589,111.349,86.589,111.349Z" transform="translate(42.166 7.274)"/><path class="bm" d="M86.589,111.349s-.754,46.807,7.544,62.208,11.855,82.4,11.855,82.4,87,9,147.621-10.778S443.23,217.314,443.23,217.314L421.492,70.8S314.1,63.912,253.006,93.049,86.589,111.349,86.589,111.349Z" transform="translate(42.166 7.274)"/><path class="bo" d="M96.415,123.242s-2.721,38.621,4.106,50.962,7.146,67.43,7.146,67.43,78.294,3.632,133.987-15.326,172.727-31.255,172.727-31.255l-13.3-119.82s-96.837-1-153.354,25.688S96.415,123.242,96.415,123.242Z" transform="translate(51.593 12.48)"/><ellipse class="bm" cx="20.327" cy="43.595" rx="20.327" ry="43.595" transform="matrix(0.992, -0.124, 0.124, 0.992, 267.512, 132.841)"/><path class="bh" d="M377.841,34.981S273.509,61.386,224.309,107.865,71.536,176.351,71.536,176.351,85.181,221.126,97.8,233.24s36.558,74.8,36.558,74.8,85.558-18.139,137.183-55.58,171.94-84.728,171.94-84.728Z" transform="translate(26.938 -28.283)"/><path class="bo" d="M70.757,173.018S84.4,217.8,97.006,229.912,133.564,304.7,133.564,304.7s85.569-18.133,137.2-55.575S442.7,164.417,442.7,164.417L377.057,31.653S272.729,58.058,223.53,104.537,70.757,173.018,70.757,173.018Z" transform="translate(26.149 -31.653)"/><path class="bm" d="M70.757,173.018S84.4,217.8,97.006,229.912,133.564,304.7,133.564,304.7s85.569-18.133,137.2-55.575S442.7,164.417,442.7,164.417L377.057,31.653S272.729,58.058,223.53,104.537,70.757,173.018,70.757,173.018Z" transform="translate(26.149 -31.653)"/><path class="bo" d="M82.46,177.076s9.263,37.6,19.551,47.244,27.483,61.971,27.483,61.971,75.626-20.574,122.816-55.709,154.815-82.7,154.815-82.7l-49.421-110s-92.466,28.76-138.072,71.5S82.46,177.076,82.46,177.076Z" transform="translate(38.002 -25.344)"/><ellipse class="bm" cx="20.327" cy="43.595" rx="20.327" ry="43.595" transform="matrix(0.907, -0.422, 0.422, 0.907, 233.332, 112.317)"/><path class="bm" d="M349.42,119.734V305.647a16.075,16.075,0,0,1-16.08,16.075H56.895a16.075,16.075,0,0,1-16.069-16.075V100.992c7.922,2.942,7.922,2.942,16.069,2.694H333.34a16.08,16.08,0,0,1,16.08,16.048Z" transform="translate(-4.166 38.573)"/><path class="bg" d="M349.42,120.912V306.825A16.08,16.08,0,0,1,333.34,322.9H56.895a16.075,16.075,0,0,1-16.069-16.075V102.164c7.922,2.937,7.922,2.937,16.069,2.694H333.34a16.08,16.08,0,0,1,16.08,16.053Z" transform="translate(-4.166 39.76)"/><path class="bm" d="M237.724,145.628v59.455h-57.66a29.729,29.729,0,1,1,0-59.457Z" transform="translate(106.744 83.778)"/><path class="bn" d="M238.115,144.84v59.465h-57.66a29.729,29.729,0,1,1,0-59.457Z" transform="translate(107.14 82.982)"/><circle class="bm" cx="11.591" cy="11.591" r="11.591" transform="translate(278.768 247.545)"/><circle class="bi" cx="11.591" cy="11.591" r="11.591" transform="translate(279.555 245.972)"/><path class="bp" d="M262.86,148.772c.458,4.963-3.3,9.781-2.2,14.641.237,1.04.684,2.021.846,3.072.453,2.888-1.266,5.621-2.91,8.035l-14.119,20.715a12.861,12.861,0,0,1-2.015,2.49c-2.694,2.4-6.747,2.155-10.293,2.872a17.589,17.589,0,0,0-6.9,3.05.442.442,0,0,0-.065.6,5.928,5.928,0,0,0,5.13,2.409c.372.49,0,1.207-.539,1.557-.76.539-1.8.668-1.951,1.951a2.117,2.117,0,0,0,.259,1.293,4.015,4.015,0,0,0,2.468,1.719c4.888,1.493,10.169-1.132,13.828-4.7s6.283-8.083,9.872-11.721c1.988-2.01,4.246-3.734,6.294-5.685,4.085-3.891,7.259-8.622,10.325-13.359a14.906,14.906,0,0,0,2.236-4.548c.388-1.654.2-3.325.641-4.925.571-2.1,2.107-3.772,3.384-5.534A18.31,18.31,0,0,0,281,150.787c-.329-4.246-2.964-8.444-6.973-9.888a6.2,6.2,0,0,0-3.907-.237,9.281,9.281,0,0,0-3.977,3.163l-2.694,3.1a7.263,7.263,0,0,0-1.563,2.371,2.484,2.484,0,0,0,.539,2.635" transform="translate(182.481 78.539)"/><path class="bq" d="M262.86,148.772c.458,4.963-3.3,9.781-2.2,14.641.237,1.04.684,2.021.846,3.072.453,2.888-1.266,5.621-2.91,8.035l-14.119,20.715a12.861,12.861,0,0,1-2.015,2.49c-2.694,2.4-6.747,2.155-10.293,2.872a17.589,17.589,0,0,0-6.9,3.05.442.442,0,0,0-.065.6,5.928,5.928,0,0,0,5.13,2.409c.372.49,0,1.207-.539,1.557-.76.539-1.8.668-1.951,1.951a2.117,2.117,0,0,0,.259,1.293,4.015,4.015,0,0,0,2.468,1.719c4.888,1.493,10.169-1.132,13.828-4.7s6.283-8.083,9.872-11.721c1.988-2.01,4.246-3.734,6.294-5.685,4.085-3.891,7.259-8.622,10.325-13.359a14.906,14.906,0,0,0,2.236-4.548c.388-1.654.2-3.325.641-4.925.571-2.1,2.107-3.772,3.384-5.534A18.31,18.31,0,0,0,281,150.787c-.329-4.246-2.964-8.444-6.973-9.888a6.2,6.2,0,0,0-3.907-.237,9.281,9.281,0,0,0-3.977,3.163l-2.694,3.1a7.263,7.263,0,0,0-1.563,2.371,2.484,2.484,0,0,0,.539,2.635" transform="translate(182.481 78.539)"/><path class="br" d="M255.378,210.952c-3.082,1.881-6.925,1.994-10.508,1.557-.577-.07-1.261-.113-1.617.334-.539.647.1,1.617.754,2.118a15.545,15.545,0,0,0,7.216,2.969,47.506,47.506,0,0,0,7.059.469c6.467.113,12.933.221,19.3-.706a2.731,2.731,0,0,0,1.078-.313,1.972,1.972,0,0,0,.8-1.213,4.81,4.81,0,0,0-1.676-4.591,14.068,14.068,0,0,0-4.5-2.414l-5.6-2.182c-1.315-.512-3.422-1.87-4.85-1.762C260.142,205.412,257.6,209.647,255.378,210.952Z" transform="translate(200.649 144.127)"/><path class="bq" d="M255.378,210.952c-3.082,1.881-6.925,1.994-10.508,1.557-.577-.07-1.261-.113-1.617.334-.539.647.1,1.617.754,2.118a15.545,15.545,0,0,0,7.216,2.969,47.506,47.506,0,0,0,7.059.469c6.467.113,12.933.221,19.3-.706a2.731,2.731,0,0,0,1.078-.313,1.972,1.972,0,0,0,.8-1.213,4.81,4.81,0,0,0-1.676-4.591,14.068,14.068,0,0,0-4.5-2.414l-5.6-2.182c-1.315-.512-3.422-1.87-4.85-1.762C260.142,205.412,257.6,209.647,255.378,210.952Z" transform="translate(200.649 144.127)"/><path class="bk" d="M253.269,187.1c-2.333,3.1-4.748,6.687-4.171,10.53.313,2.069,1.471,3.9,2.323,5.809a40.986,40.986,0,0,1,2.35,8.169c.873,4.063,1.751,8.137,2.285,12.265.609,4.661-2.253,18.149-2.517,22.843a4.828,4.828,0,0,1-.986,3.169c-.307.323-.717.582-.857,1a1.713,1.713,0,0,0,.189,1.186,13.04,13.04,0,0,0,7.005,6.434c3,1.261,10.239,3.438,13.51,3.551a2.693,2.693,0,0,0,1.272-.167,2.473,2.473,0,0,0,.981-1.126c2.344-4.483.092-20.424.124-25.484.032-4.219,1.029-8.412.846-12.626-.151-3.384-1.078-6.693-1.385-10.066-.539-5.529.474-11.085,1.493-16.549.776-4.193,1.557-8.385,2.554-12.524a24.047,24.047,0,0,1,2.694-7.269c1.078-1.741,2.592-3.2,3.848-4.85a21.889,21.889,0,0,0,4.311-16.026c-.075-.539-8.083,2.032-8.789,2.339a27.382,27.382,0,0,0-7.835,5.038c-1.854,1.768-3.314,4.128-4.936,6.106q-3.443,4.2-6.8,8.455Q256.945,182.178,253.269,187.1Z" transform="translate(206.686 93.577)"/><path class="bq" d="M253.269,187c-2.333,3.1-4.748,6.693-4.171,10.53.313,2.075,1.471,3.9,2.323,5.814a40.936,40.936,0,0,1,2.35,8.164c.873,4.069,1.751,8.142,2.285,12.265.609,4.667-2.253,18.149-2.517,22.843a4.843,4.843,0,0,1-.986,3.174c-.307.318-.717.577-.857,1a1.708,1.708,0,0,0,.189,1.186,13.2,13.2,0,0,0,7.005,6.467c3,1.293,10.239,2.42,13.51,2.527a2.693,2.693,0,0,0,1.272-.167,2.436,2.436,0,0,0,.981-1.121c2.344-4.484.092-19.4.124-24.465.032-4.225,1.029-8.412.846-12.631-.151-3.384-1.078-6.693-1.385-10.061-.539-5.534.474-11.09,1.493-16.554.776-4.187,1.557-8.38,2.554-12.524a24.047,24.047,0,0,1,2.694-7.269c1.078-1.741,2.592-3.2,3.848-4.85a21.878,21.878,0,0,0,4.311-16.026c-.075-.539-8.083,2.032-8.789,2.339a27.511,27.511,0,0,0-7.835,5.044c-1.854,1.762-3.314,4.122-4.936,6.1q-3.443,4.2-6.8,8.46Q256.945,182.066,253.269,187Z" transform="translate(206.686 93.496)"/><circle class="bp" cx="13.079" cy="13.079" r="13.079" transform="translate(420.914 186.161)"/><path class="bp" d="M250.355,131.622a16.937,16.937,0,0,0,10.858,7.577l-.986,3.584c-1.7,6.154-3.616,12.664-8.369,16.932a7.87,7.87,0,0,0-1.326-6.122,23.078,23.078,0,0,0-4.44-4.64l-7.528-6.52a2.269,2.269,0,0,1-.539-.636,1.913,1.913,0,0,1,0-1.433c.959-2.985,3.7-4.85,5.928-6.865a20.526,20.526,0,0,0,2.98-3.47C248.436,127.883,249.369,130.038,250.355,131.622Z" transform="translate(195.417 67.068)"/><path class="bk" d="M231.309,129.388l-.3-2.457c2.064.539,4.025-1.218,5.346-3.034s2.544-3.955,4.554-4.715c2.441-.916,5.028.539,7.361,1.768a23.274,23.274,0,0,0,8.444,2.748,5.556,5.556,0,0,1,1.4.226c1.52.539,2.242,2.446,2.463,4.176s.162,3.567.911,5.109c.539,1.169,1.541,2.037,2.155,3.19,1.617,3.093.054,7.323,1.741,10.357l-4.193-3.842c-.383-.35-.922-.717-1.347-.42-.334.237-.361.749-.5,1.159a2.2,2.2,0,0,1-2.985,1.078,8.555,8.555,0,0,1-2.694-2.441,16.355,16.355,0,0,0-6.65-5.044,8.536,8.536,0,0,0-7.005.463c-1.956,1.1-3.39,3.681-5.788,3.772-3.287.124-4.656-6-6.176-8.417a2.964,2.964,0,0,0,.862-3.707C229.132,129.264,231.261,129.01,231.309,129.388Z" transform="translate(185.455 56.704)"/><path class="bl" d="M151.435,87.679a25.445,25.445,0,0,0-2.9,3.05,6.105,6.105,0,0,0-1.336,3.918,2,2,0,0,0,.377,1.148.97.97,0,0,0,1.078.329,1.45,1.45,0,0,0,.539-.474A26.007,26.007,0,0,1,151,93.687c.232-.232.539-.474.851-.388a.911.911,0,0,1,.366.242,2.479,2.479,0,0,1,.76,1.186,2.793,2.793,0,0,1-.835,2.3,5.882,5.882,0,0,0-1.406,2.08.921.921,0,0,0,0,.668,1,1,0,0,0,.42.356,6.014,6.014,0,0,0,5.087.334c1.078-.436,2.037-1.186,3.147-1.574a7.278,7.278,0,0,0,1.39-.539,2.888,2.888,0,0,0,1.234-1.848,7.621,7.621,0,0,0,.081-2.269,26.088,26.088,0,0,0-1.854-8.53,1.078,1.078,0,0,0-.313-.453,1,1,0,0,0-.539-.146c-1.38-.145-3.643-.851-4.974-.339a3.514,3.514,0,0,0-1.175,1.045C152.992,86.084,151.435,87.318,151.435,87.679Z" transform="translate(103.563 21.951)"/><path class="bk" d="M158.819,110.855c0-1.315-1.617-4.489.954-4.7,0-1.406-1.988-2.279-1.617-3.772.119-.5.539-.9.587-1.406.162-1.439-2.436-2.22-2-3.6.162-.539.733-.851.857-1.385.291-1.245-1.935-1.8-1.978-3.077,0-.431.243-.835.221-1.266,0-.539-.469-.948-.727-1.417-.674-1.2-.345-3.061-1.574-3.681.814.07,1.078-1.137.744-1.875s-1.018-1.38-1.024-2.2a3.32,3.32,0,0,0,0-.895c-.226-.787-1.514-.851-1.73-1.617a6.885,6.885,0,0,1-.027-.884c-.086-.609-.711-1-1.3-1.169a5.3,5.3,0,0,1-1.735-.62c-.377-.286-.814-.76-1.218-.539-.151.092-.226.264-.34.393-.485.566-1.412.318-2.021-.1a8.3,8.3,0,0,1-3.077-5.556c-.383-2.139-.372-4.349-.851-6.467a13.818,13.818,0,0,0-.582-1.94,10.21,10.21,0,0,1-.905-1.929c-.1-1.239,2.468-.393,3.443-.269a15.338,15.338,0,0,1,2.8.539,29.906,29.906,0,0,1,2.861,1.256c3.891,1.719,8.59,1.929,11.715,4.818,1.029.948,1.9,2.193,3.233,2.624a14.631,14.631,0,0,1,1.811.469c1.482.7,1.714,2.662,2.522,4.085a8.006,8.006,0,0,1,.663,1.186,4.569,4.569,0,0,1,.216,1.509l.113,3.734a137.71,137.71,0,0,1-.3,18.748c-.216,2.053-.539,4.166.07,6.138.162.539.388,1.045.539,1.59a9.7,9.7,0,0,1,.2,1.94l.086,2.42a.755.755,0,0,1-.119.539.776.776,0,0,1-.652.156c-3.368-.3-6.774-2.2-9.953-1.051" transform="translate(95.742 -2.444)"/><ellipse class="bg" cx="39.856" cy="5.761" rx="39.856" ry="5.761" transform="translate(368.405 282.804)"/><path class="bs" d="M304.854,304.892c-.7-3-1.137-5.637-1.137-5.637a11.616,11.616,0,0,0-1.3-5.718v-.819h0v-6.035a20.579,20.579,0,0,1,1.525-3.163c1.078-1.9,0-8.848,0-8.848s-4.025-9.8-3.05-16.021-8.266-27.612-8.266-27.612a27.263,27.263,0,0,1,.868-6.111,4.662,4.662,0,0,0,.118-1.283v-.108c-.14-4.1-3.384-11.785-3.384-11.785l.436-14.647s2.069-8.622-1.3-20.235c-1.18-4.047-1.935-7.286-2.414-9.786-.054-.28-.108-.539-.151-.814,6.946-1.078,12.254-1.94,12.254-1.94s-4.031-16.862-6.752-19.815-4.9-12.227-4.9-12.227-1.417-11.9.873-15.385,2.614-9.484,2.614-9.484,5.222-3.772,5.879-5.48a27.962,27.962,0,0,0,1.741-7.48c0-2-.652-3.772-.436-4.85s-1.525-5.06-.652-6.957a5.1,5.1,0,0,0,.345-1.827.237.237,0,0,0,0-.054h0a25.6,25.6,0,0,0-.458-4.947,14.038,14.038,0,0,0-5.173-2.764l-.113-.453-.3-1.186a5.753,5.753,0,0,0-.512-.3v-.431l-.049-1.714.819-3.848c1.617-6.693-7.323-7.69-7.323-7.69a4.715,4.715,0,0,0-2.533-2.22c-1.794-.631-.3,10.066.539,10.778a42.149,42.149,0,0,1,3.524,5.518h0l.151.269a3.772,3.772,0,0,0-.41.431l.34,2.323.054.356a9.64,9.64,0,0,0-1.428,2.43,5.243,5.243,0,0,1,1.31,3.772,12.084,12.084,0,0,0,.539,4.634c-.1-.113-1.245-1.353-2.393-1.051s-4.354,1.266-4.354,1.266-2.393.42-2.156.948-1.617,2.845-1.617,2.845l-6.434-6.1c-.065-.183-.135-.366-.189-.539a14.834,14.834,0,0,1-.539-2.694,14.717,14.717,0,0,0,2.058-.652,4.441,4.441,0,0,0,1.778-1.142,6.9,6.9,0,0,0,1.04-2.775,40.814,40.814,0,0,1,2.387-5.324,17.309,17.309,0,0,0,1.213-9.581,6.252,6.252,0,0,0-.986-2.8c-1.051-1.444-2.958-2.032-4.343-3.185s-2.279-2.915-3.9-3.772a7.727,7.727,0,0,0-4.882-.42A26.313,26.313,0,0,0,254.3,54.07a4.749,4.749,0,0,1-3.05,1,3.982,3.982,0,0,1-2.2-1.617.539.539,0,0,1,.027-.086.535.535,0,0,1-.07-.086,11.364,11.364,0,0,0-1,4.818,5.936,5.936,0,0,0,.032.771v.49h0a1.229,1.229,0,0,1-.048.339,2.452,2.452,0,0,1-.6.868,5.821,5.821,0,0,0-.539.717.889.889,0,0,1,.086-.264,3.831,3.831,0,0,0-.668,2.032,2.075,2.075,0,0,0,.485,1.455,7.009,7.009,0,0,0,1.051.841,12.264,12.264,0,0,0-.194,2.156,12.454,12.454,0,0,0,6.068,10.621c.075.178.146.361.216.539a15.343,15.343,0,0,1,1.169,7.005,3.285,3.285,0,0,1-.075.507c-.027.167-.162.178-.232.269h0s-10.632.108-13.132-2.156-6.316,5.534-6.316,5.534-3.81.738-4.575,0-5.222-.1-5.222-.1a9.608,9.608,0,0,0-6.644-2.425,19.5,19.5,0,0,0-4.85-2.694h0l-.119-.043h0a5.432,5.432,0,0,0-2.4-.3s-5.227-4.311-6.752-6.639S195.963,66.7,195.93,66.658v-.415l-.081-1.25a4.479,4.479,0,0,1-.652.054c-.038-.124-.092-.269-.145-.436a24.1,24.1,0,0,0-1.541-3.54s0-1.579.458-1.978-.189-6.192-.189-6.192-4.71-11.009-8.929-2.791c0,0-7.975,5.319-1.283,11.516,0,0,2.694,1.293,3.05,2.317.248.663,1.153,2.522,1.762,3.772l.275.539-.075.065.1,1.035.043.4c-1.261.717-2.118,1.428-1.908,1.962a11.783,11.783,0,0,1,.76,2.845s9.258,11.6,10.454,16.549c0,0,24.826,14.755,32.99,15.805l-1.444,7.356a58.7,58.7,0,0,0-.323,6.009c.108,1.579-.981,8.746-.981,8.746s-1.417,10.54-2.614,12.017-.981,7.8-.981,7.8a53.272,53.272,0,0,1-1.617,8.956,22.881,22.881,0,0,0-.329,8.962s-4.133,9.484,5.771,3.055c0,0,4.85-.3,10.465-.5v.539c0,.722,0,1.5-.038,2.323-.075,5.432-.108,12.933.14,18.581.436,10.012,3.487,29.827,3.487,29.827v9.975a13.576,13.576,0,0,0-.291,2.845,18.516,18.516,0,0,0,2.694,9.964l.765,6.639s1.789,4.376,1.821,7.005a3.669,3.669,0,0,1-.075.63,4.246,4.246,0,0,0-.086,1.019c-.1,3.018,1.714,10.239,1.714,10.239s.108,7.27,1.2,7.7c.932.361-1.245,4.187-1.892,5.286a1.5,1.5,0,0,1-.038-.2l-.135.216a5.161,5.161,0,0,0-.34,1.843,2.641,2.641,0,0,0,1.207,2.554c2.069,1.266,3.179,2.317,1.423,2.738a18.29,18.29,0,0,0-1.918.4.832.832,0,0,0-.092-.243,1.153,1.153,0,0,0-.717,1.272,5.389,5.389,0,0,0,.641,2.447,26.692,26.692,0,0,0,2.948,5.389l.835-.092a4.073,4.073,0,0,1-.485.9,3.469,3.469,0,0,1-1.229,1.078,3.8,3.8,0,0,1-1.493.512,4.2,4.2,0,0,0-3.082,1.5c-1.078,1.406-1.768,3.32.377,5l7.787,2.694s13.4,1.741,12.685-1.266-1.142-5.637-1.142-5.637a11.882,11.882,0,0,0-1.078-5.33,6.931,6.931,0,0,0-.474-.787l.474-.049s.981-6.644,2.285-7.905c.3-.291.372-.539.3-.69.135-.361-.21-.571-.647-.7l-.1.264a6.351,6.351,0,0,0-1.3-.146s-.436-3.476.981-4.742a1.342,1.342,0,0,0,.275-1.035,5.561,5.561,0,0,0-.151-1.417.7.7,0,0,1-.049.086,51.053,51.053,0,0,0-3.125-8.175s-.108-3.158.765-4.424-.113-17.18-.113-17.18.329-7.69-.652-11.273,1.2-7.8,1.2-7.8v-.28l-.124-1.212a.314.314,0,0,0,0,.075c-.221-2.037-.636-5.728-.943-7.431-.437-2.425.113-14.011.113-14.011l1.956-4.958,3.487,8.541,3.7,11.381a9.723,9.723,0,0,1,1.875,4.85V229a6.228,6.228,0,0,0-.043.76,6.768,6.768,0,0,0,1.126,4.058s.981,5.389,2.506,6.741,1.525,4,1.525,4,1.848,7.8,2.694,9.161c.733,1.153.771,4.311.765,5.3h0v.28s.259,2.791.248,5.13v.835a.233.233,0,0,0,0-.059,8.119,8.119,0,0,1-.226,1.9l-.032.108a1.375,1.375,0,0,1,.038-.393,19.8,19.8,0,0,0-.539,4.85c-.049,2.8.377,6.122,2.075,8.083,2.942,3.373,4.791,2.953,4.791,2.953s-1.412,4.214-3.158,5.06a.818.818,0,0,0-.183.119,1.827,1.827,0,0,0-.043-.248,2.053,2.053,0,0,0-.539,1.574,11.3,11.3,0,0,0,2.155,6.246,3.519,3.519,0,0,0,1.471.862,2.333,2.333,0,0,1-.275.167,5.849,5.849,0,0,1-.6.286,3.139,3.139,0,0,1-.889.232,4.15,4.15,0,0,0-3.082,1.5c-1.078,1.4-1.768,3.314.377,5l7.787,2.694S305.555,307.893,304.854,304.892Z" transform="translate(137.695 -16.047)"/><path class="bt" d="M221.55,185.066l-7.544-2.694c-2.08-1.681-1.417-3.594-.366-5a4.031,4.031,0,0,1,2.985-1.5,3.579,3.579,0,0,0,1.439-.512,3.448,3.448,0,0,0,1.2-1.078,5.566,5.566,0,0,0,.857-2.915s8.277-2.425,10.54,0a6.126,6.126,0,0,1,1,1.471,12.314,12.314,0,0,1,1.078,5.329s.42,2.63,1.1,5.637S221.55,185.066,221.55,185.066Z" transform="translate(169.854 108.758)"/><path class="bt" d="M239.873,183.224l-7.544-2.694c-2.08-1.681-1.417-3.594-.366-5a3.982,3.982,0,0,1,2.98-1.5,2.8,2.8,0,0,0,.862-.232,5.713,5.713,0,0,0,.582-.286c2.107-1.159,2.053-4,2.053-4s8.272-2.425,10.54,0a5.966,5.966,0,0,1,.792,1.078,11.974,11.974,0,0,1,1.261,5.723s.42,2.635,1.078,5.637S239.873,183.224,239.873,183.224Z" transform="translate(188.412 106.882)"/><path class="bm" d="M227.329,171.366a6.129,6.129,0,0,1,1,1.471h0l-12.394,1.439a5.567,5.567,0,0,0,.857-2.915S225.066,168.941,227.329,171.366Z" transform="translate(173.188 108.755)"/><path class="bm" d="M247.345,170.6v2.323c-1.929,3.174-11.257,2.479-13.968.889a5.717,5.717,0,0,0,.582-.286c2.107-1.159,2.053-4,2.053-4s8.272-2.425,10.541,0a5.971,5.971,0,0,1,.792,1.078Z" transform="translate(190.851 106.887)"/><path class="bk" d="M272.745,226.533a21.125,21.125,0,0,0-1.471,3.163v8.326c-2.112,3.476-13.068,2.317-14.55.42s-3.028-6.833-1.363-7.69,3.055-5.06,3.055-5.06-1.794.42-4.64-2.953-2-10.853-1.471-12.642,0-7.8,0-7.8.108-4.219-.733-5.588-2.635-9.161-2.635-9.161,0-2.635-1.477-4-2.425-6.747-2.425-6.747a6.914,6.914,0,0,1-1.051-4.532c.313-2.635-1.795-5.48-1.795-5.48L238.607,155.4l-3.373-8.536-1.9,4.952s-.539,11.591-.1,14.011,1.078,8.854,1.078,8.854-2.107,4.214-1.159,7.8.6,11.284.6,11.284.948,15.908.1,17.174-.738,4.43-.738,4.43,4.311,9.269,2.953,10.535-.948,4.742-.948,4.742,2.948,0,1.687,1.266-2.215,7.905-2.215,7.905l-12.745,1.493A26.5,26.5,0,0,1,219,235.92c-1.687-3.918.313-3.476,2.01-3.9s.625-1.471-1.38-2.738-.841-4.112-.841-4.112,3.055-5.162,2-5.583-1.159-7.7-1.159-7.7-2.107-8.622-1.579-10.961-1.687-7.9-1.687-7.9l-.738-6.639a18.268,18.268,0,0,1-2.317-12.545V163.608s-2.953-19.809-3.373-29.822c-.269-6.413-.194-15.164-.108-20.623.054-3.061.108-5.092.108-5.092l45.525-4.742a38.035,38.035,0,0,0,.824,6.763c.469,2.5,1.2,5.739,2.339,9.786,3.266,11.591,1.266,20.23,1.266,20.23l-.426,14.652s4,9.8,3.163,13.17a28.092,28.092,0,0,0-.851,6.122s8.956,21.394,8.008,27.612,2.948,16.021,2.948,16.021S273.8,224.636,272.745,226.533Z" transform="translate(166.922 40.94)"/><path class="bq" d="M228.116,138.193l13.86-1.848S234.125,144.358,228.116,138.193Z" transform="translate(185.523 74.379)"/><path class="bm" d="M235.278,129.617s.474,4.9-2.527,6.747C232.75,136.364,238.123,135.523,235.278,129.617Z" transform="translate(190.216 67.565)"/><path class="bm" d="M241.827,121.869s-11.586,9.538-15.8,8.746S241.827,121.869,241.827,121.869Z" transform="translate(182.816 59.717)"/><path class="bm" d="M224.145,139.485s-8.8,2-9.064,5.534S224.145,139.485,224.145,139.485Z" transform="translate(172.315 77.559)"/><path class="bq" d="M225.339,161.321s-12.432,2.317-8.9,3.9a60.353,60.353,0,0,0,9.328,2.845S229.779,168.273,225.339,161.321Z" transform="translate(173.055 99.675)"/><g class="bu" transform="translate(376.671 148.682)"><path d="M215.676,165.41a2.452,2.452,0,0,1-1.137-1.8l-.129.221s-1.159,2.845.846,4.106c.226.145.447.291.647.431.372-.07.771-.124,1.153-.221C218.753,167.727,217.681,166.676,215.676,165.41Z" transform="translate(-205.367 -46.689)"/><path d="M223.121,165.169c.345-.312.334-1.121.124-2.155a6.058,6.058,0,0,0-.706,3.05A2.629,2.629,0,0,1,223.121,165.169Z" transform="translate(-196.796 -47.294)"/><path d="M222.3,138.037a14.372,14.372,0,0,0-.841,3.875,15.627,15.627,0,0,1,.965-2.662Z" transform="translate(-197.889 -72.59)"/><path d="M236.141,135.87a4.939,4.939,0,0,0,.113-1.153c-.156.787-.264,1.514-.345,2.156C235.98,136.544,236.055,136.231,236.141,135.87Z" transform="translate(-183.255 -75.952)"/><path d="M221.88,157.831a6.752,6.752,0,0,0,.313-2.344,7.958,7.958,0,0,0-.609,2.958,2.83,2.83,0,0,1,.3-.614Z" transform="translate(-197.764 -54.916)"/><path d="M232.13,166.526a41.828,41.828,0,0,0-1.45,6.467l-12.744,1.471a26.5,26.5,0,0,1-2.851-5.389,9.765,9.765,0,0,1-.361-.927c-.765.35-1.078,1.142-.065,3.454a26.936,26.936,0,0,0,2.856,5.389l12.745-1.477s.948-6.639,2.209-7.905C233.116,167,232.717,166.682,232.13,166.526Z" transform="translate(-205.427 -43.737)"/><path d="M219.639,209.385s.1,7.27,1.159,7.69h0c.539-1.2.889-2.344.415-2.533-1.078-.42-1.159-7.7-1.159-7.7s-2.107-8.622-1.579-10.961-1.687-7.9-1.687-7.9l-.738-6.639a18.268,18.268,0,0,1-2.317-12.545V158.564s-2.953-19.809-3.373-29.822c-.269-6.413-.194-15.164-.108-20.623,0-.986.032-1.859.049-2.6l-.361.038s-.059,2.026-.108,5.092c-.086,5.459-.167,14.21.108,20.618.42,10.012,3.368,29.827,3.368,29.827v10.239a18.279,18.279,0,0,0,2.323,12.54l.733,6.639s2.215,5.583,1.687,7.905S219.639,209.385,219.639,209.385Z" transform="translate(-209.75 -105.522)"/><path d="M234.569,171.577a12.324,12.324,0,0,1-2.021-5.006c-1.3,1.175.194,5.734,1.617,7.544,1.471,1.9,12.432,3.055,14.55-.426v-2C245.843,174.5,235.96,173.372,234.569,171.577Z" transform="translate(-187.163 -43.69)"/><path d="M242,163.177a21.3,21.3,0,0,0-1.476,3.163v1.493a22.1,22.1,0,0,1,1.078-2.112,6.467,6.467,0,0,0,.463-2.614S242.018,163.155,242,163.177Z" transform="translate(-178.58 -47.199)"/><path d="M236.661,171.805a20.823,20.823,0,0,0,1.04-2.506s-1.794.42-4.64-2.953c-2.069-2.452-2.188-7.086-1.891-10.115-.539,1.794-1.374,9.274,1.471,12.647C234.5,171.083,235.906,171.665,236.661,171.805Z" transform="translate(-188.608 -54.162)"/><path d="M240.258,181.526a56.158,56.158,0,0,1,.21,6.246,8.521,8.521,0,0,1,.216-.975c.539-1.794,0-7.8,0-7.8s.108-4.219-.738-5.588-2.608-9.172-2.608-9.172,0-2.635-1.477-4-2.425-6.747-2.425-6.747a6.935,6.935,0,0,1-1.078-4.532c.318-2.635-1.789-5.48-1.789-5.48l-3.584-11.381-3.373-8.536-1.9,4.958s0,.625-.065,1.617l1.541-4.025,3.373,8.52,3.584,11.381s2.107,2.845,1.789,5.48a6.936,6.936,0,0,0,1.078,4.532s.948,5.389,2.425,6.747,1.471,4,1.471,4,1.794,7.8,2.635,9.161S240.258,181.526,240.258,181.526Z" transform="translate(-197.702 -87.254)"/></g><path class="bv" d="M240.5,61.025l-.792,3.848.048,1.714.032,1.261-4.4.453-.49-.911h0a40.833,40.833,0,0,0-3.411-5.518c-.814-.679-2.263-11.381-.539-10.745A4.6,4.6,0,0,1,233.4,53.34S242.057,54.332,240.5,61.025Z" transform="translate(187.575 -11.96)"/><path class="bm" d="M237.394,60.313l-4.4.453-.49-.911h0a3.875,3.875,0,0,1,4.85-.8Z" transform="translate(189.97 -4.425)"/><path class="bi" d="M238.632,62.2l-5.8,1.342-.124-.862-.329-2.323A3.991,3.991,0,0,1,238,59.589l.291,1.18Z" transform="translate(189.842 -4.225)"/><path class="bv" d="M195.852,65.546l-6.192,3.32-.539-1.164c-.587-1.234-1.466-3.093-1.708-3.772-.366-1.024-2.948-2.317-2.948-2.317C178,55.42,185.7,50.1,185.7,50.1c4.085-8.218,8.622,2.791,8.622,2.791s.636,5.8.189,6.192-.447,1.978-.447,1.978a24.317,24.317,0,0,1,1.493,3.54C195.749,65.185,195.852,65.546,195.852,65.546Z" transform="translate(138.695 -16.06)"/><path class="bm" d="M192.209,56.731l-6.192,3.32-.539-1.164c.873-.733,3.972-3.233,4.99-3.131a7.458,7.458,0,0,0,1.466.038C192.106,56.37,192.209,56.731,192.209,56.731Z" transform="translate(142.339 -7.246)"/><path class="bi" d="M192.755,58.387,185.8,61.814l-.14-1.493-.1-1.035s4.031-3.454,5.222-3.32a6.332,6.332,0,0,0,1.816,0l.081,1.25Z" transform="translate(142.423 -7.032)"/><path class="bv" d="M239.675,80.556s-30.328,3.422-24.659,1.579c3.945-1.288,5.513-3.772,5.841-6.574a15.793,15.793,0,0,0-1.126-7.005,30.543,30.543,0,0,0-2.694-5.48s23.172-12.75,18.543-1.159a18.689,18.689,0,0,0-1.315,5.491,15.512,15.512,0,0,0,.6,5.561,16.56,16.56,0,0,0,4.812,7.587Z" transform="translate(171.539 -5.932)"/><path class="bm" d="M234.191,61.909a18.688,18.688,0,0,0-1.315,5.491c-2.183,1.838-4.575,1.714-7.652,1.714-2.36,0-4.979.571-6.865-.566a30.541,30.541,0,0,0-2.694-5.48S238.831,50.317,234.191,61.909Z" transform="translate(172.911 -5.941)"/><circle class="bv" cx="12.54" cy="12.54" r="12.54" transform="translate(385.186 38.902)"/><path class="bm" d="M239.675,73.212s-30.328,3.422-24.659,1.579c3.945-1.288,5.513-3.772,5.841-6.574,1.509-1.617,4.543-2.818,6.467-3.443a9.075,9.075,0,0,1,5.5-.092,7.815,7.815,0,0,1,2,.927A16.56,16.56,0,0,0,239.675,73.212Z" transform="translate(171.539 1.412)"/><path class="bm" d="M238.467,61.276l-5.8,1.342-.124-.862a5.13,5.13,0,0,1,5.577-1.908Z" transform="translate(190.007 -3.304)"/><path class="bm" d="M192.706,57.759l-6.957,3.427-.14-1.493a50.745,50.745,0,0,1,7.005-3.109Z" transform="translate(142.472 -6.403)"/><path class="bm" d="M256.247,110.1c-11.753,1.875-28.458,4.268-31.11,3.46-2.2-.668-9.231-.6-15.347-.388.054-3.061.108-5.092.108-5.092l45.525-4.742A38.04,38.04,0,0,0,256.247,110.1Z" transform="translate(166.962 40.945)"/><path class="br" d="M293.371,154.478s-38.675,6.639-42.825,5.389-25.462.1-25.462.1c-9.592,6.429-5.588-3.055-5.588-3.055a23.578,23.578,0,0,1,.318-8.956,54.718,54.718,0,0,0,1.59-8.967s-.21-6.326.948-7.8,2.533-12.012,2.533-12.012,1.051-7.167.948-8.746.313-6.009.313-6.009l1.374-7.377c-7.905-1.051-31.934-15.805-31.934-15.805C194.427,76.287,185.471,64.7,185.471,64.7a12.2,12.2,0,0,0-.738-2.845c-.631-1.687,8.854-5.06,8.854-5.06s7.059,8.622,8.536,10.961,6.531,6.639,6.531,6.639a5.082,5.082,0,0,1,2.317.3l.124.038h0a18.783,18.783,0,0,1,4.715,2.694,9.161,9.161,0,0,1,6.429,2.425s4.311-.636,5.06.1,4.424,0,4.424,0,3.686-7.8,6.111-5.534,12.712,2.156,12.712,2.156c1.369-1.821,4.7-3.126,6.79-3.772a9.113,9.113,0,0,1,5.5-.092,6.972,6.972,0,0,1,2.155,1.078l6.256,6.111s1.789-2.323,1.579-2.845,2.107-.948,2.107-.948,3.055-.948,4.214-1.266,2.22.938,2.317,1.051a12.6,12.6,0,0,1-.539-4.634,5.475,5.475,0,0,0-1.266-3.772C283.342,58.417,291.668,66,291.668,66s.948,4.952.108,6.849.841,5.9.63,6.957.426,2.845.426,4.85a29.632,29.632,0,0,1-1.687,7.48c-.609,1.687-5.691,5.48-5.691,5.48s-.318,6.009-2.533,9.484-.824,15.363-.824,15.363,2.107,9.274,4.742,12.227S293.371,154.478,293.371,154.478Z" transform="translate(141.553 -6.195)"/><path class="bm" d="M213.334,74.113s-1.159-3.476-2.215-3.772a24.379,24.379,0,0,1-3.055-1.369l.679-1.3s3.955,1.078,4.591,2.247S213.334,74.113,213.334,74.113Z" transform="translate(165.213 4.828)"/><path class="bm" d="M204.984,68.438c-.21,1.078-9.592,2-9.592,2l4.742-4.753h0l.119.043h0a18.786,18.786,0,0,1,4.731,2.711Z" transform="translate(152.38 2.813)"/><circle class="bw" cx="0.841" cy="0.841" r="0.841" transform="translate(329.385 55.946)"/><circle class="bw" cx="0.841" cy="0.841" r="0.841" transform="translate(330.463 57.633)"/><circle class="bw" cx="0.841" cy="0.841" r="0.841" transform="translate(331.519 59.191)"/><circle class="bw" cx="0.841" cy="0.841" r="0.841" transform="translate(332.624 60.872)"/><circle class="bw" cx="0.684" cy="0.684" r="0.684" transform="translate(432.117 60.937)"/><circle class="bw" cx="0.684" cy="0.684" r="0.684" transform="translate(432.225 62.494)"/><circle class="bw" cx="0.684" cy="0.684" r="0.684" transform="translate(432.316 64.046)"/><path class="bm" d="M210.7,85.062c-.1-.124,23.657,29.876,42.1,12.54C252.814,97.607,223.677,101.557,210.7,85.062Z" transform="translate(167.884 22.439)"/><path class="bm" d="M203.927,92.81s14.216.388,15.7,4.478v4.257a2.727,2.727,0,0,1-2.646,0c-1.433-.776-10.029-5.141-13.057-3.039Z" transform="translate(161.024 30.286)"/><path class="br" d="M204.058,92.81s13.6.372,15.019,4.273v4.052a2.608,2.608,0,0,1-2.533,0c-1.369-.733-9.587-4.9-12.486-2.894Z" transform="translate(161.157 30.286)"/><path class="bm" d="M207.782,77.475a45.741,45.741,0,0,0,5.513,9.457,37.109,37.109,0,0,0,8.622,8.336S208.019,79.425,207.782,77.475Z" transform="translate(164.928 14.755)"/><path class="bm" d="M205.472,69.269s2.371,10.239,8.482,13.715Z" transform="translate(162.588 6.444)"/><path class="bm" d="M203.771,69.784c-.059-.189-2.107,8.083,7.878,12.68C211.65,82.464,207.409,81.025,203.771,69.784Z" transform="translate(160.652 6.963)"/><path class="bm" d="M234.506,66.375c-.156,0,4.925,3.233,6.31,4.742C240.816,71.118,237.507,66.16,234.506,66.375Z" transform="translate(191.991 3.506)"/><path class="bt" d="M223.774,77.1a1.978,1.978,0,0,0,2.156,1.956c3.821.237,7.8.4,11.316-1.078a4.311,4.311,0,0,0,1.724-1.142,7.09,7.09,0,0,0,1-2.775,40.354,40.354,0,0,1,2.312-5.324,17.837,17.837,0,0,0,1.245-9.565,6.465,6.465,0,0,0-.959-2.8c-1.013-1.45-2.861-2.037-4.2-3.19s-2.2-2.915-3.772-3.772a7.242,7.242,0,0,0-4.731-.42,24.837,24.837,0,0,0-8.827,3.314c-.911.539-1.908,1.2-2.953,1a3.949,3.949,0,0,1-2.156-1.665,11.672,11.672,0,0,0-.9,5.47,2.35,2.35,0,0,1-.027.824,2.48,2.48,0,0,1-.587.868c-.943,1.078-1.53,2.829-.6,3.939.4.48,1.029.744,1.423,1.234.706.878.469,2.156.453,3.276a1.687,1.687,0,0,0,.28,1.11,1.617,1.617,0,0,0,1.547.372,4.209,4.209,0,0,1,1.649-.156,2.765,2.765,0,0,1,1.433,1.078C222.34,71.925,223.03,74.393,223.774,77.1Z" transform="translate(170.562 -14.292)"/><g class="bx" transform="translate(383.907 37.237)"><path d="M239.417,70.609a4.311,4.311,0,0,1-1.724,1.142c-3.535,1.471-7.512,1.3-11.316,1.078a1.983,1.983,0,0,1-2.161-1.962c-.744-2.694-1.428-5.168-3.2-7.415a2.77,2.77,0,0,0-1.433-1.1,4.419,4.419,0,0,0-1.649.156,1.617,1.617,0,0,1-1.547-.366,1.687,1.687,0,0,1-.28-1.11c0-1.132.253-2.4-.453-3.276-.393-.49-1.019-.754-1.423-1.239A2.457,2.457,0,0,1,213.993,54a2.873,2.873,0,0,0-.178,3.357c.4.48,1.029.744,1.423,1.234.706.884.469,2.156.453,3.276a1.676,1.676,0,0,0,.275,1.11,1.617,1.617,0,0,0,1.552.372,4.209,4.209,0,0,1,1.649-.156,2.764,2.764,0,0,1,1.433,1.078c1.762,2.247,2.452,4.715,3.2,7.42a2.694,2.694,0,0,0,.932,1.708,2.613,2.613,0,0,0,1.185.259c3.821.237,7.8.41,11.317-1.078a4.268,4.268,0,0,0,1.724-1.142,3.294,3.294,0,0,0,.539-1.013A.266.266,0,0,1,239.417,70.609Z" transform="translate(-213.345 -46.257)"/><path d="M214.2,56.232a1.843,1.843,0,0,0,.383-.636,2.349,2.349,0,0,0,0-.824,11.688,11.688,0,0,1,.587-4.537l-.07-.081a11.586,11.586,0,0,0-.9,5.464,3.888,3.888,0,0,1,0,.614Z" transform="translate(-212.516 -50.153)"/></g><path class="bm" d="M217.415,66.77s15.665,2.08,17.072-.275" transform="translate(174.685 3.635)"/><path class="bm" d="M232.544,63.411s8.708,0,10.621,3.276" transform="translate(190.007 0.511)"/><path class="br" d="M262.544,211.817a13.812,13.812,0,0,1-9.4,3.513c-.884,0-2.107.167-2.112,1.051a1.482,1.482,0,0,0,.259.722,8.649,8.649,0,0,0,4.85,3.81,17.141,17.141,0,0,0,5.868.372l5.739-.3c1.078-.059,2.156-.113,3.233-.248s2.252-.356,3.379-.539a44.19,44.19,0,0,1,8.358-.388,2.53,2.53,0,0,0,2.059-.539c.442-.539.216-1.568.048-2.376-.345-1.665,0-3.411-.318-5.082-.539-2.932-3.077-5.179-5.858-6.24-2.587-.981-7.167-2.107-9.614-.469C266.451,206.827,264.872,209.7,262.544,211.817Z" transform="translate(208.728 143.181)"/><path class="bk" d="M265.381,165.248c.507,2.409,2.84,4.252,2.9,6.709.059,1.972-1.347,3.627-2.36,5.313a35.455,35.455,0,0,0-2.409,5.453,83.308,83.308,0,0,1-7.07,14.065c-1.347,2.156-2.856,4.457-2.549,6.962a10.432,10.432,0,0,0,1.223,3.33l4.042,8.029a23.249,23.249,0,0,1,2.064,5.071c.35,1.525.383,3.1.587,4.656.636,4.925,2.948,9.883,1.579,14.658-.119.41-.539.905-.868.62,1.336,2.5,2.409,5.006,2.306,7.835-.054,1.482-.507,3.029.038,4.408a4.825,4.825,0,0,1,.63,1.735,11.061,11.061,0,0,1-.232,1.191,2.627,2.627,0,0,0,2.015,2.447c1.083.361,2.263.334,3.357.663,2.1.63,3.605,2.441,5.389,3.7a11.473,11.473,0,0,0,6.208,2.021,1.563,1.563,0,0,0,.916-.183,1.482,1.482,0,0,0,.507-1.11,6.165,6.165,0,0,0-2.22-5.357,2.426,2.426,0,0,1-.824-.862,2.08,2.08,0,0,1-.075-.965,72.62,72.62,0,0,0-.237-13.256,20.135,20.135,0,0,1-.21-4.219,17.236,17.236,0,0,0,.339-3.508,18.635,18.635,0,0,0-1.078-3.363c-.625-2-.453-4.16-.539-6.256a54.873,54.873,0,0,0-1.773-10.778,8.152,8.152,0,0,0-1.676-3.891c-.841-.878-2.2-1.719-1.881-2.888a3.422,3.422,0,0,1,.771-1.148,4.608,4.608,0,0,0,.959-3.514,1.579,1.579,0,0,0,1.816-.851A28.413,28.413,0,0,0,291.247,185.8a5.335,5.335,0,0,1,.636-1.444,6.507,6.507,0,0,1,2.6-1.687c2.942-1.482,4.974-4.257,6.838-6.973a12.324,12.324,0,0,0,3-8.7l.167-6.332a3.418,3.418,0,0,0-.119-1.239,3.1,3.1,0,0,0-.684-1,12.173,12.173,0,0,0-6.715-3.621c-1.724-.307-3.487-.248-5.233-.393-3.384-.28-6.725-1.331-10.109-1.078-5.319.393-10.056,4.079-12.561,8.789C268.193,163.771,267.267,165.215,265.381,165.248Z" transform="translate(211.593 91.534)"/><path class="bi" d="M247.868,145.809a7.075,7.075,0,0,1-.388,2.883,2.014,2.014,0,0,1-2.366,1.212c.275-.62-.453-1.326-1.132-1.25a2.118,2.118,0,0,0-1.493,1.283,4.769,4.769,0,0,0-.431,2.926c.216,1.239.932,2.43.744,3.675-.151,1.035-.911,2.064-.507,3.023a4.9,4.9,0,0,0,.975,1.169,3.3,3.3,0,0,1-.35,4.527l10.2.2c-.372,1.7.393,3.443,1.266,4.958a31.255,31.255,0,0,0,23.3,15.213,2.026,2.026,0,0,0-.49,3.1,2.879,2.879,0,0,0,3.276.189,23.3,23.3,0,0,0,2.8-2.1,8.622,8.622,0,0,1,5.761-1.552c1.277.124,2.517.539,3.8.6,3.772.2,7.005-2.517,10.637-3.627,2.646-.814,5.647-.814,7.868-2.468a3.136,3.136,0,0,0,1.466-3.034,5.072,5.072,0,0,0-1.078-1.784,30.812,30.812,0,0,1-2.948-5.523,33.041,33.041,0,0,0-7.366-9.872,65.916,65.916,0,0,0-7.307-5.54,12.466,12.466,0,0,0-1.972-1.191,22.113,22.113,0,0,1-2.694-1.078c-1.2-.754-1.886-2.085-2.808-3.158-2.021-2.36-5.125-3.443-7.614-5.3-1.671-1.245-3.147-2.883-5.141-3.481-.97-.3-2-.318-2.969-.609-2.2-.668-3.81-2.624-5.971-3.417-1.708-.625-3.594-.463-5.389-.684a12.615,12.615,0,0,1-5.631-2.145,6.682,6.682,0,0,0-1.794-1.045c-2.732-.83-2.953,4.257-3.233,6.019A58.06,58.06,0,0,0,247.868,145.809Z" transform="translate(199.575 69.802)"/><path class="bp" d="M265.236,151.428c.458,4.968-3.293,9.781-2.2,14.647.232,1.035.679,2.021.841,3.072.458,2.883-1.266,5.615-2.91,8.029L246.85,197.9a13.03,13.03,0,0,1-2.015,2.49c-2.694,2.4-6.747,2.156-10.293,2.867a17.784,17.784,0,0,0-6.9,3.05.447.447,0,0,0-.086.62,5.928,5.928,0,0,0,5.125,2.409c.372.485,0,1.207-.512,1.557-.754.539-1.8.663-1.951,1.951a2.155,2.155,0,0,0,.259,1.293,4.025,4.025,0,0,0,2.468,1.714c4.888,1.5,10.169-1.132,13.828-4.7s6.283-8.083,9.872-11.715c1.988-2.015,4.246-3.734,6.294-5.685,4.085-3.9,7.264-8.622,10.325-13.359a14.783,14.783,0,0,0,2.236-4.548c.383-1.654.2-3.33.641-4.931.571-2.1,2.107-3.772,3.384-5.529,2.506-3.449,4.182-7.668,3.848-11.92s-2.964-8.444-6.973-9.888a6.267,6.267,0,0,0-3.907-.237,9.254,9.254,0,0,0-3.977,3.169l-2.694,3.093a7.215,7.215,0,0,0-1.514,2.376,2.484,2.484,0,0,0,.539,2.641" transform="translate(184.868 81.244)"/><path class="bi" d="M254.382,137.215c-1.854.108-3.9.291-5.206,1.617a7.41,7.41,0,0,0-1.315,2.059c-1.272,2.592-2.511,5.3-2.6,8.191-.075,2.306.593,4.564.943,6.844.291,1.9-.447,3.831-.587,5.75a39.907,39.907,0,0,0,7.426-2.856,24.866,24.866,0,0,1,4.349-2.258c2.215-.738,5.928.539,8.035,1.563.113-1.477-1-4.052-.878-5.534a6.182,6.182,0,0,1,.329-1.832,11.118,11.118,0,0,1,1.116-1.773,7.253,7.253,0,0,0-.652-8.5c-1.87-2.1-4.8-2.888-7.587-3.233a32.82,32.82,0,0,0-5.3-.183" transform="translate(202.879 75.077)"/></g></g></g></svg>