<svg xmlns="http://www.w3.org/2000/svg" xmlns:xlink="http://www.w3.org/1999/xlink" width="938" height="1584" viewBox="0 0 938 1584"><defs><style>.a{fill:#fff;}.b{fill:#ececec;}.c{clip-path:url(#a);}.d{opacity:0.5;}.aa,.ab,.ac,.ad,.ae,.af,.ag,.ah,.ai,.aj,.ak,.al,.am,.an,.ao,.ap,.aq,.ar,.as,.at,.au,.av,.aw,.ax,.ay,.az,.ba,.bb,.bc,.bd,.be,.bf,.bg,.bh,.bi,.bj,.bk,.bl,.bm,.bn,.e,.f,.g,.h,.i,.j,.k,.l,.m,.n,.o,.p,.q,.r,.s,.t,.u,.v,.w,.x,.y,.z{fill:none;stroke-linecap:round;stroke-miterlimit:10;stroke-width:0.5px;}.e{stroke:#1b75bc;}.bh,.e{stroke-dasharray:2.007 2.007 2.007 2.007 2.007 2.007;}.f{stroke:#1776bd;stroke-dasharray:1.992 1.992 1.992 1.992 1.992 1.992;}.g{stroke:#1177be;}.g,.q{stroke-dasharray:1.993 1.993 1.993 1.993 1.993 1.993;}.h{stroke:#0978be;stroke-dasharray:1.995 1.995 1.995 1.995 1.995 1.995;}.i{stroke:#0079bf;stroke-dasharray:1.996 1.996 1.996 1.996 1.996 1.996;}.j{stroke:#007ac0;stroke-dasharray:1.998 1.998 1.998 1.998 1.998 1.998;}.k{stroke:#007bc1;stroke-dasharray:2 2 2 2 2 2;}.l{stroke:#007cc1;stroke-dasharray:2.001 2.001 2.001 2.001 2.001 2.001;}.m{stroke:#007dc2;stroke-dasharray:2.003 2.003 2.003 2.003 2.003 2.003;}.n{stroke:#007ec3;stroke-dasharray:2.005 2.005 2.005 2.005 2.005 2.005;}.o{stroke:#007fc4;stroke-dasharray:2.007 2.007 2.007 2.007 2.007 2.007;}.p{stroke:#0080c5;stroke-dasharray:1.991 1.991 1.991 1.991 1.991 1.991;}.q{stroke:#0081c5;}.r{stroke:#0082c6;stroke-dasharray:1.995 1.995 1.995 1.995 1.995 1.995;}.s{stroke:#0083c7;stroke-dasharray:1.998 1.998 1.998 1.998 1.998 1.998;}.t{stroke:#0083c8;stroke-dasharray:2 2 2 2 2 2;}.u{stroke:#0084c9;stroke-dasharray:2.003 2.003 2.003 2.003 2.003 2.003;}.v{stroke:#0085ca;stroke-dasharray:2.005 2.005 2.005 2.005 2.005 2.005;}.w{stroke:#0086ca;stroke-dasharray:2.008 2.008 2.008 2.008 2.008 2.008;}.x{stroke:#0087cb;stroke-dasharray:1.992 1.992 1.992 1.992 1.992 1.992;}.y{stroke:#08c;}.ar,.y{stroke-dasharray:1.995 1.995 1.995 1.995 1.995 1.995;}.z{stroke:#0089cd;stroke-dasharray:1.998 1.998 1.998 1.998 1.998 1.998;}.aa{stroke:#008ace;}.aa,.as{stroke-dasharray:2.001 2.001 2.001 2.001 2.001 2.001;}.ab{stroke:#008bcf;stroke-dasharray:2.005 2.005 2.005 2.005 2.005 2.005;}.ac{stroke:#008cd0;stroke-dasharray:2.008 2.008 2.008 2.008 2.008 2.008;}.ad{stroke:#008dd0;stroke-dasharray:1.991 1.991 1.991 1.991 1.991 1.991;}.ae{stroke:#008ed1;stroke-dasharray:1.995 1.995 1.995 1.995 1.995 1.995;}.af{stroke:#008fd2;stroke-dasharray:1.999 1.999 1.999 1.999 1.999 1.999;}.ag{stroke:#0090d3;stroke-dasharray:2.003 2.003 2.003 2.003 2.003 2.003;}.ah{stroke:#0091d4;stroke-dasharray:2.007 2.007 2.007 2.007 2.007 2.007;}.ai,.aj{stroke:#0092d5;}.ai{stroke-dasharray:1.991 1.991 1.991 1.991 1.991 1.991;}.aj{stroke-dasharray:1.995 1.995 1.995 1.995 1.995 1.995;}.ak{stroke:#0093d6;stroke-dasharray:2 2 2 2 2 2;}.al{stroke:#0094d7;}.al,.ap{stroke-dasharray:2.005 2.005 2.005 2.005 2.005 2.005;}.am{stroke:#0095d8;stroke-dasharray:2.01 2.01 2.01 2.01 2.01 2.01;}.an{stroke:#0096d9;stroke-dasharray:1.994 1.994 1.994 1.994 1.994 1.994;}.ao{stroke:#0097da;stroke-dasharray:1.999 1.999 1.999 1.999 1.999 1.999;}.ap{stroke:#0098da;}.aq{stroke:#0099db;stroke-dasharray:1.989 1.989 1.989 1.989 1.989 1.989;}.ar{stroke:#0099dc;}.as{stroke:#009add;}.at{stroke:#009bde;stroke-dasharray:2.008 2.008 2.008 2.008 2.008 2.008;}.au{stroke:#009cde;stroke-dasharray:1.992 1.992 1.992 1.992 1.992 1.992;}.av{stroke:#009ddf;stroke-dasharray:1.999 1.999 1.999 1.999 1.999 1.999;}.aw{stroke:#009ee0;stroke-dasharray:2.006 2.006 2.006 2.006 2.006 2.006;}.ax{stroke:#009fe1;stroke-dasharray:1.99 1.99 1.99 1.99 1.99 1.99;}.ay{stroke:#009fe2;stroke-dasharray:1.998 1.998 1.998 1.998 1.998 1.998;}.az{stroke:#00a0e2;stroke-dasharray:2.006 2.006 2.006 2.006 2.006 2.006;}.ba{stroke:#00a1e3;stroke-dasharray:1.99 1.99 1.99 1.99 1.99 1.99;}.bb{stroke:#00a2e4;stroke-dasharray:1.999 1.999 1.999 1.999 1.999 1.999;}.bc{stroke:#00a3e5;stroke-dasharray:2.008 2.008 2.008 2.008 2.008 2.008;}.bd{stroke:#00a4e6;stroke-dasharray:1.992 1.992 1.992 1.992 1.992 1.992;}.be,.bf{stroke:#00a5e7;}.be{stroke-dasharray:2.002 2.002 2.002 2.002 2.002 2.002;}.bf{stroke-dasharray:2.012 2.012 2.012 2.012 2.012 2.012;}.bg{stroke:#00a6e8;stroke-dasharray:1.996 1.996 1.996 1.996 1.996 1.996;}.bh{stroke:#00a7e9;}.bi{stroke:#00a8ea;stroke-dasharray:1.992 1.992 1.992 1.992 1.992 1.992;}.bj{stroke:#00a9eb;stroke-dasharray:2.003 2.003 2.003 2.003 2.003 2.003;}.bk{stroke:#00aaec;stroke-dasharray:1.988 1.988 1.988 1.988 1.988 1.988;}.bl{stroke:#00abed;stroke-dasharray:2 2 2 2 2 2;}.bm{stroke:#00acee;stroke-dasharray:2.012 2.012 2.012 2.012 2.012 2.012;}.bn{stroke:#00aeef;stroke-dasharray:1.997 1.997 1.997 1.997 1.997 1.997;}.bo{clip-path:url(#b);}.bp{fill:#f2f2f2;}.bq{fill:#3f3d56;}.br{fill:#171717;}.bs{fill:#1694f3;}.bt{fill:#2f2e41;}.bu{fill:#ffb9b9;}.bv{opacity:0.1;}.bw{fill:#9f616a;}.bx{fill:#d0cde1;}</style><clipPath id="a"><rect class="a" width="938" height="1584" transform="translate(982 2490)"/></clipPath><clipPath id="b"><rect class="b" width="475" height="475" transform="translate(1050 1422.691)"/></clipPath></defs><g class="c" transform="translate(-982 -2490)"><g class="d" transform="translate(911.287 1951.782) rotate(-2)"><g transform="translate(43.89 138.918)"><path class="e" d="M2315.995,516.242c-22.836,528.051-78.846,1658.16-973.169,1553.752C817.876,2008.675,43.89,1616.982,43.89,1088.461s711.727-355.84,1231.6-451.085C1822.621,537.151,2353.585-352.52,2315.995,516.242Z" transform="translate(-43.89 -138.918)"/><g transform="translate(9.304 14.456)"><path class="f" d="M2302.516,518.488c-22.461,525.373-82.417,1641.855-968.094,1539.139C812.056,1997.342,45.87,1607.2,45.87,1081.311s704.961-360.868,1222.3-454.562C1812.337,528.168,2339.5-342.05,2302.516,518.488Z" transform="translate(-45.87 -141.994)"/></g><g transform="translate(18.654 28.894)"><path class="g" d="M2288.952,520.75c-22.084,522.742-85.988,1625.55-963.019,1524.526C806.2,1985.977,47.86,1597.386,47.86,1074.175s698.1-365.9,1212.948-458.039C1802.016,519.2,2325.321-331.518,2288.952,520.75Z" transform="translate(-47.86 -145.067)"/></g><g transform="translate(27.958 43.269)"><path class="h" d="M2275.426,523.061c-21.708,520.063-89.559,1609.2-957.944,1509.912C800.379,1974.708,49.84,1587.668,49.84,1067.088S741.174,696.165,1253.485,605.619C1791.732,510.28,2311.184-320.985,2275.426,523.061Z" transform="translate(-49.84 -148.126)"/></g><g transform="translate(37.262 57.584)"><path class="i" d="M2261.948,525.372c-21.333,517.432-93.13,1592.893-952.823,1495.346C794.559,1963.439,51.82,1577.95,51.82,1060.095S736.341,684.1,1246.161,595.1C1781.448,501.408,2297.048-310.4,2261.948,525.372Z" transform="translate(-51.82 -151.173)"/></g><g transform="translate(46.612 71.878)"><path class="j" d="M2248.385,527.747c-20.957,514.754-96.7,1576.588-947.748,1480.733C788.655,1952.235,53.81,1568.3,53.81,1053.073S731.518,672.047,1238.8,584.6C1771.127,492.6,2282.874-299.806,2248.385,527.747Z" transform="translate(-53.81 -154.215)"/></g><g transform="translate(55.916 86.111)"><path class="k" d="M2234.858,530.169c-20.581,512.122-100.272,1560.284-942.673,1466.12C782.835,1941.03,55.79,1558.642,55.79,1046.1S726.732,660.044,1231.477,574.15C1760.844,483.792,2268.784-289.161,2234.858,530.169Z" transform="translate(-55.79 -157.244)"/></g><g transform="translate(65.22 100.293)"><path class="l" d="M2221.379,532.632c-20.2,509.444-103.844,1543.979-937.6,1451.506C777.015,1929.914,57.77,1549.076,57.77,1039.163S721.9,648.081,1224.153,563.738C1750.56,475.025,2254.647-278.475,2221.379,532.632Z" transform="translate(-57.77 -160.262)"/></g><g transform="translate(74.523 114.421)"><path class="m" d="M2207.853,535.137c-19.829,506.813-107.227,1525.889-932.524,1436.94-504.04-54.318-1215.58-432.524-1215.58-939.76s657.362-396.156,1157.08-478.9C1740.229,466.3,2240.51-267.747,2207.853,535.137Z" transform="translate(-59.75 -163.269)"/></g><g transform="translate(83.874 128.497)"><path class="n" d="M2194.291,537.636c-19.5,504.181-110.8,1509.4-927.4,1422.327C765.479,1906.537,61.74,1530.022,61.74,1025.418s650.5-401.136,1147.729-482.332C1729.908,457.615,2226.336-256.931,2194.291,537.636Z" transform="translate(-61.74 -166.265)"/></g><g transform="translate(93.177 142.505)"><path class="o" d="M2180.812,540.236c-19.124,501.5-114.369,1492.9-922.327,1407.713C759.659,1895.417,63.72,1520.594,63.72,1018.668S707.456,612.457,1202.145,532.812C1719.624,448.985,2212.2-246.108,2180.812,540.236Z" transform="translate(-63.72 -169.246)"/></g><g transform="translate(102.528 156.459)"><path class="p" d="M2167.248,542.879C2148.5,1041.75,2049.355,2019.288,1250,1936.025,753.8,1884.339,65.71,1511.16,65.71,1011.913S702.632,600.674,1194.785,522.58C1709.3,440.445,2198.073-235.243,2167.248,542.879Z" transform="translate(-65.71 -172.215)"/></g><g transform="translate(111.832 170.332)"><path class="q" d="M2153.722,545.584c-18.372,496.193-121.464,1459.917-912.178,1378.534C747.982,1873.324,67.69,1501.837,67.69,1005.221S697.8,588.954,1187.461,512.411C1699.019,431.92,2183.935-224.314,2153.722,545.584Z" transform="translate(-67.69 -175.168)"/></g><g transform="translate(121.182 184.135)"><path class="r" d="M2140.206,548.345c-18,493.562-125.035,1443.424-907.1,1363.92C742.125,1862.365,69.68,1492.522,69.68,998.584s623.3-421.294,1110.42-496.24C1688.7,423.451,2169.762-213.33,2140.206,548.345Z" transform="translate(-69.68 -178.105)"/></g><g transform="translate(130.486 197.845)"><path class="s" d="M2126.68,551.132c-17.621,490.884-128.606,1426.931-901.982,1349.307C736.305,1851.478,71.66,1483.327,71.66,992.02S688.19,565.7,1172.777,492.3C1678.415,415.055,2155.625-202.274,2126.68,551.132Z" transform="translate(-71.66 -181.023)"/></g><g transform="translate(139.79 211.486)"><path class="t" d="M2113.154,554.021c-17.245,488.252-132.13,1410.486-896.907,1334.741C730.485,1840.646,73.64,1474.14,73.64,985.512s609.716-431.35,1091.813-503.194C1668.131,406.714,2141.488-191.161,2113.154,554.021Z" transform="translate(-73.64 -183.926)"/></g><g transform="translate(149.14 225.038)"><path class="u" d="M2099.591,556.98c-16.868,485.574-135.7,1394.04-891.832,1320.128C724.628,1829.884,75.63,1465.07,75.63,979.12S678.533,542.7,1158.092,472.4C1657.763,398.442,2127.361-179.98,2099.591,556.98Z" transform="translate(-75.63 -186.81)"/></g><g transform="translate(158.443 238.53)"><path class="v" d="M2086.112,559.985c-16.493,482.943-139.272,1377.548-886.758,1305.515C718.855,1819.17,77.61,1456,77.61,972.728s596.09-441.452,1073.159-510.2C1647.479,390.265,2113.224-168.7,2086.112,559.985Z" transform="translate(-77.61 -189.682)"/></g><g transform="translate(167.747 251.891)"><path class="w" d="M2072.586,563.094C2056.469,1043.359,1929.742,1924.2,1190.9,1854,712.988,1808.605,79.59,1447.08,79.59,966.439s589.324-446.48,1063.855-513.626C1637.2,382.144,2099.087-157.373,2072.586,563.094Z" transform="translate(-79.59 -192.525)"/></g><g transform="translate(177.051 265.133)"><path class="x" d="M2059.06,566.251c-15.741,477.633-146.414,1344.7-876.608,1276.335C707.168,1798.088,81.57,1438.207,81.57,960.245s582.557-451.555,1054.552-517.1C1626.911,374.117,2084.95-145.946,2059.06,566.251Z" transform="translate(-81.57 -195.343)"/></g><g transform="translate(186.449 278.27)"><path class="y" d="M2045.507,569.536c-15.365,474.955-149.986,1328.257-871.486,1261.721C701.321,1787.652,83.57,1429.463,83.57,954.132S659.22,497.55,1128.724,433.552C1616.554,366.172,2070.74-134.439,2045.507,569.536Z" transform="translate(-83.57 -198.139)"/></g><g transform="translate(195.705 291.285)"><path class="z" d="M2032.018,572.917c-14.989,472.324-153.557,1311.811-866.412,1247.108C695.491,1777.36,85.54,1420.769,85.54,948.116s568.931-461.61,1035.9-524.057C1606.307,358.323,2056.687-122.834,2032.018,572.917Z" transform="translate(-85.54 -200.909)"/></g><g transform="translate(205.009 304.182)"><path class="aa" d="M2018.492,576.391c-14.613,469.692-157.128,1295.412-861.337,1232.5C689.671,1767.114,87.52,1412.214,87.52,942.193S649.637,475.555,1114.114,414.658C1596.023,350.614,2042.55-111.137,2018.492,576.391Z" transform="translate(-87.52 -203.654)"/></g><g transform="translate(214.359 316.928)"><path class="ab" d="M2004.976,579.985C1990.738,1047,1844.277,1859,1148.713,1797.914c-464.9-40.832-1059.2-394.135-1059.2-861.478s555.3-471.713,1017.243-531.011C1585.7,342.977,2028.376-99.321,2004.976,579.985Z" transform="translate(-89.51 -206.366)"/></g><g transform="translate(223.663 329.509)"><path class="ac" d="M1991.45,583.661c-14.8,464.335-164.27,1262.615-851.187,1203.316C677.994,1747.084,91.49,1395.425,91.49,930.761s548.538-476.74,1007.94-534.488C1575.371,335.47,2012.876-87.375,1991.45,583.661Z" transform="translate(-91.49 -209.044)"/></g><g transform="translate(233.014 341.935)"><path class="ad" d="M1977.886,587.506c-14.472,461.7-167.841,1246.216-846.066,1188.7C672.137,1737.255,93.48,1387.195,93.48,925.209s541.678-481.768,998.589-537.966C1565.05,328.085,1998.655-75.307,1977.886,587.506Z" transform="translate(-93.48 -211.688)"/></g><g transform="translate(242.364 354.183)"><path class="ae" d="M1964.371,591.491c-14.1,459.026-171.412,1229.817-840.991,1174.089C666.327,1727.566,95.47,1379.15,95.47,919.8S630.334,433,1084.708,378.353C1554.729,320.84,1984.481-63.1,1964.371,591.491Z" transform="translate(-95.47 -214.295)"/></g><g transform="translate(251.621 366.24)"><path class="af" d="M1950.881,595.626c-13.767,456.394-174.983,1213.465-835.916,1159.523C660.5,1718.075,97.44,1371.257,97.44,914.58s528.145-491.87,979.982-544.967C1544.482,313.745,1970.382-50.741,1950.881,595.626Z" transform="translate(-97.44 -216.861)"/></g><g transform="translate(260.925 378.11)"><path class="ag" d="M1937.356,599.909c-13.392,453.716-178.555,1197.066-830.842,1144.91C654.63,1708.685,99.42,1363.464,99.42,909.466s521.332-496.9,970.678-548.4C1534.2,306.844,1956.245-38.236,1937.356,599.909Z" transform="translate(-99.42 -219.387)"/></g><g transform="translate(270.275 389.728)"><path class="ah" d="M1923.839,604.343c-13.062,451.085-182.125,1180.715-825.767,1130.3C648.82,1699.445,101.41,1355.869,101.41,904.5s514.519-501.879,961.327-551.827C1523.878,300.1,1942.071-25.532,1923.839,604.343Z" transform="translate(-101.41 -221.86)"/></g><g transform="translate(279.626 401.109)"><path class="ai" d="M1910.276,609.01c-12.687,448.407-185.7,1164.363-820.645,1115.73C642.963,1690.486,103.4,1348.507,103.4,899.819s507.658-506.953,951.977-555.351C1513.557,293.533,1927.85-12.641,1910.276,609.01Z" transform="translate(-103.4 -224.282)"/></g><g transform="translate(288.929 412.224)"><path class="aj" d="M1896.75,613.888C1884.44,1059.663,1707.483,1761.945,1081.18,1715,637.1,1681.737,105.38,1341.356,105.38,895.3s500.892-511.981,942.673-558.828C1503.226,287.18,1913.713.459,1896.75,613.888Z" transform="translate(-105.38 -226.647)"/></g><g transform="translate(298.28 423.066)"><path class="ak" d="M1883.234,618.979c-11.982,443.1-192.886,1131.706-810.5,1086.5-441.452-32.328-965.369-371.111-965.369-814.49s494.079-517.009,933.323-562.305C1492.905,281.042,1899.586,13.821,1883.234,618.979Z" transform="translate(-107.37 -228.955)"/></g><g transform="translate(307.584 433.581)"><path class="al" d="M1869.708,624.329c-11.606,440.466-196.457,1115.4-805.421,1071.89C625.419,1664.878,109.35,1327.692,109.35,886.945s487.265-522.037,924.019-565.736C1482.621,275.161,1885.449,27.393,1869.708,624.329Z" transform="translate(-109.35 -231.193)"/></g><g transform="translate(316.84 443.758)"><path class="am" d="M1856.219,629.9c-11.23,437.787-200.028,1099.1-800.347,1057.324-436.283-30.355-944.553-365.99-944.553-804.012S591.866,356.1,1026.082,313.95C1472.374,269.593,1871.349,41.231,1856.219,629.9Z" transform="translate(-111.32 -233.359)"/></g><g transform="translate(326.144 453.546)"><path class="an" d="M1842.693,635.819c-10.854,435.156-203.6,1082.791-795.272,1042.711C613.769,1649.162,113.3,1315.125,113.3,879.734S587.033,347.595,1018.759,307C1462.091,264.285,1857.213,55.376,1842.693,635.819Z" transform="translate(-113.3 -235.441)"/></g><g transform="translate(335.542 462.921)"><path class="ao" d="M1829.14,642.066c-10.525,432.524-207.217,1066.487-790.15,1028.1C607.922,1641.782,115.3,1309.3,115.3,876.582s466.873-537.167,896.061-576.214C1451.733,259.3,1843.049,69.846,1829.14,642.066Z" transform="translate(-115.3 -237.437)"/></g><g transform="translate(344.845 471.856)"><path class="ap" d="M1815.614,648.659c-10.149,429.846-210.788,1050.182-785.075,1013.484C602.055,1634.749,117.28,1303.859,117.28,873.778s460.106-542.195,886.757-579.644C1441.449,254.664,1828.912,84.662,1815.614,648.659Z" transform="translate(-117.28 -239.338)"/></g><g transform="translate(354.149 480.305)"><path class="aq" d="M1802.088,655.634c-9.773,427.215-214.359,1033.924-780,998.918-425.9-26.36-902.828-355.746-902.828-783.149S572.553,324.134,996.714,288.235C1431.165,250.41,1814.775,99.907,1802.088,655.634Z" transform="translate(-119.26 -241.136)"/></g><g transform="translate(363.499 488.226)"><path class="ar" d="M1788.572,662.979c-9.4,424.537-217.977,1017.666-774.926,984.3-423.268-25.374-892.4-353.162-892.4-777.933s446.48-552.25,868.1-586.6C1420.8,246.618,1800.648,115.522,1788.572,662.979Z" transform="translate(-121.25 -242.822)"/></g><g transform="translate(372.803 495.552)"><path class="as" d="M1775.046,670.838c-8.975,421.905-221.548,1001.408-769.851,969.691C584.511,1616.19,123.23,1289.905,123.23,867.812S562.9,310.534,982.03,277.737C1410.513,243.248,1786.558,131.6,1775.046,670.838Z" transform="translate(-123.23 -244.381)"/></g><g transform="translate(382.107 502.259)"><path class="at" d="M1761.52,679.185c-8.6,419.227-225.12,985.2-764.73,955.078-418.1-23.306-871.58-348.04-871.58-767.5s432.9-562.305,849.5-593.552C1400.229,240.364,1772.421,148.174,1761.52,679.185Z" transform="translate(-125.21 -245.809)"/></g><g transform="translate(391.457 508.325)"><path class="au" d="M1748,688.036c-8.223,416.6-228.738,968.94-759.655,940.511C572.834,1606.275,127.2,1283.045,127.2,866.262s426.087-567.38,840.145-597.029C1389.908,237.985,1758.294,165.248,1748,688.036Z" transform="translate(-127.2 -247.1)"/></g><g transform="translate(400.761 513.693)"><path class="av" d="M1734.478,697.438c-7.847,413.964-232.309,952.729-754.58,925.9C567.014,1602.1,129.18,1280.418,129.18,866.313S548.454,293.858,960.022,265.759C1379.625,236.157,1744.2,182.872,1734.478,697.438Z" transform="translate(-129.18 -248.242)"/></g><g transform="translate(410.064 518.368)"><path class="aw" d="M1720.952,707.337c-7.424,411.286-235.88,936.518-749.506,911.285-410.3-20.158-840.286-340.381-840.286-751.808S543.668,289.379,952.7,262.83C1369.341,234.873,1730.115,201.088,1720.952,707.337Z" transform="translate(-131.16 -249.237)"/></g><g transform="translate(419.415 522.369)"><path class="ax" d="M1707.436,717.814c-7.048,408.655-239.5,920.354-744.431,896.672C555.29,1595.409,133.15,1276.642,133.15,867.893S538.844,285.43,945.337,260.432C1359.02,234.166,1715.988,219.788,1707.436,717.814Z" transform="translate(-133.15 -250.089)"/></g><g transform="translate(428.766 525.705)"><path class="ay" d="M1693.873,728.814c-6.625,405.976-243.069,904.143-739.309,882.106-405.13-18-819.424-335.26-819.424-741.377S533.974,282.006,937.977,258.558C1348.7,233.937,1701.861,239.011,1693.873,728.814Z" transform="translate(-135.14 -250.799)"/></g><g transform="translate(438.022 528.493)"><path class="az" d="M1680.384,740.246c-6.249,403.345-246.687,887.979-734.234,867.492C543.6,1590.823,137.11,1275.016,137.11,871.577S529.225,279.012,930.69,257.162C1338.405,234.138,1687.855,258.666,1680.384,740.246Z" transform="translate(-137.11 -251.392)"/></g><g transform="translate(447.326 530.77)"><path class="ba" d="M1666.9,752.08C1661.078,1152.747,1416.6,1623.9,937.7,1604.959,537.736,1589.125,139.09,1274.822,139.09,874.014s385.3-597.593,784.23-617.892C1328.121,234.742,1673.765,278.723,1666.9,752.08Z" transform="translate(-139.09 -251.877)"/></g><g transform="translate(456.677 532.66)"><path class="bb" d="M1653.342,764.172c-5.4,398.035-253.829,855.7-724.085,838.266-397.33-14.708-788.177-327.6-788.177-725.73S519.568,274.134,916.006,255.386C1317.8,235.651,1659.638,299.085,1653.342,764.172Z" transform="translate(-141.08 -252.279)"/></g><g transform="translate(465.98 534.257)"><path class="bc" d="M1639.816,776.542c-4.981,395.357-257.447,839.582-719.01,823.7-394.746-13.58-777.745-325.016-777.745-720.514S514.782,272.079,908.682,254.881C1307.517,236.791,1645.595,319.724,1639.816,776.542Z" transform="translate(-143.06 -252.618)"/></g><g transform="translate(475.284 535.641)"><path class="bd" d="M1626.29,789.079c-4.558,392.726-261.018,823.465-713.936,809.086-392.162-12.452-767.314-322.479-767.314-715.3S509.949,270.19,901.359,254.543C1297.233,238.145,1631.552,340.484,1626.29,789.079Z" transform="translate(-145.04 -252.913)"/></g><g transform="translate(484.681 536.894)"><path class="be" d="M1612.737,801.718c-3.383,390.094-264.636,807.348-708.814,794.473C514.345,1584.914,147.04,1276.3,147.04,886.109S505.089,268.4,893.961,254.355C1286.875,239.554,1618.281,361.347,1612.737,801.718Z" transform="translate(-147.04 -253.18)"/></g><g transform="translate(493.985 537.991)"><path class="bf" d="M1599.211,814.482C1596.2,1201.9,1331,1605.759,895.471,1594.388c-386.993-10.1-746.451-317.357-746.451-704.82S500.255,266.743,886.638,254.244C1276.591,241.087,1604.144,382.333,1599.211,814.482Z" transform="translate(-149.02 -253.413)"/></g><g transform="translate(503.289 539)"><path class="bg" d="M1585.685,827.267c-2.631,384.785-271.779,775.161-698.665,765.293C502.658,1583.68,151,1277.788,151,892.956S495.469,265.15,879.314,254.2C1266.307,242.69,1590.007,403.389,1585.685,827.267Z" transform="translate(-151 -253.628)"/></g><g transform="translate(512.592 539.942)"><path class="bh" d="M1572.205,840.152c-2.255,382.106-275.4,759.138-693.59,750.68C496.838,1583.126,152.98,1278.6,152.98,896.444s337.7-632.834,719.01-642.232C1255.976,244.344,1575.87,424.543,1572.205,840.152Z" transform="translate(-152.98 -253.828)"/></g><g transform="translate(521.896 540.833)"><path class="bi" d="M1558.679,853.077c-1.88,379.475-278.968,743.068-688.515,736.067-379.193-6.484-715.2-309.651-715.2-689.173S485.849,262.109,864.667,254.262C1245.692,246.039,1561.781,445.691,1558.679,853.077Z" transform="translate(-154.96 -254.018)"/></g><g transform="translate(531.247 541.732)"><path class="bj" d="M1545.117,866c-1.5,376.8-282.539,727.045-683.394,721.5C485.114,1582.281,156.95,1280.383,156.95,903.54S481.026,260.556,857.306,254.353C1235.372,247.775,1547.607,466.833,1545.117,866Z" transform="translate(-156.95 -254.209)"/></g><g transform="translate(540.597 542.553)"><path class="bk" d="M1531.6,878.977c-1.128,374.165-286.157,711.022-678.318,706.887-374.024-3.947-694.342-304.529-694.342-678.742S476.2,259.111,849.945,254.459C1225.051,249.525,1533.433,488.036,1531.6,878.977Z" transform="translate(-158.94 -254.384)"/></g><g transform="translate(549.901 543.348)"><path class="bl" d="M1518.074,891.93c-.752,371.534-289.728,695.7-673.244,692.274-371.393-2.02-683.91-301.992-683.91-673.526s310.45-652.992,681.7-656.094C1214.767,251.3,1519.3,509.26,1518.074,891.93Z" transform="translate(-160.92 -254.553)"/></g><g transform="translate(559.204 544.124)"><path class="bm" d="M1504.548,904.946c-.376,368.856-293.3,679.4-668.169,677.661C467.57,1581.62,162.9,1283.2,162.9,914.343S466.583,256.276,835.3,254.726C1204.483,253.081,1505.159,530.5,1504.548,904.946Z" transform="translate(-162.9 -254.718)"/></g><g transform="translate(568.508 544.883)"><circle class="bn" cx="663.095" cy="663.095" r="663.095"/></g></g></g><g class="bo" transform="translate(91 1522.309)"><g transform="translate(1070.63 1423)"><path class="bp" d="M398.232,347.743l-139.268.461c-36.947-11.1-67.218-49.662-67.41-107.474a163.72,163.72,0,0,1,1.967-26.012l112.173-25.2,86.535-19.44a172.109,172.109,0,0,1,17.776,18.482l-82.748,43.693-39.035,20.613,43.864-15.133,91.042-31.409a220.791,220.791,0,0,1,15.139,27.142L410.8,261.856l31.075-20.343q.2.467.4.936C461.965,289.2,437.529,347.613,398.232,347.743Z" transform="translate(-15.799 81.166)"/><path class="bp" d="M374.293,170.988c-21.061,6.049-46.953,13.691-73.575,21.634-38.491,11.488-78.505,23.612-107.637,32.474l.019-.1a40.039,40.039,0,0,1,7.388-17.149c21.58-28.058,49.058-47.658,79.64-54.937h0a114.775,114.775,0,0,1,26.248-3.132C330.71,149.694,353.757,157.325,374.293,170.988Z" transform="translate(-14.746 67.17)"/><ellipse class="bq" cx="138.529" cy="10.329" rx="138.529" ry="10.329" transform="translate(80.333 421.382)"/><path class="bp" d="M285.717,244.772c0,74.635-44.37,100.7-99.1,100.7s-99.1-26.06-99.1-100.7,99.1-169.584,99.1-169.584S285.717,170.137,285.717,244.772Z" transform="translate(-87.513 15.759)"/><path class="bq" d="M72.781,312.7,73.8,250.236l42.24-77.276L73.954,240.438l.456-28.086,29.111-55.908L74.531,204.919h0l.821-50.514,31.173-44.51L75.481,146.462l.513-92.624L72.771,176.456l.265-5.059L41.342,122.885l31.185,58.223-2.953,56.415-.088-1.5L32.949,184.973l36.427,56.343-.369,7.055-.066.106.03.58-7.492,143.13h10.01l1.2-73.93,36.338-56.2Z" transform="translate(22.712 37.11)"/><path class="br" d="M354.548,39.05V432.886a17.7,17.7,0,0,1-17.7,17.687H176.963a17.668,17.668,0,0,1-17.7-17.687V39.05a17.7,17.7,0,0,1,17.7-17.7H200.89v3.068a14.575,14.575,0,0,0,14.572,14.576h81.317a14.454,14.454,0,0,0,8.64-2.843,13.541,13.541,0,0,0,1.434-1.2,14.532,14.532,0,0,0,4.5-10.529V21.351h25.5a17.694,17.694,0,0,1,17.7,17.7Z" transform="translate(-38.055 -21.351)"/><path class="bs" d="M224.668,122.821c.005,10.991-6.527,14.831-14.586,14.835q-.281,0-.559-.006-.56-.012-1.109-.051c-7.274-.511-12.928-4.543-12.933-14.764C195.477,112.257,208.99,98.9,210,97.914h0l.058-.056S224.663,111.831,224.668,122.821Z" transform="translate(-13.091 31.384)"/><path class="bq" d="M206.207,135.975l5.334-7.46-5.347,8.279-.014.856q-.56-.012-1.109-.05l.57-11,0-.085.01-.016.054-1.039-5.368-8.294,5.384,7.516.014.22.43-8.308-4.6-8.571,4.652,7.111.444-17.224,0-.057v.056l-.069,13.583,4.568-5.387-4.587,6.557-.117,7.439,4.266-7.141L206.44,121.2l-.065,4.136,6.191-9.94-6.215,11.383Z" transform="translate(-9.748 31.384)"/><path class="bs" d="M227.079,174.331H88.55v45.747l11.6-11.6H227.079Z" transform="translate(61.037 120.165)"/><rect class="a" width="77.933" height="6.319" transform="translate(180.492 302.789)"/><rect class="a" width="77.933" height="6.319" transform="translate(180.492 312.267)"/><path class="bs" d="M88.55,137.465H227.079v45.747l-11.6-11.6H88.55Z" transform="translate(61.037 94.754)"/><rect class="a" width="77.933" height="6.319" transform="translate(173.201 241.119)"/><rect class="a" width="77.933" height="6.319" transform="translate(173.201 250.597)"/><path class="bp" d="M172.826,74.023V185.57H322.292V74.023Zm19.26,1.4a2.408,2.408,0,1,1-2.408,2.408,2.407,2.407,0,0,1,2.408-2.408Zm-14.445,4.815a2.408,2.408,0,1,1,2.408-2.408,2.407,2.407,0,0,1-2.408,2.408Zm4.815-2.407a2.408,2.408,0,1,1,2.407,2.407,2.407,2.407,0,0,1-2.407-2.407Zm82.858,76.438h-80.45V94.487h80.45Z" transform="translate(-28.707 14.956)"/><rect class="a" width="4.815" height="0.602" transform="translate(285.559 90.985)"/><rect class="a" width="4.815" height="0.602" transform="translate(285.559 92.79)"/><rect class="a" width="4.815" height="0.602" transform="translate(285.559 94.595)"/><rect class="a" width="36.313" height="1.806" transform="translate(249.246 108.439)"/><rect class="a" width="36.313" height="1.806" transform="translate(249.246 114.659)"/><rect class="a" width="36.313" height="1.806" transform="translate(249.246 120.878)"/><rect class="a" width="36.313" height="1.806" transform="translate(249.246 127.097)"/><rect class="a" width="36.313" height="1.806" transform="translate(249.246 133.316)"/><rect class="a" width="36.313" height="1.806" transform="translate(249.246 139.535)"/><rect class="a" width="36.313" height="1.806" transform="translate(249.246 145.755)"/><rect class="a" width="36.313" height="1.806" transform="translate(249.246 151.975)"/><rect class="a" width="36.313" height="1.806" transform="translate(249.246 158.194)"/><rect class="a" width="36.313" height="1.806" transform="translate(249.246 164.413)"/><circle class="a" cx="2.408" cy="2.408" r="2.408" transform="translate(158.563 171.034)"/><circle class="a" cx="2.408" cy="2.408" r="2.408" transform="translate(166.789 171.034)"/><circle class="a" cx="2.408" cy="2.408" r="2.408" transform="translate(175.015 171.034)"/><rect class="bs" width="36.313" height="10.232" transform="translate(249.246 185.278)"/><path class="bt" d="M150.675,213.96l-1.331,46.59-14.2,54.577s3.106,9.318.887,11.536-12.424,6.212-12.424,6.212l8.431-116.252Z" transform="translate(-62.632 111.414)"/><path class="bt" d="M122.1,280.955s-5.063,11.14,2.025,12.152,39.833,3.713,37.808-2.025-26.668-11.14-26.668-11.14Z" transform="translate(-64.882 156.894)"/><path class="bt" d="M110.213,189.59s5.325,28.841,8.874,33.722-1.775,40.378-1.775,40.378-7.987,51.027-4.437,59.014,2.662,5.325,2.219,9.762-1.331,7.987,0,11.98,1.331,3.55,1.775,5.768,0,14.2,0,14.2,19.08,6.656,22.186-3.106c0,0-4.437-6.212-3.106-11.093a59.093,59.093,0,0,0,2.219-15.086V325.81l20.41-76.319,4.881-27.51s-1.331-27.954-6.212-30.616S110.213,189.59,110.213,189.59Z" transform="translate(-71.866 94.518)"/><path class="bt" d="M115.881,292.251s-6.656,14.642,2.662,15.974,52.358,4.881,49.7-2.662-35.053-14.642-35.053-14.642Z" transform="translate(-69.547 164.462)"/><circle class="bu" cx="17.748" cy="17.748" r="17.748" transform="translate(37.021 120.841)"/><path class="bu" d="M112.552,108.351l.33,22.666,21.76.074s-5.522-17.743-3.049-21.454S112.552,108.351,112.552,108.351Z" transform="translate(-70.254 38.082)"/><path class="bq" d="M149.675,134.412s-15.53-19.967-27.51-11.536-16.417,28.4-16.417,28.4l2.662,55.908s6.656,7.987,2.662,13.311-6.212,3.993-3.106,7.987,6.656,7.1,5.325,8.43,1.331,2.219,1.331,2.219l47.033,1.331s-1.331-1.775,2.662-7.1-.887-12.424,0-15.086,1.775.444,2.219-5.768S149.675,134.412,149.675,134.412Z" transform="translate(-74.944 47.199)"/><path class="bu" d="M129.125,198.435s.887,11.093,7.543,12.868c2.5.666,4.368-.6,5.733-2.449a10.9,10.9,0,0,0,.348-12.225L141.1,194Z" transform="translate(-58.83 97.654)"/><path class="bq" d="M105.085,116.244s-.444,8.874,0,10.205.887,2.662,0,3.993-.444,5.768.444,6.212-1.775,4.437-.887,7.1a19.251,19.251,0,0,0,2.219,4.437c.444.887,1.158,2.477,1.158,2.477s13.04-27.769,23.689-21.113a77.173,77.173,0,0,0,19.08,8.874S145.019,107.37,105.085,116.244Z" transform="translate(-75.833 42.959)"/><path class="bq" d="M122.229,127.851s-14.2,1.331-13.311,19.967-1.331,47.921-1.331,47.921,24.4,37.272,28.4,39.934,4.437,2.219,3.993,4.437-.887,3.993.887,5.768a15.324,15.324,0,0,0,3.55,2.662s14.2-4.881,12.868-9.318-7.543-11.537-7.543-11.537-10.649-17.3-11.093-19.967-.444-2.219-1.775-3.55-4.881-6.656-4.881-9.318v-8.431l3.72-45.053a13.061,13.061,0,0,0-3.464-10.115A11.3,11.3,0,0,0,122.229,127.851Z" transform="translate(-73.676 51.985)"/><path class="bt" d="M140.628,100.751a7.232,7.232,0,0,0,6.7-1.534,5.472,5.472,0,0,0,1.083-6.553c-1.066-1.77-3.138-2.636-5.111-3.251a45.246,45.246,0,0,0-13.438-2.05,12.065,12.065,0,0,0-6.3,1.309c-.92.556-1.7,1.32-2.608,1.893-1.672,1.054-3.68,1.4-5.516,2.136a14.151,14.151,0,0,0-8.065,8.54,17.051,17.051,0,0,0-.784,4.011,21.98,21.98,0,0,0,1.918,10.895c2.476,5.4,7.188,9.938,7.854,15.839,2.537-2.129,3.28-5.7,5.245-8.367a10.849,10.849,0,0,1,5.923-4.02,3.448,3.448,0,0,0,1.794-.8,2.971,2.971,0,0,0,.561-1.616l1.218-8.768c.248-1.784.583-3.735,1.952-4.905a6.941,6.941,0,0,1,2.908-1.262,46.9,46.9,0,0,1,7.59-1.238" transform="translate(-74.412 24.151)"/><path class="bv" d="M108.864,171.747l24.908,32.324S110.837,184.9,108.864,171.747Z" transform="translate(-72.796 82.316)"/><path class="bv" d="M35.6,129.21l-.236,30.527,14.467,21.7-11.836-24.33Z" transform="translate(24.377 89.064)"/><path class="bt" d="M283.874,271.209l-2.883-2.142s-1.908,10.659.221,12.256,10.114,4.259,10.114,7.453,18.1,7.453,18.632,2.662-1.6-7.453-1.6-7.453-8.517-8.517-9.582-10.114-3.726-4.791-3.726-4.791Z" transform="translate(45.308 149.398)"/><path class="bt" d="M326.662,194.258s-.08.468-.218,1.326c-.128.761-.3,1.837-.516,3.162-2.236,13.644-8.757,53.809-8.315,55.135.532,1.6,4.259,7.453,0,9.05a3.3,3.3,0,0,0-1.326,1.443,30.938,30.938,0,0,0-2.252,5.313c-2.539,7.368-5.254,19.159-6.825,27.325-.687,3.588-1.155,6.473-1.294,7.985a4.344,4.344,0,0,0-.016,1.054c.532,2.129-3.194,9.582-4.791,11.711s-4.259,4.259-3.726,6.388-13.308,7.985-14.905,4.259-1.6-5.856-2.129-6.92-1.065-8.517,1.6-9.582,1.065-19.7,3.726-23.423c.889-1.24,2.247-5.441,3.668-10.492.559-1.98,1.123-4.088,1.677-6.2,2.246-8.661,4.237-17.376,4.237-17.376l-.532-62.284L324,188.4l.751,1.656,1.5,3.285Z" transform="translate(45.107 93.796)"/><path class="bt" d="M310.922,253.145s4.259-4.259,6.388,0,4.259,20.761,7.985,24.488,8.517,22.358,3.194,23.423-11.179-1.6-11.712-4.791-11.712-19.7-11.712-21.294,7.452-7.453,7.452-7.453Z" transform="translate(62.445 137.119)"/><path class="bt" d="M269.772,175.133s6.92,62.284,8.518,68.14,10.114,28.214,12.776,31.94,19.7,34.07,21.826,35.667,6.388,5.856,6.388,5.856,7.985,7.985,9.05,9.582,10.114-3.194,10.647-6.388-.532-8.517-1.065-10.647,1.065-5.323-.532-6.92-9.582-9.582-9.582-13.309-13.841-25.552-19.164-30.343-4.259-12.776-4.259-12.776V213.462l29.279-9.05s-1.6-25.552-5.323-25.552S275.628,170.342,269.772,175.133Z" transform="translate(38.117 83.642)"/><circle class="bw" cx="17.567" cy="17.567" r="17.567" transform="translate(333.441 134.74)"/><path class="bw" d="M293.976,123.4s-2.129,7.985-4.791,10.115,6.92,11.179,6.92,11.179l18.1,1.065,3.194-10.114s-5.856-11.712-4.259-19.164S293.976,123.4,293.976,123.4Z" transform="translate(51.176 42.745)"/><path class="bq" d="M298.966,125.061s4.791.532,5.856,2.129,8.518,6.388,14.373,5.323,9.582-2.662,10.647-2.129,3.194,11.712,3.194,11.712l-5.856,17.035,1.065,46.846,1.6,12.776s3.194-4.259-9.582-1.6-29.279-2.129-34.6-2.662-14.373-2.129-14.906-5.323,1.6-14.905,1.6-14.905l8.517-35.667,5.323-19.164Z" transform="translate(38.734 50.136)"/><path class="bx" d="M308.3,124.105s-4.5-2.388-6.1-.259-21.826,5.323-21.826,6.92-4.259,44.717-3.194,48.443-2.129,7.985-2.129,7.985l-3.726,15.97s-10.114,30.343-5.856,31.408,7.985,0,9.582,0,1.065-20.229,5.323-25.552,10.115-18.632,11.179-21.294,14.373-39.393,13.841-43.652S308.3,124.105,308.3,124.105Z" transform="translate(34.431 48.69)"/><path class="bx" d="M308.138,125.061s4.259,0,4.791,1.065,5.856,7.985,7.985,9.582,9.582,8.517,9.582,10.114-15.438,13.309-15.438,13.309-6.388,31.408-3.194,42.055,7.985,36.2,5.856,37.8-6.92,2.129-6.92,0-3.194-25.02-5.856-29.811-10.647-35.135-7.453-43.652S308.138,125.061,308.138,125.061Z" transform="translate(56.711 50.136)"/><path class="bw" d="M261.9,156.259s-.532,16.5,5.323,25.02a101.158,101.158,0,0,1,9.582,18.1s9.582-2.662,11.179-5.856,11.712-.532,11.712-1.6-12.244-6.388-13.309-7.453-4.791-1.065-6.92-3.194-2.662-6.92-2.662-6.92l-2.129-13.841Z" transform="translate(32.681 71.641)"/><path class="bt" d="M290.773,111.81a10.124,10.124,0,0,1-3.94-.9,5.275,5.275,0,0,1-1.349-7.811,10.094,10.094,0,0,1,1.871-1.5l4.047-2.754a19.791,19.791,0,0,1,5.709-3.031,17.822,17.822,0,0,1,5.836-.345A39.438,39.438,0,0,1,314.127,97.5a18.709,18.709,0,0,1,9.058,6.628c3.426,4.957,3.473,11.643,1.586,17.366s-5.471,10.707-9,15.589l-1.833-8.942A3.3,3.3,0,0,0,312.9,126c-1.646-1.172-3.66,1.234-5.681,1.218a3.4,3.4,0,0,1-2.88-2.279,12.993,12.993,0,0,1-.638-3.825c-.241-2.739-1.2-6.551-3.793-8.062C297.49,111.641,293.49,112.056,290.773,111.81Z" transform="translate(48.136 29.666)"/><path class="bv" d="M288.718,192.189s1.8,52.006,2.863,53.6,0-53.767,0-53.767Z" transform="translate(51.176 96.294)"/><path class="bx" d="M288.024,127.582h-4.259s-18.1,24.488-15.97,26.085,0,5.856,0,5.856l-4.259,7.985s-5.323,4.791-3.726,5.856,3.726,5.323,3.726,5.323,10.647-1.6,13.841,4.791l6.9-8.716Z" transform="translate(31.044 51.874)"/><path class="bw" d="M332.007,166.567s-11.712.532-25.02-7.985l-13.309-5.856s-11.712-18.1-12.776-14.906,1.6,9.582,1.6,9.582-17.441,3.323-16.479,8.415c.2,1.049,9.026-1.5,9.026-1.5s-1.6,10.114,7.453,10.647,11.712-1.6,11.712-1.6,38.329,31.94,44.717,21.826S332.007,166.567,332.007,166.567Z" transform="translate(35.504 58.671)"/><path class="bx" d="M320.021,136.091l5.856,2.129v15.97l2.129,3.194s-.532,6.388-2.129,7.985-4.791,1.065-3.726,4.791a20.176,20.176,0,0,1,.532,7.453s-9.582,12.244-10.114,10.647-7.985-21.294-9.05-21.294,10.647-30.876,10.647-30.876Z" transform="translate(61.331 57.739)"/><path class="bt" d="M273.258,187.611s-5.5-5.323-2.752-5.59,12.334-5.59,13.931-2.928S273.258,187.611,273.258,187.611Z" transform="translate(38.091 86.868)"/><path class="bs" d="M178.084,280.253c0,13.652-8.115,18.418-18.127,18.418q-.348,0-.695-.008c-.464-.01-.923-.032-1.377-.063-9.035-.639-16.055-5.651-16.055-18.347,0-13.139,16.79-29.718,18.051-30.945l0,0,.073-.071S178.084,266.6,178.084,280.253Z" transform="translate(-50.072 135.728)"/><path class="bq" d="M155.143,296.583l6.63-9.264L155.127,297.6l-.018,1.064c-.464-.01-.923-.032-1.377-.063l.715-13.658-.006-.106.012-.02.067-1.29-6.663-10.306,6.684,9.339.016.274.54-10.32-5.7-10.65,5.774,8.839.562-21.394,0-.073v.071l-.094,16.871,5.679-6.688-5.7,8.142-.15,9.24,5.3-8.867-5.324,10.227-.084,5.137,7.7-12.342-7.726,14.134Z" transform="translate(-45.918 135.728)"/></g></g></g></svg>