<svg xmlns="http://www.w3.org/2000/svg" width="13.52" height="14.872" viewBox="0 0 13.52 14.872"><defs><style>.a{fill:#fff;fill-rule:evenodd;}</style></defs><g transform="translate(0 0)"><g transform="translate(0 0)"><g transform="translate(0 0)"><g transform="translate(0 0)"><path class="a" d="M3.2,9.117a.575.575,0,0,1,.31,1.053A5.758,5.758,0,0,0,1.133,14.3h0a.569.569,0,0,1-.564.574A.569.569,0,0,1,0,14.3l0,0A6.9,6.9,0,0,1,2.858,9.236.556.556,0,0,1,3.2,9.117M13.511,14.3l.009.1c0-.032-.007-.063-.01-.1a.564.564,0,1,1-1.128-.008h0A5.689,5.689,0,0,0,6.76,9.117H6.742A4.521,4.521,0,0,1,2.261,4.558,4.52,4.52,0,0,1,6.742,0h.016a4.558,4.558,0,0,1,3.709,7.093l-.014.022q-.105.157-.224.3c-.027.034-.055.067-.083.1-.072.084-.143.168-.221.247-.056.058-.117.112-.176.166-.087.08-.177.159-.272.233s-.189.145-.29.212c-.018.011-.033.026-.051.037A6.878,6.878,0,0,1,13.5,14.173a.593.593,0,0,1,.015.126M6.757,7.966a3.248,3.248,0,0,0,.335-.018,3.388,3.388,0,0,0,3-3.39A3.38,3.38,0,0,0,6.742,1.15c-.113,0-.225.006-.335.017a3.388,3.388,0,0,0-3,3.39A3.381,3.381,0,0,0,6.757,7.966"/></g></g></g></g></svg>