<svg xmlns="http://www.w3.org/2000/svg" width="685.834" height="478.11" viewBox="0 0 685.834 478.11"><defs><style>.a{fill:#f2f2f2;}.b{fill:#3f3d56;}.c{fill:#4285f4;}.d{fill:#2f2e41;}.e{fill:#ffb9b9;}.f{opacity:0.1;}.g{fill:#575a89;}</style></defs><g transform="translate(0)"><circle class="a" cx="13.642" cy="13.642" r="13.642" transform="translate(159.087 229.759)"/><circle class="a" cx="8.454" cy="8.454" r="8.454" transform="translate(117.588 392.048)"/><rect class="a" width="103.746" height="1.482" transform="translate(281.594 15.932)"/><rect class="a" width="1.482" height="13.709" transform="translate(309.754 2.594)"/><rect class="a" width="1.482" height="13.709" transform="translate(354.958 2.594)"/><rect class="a" width="103.746" height="1.482" transform="translate(449.07 374.598)"/><rect class="a" width="1.482" height="13.709" transform="translate(477.23 361.259)"/><rect class="a" width="1.482" height="13.709" transform="translate(522.434 361.259)"/><rect class="a" width="103.746" height="1.482" transform="translate(454.258 148.579)"/><rect class="a" width="1.482" height="13.709" transform="translate(482.417 135.241)"/><rect class="a" width="1.482" height="13.709" transform="translate(527.621 135.241)"/><rect class="a" width="103.746" height="1.482" transform="translate(454.258 95.224)"/><rect class="a" width="1.482" height="13.709" transform="translate(482.417 81.885)"/><rect class="a" width="1.482" height="13.709" transform="translate(527.621 81.885)"/><rect class="a" width="103.746" height="1.482" transform="translate(226.757 102.635)"/><rect class="a" width="1.482" height="13.709" transform="translate(254.917 89.296)"/><rect class="a" width="1.482" height="13.709" transform="translate(300.121 89.296)"/><rect class="a" width="103.746" height="1.482" transform="translate(151.171 67.806)"/><rect class="a" width="1.482" height="13.709" transform="translate(179.33 54.467)"/><rect class="a" width="1.482" height="13.709" transform="translate(224.534 54.467)"/><rect class="a" width="103.746" height="1.482" transform="translate(104.485 204.899)"/><rect class="a" width="1.482" height="13.709" transform="translate(132.645 191.56)"/><rect class="a" width="1.482" height="13.709" transform="translate(177.848 191.56)"/><rect class="a" width="103.746" height="1.482" transform="translate(52.612 356.072)"/><rect class="a" width="1.482" height="13.709" transform="translate(80.772 342.733)"/><rect class="a" width="1.482" height="13.709" transform="translate(125.975 342.733)"/><rect class="a" width="103.746" height="1.482" transform="translate(543.183 293.824)"/><rect class="a" width="1.482" height="13.709" transform="translate(571.343 280.485)"/><rect class="a" width="1.482" height="13.709" transform="translate(616.546 280.485)"/><rect class="a" width="103.746" height="1.482" transform="translate(512.8 198.97)"/><rect class="a" width="1.482" height="13.709" transform="translate(586.905 200.082)"/><rect class="a" width="1.482" height="13.709" transform="translate(541.701 200.082)"/><rect class="a" width="103.746" height="1.482" transform="translate(10.372 87.814)"/><rect class="a" width="1.482" height="13.709" transform="translate(84.477 88.925)"/><rect class="a" width="1.482" height="13.709" transform="translate(39.273 88.925)"/><rect class="a" width="103.746" height="1.482" transform="translate(17.042 281.967)"/><rect class="a" width="1.482" height="13.709" transform="translate(91.146 283.079)"/><rect class="a" width="1.482" height="13.709" transform="translate(45.942 283.079)"/><rect class="a" width="103.746" height="1.482" transform="translate(343.842 39.646)"/><rect class="a" width="1.482" height="13.709" transform="translate(417.947 40.757)"/><rect class="a" width="1.482" height="13.709" transform="translate(372.743 40.757)"/><rect class="a" width="103.746" height="1.482" transform="translate(52.612 142.651)"/><rect class="a" width="1.482" height="13.709" transform="translate(80.772 129.312)"/><rect class="a" width="1.482" height="13.709" transform="translate(125.975 129.312)"/><path class="b" d="M370.749,300.408V649.44h323.1V300.408ZM532.3,325.6a11.116,11.116,0,1,1,11.116-11.116A11.116,11.116,0,0,1,532.3,325.6Z" transform="translate(-197.717 -172.207)"/><path class="b" d="M173.965,717.955c5.124,18.94,22.673,30.67,22.673,30.67s9.242-18.978,4.119-37.917-22.673-30.67-22.673-30.67S168.842,699.015,173.965,717.955Z" transform="translate(-146.358 -270.515)"/><path class="c" d="M172.388,720.527c14.059,13.686,15.776,34.725,15.776,34.725s-21.077-1.151-35.136-14.837-15.776-34.724-15.776-34.724S158.329,706.842,172.388,720.527Z" transform="translate(-137.251 -277.158)"/><rect class="b" width="673.609" height="1.482" transform="translate(12.225 476.491)"/><path class="b" d="M317.854,692.43a16.326,16.326,0,0,0-10.4-15.191,16.3,16.3,0,1,0-11.811,0,16.3,16.3,0,0,0,0,30.383,16.3,16.3,0,1,0,11.811,0,16.326,16.326,0,0,0,10.4-15.191Zm-31.124-30.383A14.821,14.821,0,1,1,304.9,676.474a16.321,16.321,0,0,0-6.689,0A14.836,14.836,0,0,1,286.731,662.047Zm29.642,60.766a14.821,14.821,0,1,1-18.165-14.426,16.319,16.319,0,0,0,6.689,0,14.836,14.836,0,0,1,11.477,14.426ZM304.9,706.856a16.32,16.32,0,0,0-6.689,0,14.805,14.805,0,0,1,0-28.852,16.32,16.32,0,0,0,6.689,0,14.805,14.805,0,0,1,0,28.852Z" transform="translate(-175.576 -261.633)"/><path class="a" d="M587.134,395.283h-169.7a5.187,5.187,0,0,1,0-10.375h169.7a5.187,5.187,0,1,1,0,10.375Z" transform="translate(-208.464 -194.089)"/><path class="a" d="M587.134,467.283h-169.7a5.187,5.187,0,0,1,0-10.375h169.7a5.187,5.187,0,1,1,0,10.375Z" transform="translate(-208.464 -212.734)"/><path class="a" d="M587.134,539.283h-169.7a5.187,5.187,0,1,1,0-10.375h169.7a5.187,5.187,0,1,1,0,10.375Z" transform="translate(-208.464 -231.379)"/><path class="a" d="M587.134,611.283h-169.7a5.187,5.187,0,1,1,0-10.375h169.7a5.187,5.187,0,0,1,0,10.375Z" transform="translate(-208.464 -250.023)"/><path class="a" d="M587.134,683.283h-169.7a5.187,5.187,0,1,1,0-10.375h169.7a5.187,5.187,0,0,1,0,10.375Z" transform="translate(-208.464 -268.668)"/><path class="c" d="M557.234,395.283h-140.8a5.187,5.187,0,1,1,0-10.375h140.8a5.187,5.187,0,0,1,0,10.375Z" transform="translate(-208.205 -194.089)"/><path class="c" d="M513.512,467.283H416.435a5.187,5.187,0,1,1,0-10.375h97.077a5.187,5.187,0,1,1,0,10.375Z" transform="translate(-208.205 -212.734)"/><path class="c" d="M460.158,539.283H416.436a5.187,5.187,0,1,1,0-10.375h43.722a5.187,5.187,0,1,1,0,10.375Z" transform="translate(-208.205 -231.379)"/><path class="c" d="M570.572,611.283H416.435a5.187,5.187,0,1,1,0-10.375H570.572a5.187,5.187,0,0,1,0,10.375Z" transform="translate(-208.205 -250.023)"/><path class="c" d="M536.484,683.283H416.435a5.187,5.187,0,1,1,0-10.375H536.484a5.187,5.187,0,0,1,0,10.375Z" transform="translate(-208.205 -268.668)"/><rect class="c" width="1.482" height="10.375" transform="translate(447.588 190.819)"/><path class="c" d="M756.176,395.765a5.928,5.928,0,1,1,5.928-5.928A5.928,5.928,0,0,1,756.176,395.765Zm0-10.375a4.446,4.446,0,1,0,4.446,4.446A4.446,4.446,0,0,0,756.176,385.39Z" transform="translate(-295.991 -193.83)"/><rect class="c" width="1.482" height="10.375" transform="translate(447.588 244.174)"/><path class="c" d="M756.176,467.765a5.928,5.928,0,1,1,5.928-5.928,5.928,5.928,0,0,1-5.928,5.928Zm0-10.375a4.446,4.446,0,1,0,4.446,4.446,4.446,4.446,0,0,0-4.446-4.446Z" transform="translate(-295.991 -212.475)"/><rect class="c" width="1.482" height="10.375" transform="translate(447.588 297.529)"/><path class="c" d="M756.176,539.765a5.928,5.928,0,1,1,5.928-5.928A5.928,5.928,0,0,1,756.176,539.765Zm0-10.375a4.446,4.446,0,1,0,4.446,4.446A4.446,4.446,0,0,0,756.176,529.39Z" transform="translate(-295.991 -231.12)"/><rect class="c" width="1.482" height="10.375" transform="translate(447.588 350.884)"/><path class="c" d="M756.176,611.765a5.928,5.928,0,1,1,5.928-5.928A5.928,5.928,0,0,1,756.176,611.765Zm0-10.375a4.446,4.446,0,1,0,4.446,4.446A4.446,4.446,0,0,0,756.176,601.39Z" transform="translate(-295.991 -249.765)"/><rect class="c" width="1.482" height="10.375" transform="translate(447.588 404.24)"/><path class="c" d="M756.176,683.765a5.928,5.928,0,1,1,5.928-5.928,5.928,5.928,0,0,1-5.928,5.928Zm0-10.375a4.446,4.446,0,1,0,4.446,4.446A4.446,4.446,0,0,0,756.176,673.39Z" transform="translate(-295.991 -268.409)"/><circle class="c" cx="2.964" cy="2.964" r="2.964" transform="translate(457.222 193.042)"/><circle class="c" cx="2.964" cy="2.964" r="2.964" transform="translate(457.222 353.107)"/><circle class="c" cx="2.964" cy="2.964" r="2.964" transform="translate(457.222 406.463)"/><circle class="b" cx="5.187" cy="5.187" r="5.187" transform="translate(329.392 137.093)"/><circle class="b" cx="5.187" cy="5.187" r="5.187" transform="translate(329.392)"/><rect class="b" width="1.482" height="137.093" transform="translate(333.838 5.187)"/><path class="d" d="M969.967,509.158v18.359s4.42,29.579,4.42,55.418-7.139,86.017-7.139,86.017-14.279,5.1-15.3-2.72-3.74-49.3-3.74-55.418-11.9-52.7-11.9-52.7l-7.48,51.678s2.38,61.2,0,62.9-13.94,4.76-15.3,1.7-8.5-68.677-8.5-68.677-5.78-85.677-2.38-90.776,6.46-9.18,6.46-9.18S957.727,493.859,969.967,509.158Z" transform="translate(-335.179 -224.242)"/><path class="d" d="M982.736,724.767l.853,5.542a54.592,54.592,0,0,1,.557,5.705c.133,2.784.6,7.073,2.183,7.753,2.38,1.02,17.827,14.047,6.947,14.727s-16.322,1.855-19.545-.647c-3.81-2.958.506-1.619-1.194-1.619s-3.74,0-4.42-2.72,1.02-7.48,1.02-7.48V724.767Z" transform="translate(-352.367 -282.098)"/><path class="d" d="M914.372,724.408l-.853,5.542a54.591,54.591,0,0,0-.557,5.705c-.133,2.784-.6,7.074-2.182,7.754-2.38,1.02-17.827,14.047-6.947,14.727s16.322,1.855,19.545-.647c3.81-2.958-.506-1.619,1.194-1.619s3.74,0,4.42-2.72-1.02-7.48-1.02-7.48V724.408Z" transform="translate(-334.768 -282.005)"/><path class="e" d="M925.685,312.77s5.78,14.279,9.86,16.659,2.04,13.26,2.04,13.26l-10.2,14.279h-8.16l-9.86-17s-.68-11.22-2.72-13.939S925.685,312.77,925.685,312.77Z" transform="translate(-336.455 -175.408)"/><path class="f" d="M925.685,312.77s5.78,14.279,9.86,16.659,2.04,13.26,2.04,13.26l-10.2,14.279h-8.16l-9.86-17s-.68-11.22-2.72-13.939S925.685,312.77,925.685,312.77Z" transform="translate(-336.455 -175.408)"/><path class="c" d="M933.045,352.226l15.3,3.4L959.564,468.5s-6.12,1.02-12.24,9.18-13.6,6.8-17.339,4.76-18.7-7.82-19.039-10.2.68-44.2.68-44.2l-9.52-65.277,4.76-7.14h8.5l6.8,5.78Z" transform="translate(-335.315 -185.626)"/><circle class="e" cx="17.679" cy="17.679" r="17.679" transform="translate(556.931 119.682)"/><path class="g" d="M945.118,344.427s33.319,3.4,36.379,10.54-2.04,38.758-2.04,38.758,12.24,27.539,11.9,34,11.56,50.658-1.36,45.558-8.84-18.359-15.3-8.84-9.18,8.16-9.18,8.16-6.46,10.54-8.5,9.52-3.4-8.84,1.02-12.58,3.74-10.2-4.76-22.439-17.339-76.5-12.239-86.357S945.118,344.427,945.118,344.427Z" transform="translate(-345.008 -183.606)"/><path class="e" d="M852.1,390.939l-5.78,5.44-7.14-4.76,3.061-7.14Z" transform="translate(-217.31 -99.563)"/><path class="g" d="M905.006,352.226s-25.839,9.52-25.839,19.719,15.639,54.738,15.639,54.738,0,11.56-.68,14.279-11.377,26.442-2.04,28.559c5.828,1.321,10.617,4.792,11.05,9.69.514,5.816-3.939,13.158-3.57,14.449.68,2.38,4.76,5.78,4.42,4.08s2.72-26.179,7.48-37.059-2.04-83.977-3.4-93.5A105.211,105.211,0,0,0,905.006,352.226Z" transform="translate(-329.375 -185.626)"/><path class="e" d="M758.432,390.021l6.12,14.62,4.59-9.35-5.27-11.73Z" transform="translate(-196.401 -99.325)"/><path class="c" d="M937.827,327.551s5.582,2.306,8.982,2.306,17.339,7.14,12.58,11.56-11.9,5.44-15.3,11.9-5.1,7.48-5.1,7.48l-6.053-8.131s8.433-9.548,8.093-12.608S937.827,327.551,937.827,327.551Z" transform="translate(-343.299 -179.236)"/><path class="c" d="M905.412,338.582s-4.182,1.612-5.2,4.332-7.48,7.82-4.76,9.18,14.619,6.8,17,7.82,6.815-2.894,6.815-2.894-5.965-3.4-5.965-5.776S905.412,338.582,905.412,338.582Z" transform="translate(-333.42 -182.093)"/><path class="g" d="M884.37,372.413l-8.16,2.04s-11.22,50.318-7.82,62.9,19.379,50.318,19.379,50.318l10.2-11.9s-4.449-27.059-6.984-28.829-.835-5.51-.835-6.53,1.02-.34-1.36-2.72,8.84-15.639,5.78-19.379S884.37,372.413,884.37,372.413Z" transform="translate(-326.418 -190.853)"/><path class="f" d="M991.849,378.555l-4.929-18.529s13.26,9.52,15.979,23.459,13.259,41.818,6.46,54.058-18.7,47.6-22.779,46.918-13.94-9.18-14.28-10.54,17.679-32.639,14.959-35.019-2.04-8.5,0-9.86,4.42-7.82,2.72-7.48-6.8-3.06-5.78-6.8-5.1-28.9-5.1-28.9Z" transform="translate(-353.491 -187.646)"/><path class="g" d="M986.289,356.814l4.76,1.36s13.26,9.52,15.979,23.459,13.259,41.818,6.46,54.058-18.7,47.6-22.779,46.918-13.939-9.18-14.279-10.54,17.679-32.639,14.959-35.019-2.04-8.5,0-9.86,4.42-7.82,2.72-7.48-6.8-3.06-5.78-6.8-5.1-28.9-5.1-28.9Z" transform="translate(-354.56 -186.814)"/><path class="d" d="M917.338,287.5l3.316-1.206s-6.933-6.933-16.579-6.33l2.713-2.713s-6.632-2.411-12.661,3.919c-3.169,3.328-6.836,7.239-9.122,11.646h-3.551l1.482,2.964-5.187,2.964,5.324-.532a14.957,14.957,0,0,0,.5,7.677l1.206,3.316s4.823-9.646,4.823-10.852v3.014s3.316-2.713,3.316-4.522l1.809,2.11.9-3.316,11.153,3.316-1.809-2.713,6.933.9-2.713-3.316s7.837,3.919,8.139,7.235,4.22,7.536,4.22,7.536l1.809-3.014S926.08,292.018,917.338,287.5Z" transform="translate(-329.008 -166.093)"/><ellipse class="e" cx="2.594" cy="4.076" rx="2.594" ry="4.076" transform="translate(585.052 131.165)"/></g></svg>